%FSLAX23Y23*%
%MOIN*%
G70*
G01*
G75*
G04 Layer_Color=65535*
%ADD10C,0.008*%
%ADD11C,0.020*%
%ADD12C,0.010*%
%ADD13C,0.030*%
%ADD14R,0.048X0.048*%
%ADD15R,0.048X0.048*%
%ADD16R,0.071X0.048*%
%ADD17R,0.048X0.071*%
%ADD18R,0.087X0.024*%
%ADD19R,0.038X0.012*%
%ADD20R,0.012X0.038*%
%ADD21R,0.173X0.173*%
%ADD22R,0.060X0.020*%
%ADD23R,0.020X0.060*%
%ADD24R,0.022X0.048*%
%ADD25R,0.016X0.060*%
%ADD26R,0.150X0.082*%
%ADD27R,0.350X0.450*%
%ADD28R,0.083X0.052*%
%ADD29R,0.040X0.044*%
%ADD30R,0.044X0.040*%
%ADD31R,0.024X0.087*%
%ADD32R,0.046X0.021*%
%ADD33R,0.178X0.052*%
%ADD34R,0.154X0.071*%
%ADD35R,0.052X0.178*%
%ADD36R,0.071X0.154*%
%ADD37R,0.056X0.119*%
%ADD38R,0.043X0.042*%
%ADD39R,0.042X0.043*%
%ADD40R,0.060X0.079*%
%ADD41R,0.119X0.056*%
%ADD42R,0.079X0.048*%
%ADD43C,0.040*%
%ADD44C,0.012*%
%ADD45C,0.015*%
%ADD46C,0.006*%
%ADD47O,0.060X0.120*%
%ADD48C,0.054*%
%ADD49C,0.137*%
%ADD50C,0.060*%
%ADD51O,0.102X0.295*%
%ADD52O,0.181X0.059*%
%ADD53O,0.063X0.189*%
%ADD54C,0.066*%
%ADD55C,0.135*%
%ADD56P,0.065X8X22.5*%
%ADD57C,0.230*%
%ADD58C,0.056*%
%ADD59C,0.030*%
%ADD60C,0.040*%
%ADD61C,0.000*%
%ADD62C,0.004*%
%ADD63C,0.005*%
%ADD64R,0.006X0.012*%
%ADD65R,0.006X0.012*%
%ADD66R,0.012X0.012*%
%ADD67R,0.008X0.008*%
%ADD68R,0.098X0.056*%
G36*
X1505Y2568D02*
X1517D01*
Y2561D01*
X1505D01*
Y2540D01*
X1500D01*
X1467Y2563D01*
Y2568D01*
X1500D01*
Y2574D01*
X1505D01*
Y2568D01*
D02*
G37*
G36*
X1727Y2557D02*
X1688D01*
X1688Y2557D01*
X1689Y2557D01*
X1689Y2556D01*
X1689Y2556D01*
X1690Y2555D01*
X1691Y2554D01*
X1692Y2553D01*
X1692Y2551D01*
Y2551D01*
X1692Y2551D01*
X1693Y2551D01*
X1693Y2550D01*
X1694Y2549D01*
X1694Y2548D01*
X1695Y2547D01*
X1695Y2546D01*
X1696Y2545D01*
X1690D01*
Y2545D01*
X1690Y2545D01*
X1689Y2545D01*
X1689Y2546D01*
X1689Y2546D01*
X1689Y2547D01*
X1688Y2548D01*
X1687Y2549D01*
X1686Y2551D01*
X1685Y2552D01*
X1684Y2554D01*
X1684Y2554D01*
X1684Y2554D01*
X1683Y2554D01*
X1683Y2555D01*
X1682Y2556D01*
X1681Y2557D01*
X1680Y2558D01*
X1678Y2559D01*
X1677Y2559D01*
Y2563D01*
X1727D01*
Y2557D01*
D02*
G37*
G36*
X4056Y720D02*
X4056Y720D01*
X4056Y719D01*
X4056Y719D01*
X4056Y719D01*
X4055Y718D01*
X4054Y717D01*
X4053Y716D01*
X4052Y715D01*
X4052Y714D01*
X4051Y714D01*
X4051Y713D01*
X4051D01*
X4051Y713D01*
X4051D01*
X4052Y713D01*
X4052Y713D01*
X4053Y713D01*
X4055Y712D01*
X4056Y712D01*
X4059Y711D01*
X4058Y707D01*
X4057D01*
X4057Y707D01*
X4057Y707D01*
X4057Y707D01*
X4056Y707D01*
X4056Y707D01*
X4055Y708D01*
X4053Y708D01*
X4052Y709D01*
X4051Y709D01*
X4050Y710D01*
Y710D01*
Y710D01*
X4050Y709D01*
Y709D01*
X4050Y708D01*
Y708D01*
X4050Y707D01*
X4050Y705D01*
X4050Y704D01*
X4050Y703D01*
Y702D01*
Y701D01*
X4045D01*
Y702D01*
Y702D01*
X4046Y703D01*
X4046Y704D01*
X4046Y705D01*
X4046Y706D01*
X4046Y708D01*
X4046Y710D01*
X4046D01*
X4046Y710D01*
X4046Y710D01*
X4045Y709D01*
X4044Y709D01*
X4043Y708D01*
X4041Y708D01*
X4040Y707D01*
X4038Y707D01*
X4037Y711D01*
X4037D01*
X4037Y711D01*
X4037Y712D01*
X4037Y712D01*
X4038Y712D01*
X4039Y712D01*
X4041Y713D01*
X4042Y713D01*
X4044Y713D01*
X4045Y713D01*
X4045Y713D01*
X4045Y714D01*
X4044Y714D01*
X4044Y715D01*
X4043Y716D01*
X4042Y717D01*
X4041Y718D01*
X4039Y720D01*
X4043Y723D01*
X4043Y722D01*
X4044Y722D01*
X4044Y722D01*
X4045Y721D01*
X4045Y720D01*
X4046Y718D01*
X4047Y717D01*
X4048Y715D01*
Y715D01*
X4048Y716D01*
X4048Y716D01*
X4048Y716D01*
X4049Y717D01*
X4050Y718D01*
X4050Y719D01*
X4051Y720D01*
X4052Y722D01*
X4052Y723D01*
X4056Y720D01*
D02*
G37*
G36*
X1219Y2557D02*
X1180D01*
X1180Y2557D01*
X1181Y2557D01*
X1181Y2556D01*
X1181Y2556D01*
X1182Y2555D01*
X1183Y2554D01*
X1184Y2553D01*
X1184Y2551D01*
Y2551D01*
X1184Y2551D01*
X1185Y2551D01*
X1185Y2550D01*
X1186Y2549D01*
X1186Y2548D01*
X1187Y2547D01*
X1187Y2546D01*
X1188Y2545D01*
X1182D01*
Y2545D01*
X1182Y2545D01*
X1181Y2545D01*
X1181Y2546D01*
X1181Y2546D01*
X1181Y2547D01*
X1180Y2548D01*
X1179Y2549D01*
X1178Y2551D01*
X1177Y2552D01*
X1176Y2554D01*
X1176Y2554D01*
X1176Y2554D01*
X1175Y2554D01*
X1175Y2555D01*
X1174Y2556D01*
X1173Y2557D01*
X1172Y2558D01*
X1170Y2559D01*
X1169Y2559D01*
Y2563D01*
X1219D01*
Y2557D01*
D02*
G37*
G36*
X2013Y2568D02*
X2025D01*
Y2561D01*
X2013D01*
Y2540D01*
X2008D01*
X1975Y2563D01*
Y2568D01*
X2008D01*
Y2574D01*
X2013D01*
Y2568D01*
D02*
G37*
G36*
X2521D02*
X2533D01*
Y2561D01*
X2521D01*
Y2540D01*
X2516D01*
X2483Y2563D01*
Y2568D01*
X2516D01*
Y2574D01*
X2521D01*
Y2568D01*
D02*
G37*
G36*
X2743Y2557D02*
X2704D01*
X2704Y2557D01*
X2705Y2557D01*
X2705Y2556D01*
X2705Y2556D01*
X2706Y2555D01*
X2707Y2554D01*
X2708Y2553D01*
X2708Y2551D01*
Y2551D01*
X2708Y2551D01*
X2709Y2551D01*
X2709Y2550D01*
X2710Y2549D01*
X2710Y2548D01*
X2711Y2547D01*
X2711Y2546D01*
X2712Y2545D01*
X2706D01*
Y2545D01*
X2706Y2545D01*
X2705Y2545D01*
X2705Y2546D01*
X2705Y2546D01*
X2705Y2547D01*
X2704Y2548D01*
X2703Y2549D01*
X2702Y2551D01*
X2701Y2552D01*
X2700Y2554D01*
X2700Y2554D01*
X2700Y2554D01*
X2699Y2554D01*
X2699Y2555D01*
X2698Y2556D01*
X2697Y2557D01*
X2696Y2558D01*
X2694Y2559D01*
X2693Y2559D01*
Y2563D01*
X2743D01*
Y2557D01*
D02*
G37*
G36*
X2235D02*
X2196D01*
X2196Y2557D01*
X2197Y2557D01*
X2197Y2556D01*
X2197Y2556D01*
X2198Y2555D01*
X2199Y2554D01*
X2200Y2553D01*
X2200Y2551D01*
Y2551D01*
X2200Y2551D01*
X2201Y2551D01*
X2201Y2550D01*
X2202Y2549D01*
X2202Y2548D01*
X2203Y2547D01*
X2203Y2546D01*
X2204Y2545D01*
X2198D01*
Y2545D01*
X2198Y2545D01*
X2197Y2545D01*
X2197Y2546D01*
X2197Y2546D01*
X2197Y2547D01*
X2196Y2548D01*
X2195Y2549D01*
X2194Y2551D01*
X2193Y2552D01*
X2192Y2554D01*
X2192Y2554D01*
X2192Y2554D01*
X2191Y2554D01*
X2191Y2555D01*
X2190Y2556D01*
X2189Y2557D01*
X2188Y2558D01*
X2186Y2559D01*
X2185Y2559D01*
Y2563D01*
X2235D01*
Y2557D01*
D02*
G37*
G36*
X3029Y2568D02*
X3041D01*
Y2561D01*
X3029D01*
Y2540D01*
X3024D01*
X2991Y2563D01*
Y2568D01*
X3024D01*
Y2574D01*
X3029D01*
Y2568D01*
D02*
G37*
%LPC*%
G36*
X3024Y2561D02*
X3001D01*
X3024Y2546D01*
Y2561D01*
D02*
G37*
G36*
X2516D02*
X2493D01*
X2516Y2546D01*
Y2561D01*
D02*
G37*
G36*
X2008D02*
X1985D01*
X2008Y2546D01*
Y2561D01*
D02*
G37*
G36*
X1500D02*
X1477D01*
X1500Y2546D01*
Y2561D01*
D02*
G37*
%LPD*%
D10*
X4340Y1526D02*
G03*
X4390Y1526I25J0D01*
G01*
X4336Y1290D02*
G03*
X4386Y1290I25J0D01*
G01*
X4104Y2217D02*
G03*
X4104Y2267I0J25D01*
G01*
X4290Y1525D02*
X4318D01*
X4440D01*
X4318Y1336D02*
X4440D01*
X4290D02*
X4318D01*
X4440D02*
Y1525D01*
X4290Y1336D02*
Y1525D01*
X4318Y1336D02*
Y1525D01*
X4286Y1289D02*
X4314D01*
X4436D01*
X4314Y1100D02*
X4436D01*
X4286D02*
X4314D01*
X4436D02*
Y1289D01*
X4286Y1100D02*
Y1289D01*
X4314Y1100D02*
Y1289D01*
X1696Y1164D02*
X1712Y1179D01*
X2059D01*
X2074Y1164D01*
Y817D02*
Y1164D01*
X2059Y801D02*
X2074Y817D01*
X1712Y801D02*
X2059D01*
X1696Y817D02*
X1712Y801D01*
X1696Y817D02*
Y1164D01*
X2999Y807D02*
X3401D01*
Y1012D01*
X2999D02*
X3401D01*
X2999Y807D02*
Y1012D01*
X4105Y2167D02*
Y2195D01*
Y2317D01*
X4294Y2195D02*
Y2317D01*
Y2167D02*
Y2195D01*
X4105Y2317D02*
X4294D01*
X4105Y2167D02*
X4294D01*
X4105Y2195D02*
X4294D01*
X379Y2151D02*
Y2291D01*
Y1303D02*
Y1443D01*
X16Y1303D02*
X379D01*
X16D02*
Y1723D01*
Y1872D01*
Y1723D02*
X295D01*
Y1872D01*
X16D02*
X295D01*
X16D02*
Y1973D01*
Y2031D01*
Y2291D01*
X379D01*
D12*
X1740Y1148D02*
G03*
X1740Y1148I-12J0D01*
G01*
X897Y650D02*
G03*
X897Y650I-69J0D01*
G01*
X1791Y130D02*
G03*
X1791Y130I-40J0D01*
G01*
X772Y280D02*
G03*
X496Y280I-138J0D01*
G01*
X2201Y2856D02*
X2214Y2870D01*
X2201Y2611D02*
Y2856D01*
X2518Y2870D02*
X2531Y2856D01*
Y2611D02*
Y2856D01*
X2364Y2946D02*
X2506D01*
X2516Y2926D01*
Y2611D02*
Y2926D01*
X2226Y2946D02*
X2368D01*
X2216Y2926D02*
X2226Y2946D01*
X2216Y2611D02*
Y2926D01*
X2166Y2611D02*
X2216D01*
X2531D01*
X2566D01*
Y2486D02*
Y2611D01*
X2541Y2486D02*
X2566D01*
X2541D02*
Y2511D01*
X2491D02*
X2541D01*
X2491Y2486D02*
Y2511D01*
X2441Y2486D02*
X2491D01*
X2441D02*
Y2511D01*
X2391D02*
X2441D01*
X2391Y2486D02*
Y2511D01*
X2341Y2486D02*
X2391D01*
X2341D02*
Y2511D01*
X2291D02*
X2341D01*
X2291Y2486D02*
Y2511D01*
X2241Y2486D02*
X2291D01*
X2241D02*
Y2511D01*
X2191D02*
X2241D01*
X2191Y2486D02*
Y2511D01*
X2166Y2486D02*
X2191D01*
X2166D02*
Y2611D01*
X1693Y2856D02*
X1706Y2870D01*
X1693Y2611D02*
Y2856D01*
X2010Y2870D02*
X2023Y2856D01*
Y2611D02*
Y2856D01*
X1856Y2946D02*
X1998D01*
X2008Y2926D01*
Y2611D02*
Y2926D01*
X1718Y2946D02*
X1860D01*
X1708Y2926D02*
X1718Y2946D01*
X1708Y2611D02*
Y2926D01*
X1658Y2611D02*
X1708D01*
X2023D01*
X2058D01*
Y2486D02*
Y2611D01*
X2033Y2486D02*
X2058D01*
X2033D02*
Y2511D01*
X1983D02*
X2033D01*
X1983Y2486D02*
Y2511D01*
X1933Y2486D02*
X1983D01*
X1933D02*
Y2511D01*
X1883D02*
X1933D01*
X1883Y2486D02*
Y2511D01*
X1833Y2486D02*
X1883D01*
X1833D02*
Y2511D01*
X1783D02*
X1833D01*
X1783Y2486D02*
Y2511D01*
X1733Y2486D02*
X1783D01*
X1733D02*
Y2511D01*
X1683D02*
X1733D01*
X1683Y2486D02*
Y2511D01*
X1658Y2486D02*
X1683D01*
X1658D02*
Y2611D01*
X3973Y181D02*
Y339D01*
X3736D02*
X3973D01*
X3736Y181D02*
Y339D01*
Y181D02*
X3973D01*
X1403Y1126D02*
X1561D01*
X1403Y889D02*
Y1126D01*
Y889D02*
X1561D01*
Y1126D01*
X1185Y2856D02*
X1198Y2870D01*
X1185Y2611D02*
Y2856D01*
X1502Y2870D02*
X1515Y2856D01*
Y2611D02*
Y2856D01*
X1348Y2946D02*
X1490D01*
X1500Y2926D01*
Y2611D02*
Y2926D01*
X1210Y2946D02*
X1352D01*
X1200Y2926D02*
X1210Y2946D01*
X1200Y2611D02*
Y2926D01*
X1150Y2611D02*
X1200D01*
X1515D01*
X1550D01*
Y2486D02*
Y2611D01*
X1525Y2486D02*
X1550D01*
X1525D02*
Y2511D01*
X1475D02*
X1525D01*
X1475Y2486D02*
Y2511D01*
X1425Y2486D02*
X1475D01*
X1425D02*
Y2511D01*
X1375D02*
X1425D01*
X1375Y2486D02*
Y2511D01*
X1325Y2486D02*
X1375D01*
X1325D02*
Y2511D01*
X1275D02*
X1325D01*
X1275Y2486D02*
Y2511D01*
X1225Y2486D02*
X1275D01*
X1225D02*
Y2511D01*
X1175D02*
X1225D01*
X1175Y2486D02*
Y2511D01*
X1150Y2486D02*
X1175D01*
X1150D02*
Y2611D01*
X2314Y89D02*
Y493D01*
X2384D01*
X2314Y89D02*
X2384D01*
X946Y532D02*
Y769D01*
X709D02*
X946D01*
X709Y532D02*
Y769D01*
Y532D02*
X946D01*
X1215Y50D02*
X1945D01*
X1215Y550D02*
X1945D01*
Y50D02*
Y550D01*
X1215Y50D02*
Y550D01*
X1379Y130D02*
X1459D01*
X461Y280D02*
X496D01*
X772D02*
X808D01*
X461Y52D02*
Y202D01*
Y402D02*
Y478D01*
X808D01*
X461Y52D02*
X808D01*
Y280D01*
Y478D01*
X2924Y60D02*
X3394D01*
Y505D01*
X2924D02*
X3394D01*
X2924Y60D02*
Y505D01*
X4621Y2720D02*
X4700D01*
X4621Y2622D02*
Y2720D01*
Y2129D02*
X4700D01*
X4621D02*
Y2228D01*
X4897Y2228D02*
Y2622D01*
X4621Y2070D02*
X4700D01*
X4621Y1972D02*
Y2070D01*
Y1479D02*
X4700D01*
X4621D02*
Y1578D01*
X4897Y1578D02*
Y1972D01*
X3520Y2660D02*
Y2739D01*
Y2660D02*
X3618D01*
X4111D02*
Y2739D01*
X4012Y2660D02*
X4111D01*
X3618Y2936D02*
X4012D01*
X3447Y2483D02*
Y2936D01*
X3155Y2483D02*
Y2936D01*
X3447D01*
X3194Y2661D02*
X3408D01*
X3194Y2483D02*
Y2661D01*
X3408Y2483D02*
Y2661D01*
X3155Y2483D02*
X3194D01*
X3408D02*
X3447D01*
X455Y2660D02*
Y2739D01*
Y2660D02*
X553D01*
X1046D02*
Y2739D01*
X947Y2660D02*
X1046D01*
X553Y2936D02*
X947D01*
X2709Y2856D02*
X2722Y2870D01*
X2709Y2611D02*
Y2856D01*
X3026Y2870D02*
X3039Y2856D01*
Y2611D02*
Y2856D01*
X2872Y2946D02*
X3014D01*
X3024Y2926D01*
Y2611D02*
Y2926D01*
X2734Y2946D02*
X2876D01*
X2724Y2926D02*
X2734Y2946D01*
X2724Y2611D02*
Y2926D01*
X2674Y2611D02*
X2724D01*
X3039D01*
X3074D01*
Y2486D02*
Y2611D01*
X3049Y2486D02*
X3074D01*
X3049D02*
Y2511D01*
X2999D02*
X3049D01*
X2999Y2486D02*
Y2511D01*
X2949Y2486D02*
X2999D01*
X2949D02*
Y2511D01*
X2899D02*
X2949D01*
X2899Y2486D02*
Y2511D01*
X2849Y2486D02*
X2899D01*
X2849D02*
Y2511D01*
X2799D02*
X2849D01*
X2799Y2486D02*
Y2511D01*
X2749Y2486D02*
X2799D01*
X2749D02*
Y2511D01*
X2699D02*
X2749D01*
X2699Y2486D02*
Y2511D01*
X2674Y2486D02*
X2699D01*
X2674D02*
Y2611D01*
X218Y534D02*
X297D01*
Y632D01*
X218Y1125D02*
X297D01*
Y1026D02*
Y1125D01*
X21Y632D02*
Y1026D01*
X3631Y95D02*
Y53D01*
X3652D01*
X3659Y60D01*
Y67D01*
X3652Y74D01*
X3631D01*
X3652D01*
X3659Y81D01*
Y88D01*
X3652Y95D01*
X3631D01*
X3673Y53D02*
X3688D01*
X3681D01*
Y95D01*
X3673D01*
X3716Y81D02*
X3730D01*
X3737Y74D01*
Y53D01*
X3716D01*
X3709Y60D01*
X3716Y67D01*
X3737D01*
X3780Y81D02*
X3758D01*
X3751Y74D01*
Y60D01*
X3758Y53D01*
X3780D01*
X3794D02*
Y95D01*
Y67D02*
X3815Y81D01*
X3794Y67D02*
X3815Y53D01*
X3836D02*
X3858D01*
X3865Y60D01*
X3858Y67D01*
X3843D01*
X3836Y74D01*
X3843Y81D01*
X3865D01*
X3879Y53D02*
Y81D01*
X3886D01*
X3893Y74D01*
Y53D01*
Y74D01*
X3900Y81D01*
X3907Y74D01*
Y53D01*
X3921D02*
X3935D01*
X3928D01*
Y81D01*
X3921D01*
X3964Y88D02*
Y81D01*
X3957D01*
X3971D01*
X3964D01*
Y60D01*
X3971Y53D01*
X3992Y95D02*
Y53D01*
Y74D01*
X3999Y81D01*
X4013D01*
X4020Y74D01*
Y53D01*
X4105Y88D02*
X4098Y95D01*
X4084D01*
X4077Y88D01*
Y60D01*
X4084Y53D01*
X4098D01*
X4105Y60D01*
Y74D01*
X4091D01*
X4120Y81D02*
Y53D01*
Y67D01*
X4127Y74D01*
X4134Y81D01*
X4141D01*
X4169Y53D02*
X4183D01*
X4190Y60D01*
Y74D01*
X4183Y81D01*
X4169D01*
X4162Y74D01*
Y60D01*
X4169Y53D01*
X4205Y81D02*
Y60D01*
X4212Y53D01*
X4233D01*
Y81D01*
X4247Y39D02*
Y81D01*
X4268D01*
X4275Y74D01*
Y60D01*
X4268Y53D01*
X4247D01*
X4297Y46D02*
X4304Y53D01*
Y60D01*
X4297D01*
Y53D01*
X4304D01*
X4297Y46D01*
X4290Y39D01*
X4403Y53D02*
X4375D01*
X4403Y81D01*
Y88D01*
X4396Y95D01*
X4382D01*
X4375Y88D01*
X4417D02*
X4424Y95D01*
X4438D01*
X4445Y88D01*
Y60D01*
X4438Y53D01*
X4424D01*
X4417Y60D01*
Y88D01*
X4459Y53D02*
X4474D01*
X4467D01*
Y95D01*
X4459Y88D01*
X4516Y53D02*
Y95D01*
X4495Y74D01*
X4523D01*
X511Y2377D02*
X501Y2387D01*
X481D01*
X471Y2377D01*
Y2367D01*
X481Y2357D01*
X501D01*
X511Y2347D01*
Y2337D01*
X501Y2327D01*
X481D01*
X471Y2337D01*
X531Y2327D02*
Y2367D01*
X541D01*
X551Y2357D01*
Y2327D01*
Y2357D01*
X561Y2367D01*
X571Y2357D01*
Y2327D01*
X591D02*
X611D01*
X601D01*
Y2367D01*
X591D01*
X651Y2377D02*
Y2367D01*
X641D01*
X661D01*
X651D01*
Y2337D01*
X661Y2327D01*
X691Y2387D02*
Y2327D01*
Y2357D01*
X701Y2367D01*
X721D01*
X731Y2357D01*
Y2327D01*
X751Y2387D02*
Y2327D01*
X781D01*
X791Y2337D01*
Y2347D01*
X781Y2357D01*
X751D01*
X781D01*
X791Y2367D01*
Y2377D01*
X781Y2387D01*
X751D01*
X821Y2327D02*
X841D01*
X851Y2337D01*
Y2357D01*
X841Y2367D01*
X821D01*
X811Y2357D01*
Y2337D01*
X821Y2327D01*
X881Y2367D02*
X901D01*
X911Y2357D01*
Y2327D01*
X881D01*
X871Y2337D01*
X881Y2347D01*
X911D01*
X931Y2367D02*
Y2327D01*
Y2347D01*
X941Y2357D01*
X951Y2367D01*
X961D01*
X1031Y2387D02*
Y2327D01*
X1001D01*
X991Y2337D01*
Y2357D01*
X1001Y2367D01*
X1031D01*
X601Y2227D02*
Y2287D01*
X631D01*
X641Y2277D01*
Y2257D01*
X631Y2247D01*
X601D01*
X621D02*
X641Y2227D01*
X701Y2287D02*
X661D01*
Y2227D01*
X701D01*
X661Y2257D02*
X681D01*
X721Y2287D02*
Y2247D01*
X741Y2227D01*
X761Y2247D01*
Y2287D01*
X841D02*
Y2227D01*
X871D01*
X881Y2237D01*
Y2247D01*
X871Y2257D01*
X841D01*
X871D01*
X881Y2267D01*
Y2277D01*
X871Y2287D01*
X841D01*
D46*
X3525Y2307D02*
G03*
X3505Y2298I-8J-9D01*
G01*
X3821Y696D02*
Y718D01*
Y936D02*
X3843D01*
X4039Y696D02*
X4061D01*
X4039Y936D02*
X4061D01*
X3821Y914D02*
Y936D01*
Y696D02*
X3843D01*
X4061D02*
Y718D01*
Y914D02*
Y936D01*
X748Y1076D02*
X752D01*
X857D02*
X860D01*
X857Y1014D02*
X860D01*
X748D02*
X752D01*
X821D02*
X825D01*
X783D02*
X787D01*
X783Y1076D02*
X825D01*
X748Y1014D02*
Y1076D01*
X860Y1014D02*
Y1076D01*
X2493Y1892D02*
X2543D01*
X2468Y1917D02*
X2493Y1892D01*
X2468Y1917D02*
Y1967D01*
X2493Y1992D01*
X2643Y1892D02*
X2668Y1917D01*
X2593Y1892D02*
X2643D01*
X2568Y1917D02*
X2593Y1892D01*
X2568Y1917D02*
Y1967D01*
X2593Y1992D01*
X2643D01*
X2668Y1967D01*
X2543Y1892D02*
X2568Y1917D01*
X2543Y1992D02*
X2568Y1967D01*
X2493Y1992D02*
X2543D01*
X2793Y1892D02*
X2843D01*
X2768Y1917D02*
X2793Y1892D01*
X2768Y1917D02*
Y1967D01*
X2793Y1992D01*
X2743Y1892D02*
X2768Y1917D01*
X2693Y1892D02*
X2743D01*
X2668Y1917D02*
X2693Y1892D01*
X2668Y1917D02*
Y1967D01*
X2693Y1992D01*
X2743D01*
X2768Y1967D01*
X2943Y1892D02*
X2968Y1917D01*
X2893Y1892D02*
X2943D01*
X2868Y1917D02*
X2893Y1892D01*
X2868Y1917D02*
Y1967D01*
X2893Y1992D01*
X2943D01*
X2968Y1967D01*
X2843Y1892D02*
X2868Y1917D01*
X2843Y1992D02*
X2868Y1967D01*
X2793Y1992D02*
X2843D01*
X3093Y1892D02*
X3143D01*
X3068Y1917D02*
X3093Y1892D01*
X3068Y1917D02*
Y1967D01*
X3093Y1992D01*
X3043Y1892D02*
X3068Y1917D01*
X2993Y1892D02*
X3043D01*
X2968Y1917D02*
X2993Y1892D01*
X2968Y1917D02*
Y1967D01*
X2993Y1992D01*
X3043D01*
X3068Y1967D01*
X3168Y1917D02*
Y1967D01*
X3143Y1892D02*
X3168Y1917D01*
X3143Y1992D02*
X3168Y1967D01*
X3093Y1992D02*
X3143D01*
X2393Y1892D02*
X2443D01*
X2368Y1917D02*
X2393Y1892D01*
X2368Y1917D02*
Y1967D01*
X2393Y1992D01*
X2443Y1892D02*
X2468Y1917D01*
X2443Y1992D02*
X2468Y1967D01*
X2393Y1992D02*
X2443D01*
X2993Y1492D02*
X3043D01*
X3068Y1467D01*
Y1417D02*
Y1467D01*
X3043Y1392D02*
X3068Y1417D01*
X2868Y1467D02*
X2893Y1492D01*
X2943D01*
X2968Y1467D01*
Y1417D02*
Y1467D01*
X2943Y1392D02*
X2968Y1417D01*
X2893Y1392D02*
X2943D01*
X2868Y1417D02*
X2893Y1392D01*
X2968Y1467D02*
X2993Y1492D01*
X2968Y1417D02*
X2993Y1392D01*
X3043D01*
X2693Y1492D02*
X2743D01*
X2768Y1467D01*
Y1417D02*
Y1467D01*
X2743Y1392D02*
X2768Y1417D01*
Y1467D02*
X2793Y1492D01*
X2843D01*
X2868Y1467D01*
Y1417D02*
Y1467D01*
X2843Y1392D02*
X2868Y1417D01*
X2793Y1392D02*
X2843D01*
X2768Y1417D02*
X2793Y1392D01*
X2568Y1467D02*
X2593Y1492D01*
X2643D01*
X2668Y1467D01*
Y1417D02*
Y1467D01*
X2643Y1392D02*
X2668Y1417D01*
X2593Y1392D02*
X2643D01*
X2568Y1417D02*
X2593Y1392D01*
X2668Y1467D02*
X2693Y1492D01*
X2668Y1417D02*
X2693Y1392D01*
X2743D01*
X2393Y1492D02*
X2443D01*
X2468Y1467D01*
Y1417D02*
Y1467D01*
X2443Y1392D02*
X2468Y1417D01*
Y1467D02*
X2493Y1492D01*
X2543D01*
X2568Y1467D01*
Y1417D02*
Y1467D01*
X2543Y1392D02*
X2568Y1417D01*
X2493Y1392D02*
X2543D01*
X2468Y1417D02*
X2493Y1392D01*
X2368Y1417D02*
Y1467D01*
X2393Y1492D01*
X2368Y1417D02*
X2393Y1392D01*
X2443D01*
X3093Y1492D02*
X3143D01*
X3168Y1467D01*
Y1417D02*
Y1467D01*
X3143Y1392D02*
X3168Y1417D01*
X3068Y1467D02*
X3093Y1492D01*
X3068Y1417D02*
X3093Y1392D01*
X3143D01*
X1605Y1892D02*
X1655D01*
X1580Y1917D02*
X1605Y1892D01*
X1580Y1917D02*
Y1967D01*
X1605Y1992D01*
X1755Y1892D02*
X1780Y1917D01*
X1705Y1892D02*
X1755D01*
X1680Y1917D02*
X1705Y1892D01*
X1680Y1917D02*
Y1967D01*
X1705Y1992D01*
X1755D01*
X1780Y1967D01*
X1655Y1892D02*
X1680Y1917D01*
X1655Y1992D02*
X1680Y1967D01*
X1605Y1992D02*
X1655D01*
X1905Y1892D02*
X1955D01*
X1880Y1917D02*
X1905Y1892D01*
X1880Y1917D02*
Y1967D01*
X1905Y1992D01*
X1855Y1892D02*
X1880Y1917D01*
X1805Y1892D02*
X1855D01*
X1780Y1917D02*
X1805Y1892D01*
X1780Y1917D02*
Y1967D01*
X1805Y1992D01*
X1855D01*
X1880Y1967D01*
X2055Y1892D02*
X2080Y1917D01*
X2005Y1892D02*
X2055D01*
X1980Y1917D02*
X2005Y1892D01*
X1980Y1917D02*
Y1967D01*
X2005Y1992D01*
X2055D01*
X2080Y1967D01*
X1955Y1892D02*
X1980Y1917D01*
X1955Y1992D02*
X1980Y1967D01*
X1905Y1992D02*
X1955D01*
X2205Y1892D02*
X2255D01*
X2180Y1917D02*
X2205Y1892D01*
X2180Y1917D02*
Y1967D01*
X2205Y1992D01*
X2155Y1892D02*
X2180Y1917D01*
X2105Y1892D02*
X2155D01*
X2080Y1917D02*
X2105Y1892D01*
X2080Y1917D02*
Y1967D01*
X2105Y1992D01*
X2155D01*
X2180Y1967D01*
X2280Y1917D02*
Y1967D01*
X2255Y1892D02*
X2280Y1917D01*
X2255Y1992D02*
X2280Y1967D01*
X2205Y1992D02*
X2255D01*
X1505Y1892D02*
X1555D01*
X1480Y1917D02*
X1505Y1892D01*
X1480Y1917D02*
Y1967D01*
X1505Y1992D01*
X1555Y1892D02*
X1580Y1917D01*
X1555Y1992D02*
X1580Y1967D01*
X1505Y1992D02*
X1555D01*
X2105Y1492D02*
X2155D01*
X2180Y1467D01*
Y1417D02*
Y1467D01*
X2155Y1392D02*
X2180Y1417D01*
X1980Y1467D02*
X2005Y1492D01*
X2055D01*
X2080Y1467D01*
Y1417D02*
Y1467D01*
X2055Y1392D02*
X2080Y1417D01*
X2005Y1392D02*
X2055D01*
X1980Y1417D02*
X2005Y1392D01*
X2080Y1467D02*
X2105Y1492D01*
X2080Y1417D02*
X2105Y1392D01*
X2155D01*
X1805Y1492D02*
X1855D01*
X1880Y1467D01*
Y1417D02*
Y1467D01*
X1855Y1392D02*
X1880Y1417D01*
Y1467D02*
X1905Y1492D01*
X1955D01*
X1980Y1467D01*
Y1417D02*
Y1467D01*
X1955Y1392D02*
X1980Y1417D01*
X1905Y1392D02*
X1955D01*
X1880Y1417D02*
X1905Y1392D01*
X1680Y1467D02*
X1705Y1492D01*
X1755D01*
X1780Y1467D01*
Y1417D02*
Y1467D01*
X1755Y1392D02*
X1780Y1417D01*
X1705Y1392D02*
X1755D01*
X1680Y1417D02*
X1705Y1392D01*
X1780Y1467D02*
X1805Y1492D01*
X1780Y1417D02*
X1805Y1392D01*
X1855D01*
X1505Y1492D02*
X1555D01*
X1580Y1467D01*
Y1417D02*
Y1467D01*
X1555Y1392D02*
X1580Y1417D01*
Y1467D02*
X1605Y1492D01*
X1655D01*
X1680Y1467D01*
Y1417D02*
Y1467D01*
X1655Y1392D02*
X1680Y1417D01*
X1605Y1392D02*
X1655D01*
X1580Y1417D02*
X1605Y1392D01*
X1480Y1417D02*
Y1467D01*
X1505Y1492D01*
X1480Y1417D02*
X1505Y1392D01*
X1555D01*
X2205Y1492D02*
X2255D01*
X2280Y1467D01*
Y1417D02*
Y1467D01*
X2255Y1392D02*
X2280Y1417D01*
X2180Y1467D02*
X2205Y1492D01*
X2180Y1417D02*
X2205Y1392D01*
X2255D01*
X716Y1894D02*
X766D01*
X691Y1919D02*
X716Y1894D01*
X691Y1919D02*
Y1969D01*
X716Y1994D01*
X866Y1894D02*
X891Y1919D01*
X816Y1894D02*
X866D01*
X791Y1919D02*
X816Y1894D01*
X791Y1919D02*
Y1969D01*
X816Y1994D01*
X866D01*
X891Y1969D01*
X766Y1894D02*
X791Y1919D01*
X766Y1994D02*
X791Y1969D01*
X716Y1994D02*
X766D01*
X1016Y1894D02*
X1066D01*
X991Y1919D02*
X1016Y1894D01*
X991Y1919D02*
Y1969D01*
X1016Y1994D01*
X966Y1894D02*
X991Y1919D01*
X916Y1894D02*
X966D01*
X891Y1919D02*
X916Y1894D01*
X891Y1919D02*
Y1969D01*
X916Y1994D01*
X966D01*
X991Y1969D01*
X1166Y1894D02*
X1191Y1919D01*
X1116Y1894D02*
X1166D01*
X1091Y1919D02*
X1116Y1894D01*
X1091Y1919D02*
Y1969D01*
X1116Y1994D01*
X1166D01*
X1191Y1969D01*
X1066Y1894D02*
X1091Y1919D01*
X1066Y1994D02*
X1091Y1969D01*
X1016Y1994D02*
X1066D01*
X1316Y1894D02*
X1366D01*
X1291Y1919D02*
X1316Y1894D01*
X1291Y1919D02*
Y1969D01*
X1316Y1994D01*
X1266Y1894D02*
X1291Y1919D01*
X1216Y1894D02*
X1266D01*
X1191Y1919D02*
X1216Y1894D01*
X1191Y1919D02*
Y1969D01*
X1216Y1994D01*
X1266D01*
X1291Y1969D01*
X1391Y1919D02*
Y1969D01*
X1366Y1894D02*
X1391Y1919D01*
X1366Y1994D02*
X1391Y1969D01*
X1316Y1994D02*
X1366D01*
X616Y1894D02*
X666D01*
X591Y1919D02*
X616Y1894D01*
X591Y1919D02*
Y1969D01*
X616Y1994D01*
X666Y1894D02*
X691Y1919D01*
X666Y1994D02*
X691Y1969D01*
X616Y1994D02*
X666D01*
X1216Y1494D02*
X1266D01*
X1291Y1469D01*
Y1419D02*
Y1469D01*
X1266Y1394D02*
X1291Y1419D01*
X1091Y1469D02*
X1116Y1494D01*
X1166D01*
X1191Y1469D01*
Y1419D02*
Y1469D01*
X1166Y1394D02*
X1191Y1419D01*
X1116Y1394D02*
X1166D01*
X1091Y1419D02*
X1116Y1394D01*
X1191Y1469D02*
X1216Y1494D01*
X1191Y1419D02*
X1216Y1394D01*
X1266D01*
X916Y1494D02*
X966D01*
X991Y1469D01*
Y1419D02*
Y1469D01*
X966Y1394D02*
X991Y1419D01*
Y1469D02*
X1016Y1494D01*
X1066D01*
X1091Y1469D01*
Y1419D02*
Y1469D01*
X1066Y1394D02*
X1091Y1419D01*
X1016Y1394D02*
X1066D01*
X991Y1419D02*
X1016Y1394D01*
X791Y1469D02*
X816Y1494D01*
X866D01*
X891Y1469D01*
Y1419D02*
Y1469D01*
X866Y1394D02*
X891Y1419D01*
X816Y1394D02*
X866D01*
X791Y1419D02*
X816Y1394D01*
X891Y1469D02*
X916Y1494D01*
X891Y1419D02*
X916Y1394D01*
X966D01*
X616Y1494D02*
X666D01*
X691Y1469D01*
Y1419D02*
Y1469D01*
X666Y1394D02*
X691Y1419D01*
Y1469D02*
X716Y1494D01*
X766D01*
X791Y1469D01*
Y1419D02*
Y1469D01*
X766Y1394D02*
X791Y1419D01*
X716Y1394D02*
X766D01*
X691Y1419D02*
X716Y1394D01*
X591Y1419D02*
Y1469D01*
X616Y1494D01*
X591Y1419D02*
X616Y1394D01*
X666D01*
X1316Y1494D02*
X1366D01*
X1391Y1469D01*
Y1419D02*
Y1469D01*
X1366Y1394D02*
X1391Y1419D01*
X1291Y1469D02*
X1316Y1494D01*
X1291Y1419D02*
X1316Y1394D01*
X1366D01*
X3381Y1892D02*
X3431D01*
X3356Y1917D02*
X3381Y1892D01*
X3356Y1917D02*
Y1967D01*
X3381Y1992D01*
X3531Y1892D02*
X3556Y1917D01*
X3481Y1892D02*
X3531D01*
X3456Y1917D02*
X3481Y1892D01*
X3456Y1917D02*
Y1967D01*
X3481Y1992D01*
X3531D01*
X3556Y1967D01*
X3431Y1892D02*
X3456Y1917D01*
X3431Y1992D02*
X3456Y1967D01*
X3381Y1992D02*
X3431D01*
X3681Y1892D02*
X3731D01*
X3656Y1917D02*
X3681Y1892D01*
X3656Y1917D02*
Y1967D01*
X3681Y1992D01*
X3631Y1892D02*
X3656Y1917D01*
X3581Y1892D02*
X3631D01*
X3556Y1917D02*
X3581Y1892D01*
X3556Y1917D02*
Y1967D01*
X3581Y1992D01*
X3631D01*
X3656Y1967D01*
X3831Y1892D02*
X3856Y1917D01*
X3781Y1892D02*
X3831D01*
X3756Y1917D02*
X3781Y1892D01*
X3756Y1917D02*
Y1967D01*
X3781Y1992D01*
X3831D01*
X3856Y1967D01*
X3731Y1892D02*
X3756Y1917D01*
X3731Y1992D02*
X3756Y1967D01*
X3681Y1992D02*
X3731D01*
X3981Y1892D02*
X4031D01*
X3956Y1917D02*
X3981Y1892D01*
X3956Y1917D02*
Y1967D01*
X3981Y1992D01*
X3931Y1892D02*
X3956Y1917D01*
X3881Y1892D02*
X3931D01*
X3856Y1917D02*
X3881Y1892D01*
X3856Y1917D02*
Y1967D01*
X3881Y1992D01*
X3931D01*
X3956Y1967D01*
X4056Y1917D02*
Y1967D01*
X4031Y1892D02*
X4056Y1917D01*
X4031Y1992D02*
X4056Y1967D01*
X3981Y1992D02*
X4031D01*
X3281Y1892D02*
X3331D01*
X3256Y1917D02*
X3281Y1892D01*
X3256Y1917D02*
Y1967D01*
X3281Y1992D01*
X3331Y1892D02*
X3356Y1917D01*
X3331Y1992D02*
X3356Y1967D01*
X3281Y1992D02*
X3331D01*
X3881Y1492D02*
X3931D01*
X3956Y1467D01*
Y1417D02*
Y1467D01*
X3931Y1392D02*
X3956Y1417D01*
X3756Y1467D02*
X3781Y1492D01*
X3831D01*
X3856Y1467D01*
Y1417D02*
Y1467D01*
X3831Y1392D02*
X3856Y1417D01*
X3781Y1392D02*
X3831D01*
X3756Y1417D02*
X3781Y1392D01*
X3856Y1467D02*
X3881Y1492D01*
X3856Y1417D02*
X3881Y1392D01*
X3931D01*
X3581Y1492D02*
X3631D01*
X3656Y1467D01*
Y1417D02*
Y1467D01*
X3631Y1392D02*
X3656Y1417D01*
Y1467D02*
X3681Y1492D01*
X3731D01*
X3756Y1467D01*
Y1417D02*
Y1467D01*
X3731Y1392D02*
X3756Y1417D01*
X3681Y1392D02*
X3731D01*
X3656Y1417D02*
X3681Y1392D01*
X3456Y1467D02*
X3481Y1492D01*
X3531D01*
X3556Y1467D01*
Y1417D02*
Y1467D01*
X3531Y1392D02*
X3556Y1417D01*
X3481Y1392D02*
X3531D01*
X3456Y1417D02*
X3481Y1392D01*
X3556Y1467D02*
X3581Y1492D01*
X3556Y1417D02*
X3581Y1392D01*
X3631D01*
X3281Y1492D02*
X3331D01*
X3356Y1467D01*
Y1417D02*
Y1467D01*
X3331Y1392D02*
X3356Y1417D01*
Y1467D02*
X3381Y1492D01*
X3431D01*
X3456Y1467D01*
Y1417D02*
Y1467D01*
X3431Y1392D02*
X3456Y1417D01*
X3381Y1392D02*
X3431D01*
X3356Y1417D02*
X3381Y1392D01*
X3256Y1417D02*
Y1467D01*
X3281Y1492D01*
X3256Y1417D02*
X3281Y1392D01*
X3331D01*
X3981Y1492D02*
X4031D01*
X4056Y1467D01*
Y1417D02*
Y1467D01*
X4031Y1392D02*
X4056Y1417D01*
X3956Y1467D02*
X3981Y1492D01*
X3956Y1417D02*
X3981Y1392D01*
X4031D01*
X3489Y2298D02*
Y2333D01*
Y2416D02*
X3531D01*
X3489Y2381D02*
Y2416D01*
Y2298D02*
X3505D01*
X3531D01*
X3545Y2343D02*
Y2371D01*
X2615Y940D02*
X2665D01*
X2690Y965D02*
Y1115D01*
X2665Y1140D02*
X2690Y1115D01*
X2615Y1140D02*
X2665D01*
X2590Y1115D02*
X2615Y1140D01*
X2665Y940D02*
X2690Y965D01*
X2590D02*
X2615Y940D01*
X2415D02*
X2465D01*
X2515D02*
X2565D01*
X2590Y965D02*
Y1115D01*
X2490Y965D02*
Y1115D01*
X2565Y1140D02*
X2590Y1115D01*
X2515Y1140D02*
X2565D01*
X2490Y1115D02*
X2515Y1140D01*
X2465D02*
X2490Y1115D01*
X2415Y1140D02*
X2465D01*
X2390Y1115D02*
X2415Y1140D01*
X2390Y965D02*
Y1115D01*
X2565Y940D02*
X2590Y965D01*
X2490D02*
X2515Y940D01*
X2465D02*
X2490Y965D01*
X2390D02*
X2415Y940D01*
X960Y437D02*
X960Y437D01*
X960Y362D02*
Y437D01*
X960Y437D02*
X1060D01*
Y362D02*
Y437D01*
X960Y139D02*
Y212D01*
Y362D01*
X1060Y262D02*
Y362D01*
X962Y137D02*
X1058D01*
X960Y139D02*
X962Y137D01*
X1058D02*
X1060Y139D01*
Y262D01*
X79Y2953D02*
G03*
X0Y2875I-1J-79D01*
G01*
X4922D02*
G03*
X4843Y2953I-79J-1D01*
G01*
Y0D02*
G03*
X4922Y79I0J79D01*
G01*
X0D02*
G03*
X79Y0I79J0D01*
G01*
Y2953D02*
X4843D01*
X4922Y79D02*
Y2875D01*
X79Y0D02*
X4843D01*
X0Y79D02*
Y2875D01*
D61*
X3053Y845D02*
G03*
X3053Y845I-18J0D01*
G01*
X674Y300D02*
G03*
X674Y300I-40J0D01*
G01*
D62*
X4375Y652D02*
G03*
X4375Y419I38J-117D01*
G01*
X4450D02*
G03*
X4450Y652I-38J117D01*
G01*
X4450Y767D02*
G03*
X4450Y1000I-38J117D01*
G01*
X4375D02*
G03*
X4375Y767I38J-117D01*
G01*
X3776Y2115D02*
G03*
X4009Y2115I117J38D01*
G01*
Y2190D02*
G03*
X3776Y2190I-117J-38D01*
G01*
X2888Y2115D02*
G03*
X3121Y2115I117J38D01*
G01*
Y2190D02*
G03*
X2888Y2190I-117J-38D01*
G01*
X2000Y2115D02*
G03*
X2233Y2115I117J38D01*
G01*
Y2190D02*
G03*
X2000Y2190I-117J-38D01*
G01*
X1112Y2115D02*
G03*
X1345Y2115I117J38D01*
G01*
Y2190D02*
G03*
X1112Y2190I-117J-38D01*
G01*
X2763Y876D02*
G03*
X2763Y643I38J-117D01*
G01*
X2838D02*
G03*
X2838Y876I-38J117D01*
G01*
X2343D02*
G03*
X2343Y643I38J-117D01*
G01*
X2418D02*
G03*
X2418Y876I-38J117D01*
G01*
X4284Y664D02*
X4375D01*
X4284Y474D02*
Y664D01*
Y474D02*
X4351Y408D01*
X4375D01*
X4450D02*
X4474D01*
X4540Y474D01*
Y664D01*
X4450D02*
X4540D01*
X4450Y755D02*
X4541D01*
Y945D01*
X4474Y1011D02*
X4541Y945D01*
X4450Y1011D02*
X4474D01*
X4351D02*
X4375D01*
X4285Y945D02*
X4351Y1011D01*
X4285Y755D02*
Y945D01*
Y755D02*
X4375D01*
X3764Y2024D02*
Y2115D01*
Y2024D02*
X3954D01*
X4020Y2091D01*
Y2115D01*
Y2190D02*
Y2214D01*
X3954Y2280D02*
X4020Y2214D01*
X3764Y2280D02*
X3954D01*
X3764Y2190D02*
Y2280D01*
X2876Y2024D02*
Y2115D01*
Y2024D02*
X3066D01*
X3132Y2091D01*
Y2115D01*
Y2190D02*
Y2214D01*
X3066Y2280D02*
X3132Y2214D01*
X2876Y2280D02*
X3066D01*
X2876Y2190D02*
Y2280D01*
X1988Y2024D02*
Y2115D01*
Y2024D02*
X2178D01*
X2244Y2091D01*
Y2115D01*
Y2190D02*
Y2214D01*
X2178Y2280D02*
X2244Y2214D01*
X1988Y2280D02*
X2178D01*
X1988Y2190D02*
Y2280D01*
X1100Y2024D02*
Y2115D01*
Y2024D02*
X1290D01*
X1356Y2091D01*
Y2115D01*
Y2190D02*
Y2214D01*
X1290Y2280D02*
X1356Y2214D01*
X1100Y2280D02*
X1290D01*
X1100Y2190D02*
Y2280D01*
X2672Y888D02*
X2763D01*
X2672Y698D02*
Y888D01*
Y698D02*
X2739Y632D01*
X2763D01*
X2838D02*
X2862D01*
X2928Y698D01*
Y888D01*
X2838D02*
X2928D01*
X2252D02*
X2343D01*
X2252Y698D02*
Y888D01*
Y698D02*
X2319Y632D01*
X2343D01*
X2418D02*
X2442D01*
X2508Y698D01*
Y888D01*
X2418D02*
X2508D01*
D63*
X3934Y260D02*
Y280D01*
X3870Y260D02*
X3934D01*
X3776Y240D02*
Y260D01*
X3840D01*
Y285D01*
Y235D02*
Y260D01*
X3850Y245D02*
X3860D01*
X3850D02*
Y275D01*
X3860D01*
Y245D02*
Y275D01*
X3870Y260D02*
Y285D01*
Y235D02*
Y260D01*
X1462Y1087D02*
X1482D01*
Y1023D02*
Y1087D01*
Y929D02*
X1502D01*
X1482D02*
Y993D01*
X1457D02*
X1482D01*
X1507D01*
X1497Y1003D02*
Y1013D01*
X1467Y1003D02*
X1497D01*
X1467D02*
Y1013D01*
X1497D01*
X1457Y1023D02*
X1482D01*
X1507D01*
X4654Y860D02*
X5205D01*
X4654Y1378D02*
X5205D01*
Y864D02*
Y1374D01*
X4654Y863D02*
Y1375D01*
X4900Y1319D02*
X5150Y1294D01*
Y1169D02*
Y1294D01*
X4900Y1144D02*
X5150Y1169D01*
X4900Y919D02*
X5150Y944D01*
Y1069D01*
X4900Y1094D02*
X5150Y1069D01*
X4654Y169D02*
X5205D01*
X4654Y687D02*
X5205D01*
Y173D02*
Y683D01*
X4654Y172D02*
Y684D01*
X4900Y628D02*
X5150Y603D01*
Y478D02*
Y603D01*
X4900Y453D02*
X5150Y478D01*
X4900Y228D02*
X5150Y253D01*
Y378D01*
X4900Y403D02*
X5150Y378D01*
X3871Y1844D02*
X3938Y1778D01*
X3871D02*
X3938Y1844D01*
X3871Y1811D02*
X3938D01*
X3904Y1778D02*
Y1844D01*
X2983D02*
X3050Y1778D01*
X2983D02*
X3050Y1844D01*
X2983Y1811D02*
X3050D01*
X3016Y1778D02*
Y1844D01*
X2095D02*
X2162Y1778D01*
X2095D02*
X2162Y1844D01*
X2095Y1811D02*
X2162D01*
X2128Y1778D02*
Y1844D01*
X1207D02*
X1274Y1778D01*
X1207D02*
X1274Y1844D01*
X1207Y1811D02*
X1274D01*
X1240Y1778D02*
Y1844D01*
X2390Y2048D02*
X2383Y2055D01*
X2369D01*
X2362Y2048D01*
Y2041D01*
X2369Y2034D01*
X2383D01*
X2390Y2027D01*
Y2020D01*
X2383Y2013D01*
X2369D01*
X2362Y2020D01*
X2404Y2055D02*
X2433D01*
X2419D01*
Y2013D01*
X2475Y2055D02*
X2447D01*
Y2013D01*
X2475D01*
X2447Y2034D02*
X2461D01*
X2489Y2013D02*
Y2055D01*
X2511D01*
X2518Y2048D01*
Y2034D01*
X2511Y2027D01*
X2489D01*
X2532Y2055D02*
Y2013D01*
X2553D01*
X2560Y2020D01*
Y2048D01*
X2553Y2055D01*
X2532D01*
X2574Y2013D02*
Y2055D01*
X2596D01*
X2603Y2048D01*
Y2034D01*
X2596Y2027D01*
X2574D01*
X2589D02*
X2603Y2013D01*
X2617Y2055D02*
X2631D01*
X2624D01*
Y2013D01*
X2617D01*
X2631D01*
X2652Y2055D02*
Y2027D01*
X2666Y2013D01*
X2681Y2027D01*
Y2055D01*
X2723D02*
X2695D01*
Y2013D01*
X2723D01*
X2695Y2034D02*
X2709D01*
X2737Y2006D02*
X2766D01*
X2780Y2055D02*
X2808D01*
Y2048D01*
X2780Y2020D01*
Y2013D01*
X2808D01*
X2212Y733D02*
X2206Y727D01*
Y716D01*
X2212Y710D01*
X2234D01*
X2240Y716D01*
Y727D01*
X2234Y733D01*
X2240Y744D02*
Y755D01*
Y750D01*
X2206D01*
X2212Y744D01*
X995Y513D02*
X966D01*
Y492D01*
X981D01*
X966D01*
Y470D01*
X1009D02*
X1023D01*
X1016D01*
Y513D01*
X1009Y506D01*
X1215Y587D02*
Y629D01*
X1236D01*
X1243Y622D01*
Y608D01*
X1236Y601D01*
X1215D01*
X1257Y629D02*
Y587D01*
X1272Y601D01*
X1286Y587D01*
Y629D01*
X1300Y587D02*
Y629D01*
X1321D01*
X1328Y622D01*
Y608D01*
X1321Y601D01*
X1300D01*
X1314D02*
X1328Y587D01*
X1371D02*
X1342D01*
X1371Y615D01*
Y622D01*
X1364Y629D01*
X1350D01*
X1342Y622D01*
X1112Y761D02*
X1078D01*
Y778D01*
X1084Y784D01*
X1095D01*
X1101Y778D01*
Y761D01*
Y772D02*
X1112Y784D01*
Y812D02*
X1078D01*
X1095Y795D01*
Y818D01*
X1083Y1126D02*
X1076Y1133D01*
Y1147D01*
X1083Y1154D01*
X1090D01*
X1097Y1147D01*
Y1140D01*
Y1147D01*
X1104Y1154D01*
X1111D01*
X1118Y1147D01*
Y1133D01*
X1111Y1126D01*
X1076Y1168D02*
X1104D01*
X1118Y1183D01*
X1104Y1197D01*
X1076D01*
X1083Y1211D02*
X1076Y1218D01*
Y1232D01*
X1083Y1239D01*
X1090D01*
X1097Y1232D01*
Y1225D01*
Y1232D01*
X1104Y1239D01*
X1111D01*
X1118Y1232D01*
Y1218D01*
X1111Y1211D01*
X1259Y758D02*
X1225D01*
Y775D01*
X1231Y781D01*
X1242D01*
X1248Y775D01*
Y758D01*
Y769D02*
X1259Y781D01*
Y792D02*
Y803D01*
Y798D01*
X1225D01*
X1231Y792D01*
X1262Y1134D02*
Y1148D01*
Y1141D01*
X1220D01*
X1227Y1134D01*
X1262Y1198D02*
Y1169D01*
X1234Y1198D01*
X1227D01*
X1220Y1191D01*
Y1176D01*
X1227Y1169D01*
X1220Y1212D02*
X1248D01*
X1262Y1226D01*
X1248Y1240D01*
X1220D01*
X2841Y354D02*
X2799D01*
X2813Y368D01*
X2799Y382D01*
X2841D01*
Y396D02*
X2813D01*
X2799Y411D01*
X2813Y425D01*
X2841D01*
X2820D01*
Y396D01*
X2799Y439D02*
Y453D01*
Y446D01*
X2841D01*
Y439D01*
Y453D01*
Y474D02*
X2799D01*
X2841Y503D01*
X2799D01*
X2848Y517D02*
Y545D01*
X2799Y559D02*
X2834D01*
X2841Y566D01*
Y581D01*
X2834Y588D01*
X2799D01*
X2806Y630D02*
X2799Y623D01*
Y609D01*
X2806Y602D01*
X2813D01*
X2820Y609D01*
Y623D01*
X2827Y630D01*
X2834D01*
X2841Y623D01*
Y609D01*
X2834Y602D01*
X2799Y644D02*
X2841D01*
Y666D01*
X2834Y673D01*
X2827D01*
X2820Y666D01*
Y644D01*
Y666D01*
X2813Y673D01*
X2806D01*
X2799Y666D01*
Y644D01*
X4350Y2200D02*
X4322D01*
X4315Y2193D01*
Y2179D01*
X4322Y2172D01*
X4350D01*
X4357Y2179D01*
Y2193D01*
X4343Y2186D02*
X4357Y2200D01*
Y2193D02*
X4350Y2200D01*
X4357Y2243D02*
Y2214D01*
X4329Y2243D01*
X4322D01*
X4315Y2236D01*
Y2222D01*
X4322Y2214D01*
X3278Y2048D02*
X3271Y2055D01*
X3257D01*
X3250Y2048D01*
Y2041D01*
X3257Y2034D01*
X3271D01*
X3278Y2027D01*
Y2020D01*
X3271Y2013D01*
X3257D01*
X3250Y2020D01*
X3292Y2055D02*
X3321D01*
X3307D01*
Y2013D01*
X3363Y2055D02*
X3335D01*
Y2013D01*
X3363D01*
X3335Y2034D02*
X3349D01*
X3377Y2013D02*
Y2055D01*
X3399D01*
X3406Y2048D01*
Y2034D01*
X3399Y2027D01*
X3377D01*
X3420Y2055D02*
Y2013D01*
X3441D01*
X3448Y2020D01*
Y2048D01*
X3441Y2055D01*
X3420D01*
X3462Y2013D02*
Y2055D01*
X3484D01*
X3491Y2048D01*
Y2034D01*
X3484Y2027D01*
X3462D01*
X3477D02*
X3491Y2013D01*
X3505Y2055D02*
X3519D01*
X3512D01*
Y2013D01*
X3505D01*
X3519D01*
X3540Y2055D02*
Y2027D01*
X3554Y2013D01*
X3569Y2027D01*
Y2055D01*
X3611D02*
X3583D01*
Y2013D01*
X3611D01*
X3583Y2034D02*
X3597D01*
X3625Y2006D02*
X3654D01*
X3696Y2055D02*
X3668D01*
Y2013D01*
X3696D01*
X3668Y2034D02*
X3682D01*
X3709Y2227D02*
X3703Y2221D01*
Y2210D01*
X3709Y2204D01*
X3731D01*
X3737Y2210D01*
Y2221D01*
X3731Y2227D01*
X3737Y2255D02*
X3703D01*
X3720Y2238D01*
Y2261D01*
X3737Y2295D02*
Y2272D01*
X3714Y2295D01*
X3709D01*
X3703Y2289D01*
Y2278D01*
X3709Y2272D01*
X3415Y1657D02*
X3409Y1663D01*
X3398D01*
X3392Y1657D01*
Y1635D01*
X3398Y1629D01*
X3409D01*
X3415Y1635D01*
X3443Y1629D02*
Y1663D01*
X3426Y1646D01*
X3449D01*
X3460Y1657D02*
X3466Y1663D01*
X3477D01*
X3483Y1657D01*
Y1652D01*
X3477Y1646D01*
X3471D01*
X3477D01*
X3483Y1640D01*
Y1635D01*
X3477Y1629D01*
X3466D01*
X3460Y1635D01*
X2828Y2237D02*
X2822Y2231D01*
Y2220D01*
X2828Y2214D01*
X2850D01*
X2856Y2220D01*
Y2231D01*
X2850Y2237D01*
X2856Y2265D02*
X2822D01*
X2839Y2248D01*
Y2271D01*
X2828Y2282D02*
X2822Y2288D01*
Y2299D01*
X2828Y2305D01*
X2850D01*
X2856Y2299D01*
Y2288D01*
X2850Y2282D01*
X2828D01*
X1502Y2048D02*
X1495Y2055D01*
X1481D01*
X1474Y2048D01*
Y2041D01*
X1481Y2034D01*
X1495D01*
X1502Y2027D01*
Y2020D01*
X1495Y2013D01*
X1481D01*
X1474Y2020D01*
X1516Y2055D02*
X1545D01*
X1531D01*
Y2013D01*
X1587Y2055D02*
X1559D01*
Y2013D01*
X1587D01*
X1559Y2034D02*
X1573D01*
X1601Y2013D02*
Y2055D01*
X1623D01*
X1630Y2048D01*
Y2034D01*
X1623Y2027D01*
X1601D01*
X1644Y2055D02*
Y2013D01*
X1665D01*
X1672Y2020D01*
Y2048D01*
X1665Y2055D01*
X1644D01*
X1686Y2013D02*
Y2055D01*
X1708D01*
X1715Y2048D01*
Y2034D01*
X1708Y2027D01*
X1686D01*
X1701D02*
X1715Y2013D01*
X1729Y2055D02*
X1743D01*
X1736D01*
Y2013D01*
X1729D01*
X1743D01*
X1764Y2055D02*
Y2027D01*
X1778Y2013D01*
X1793Y2027D01*
Y2055D01*
X1835D02*
X1807D01*
Y2013D01*
X1835D01*
X1807Y2034D02*
X1821D01*
X1849Y2006D02*
X1878D01*
X1892Y2055D02*
Y2048D01*
X1906Y2034D01*
X1920Y2048D01*
Y2055D01*
X1906Y2034D02*
Y2013D01*
X1940Y2224D02*
X1934Y2218D01*
Y2207D01*
X1940Y2201D01*
X1962D01*
X1968Y2207D01*
Y2218D01*
X1962Y2224D01*
X1940Y2235D02*
X1934Y2241D01*
Y2252D01*
X1940Y2258D01*
X1945D01*
X1951Y2252D01*
Y2246D01*
Y2252D01*
X1957Y2258D01*
X1962D01*
X1968Y2252D01*
Y2241D01*
X1962Y2235D01*
X1940Y2269D02*
X1934Y2275D01*
Y2286D01*
X1940Y2292D01*
X1945D01*
X1951Y2286D01*
X1957Y2292D01*
X1962D01*
X1968Y2286D01*
Y2275D01*
X1962Y2269D01*
X1957D01*
X1951Y2275D01*
X1945Y2269D01*
X1940D01*
X1951Y2275D02*
Y2286D01*
X1048Y2228D02*
X1042Y2222D01*
Y2211D01*
X1048Y2205D01*
X1070D01*
X1076Y2211D01*
Y2222D01*
X1070Y2228D01*
X1048Y2239D02*
X1042Y2245D01*
Y2256D01*
X1048Y2262D01*
X1053D01*
X1059Y2256D01*
Y2250D01*
Y2256D01*
X1065Y2262D01*
X1070D01*
X1076Y2256D01*
Y2245D01*
X1070Y2239D01*
X1042Y2296D02*
X1048Y2284D01*
X1059Y2273D01*
X1070D01*
X1076Y2279D01*
Y2290D01*
X1070Y2296D01*
X1065D01*
X1059Y2290D01*
Y2273D01*
X792Y1642D02*
X786Y1648D01*
X775D01*
X769Y1642D01*
Y1620D01*
X775Y1614D01*
X786D01*
X792Y1620D01*
X803Y1642D02*
X809Y1648D01*
X820D01*
X826Y1642D01*
Y1637D01*
X820Y1631D01*
X815D01*
X820D01*
X826Y1625D01*
Y1620D01*
X820Y1614D01*
X809D01*
X803Y1620D01*
X837Y1648D02*
X860D01*
Y1642D01*
X837Y1620D01*
Y1614D01*
X563Y1202D02*
X557Y1208D01*
X546D01*
X540Y1202D01*
Y1180D01*
X546Y1174D01*
X557D01*
X563Y1180D01*
X597Y1174D02*
X574D01*
X597Y1197D01*
Y1202D01*
X591Y1208D01*
X580D01*
X574Y1202D01*
X625Y1174D02*
Y1208D01*
X608Y1191D01*
X631D01*
X881Y1176D02*
Y1210D01*
X898D01*
X904Y1204D01*
Y1193D01*
X898Y1187D01*
X881D01*
X893D02*
X904Y1176D01*
X915Y1182D02*
X921Y1176D01*
X932D01*
X938Y1182D01*
Y1204D01*
X932Y1210D01*
X921D01*
X915Y1204D01*
Y1199D01*
X921Y1193D01*
X938D01*
X810Y1810D02*
Y1844D01*
X827D01*
X833Y1838D01*
Y1827D01*
X827Y1821D01*
X810D01*
X821D02*
X833Y1810D01*
X867D02*
X844D01*
X867Y1833D01*
Y1838D01*
X861Y1844D01*
X850D01*
X844Y1838D01*
X895Y1810D02*
Y1844D01*
X878Y1827D01*
X901D01*
X809Y1742D02*
Y1776D01*
X826D01*
X832Y1770D01*
Y1759D01*
X826Y1753D01*
X809D01*
X820D02*
X832Y1742D01*
X866D02*
X843D01*
X866Y1765D01*
Y1770D01*
X860Y1776D01*
X849D01*
X843Y1770D01*
X900Y1776D02*
X877D01*
Y1759D01*
X888Y1765D01*
X894D01*
X900Y1759D01*
Y1748D01*
X894Y1742D01*
X883D01*
X877Y1748D01*
X1186Y758D02*
X1152D01*
Y775D01*
X1158Y781D01*
X1169D01*
X1175Y775D01*
Y758D01*
Y769D02*
X1186Y781D01*
X1158Y792D02*
X1152Y798D01*
Y809D01*
X1158Y815D01*
X1163D01*
X1169Y809D01*
X1175Y815D01*
X1180D01*
X1186Y809D01*
Y798D01*
X1180Y792D01*
X1175D01*
X1169Y798D01*
X1163Y792D01*
X1158D01*
X1169Y798D02*
Y809D01*
X1156Y1162D02*
Y1134D01*
X1177D01*
X1170Y1148D01*
Y1155D01*
X1177Y1162D01*
X1191D01*
X1198Y1155D01*
Y1141D01*
X1191Y1134D01*
X1156Y1176D02*
X1184D01*
X1198Y1191D01*
X1184Y1205D01*
X1156D01*
X4095Y1506D02*
X4089Y1500D01*
Y1489D01*
X4095Y1483D01*
X4117D01*
X4123Y1489D01*
Y1500D01*
X4117Y1506D01*
X4095Y1517D02*
X4089Y1523D01*
Y1534D01*
X4095Y1540D01*
X4100D01*
X4106Y1534D01*
Y1528D01*
Y1534D01*
X4112Y1540D01*
X4117D01*
X4123Y1534D01*
Y1523D01*
X4117Y1517D01*
X4095Y1551D02*
X4089Y1557D01*
Y1568D01*
X4095Y1574D01*
X4100D01*
X4106Y1568D01*
Y1562D01*
Y1568D01*
X4112Y1574D01*
X4117D01*
X4123Y1568D01*
Y1557D01*
X4117Y1551D01*
X4199Y1494D02*
X4165D01*
Y1511D01*
X4171Y1517D01*
X4182D01*
X4188Y1511D01*
Y1494D01*
Y1505D02*
X4199Y1517D01*
Y1528D02*
Y1539D01*
Y1534D01*
X4165D01*
X4171Y1528D01*
X4193Y1556D02*
X4199Y1562D01*
Y1573D01*
X4193Y1579D01*
X4171D01*
X4165Y1573D01*
Y1562D01*
X4171Y1556D01*
X4176D01*
X4182Y1562D01*
Y1579D01*
X4310Y1610D02*
Y1644D01*
X4327D01*
X4333Y1638D01*
Y1627D01*
X4327Y1621D01*
X4310D01*
X4321D02*
X4333Y1610D01*
X4344D02*
X4355D01*
X4350D01*
Y1644D01*
X4344Y1638D01*
X4372D02*
X4378Y1644D01*
X4389D01*
X4395Y1638D01*
Y1633D01*
X4389Y1627D01*
X4395Y1621D01*
Y1616D01*
X4389Y1610D01*
X4378D01*
X4372Y1616D01*
Y1621D01*
X4378Y1627D01*
X4372Y1633D01*
Y1638D01*
X4378Y1627D02*
X4389D01*
X4282Y1737D02*
X4248D01*
Y1754D01*
X4254Y1760D01*
X4265D01*
X4271Y1754D01*
Y1737D01*
Y1748D02*
X4282Y1760D01*
Y1794D02*
Y1771D01*
X4259Y1794D01*
X4254D01*
X4248Y1788D01*
Y1777D01*
X4254Y1771D01*
X4282Y1828D02*
Y1805D01*
X4259Y1828D01*
X4254D01*
X4248Y1822D01*
Y1811D01*
X4254Y1805D01*
X4387Y1733D02*
X4353D01*
Y1750D01*
X4359Y1756D01*
X4370D01*
X4376Y1750D01*
Y1733D01*
Y1744D02*
X4387Y1756D01*
Y1790D02*
Y1767D01*
X4364Y1790D01*
X4359D01*
X4353Y1784D01*
Y1773D01*
X4359Y1767D01*
Y1801D02*
X4353Y1807D01*
Y1818D01*
X4359Y1824D01*
X4364D01*
X4370Y1818D01*
Y1812D01*
Y1818D01*
X4376Y1824D01*
X4381D01*
X4387Y1818D01*
Y1807D01*
X4381Y1801D01*
X4088Y1856D02*
X4122D01*
X4105D01*
Y1879D01*
X4088D01*
X4122D01*
X4088Y1913D02*
Y1890D01*
X4122D01*
Y1913D01*
X4105Y1890D02*
Y1901D01*
X4122Y1924D02*
X4099D01*
X4088Y1935D01*
X4099Y1947D01*
X4122D01*
X4105D01*
Y1924D01*
X4088Y1958D02*
Y1981D01*
Y1969D01*
X4122D01*
X3438Y2101D02*
X3404D01*
Y2118D01*
X3410Y2124D01*
X3421D01*
X3427Y2118D01*
Y2101D01*
Y2112D02*
X3438Y2124D01*
Y2158D02*
Y2135D01*
X3415Y2158D01*
X3410D01*
X3404Y2152D01*
Y2141D01*
X3410Y2135D01*
Y2169D02*
X3404Y2175D01*
Y2186D01*
X3410Y2192D01*
X3432D01*
X3438Y2186D01*
Y2175D01*
X3432Y2169D01*
X3410D01*
X3551Y2103D02*
X3517D01*
Y2120D01*
X3523Y2126D01*
X3534D01*
X3540Y2120D01*
Y2103D01*
Y2114D02*
X3551Y2126D01*
Y2160D02*
Y2137D01*
X3528Y2160D01*
X3523D01*
X3517Y2154D01*
Y2143D01*
X3523Y2137D01*
X3551Y2171D02*
Y2182D01*
Y2177D01*
X3517D01*
X3523Y2171D01*
X2865Y984D02*
Y1018D01*
X2882D01*
X2888Y1012D01*
Y1001D01*
X2882Y995D01*
X2865D01*
X2876D02*
X2888Y984D01*
X2899D02*
X2910D01*
X2905D01*
Y1018D01*
X2899Y1012D01*
X2927Y1018D02*
X2950D01*
Y1012D01*
X2927Y990D01*
Y984D01*
X1913Y685D02*
X1907Y691D01*
X1896D01*
X1890Y685D01*
Y663D01*
X1896Y657D01*
X1907D01*
X1913Y663D01*
X1924Y685D02*
X1930Y691D01*
X1941D01*
X1947Y685D01*
Y680D01*
X1941Y674D01*
X1935D01*
X1941D01*
X1947Y668D01*
Y663D01*
X1941Y657D01*
X1930D01*
X1924Y663D01*
X1958Y657D02*
X1969D01*
X1964D01*
Y691D01*
X1958Y685D01*
X2219Y1014D02*
X2213Y1008D01*
Y997D01*
X2219Y991D01*
X2241D01*
X2247Y997D01*
Y1008D01*
X2241Y1014D01*
X2219Y1025D02*
X2213Y1031D01*
Y1042D01*
X2219Y1048D01*
X2224D01*
X2230Y1042D01*
Y1036D01*
Y1042D01*
X2236Y1048D01*
X2241D01*
X2247Y1042D01*
Y1031D01*
X2241Y1025D01*
X2247Y1082D02*
Y1059D01*
X2224Y1082D01*
X2219D01*
X2213Y1076D01*
Y1065D01*
X2219Y1059D01*
X1452Y783D02*
X1446Y789D01*
X1435D01*
X1429Y783D01*
Y761D01*
X1435Y755D01*
X1446D01*
X1452Y761D01*
X1463Y783D02*
X1469Y789D01*
X1480D01*
X1486Y783D01*
Y778D01*
X1480Y772D01*
X1474D01*
X1480D01*
X1486Y766D01*
Y761D01*
X1480Y755D01*
X1469D01*
X1463Y761D01*
X1497Y783D02*
X1503Y789D01*
X1514D01*
X1520Y783D01*
Y761D01*
X1514Y755D01*
X1503D01*
X1497Y761D01*
Y783D01*
X1439Y1259D02*
X1433Y1265D01*
X1422D01*
X1416Y1259D01*
Y1237D01*
X1422Y1231D01*
X1433D01*
X1439Y1237D01*
X1473Y1231D02*
X1450D01*
X1473Y1254D01*
Y1259D01*
X1467Y1265D01*
X1456D01*
X1450Y1259D01*
X1484Y1237D02*
X1490Y1231D01*
X1501D01*
X1507Y1237D01*
Y1259D01*
X1501Y1265D01*
X1490D01*
X1484Y1259D01*
Y1254D01*
X1490Y1248D01*
X1507D01*
X3165Y1156D02*
Y1190D01*
X3182D01*
X3188Y1184D01*
Y1173D01*
X3182Y1167D01*
X3165D01*
X3177D02*
X3188Y1156D01*
X3199Y1190D02*
X3222D01*
Y1184D01*
X3199Y1162D01*
Y1156D01*
X2856Y1252D02*
Y1218D01*
X2873D01*
X2879Y1224D01*
Y1246D01*
X2873Y1252D01*
X2856D01*
X2913D02*
X2890D01*
Y1218D01*
X2913D01*
X2890Y1235D02*
X2901D01*
X2924Y1252D02*
Y1218D01*
X2941D01*
X2947Y1224D01*
Y1229D01*
X2941Y1235D01*
X2924D01*
X2941D01*
X2947Y1241D01*
Y1246D01*
X2941Y1252D01*
X2924D01*
X2958D02*
Y1224D01*
X2964Y1218D01*
X2975D01*
X2981Y1224D01*
Y1252D01*
X3015Y1246D02*
X3009Y1252D01*
X2998D01*
X2992Y1246D01*
Y1224D01*
X2998Y1218D01*
X3009D01*
X3015Y1224D01*
Y1235D01*
X3003D01*
X2889Y1085D02*
X2883Y1091D01*
X2872D01*
X2866Y1085D01*
Y1063D01*
X2872Y1057D01*
X2883D01*
X2889Y1063D01*
X2923Y1057D02*
X2900D01*
X2923Y1080D01*
Y1085D01*
X2917Y1091D01*
X2906D01*
X2900Y1085D01*
X2934D02*
X2940Y1091D01*
X2951D01*
X2957Y1085D01*
Y1080D01*
X2951Y1074D01*
X2945D01*
X2951D01*
X2957Y1068D01*
Y1063D01*
X2951Y1057D01*
X2940D01*
X2934Y1063D01*
X3408Y1238D02*
X3402Y1244D01*
X3391D01*
X3385Y1238D01*
Y1216D01*
X3391Y1210D01*
X3402D01*
X3408Y1216D01*
X3419Y1210D02*
X3430D01*
X3425D01*
Y1244D01*
X3419Y1238D01*
X3447Y1210D02*
X3459D01*
X3453D01*
Y1244D01*
X3447Y1238D01*
X3384Y1132D02*
Y1166D01*
X3401D01*
X3407Y1160D01*
Y1149D01*
X3401Y1143D01*
X3384D01*
X3395D02*
X3407Y1132D01*
X3418Y1160D02*
X3424Y1166D01*
X3435D01*
X3441Y1160D01*
Y1155D01*
X3435Y1149D01*
X3429D01*
X3435D01*
X3441Y1143D01*
Y1138D01*
X3435Y1132D01*
X3424D01*
X3418Y1138D01*
X2390Y1207D02*
X2404D01*
X2397D01*
Y1165D01*
X2390D01*
X2404D01*
X2454Y1200D02*
X2447Y1207D01*
X2432D01*
X2425Y1200D01*
Y1172D01*
X2432Y1165D01*
X2447D01*
X2454Y1172D01*
X2496Y1200D02*
X2489Y1207D01*
X2475D01*
X2468Y1200D01*
Y1193D01*
X2475Y1186D01*
X2489D01*
X2496Y1179D01*
Y1172D01*
X2489Y1165D01*
X2475D01*
X2468Y1172D01*
X2510Y1165D02*
Y1207D01*
X2532D01*
X2539Y1200D01*
Y1186D01*
X2532Y1179D01*
X2510D01*
X906Y1281D02*
X900Y1287D01*
X889D01*
X883Y1281D01*
Y1259D01*
X889Y1253D01*
X900D01*
X906Y1259D01*
X940Y1253D02*
X917D01*
X940Y1276D01*
Y1281D01*
X934Y1287D01*
X923D01*
X917Y1281D01*
X974Y1287D02*
X951D01*
Y1270D01*
X962Y1276D01*
X968D01*
X974Y1270D01*
Y1259D01*
X968Y1253D01*
X957D01*
X951Y1259D01*
X858Y927D02*
X852Y933D01*
X841D01*
X835Y927D01*
Y905D01*
X841Y899D01*
X852D01*
X858Y905D01*
X892Y899D02*
X869D01*
X892Y922D01*
Y927D01*
X886Y933D01*
X875D01*
X869Y927D01*
X926Y899D02*
X903D01*
X926Y922D01*
Y927D01*
X920Y933D01*
X909D01*
X903Y927D01*
X2175Y592D02*
X2169Y597D01*
X2158D01*
X2152Y592D01*
Y569D01*
X2158Y563D01*
X2169D01*
X2175Y569D01*
X2209Y563D02*
X2186D01*
X2209Y586D01*
Y592D01*
X2203Y597D01*
X2192D01*
X2186Y592D01*
X2574Y602D02*
X2568Y608D01*
X2557D01*
X2551Y602D01*
Y580D01*
X2557Y574D01*
X2568D01*
X2574Y580D01*
X2585Y574D02*
X2596D01*
X2591D01*
Y608D01*
X2585Y602D01*
X2636Y608D02*
X2625Y602D01*
X2613Y591D01*
Y580D01*
X2619Y574D01*
X2630D01*
X2636Y580D01*
Y585D01*
X2630Y591D01*
X2613D01*
X666Y932D02*
X660Y938D01*
X649D01*
X643Y932D01*
Y910D01*
X649Y904D01*
X660D01*
X666Y910D01*
X677Y904D02*
X688D01*
X683D01*
Y938D01*
X677Y932D01*
X705D02*
X711Y938D01*
X722D01*
X728Y932D01*
Y927D01*
X722Y921D01*
X728Y915D01*
Y910D01*
X722Y904D01*
X711D01*
X705Y910D01*
Y915D01*
X711Y921D01*
X705Y927D01*
Y932D01*
X711Y921D02*
X722D01*
X2632Y727D02*
X2626Y721D01*
Y710D01*
X2632Y704D01*
X2655D01*
X2660Y710D01*
Y721D01*
X2655Y727D01*
X2660Y738D02*
Y749D01*
Y744D01*
X2626D01*
X2632Y738D01*
X2660Y789D02*
Y766D01*
X2638Y789D01*
X2632D01*
X2626Y783D01*
Y772D01*
X2632Y766D01*
X1009Y667D02*
X1002Y674D01*
X988D01*
X981Y667D01*
Y660D01*
X988Y653D01*
X1002D01*
X1009Y646D01*
Y639D01*
X1002Y632D01*
X988D01*
X981Y639D01*
X1023Y632D02*
X1038D01*
X1031D01*
Y674D01*
X1023Y667D01*
X459Y500D02*
Y542D01*
X480D01*
X487Y535D01*
Y521D01*
X480Y514D01*
X459D01*
X501Y542D02*
Y500D01*
X516Y514D01*
X530Y500D01*
Y542D01*
X544Y500D02*
Y542D01*
X565D01*
X572Y535D01*
Y521D01*
X565Y514D01*
X544D01*
X558D02*
X572Y500D01*
X586D02*
X601D01*
X594D01*
Y542D01*
X586Y535D01*
X1314Y1043D02*
Y1036D01*
X1328Y1022D01*
X1342Y1036D01*
Y1043D01*
X1328Y1022D02*
Y1001D01*
X1356D02*
X1371D01*
X1364D01*
Y1043D01*
X1356Y1036D01*
X3514Y2243D02*
Y2271D01*
X3507Y2279D01*
X3493D01*
X3486Y2271D01*
Y2243D01*
X3493Y2236D01*
X3507D01*
X3500Y2250D02*
X3514Y2236D01*
X3507D02*
X3514Y2243D01*
X3528Y2236D02*
X3543D01*
X3536D01*
Y2279D01*
X3528Y2271D01*
X882Y1064D02*
Y1029D01*
X889Y1022D01*
X903D01*
X910Y1029D01*
Y1064D01*
X924Y1057D02*
X932Y1064D01*
X946D01*
X953Y1057D01*
Y1050D01*
X946Y1043D01*
X939D01*
X946D01*
X953Y1036D01*
Y1029D01*
X946Y1022D01*
X932D01*
X924Y1029D01*
X2320Y552D02*
Y517D01*
X2327Y510D01*
X2341D01*
X2348Y517D01*
Y552D01*
X2362Y510D02*
X2377D01*
X2370D01*
Y552D01*
X2362Y545D01*
X2942Y807D02*
X2977D01*
X2984Y814D01*
Y828D01*
X2977Y835D01*
X2942D01*
X2984Y878D02*
Y849D01*
X2956Y878D01*
X2949D01*
X2942Y871D01*
Y857D01*
X2949Y849D01*
X1613Y1247D02*
Y1212D01*
X1620Y1205D01*
X1634D01*
X1641Y1212D01*
Y1247D01*
X1684D02*
X1670Y1240D01*
X1655Y1226D01*
Y1212D01*
X1663Y1205D01*
X1677D01*
X1684Y1212D01*
Y1219D01*
X1677Y1226D01*
X1655D01*
X614Y2048D02*
X607Y2055D01*
X593D01*
X586Y2048D01*
Y2041D01*
X593Y2034D01*
X607D01*
X614Y2027D01*
Y2020D01*
X607Y2013D01*
X593D01*
X586Y2020D01*
X628Y2055D02*
X657D01*
X643D01*
Y2013D01*
X699Y2055D02*
X671D01*
Y2013D01*
X699D01*
X671Y2034D02*
X685D01*
X713Y2013D02*
Y2055D01*
X735D01*
X742Y2048D01*
Y2034D01*
X735Y2027D01*
X713D01*
X756Y2055D02*
Y2013D01*
X777D01*
X784Y2020D01*
Y2048D01*
X777Y2055D01*
X756D01*
X798Y2013D02*
Y2055D01*
X820D01*
X827Y2048D01*
Y2034D01*
X820Y2027D01*
X798D01*
X813D02*
X827Y2013D01*
X841Y2055D02*
X855D01*
X848D01*
Y2013D01*
X841D01*
X855D01*
X876Y2055D02*
Y2027D01*
X890Y2013D01*
X905Y2027D01*
Y2055D01*
X947D02*
X919D01*
Y2013D01*
X947D01*
X919Y2034D02*
X933D01*
X961Y2006D02*
X990D01*
X1004Y2055D02*
X1032Y2013D01*
Y2055D02*
X1004Y2013D01*
X1681Y1650D02*
X1675Y1656D01*
X1664D01*
X1658Y1650D01*
Y1628D01*
X1664Y1622D01*
X1675D01*
X1681Y1628D01*
X1692Y1650D02*
X1698Y1656D01*
X1709D01*
X1715Y1650D01*
Y1645D01*
X1709Y1639D01*
X1703D01*
X1709D01*
X1715Y1633D01*
Y1628D01*
X1709Y1622D01*
X1698D01*
X1692Y1628D01*
X1726D02*
X1732Y1622D01*
X1743D01*
X1749Y1628D01*
Y1650D01*
X1743Y1656D01*
X1732D01*
X1726Y1650D01*
Y1645D01*
X1732Y1639D01*
X1749D01*
X2569Y1650D02*
X2563Y1656D01*
X2552D01*
X2546Y1650D01*
Y1628D01*
X2552Y1622D01*
X2563D01*
X2569Y1628D01*
X2597Y1622D02*
Y1656D01*
X2580Y1639D01*
X2603D01*
X2614Y1622D02*
X2625D01*
X2620D01*
Y1656D01*
X2614Y1650D01*
X3217Y597D02*
X3211Y603D01*
X3200D01*
X3194Y597D01*
Y575D01*
X3200Y569D01*
X3211D01*
X3217Y575D01*
X3228Y603D02*
X3251D01*
Y597D01*
X3228Y575D01*
Y569D01*
X3458Y1084D02*
X3452Y1078D01*
Y1067D01*
X3458Y1061D01*
X3480D01*
X3486Y1067D01*
Y1078D01*
X3480Y1084D01*
Y1095D02*
X3486Y1101D01*
Y1112D01*
X3480Y1118D01*
X3458D01*
X3452Y1112D01*
Y1101D01*
X3458Y1095D01*
X3463D01*
X3469Y1101D01*
Y1118D01*
X3484Y711D02*
X3450D01*
Y728D01*
X3456Y734D01*
X3467D01*
X3473Y728D01*
Y711D01*
Y722D02*
X3484Y734D01*
Y768D02*
Y745D01*
X3461Y768D01*
X3456D01*
X3450Y762D01*
Y751D01*
X3456Y745D01*
X3985Y1150D02*
X3979Y1156D01*
X3968D01*
X3962Y1150D01*
Y1128D01*
X3968Y1122D01*
X3979D01*
X3985Y1128D01*
X4013Y1122D02*
Y1156D01*
X3996Y1139D01*
X4019D01*
X4053Y1156D02*
X4041Y1150D01*
X4030Y1139D01*
Y1128D01*
X4036Y1122D01*
X4047D01*
X4053Y1128D01*
Y1133D01*
X4047Y1139D01*
X4030D01*
X3532Y932D02*
X3526Y938D01*
X3515D01*
X3509Y932D01*
Y910D01*
X3515Y904D01*
X3526D01*
X3532Y910D01*
X3560Y904D02*
Y938D01*
X3543Y921D01*
X3566D01*
X3577Y938D02*
X3600D01*
Y932D01*
X3577Y910D01*
Y904D01*
X4132Y412D02*
X4126Y406D01*
Y395D01*
X4132Y389D01*
X4154D01*
X4160Y395D01*
Y406D01*
X4154Y412D01*
X4160Y440D02*
X4126D01*
X4143Y423D01*
Y446D01*
X4132Y457D02*
X4126Y463D01*
Y474D01*
X4132Y480D01*
X4137D01*
X4143Y474D01*
X4149Y480D01*
X4154D01*
X4160Y474D01*
Y463D01*
X4154Y457D01*
X4149D01*
X4143Y463D01*
X4137Y457D01*
X4132D01*
X4143Y463D02*
Y474D01*
X4064Y1300D02*
X4058Y1306D01*
X4047D01*
X4041Y1300D01*
Y1278D01*
X4047Y1272D01*
X4058D01*
X4064Y1278D01*
X4092Y1272D02*
Y1306D01*
X4075Y1289D01*
X4098D01*
X4109Y1278D02*
X4115Y1272D01*
X4126D01*
X4132Y1278D01*
Y1300D01*
X4126Y1306D01*
X4115D01*
X4109Y1300D01*
Y1295D01*
X4115Y1289D01*
X4132D01*
X3850Y424D02*
X3844Y418D01*
Y407D01*
X3850Y401D01*
X3872D01*
X3878Y407D01*
Y418D01*
X3872Y424D01*
X3844Y458D02*
Y435D01*
X3861D01*
X3855Y446D01*
Y452D01*
X3861Y458D01*
X3872D01*
X3878Y452D01*
Y441D01*
X3872Y435D01*
X3850Y469D02*
X3844Y475D01*
Y486D01*
X3850Y492D01*
X3872D01*
X3878Y486D01*
Y475D01*
X3872Y469D01*
X3850D01*
X4120Y910D02*
X4114Y916D01*
X4103D01*
X4097Y910D01*
Y888D01*
X4103Y882D01*
X4114D01*
X4120Y888D01*
X4154Y916D02*
X4131D01*
Y899D01*
X4142Y905D01*
X4148D01*
X4154Y899D01*
Y888D01*
X4148Y882D01*
X4137D01*
X4131Y888D01*
X4165Y882D02*
X4176D01*
X4171D01*
Y916D01*
X4165Y910D01*
X4172Y775D02*
X4166Y781D01*
X4155D01*
X4149Y775D01*
Y753D01*
X4155Y747D01*
X4166D01*
X4172Y753D01*
X4206Y781D02*
X4183D01*
Y764D01*
X4194Y770D01*
X4200D01*
X4206Y764D01*
Y753D01*
X4200Y747D01*
X4189D01*
X4183Y753D01*
X4240Y747D02*
X4217D01*
X4240Y770D01*
Y775D01*
X4234Y781D01*
X4223D01*
X4217Y775D01*
X4060Y233D02*
X4054Y227D01*
Y216D01*
X4060Y210D01*
X4082D01*
X4088Y216D01*
Y227D01*
X4082Y233D01*
X4054Y267D02*
Y244D01*
X4071D01*
X4065Y255D01*
Y261D01*
X4071Y267D01*
X4082D01*
X4088Y261D01*
Y250D01*
X4082Y244D01*
X4060Y278D02*
X4054Y284D01*
Y295D01*
X4060Y301D01*
X4065D01*
X4071Y295D01*
Y289D01*
Y295D01*
X4077Y301D01*
X4082D01*
X4088Y295D01*
Y284D01*
X4082Y278D01*
X3627Y239D02*
X3621Y233D01*
Y222D01*
X3627Y216D01*
X3649D01*
X3655Y222D01*
Y233D01*
X3649Y239D01*
X3621Y273D02*
Y250D01*
X3638D01*
X3632Y261D01*
Y267D01*
X3638Y273D01*
X3649D01*
X3655Y267D01*
Y256D01*
X3649Y250D01*
X3655Y301D02*
X3621D01*
X3638Y284D01*
Y307D01*
X3508Y536D02*
X3502Y530D01*
Y519D01*
X3508Y513D01*
X3530D01*
X3536Y519D01*
Y530D01*
X3530Y536D01*
X3502Y570D02*
Y547D01*
X3519D01*
X3513Y558D01*
Y564D01*
X3519Y570D01*
X3530D01*
X3536Y564D01*
Y553D01*
X3530Y547D01*
X3502Y604D02*
Y581D01*
X3519D01*
X3513Y592D01*
Y598D01*
X3519Y604D01*
X3530D01*
X3536Y598D01*
Y587D01*
X3530Y581D01*
X3527Y678D02*
X3521Y683D01*
X3510D01*
X3504Y678D01*
Y655D01*
X3510Y649D01*
X3521D01*
X3527Y655D01*
X3561Y683D02*
X3538D01*
Y666D01*
X3549Y672D01*
X3555D01*
X3561Y666D01*
Y655D01*
X3555Y649D01*
X3544D01*
X3538Y655D01*
X3595Y683D02*
X3583Y678D01*
X3572Y666D01*
Y655D01*
X3578Y649D01*
X3589D01*
X3595Y655D01*
Y661D01*
X3589Y666D01*
X3572D01*
X4009Y412D02*
X4003Y406D01*
Y395D01*
X4009Y389D01*
X4031D01*
X4037Y395D01*
Y406D01*
X4031Y412D01*
X4003Y446D02*
Y423D01*
X4020D01*
X4014Y434D01*
Y440D01*
X4020Y446D01*
X4031D01*
X4037Y440D01*
Y429D01*
X4031Y423D01*
X4003Y457D02*
Y480D01*
X4009D01*
X4031Y457D01*
X4037D01*
X3983Y1085D02*
X3977Y1091D01*
X3966D01*
X3960Y1085D01*
Y1063D01*
X3966Y1057D01*
X3977D01*
X3983Y1063D01*
X4017Y1091D02*
X3994D01*
Y1074D01*
X4005Y1080D01*
X4011D01*
X4017Y1074D01*
Y1063D01*
X4011Y1057D01*
X4000D01*
X3994Y1063D01*
X4028Y1085D02*
X4034Y1091D01*
X4045D01*
X4051Y1085D01*
Y1080D01*
X4045Y1074D01*
X4051Y1068D01*
Y1063D01*
X4045Y1057D01*
X4034D01*
X4028Y1063D01*
Y1068D01*
X4034Y1074D01*
X4028Y1080D01*
Y1085D01*
X4034Y1074D02*
X4045D01*
X3526Y134D02*
X3520Y140D01*
X3509D01*
X3503Y134D01*
Y112D01*
X3509Y106D01*
X3520D01*
X3526Y112D01*
X3560Y140D02*
X3537D01*
Y123D01*
X3548Y129D01*
X3554D01*
X3560Y123D01*
Y112D01*
X3554Y106D01*
X3543D01*
X3537Y112D01*
X3571D02*
X3577Y106D01*
X3588D01*
X3594Y112D01*
Y134D01*
X3588Y140D01*
X3577D01*
X3571Y134D01*
Y129D01*
X3577Y123D01*
X3594D01*
X3528Y423D02*
X3522Y429D01*
X3511D01*
X3505Y423D01*
Y401D01*
X3511Y395D01*
X3522D01*
X3528Y401D01*
X3562Y429D02*
X3550Y423D01*
X3539Y412D01*
Y401D01*
X3545Y395D01*
X3556D01*
X3562Y401D01*
Y406D01*
X3556Y412D01*
X3539D01*
X3573Y423D02*
X3579Y429D01*
X3590D01*
X3596Y423D01*
Y401D01*
X3590Y395D01*
X3579D01*
X3573Y401D01*
Y423D01*
X4602Y1070D02*
X4608Y1076D01*
Y1087D01*
X4602Y1093D01*
X4580D01*
X4574Y1087D01*
Y1076D01*
X4580Y1070D01*
X4608Y1036D02*
X4602Y1048D01*
X4591Y1059D01*
X4580D01*
X4574Y1053D01*
Y1042D01*
X4580Y1036D01*
X4585D01*
X4591Y1042D01*
Y1059D01*
X4574Y1025D02*
Y1014D01*
Y1019D01*
X4608D01*
X4602Y1025D01*
X4604Y1193D02*
X4610Y1199D01*
Y1210D01*
X4604Y1216D01*
X4582D01*
X4576Y1210D01*
Y1199D01*
X4582Y1193D01*
X4610Y1159D02*
X4604Y1171D01*
X4593Y1182D01*
X4582D01*
X4576Y1176D01*
Y1165D01*
X4582Y1159D01*
X4587D01*
X4593Y1165D01*
Y1182D01*
X4576Y1125D02*
Y1148D01*
X4599Y1125D01*
X4604D01*
X4610Y1131D01*
Y1142D01*
X4604Y1148D01*
X4554Y284D02*
X4560Y290D01*
Y301D01*
X4554Y307D01*
X4532D01*
X4526Y301D01*
Y290D01*
X4532Y284D01*
X4560Y250D02*
X4554Y262D01*
X4543Y273D01*
X4532D01*
X4526Y267D01*
Y256D01*
X4532Y250D01*
X4537D01*
X4543Y256D01*
Y273D01*
X4554Y239D02*
X4560Y233D01*
Y222D01*
X4554Y216D01*
X4549D01*
X4543Y222D01*
Y228D01*
Y222D01*
X4537Y216D01*
X4532D01*
X4526Y222D01*
Y233D01*
X4532Y239D01*
X4603Y497D02*
X4609Y503D01*
Y514D01*
X4603Y520D01*
X4581D01*
X4575Y514D01*
Y503D01*
X4581Y497D01*
X4609Y463D02*
X4603Y475D01*
X4592Y486D01*
X4581D01*
X4575Y480D01*
Y469D01*
X4581Y463D01*
X4586D01*
X4592Y469D01*
Y486D01*
X4575Y435D02*
X4609D01*
X4592Y452D01*
Y429D01*
X4303Y735D02*
X4297Y741D01*
X4286D01*
X4280Y735D01*
Y713D01*
X4286Y707D01*
X4297D01*
X4303Y713D01*
X4337Y741D02*
X4325Y735D01*
X4314Y724D01*
Y713D01*
X4320Y707D01*
X4331D01*
X4337Y713D01*
Y718D01*
X4331Y724D01*
X4314D01*
X4371Y741D02*
X4348D01*
Y724D01*
X4359Y730D01*
X4365D01*
X4371Y724D01*
Y713D01*
X4365Y707D01*
X4354D01*
X4348Y713D01*
X4477Y705D02*
X4471Y711D01*
X4460D01*
X4454Y705D01*
Y683D01*
X4460Y677D01*
X4471D01*
X4477Y683D01*
X4511Y711D02*
X4499Y705D01*
X4488Y694D01*
Y683D01*
X4494Y677D01*
X4505D01*
X4511Y683D01*
Y688D01*
X4505Y694D01*
X4488D01*
X4545Y711D02*
X4533Y705D01*
X4522Y694D01*
Y683D01*
X4528Y677D01*
X4539D01*
X4545Y683D01*
Y688D01*
X4539Y694D01*
X4522D01*
X3628Y404D02*
Y438D01*
X3645D01*
X3651Y432D01*
Y421D01*
X3645Y415D01*
X3628D01*
X3640D02*
X3651Y404D01*
X3662Y432D02*
X3668Y438D01*
X3679D01*
X3685Y432D01*
Y427D01*
X3679Y421D01*
X3674D01*
X3679D01*
X3685Y415D01*
Y410D01*
X3679Y404D01*
X3668D01*
X3662Y410D01*
X3696Y432D02*
X3702Y438D01*
X3713D01*
X3719Y432D01*
Y410D01*
X3713Y404D01*
X3702D01*
X3696Y410D01*
Y432D01*
X3632Y455D02*
Y489D01*
X3649D01*
X3655Y483D01*
Y472D01*
X3649Y466D01*
X3632D01*
X3643D02*
X3655Y455D01*
X3666Y483D02*
X3672Y489D01*
X3683D01*
X3689Y483D01*
Y478D01*
X3683Y472D01*
X3677D01*
X3683D01*
X3689Y466D01*
Y461D01*
X3683Y455D01*
X3672D01*
X3666Y461D01*
X3700Y455D02*
X3711D01*
X3706D01*
Y489D01*
X3700Y483D01*
X3508Y717D02*
Y751D01*
X3525D01*
X3531Y745D01*
Y734D01*
X3525Y728D01*
X3508D01*
X3519D02*
X3531Y717D01*
X3542Y745D02*
X3548Y751D01*
X3559D01*
X3565Y745D01*
Y740D01*
X3559Y734D01*
X3553D01*
X3559D01*
X3565Y728D01*
Y723D01*
X3559Y717D01*
X3548D01*
X3542Y723D01*
X3599Y717D02*
X3576D01*
X3599Y740D01*
Y745D01*
X3593Y751D01*
X3582D01*
X3576Y745D01*
X3818Y400D02*
X3784D01*
Y417D01*
X3790Y423D01*
X3801D01*
X3807Y417D01*
Y400D01*
Y411D02*
X3818Y423D01*
X3790Y434D02*
X3784Y440D01*
Y451D01*
X3790Y457D01*
X3795D01*
X3801Y451D01*
Y445D01*
Y451D01*
X3807Y457D01*
X3812D01*
X3818Y451D01*
Y440D01*
X3812Y434D01*
X3790Y468D02*
X3784Y474D01*
Y485D01*
X3790Y491D01*
X3795D01*
X3801Y485D01*
Y479D01*
Y485D01*
X3807Y491D01*
X3812D01*
X3818Y485D01*
Y474D01*
X3812Y468D01*
X3659Y1068D02*
Y1102D01*
X3676D01*
X3682Y1096D01*
Y1085D01*
X3676Y1079D01*
X3659D01*
X3670D02*
X3682Y1068D01*
X3693Y1096D02*
X3699Y1102D01*
X3710D01*
X3716Y1096D01*
Y1091D01*
X3710Y1085D01*
X3704D01*
X3710D01*
X3716Y1079D01*
Y1074D01*
X3710Y1068D01*
X3699D01*
X3693Y1074D01*
X3744Y1068D02*
Y1102D01*
X3727Y1085D01*
X3750D01*
X3511Y840D02*
Y874D01*
X3528D01*
X3534Y868D01*
Y857D01*
X3528Y851D01*
X3511D01*
X3522D02*
X3534Y840D01*
X3545Y868D02*
X3551Y874D01*
X3562D01*
X3568Y868D01*
Y863D01*
X3562Y857D01*
X3556D01*
X3562D01*
X3568Y851D01*
Y846D01*
X3562Y840D01*
X3551D01*
X3545Y846D01*
X3602Y874D02*
X3579D01*
Y857D01*
X3590Y863D01*
X3596D01*
X3602Y857D01*
Y846D01*
X3596Y840D01*
X3585D01*
X3579Y846D01*
X3508Y780D02*
Y814D01*
X3525D01*
X3531Y808D01*
Y797D01*
X3525Y791D01*
X3508D01*
X3519D02*
X3531Y780D01*
X3542Y808D02*
X3548Y814D01*
X3559D01*
X3565Y808D01*
Y803D01*
X3559Y797D01*
X3553D01*
X3559D01*
X3565Y791D01*
Y786D01*
X3559Y780D01*
X3548D01*
X3542Y786D01*
X3599Y814D02*
X3587Y808D01*
X3576Y797D01*
Y786D01*
X3582Y780D01*
X3593D01*
X3599Y786D01*
Y791D01*
X3593Y797D01*
X3576D01*
X4098Y389D02*
X4064D01*
Y406D01*
X4070Y412D01*
X4081D01*
X4087Y406D01*
Y389D01*
Y400D02*
X4098Y412D01*
X4070Y423D02*
X4064Y429D01*
Y440D01*
X4070Y446D01*
X4075D01*
X4081Y440D01*
Y434D01*
Y440D01*
X4087Y446D01*
X4092D01*
X4098Y440D01*
Y429D01*
X4092Y423D01*
X4064Y457D02*
Y480D01*
X4070D01*
X4092Y457D01*
X4098D01*
X3508Y285D02*
Y319D01*
X3525D01*
X3531Y313D01*
Y302D01*
X3525Y296D01*
X3508D01*
X3519D02*
X3531Y285D01*
X3542Y313D02*
X3548Y319D01*
X3559D01*
X3565Y313D01*
Y308D01*
X3559Y302D01*
X3553D01*
X3559D01*
X3565Y296D01*
Y291D01*
X3559Y285D01*
X3548D01*
X3542Y291D01*
X3576Y313D02*
X3582Y319D01*
X3593D01*
X3599Y313D01*
Y308D01*
X3593Y302D01*
X3599Y296D01*
Y291D01*
X3593Y285D01*
X3582D01*
X3576Y291D01*
Y296D01*
X3582Y302D01*
X3576Y308D01*
Y313D01*
X3582Y302D02*
X3593D01*
X3818Y1002D02*
Y967D01*
X3825Y960D01*
X3839D01*
X3846Y967D01*
Y1002D01*
X3860D02*
X3889D01*
Y995D01*
X3860Y967D01*
Y960D01*
X4290Y1082D02*
Y1047D01*
X4297Y1040D01*
X4311D01*
X4318Y1047D01*
Y1082D01*
X4332Y1075D02*
X4339Y1082D01*
X4353D01*
X4360Y1075D01*
Y1068D01*
X4353Y1061D01*
X4360Y1054D01*
Y1047D01*
X4353Y1040D01*
X4339D01*
X4332Y1047D01*
Y1054D01*
X4339Y1061D01*
X4332Y1068D01*
Y1075D01*
X4339Y1061D02*
X4353D01*
X4288Y1584D02*
Y1549D01*
X4295Y1542D01*
X4309D01*
X4316Y1549D01*
Y1584D01*
X4330Y1549D02*
X4338Y1542D01*
X4352D01*
X4359Y1549D01*
Y1577D01*
X4352Y1584D01*
X4338D01*
X4330Y1577D01*
Y1570D01*
X4338Y1563D01*
X4359D01*
X3896Y398D02*
Y391D01*
X3910Y376D01*
X3924Y391D01*
Y398D01*
X3910Y376D02*
Y355D01*
X3967D02*
X3938D01*
X3967Y384D01*
Y391D01*
X3960Y398D01*
X3946D01*
X3938Y391D01*
X973Y2506D02*
X950Y2540D01*
Y2506D02*
X973Y2540D01*
X2857Y354D02*
X2892D01*
X2899Y361D01*
Y375D01*
X2892Y382D01*
X2857D01*
X2864Y425D02*
X2857Y418D01*
Y404D01*
X2864Y396D01*
X2871D01*
X2878Y404D01*
Y418D01*
X2885Y425D01*
X2892D01*
X2899Y418D01*
Y404D01*
X2892Y396D01*
X2857Y439D02*
X2899D01*
Y460D01*
X2892Y467D01*
X2885D01*
X2878Y460D01*
Y439D01*
Y460D01*
X2871Y467D01*
X2864D01*
X2857Y460D01*
Y439D01*
X4611Y135D02*
X4605Y141D01*
X4594D01*
X4588Y135D01*
Y113D01*
X4594Y107D01*
X4605D01*
X4611Y113D01*
X4628Y130D02*
X4639D01*
X4645Y124D01*
Y107D01*
X4628D01*
X4622Y113D01*
X4628Y118D01*
X4645D01*
X4656Y107D02*
Y130D01*
X4662D01*
X4667Y124D01*
Y107D01*
Y124D01*
X4673Y130D01*
X4679Y124D01*
Y107D01*
X4610Y836D02*
X4604Y842D01*
X4593D01*
X4587Y836D01*
Y814D01*
X4593Y808D01*
X4604D01*
X4610Y814D01*
X4627Y831D02*
X4638D01*
X4644Y825D01*
Y808D01*
X4627D01*
X4621Y814D01*
X4627Y819D01*
X4644D01*
X4655Y808D02*
Y831D01*
X4661D01*
X4666Y825D01*
Y808D01*
Y825D01*
X4672Y831D01*
X4678Y825D01*
Y808D01*
X4587Y87D02*
Y53D01*
X4604D01*
X4610Y59D01*
Y64D01*
X4604Y70D01*
X4587D01*
X4604D01*
X4610Y76D01*
Y81D01*
X4604Y87D01*
X4587D01*
X4627Y53D02*
X4638D01*
X4644Y59D01*
Y70D01*
X4638Y76D01*
X4627D01*
X4621Y70D01*
Y59D01*
X4627Y53D01*
X4661Y81D02*
Y76D01*
X4655D01*
X4666D01*
X4661D01*
Y59D01*
X4666Y53D01*
X4689Y81D02*
Y76D01*
X4683D01*
X4695D01*
X4689D01*
Y59D01*
X4695Y53D01*
X4717D02*
X4729D01*
X4734Y59D01*
Y70D01*
X4729Y76D01*
X4717D01*
X4712Y70D01*
Y59D01*
X4717Y53D01*
X4746D02*
Y76D01*
X4751D01*
X4757Y70D01*
Y53D01*
Y70D01*
X4763Y76D01*
X4768Y70D01*
Y53D01*
X4584Y789D02*
X4607D01*
X4595D01*
Y755D01*
X4624D02*
X4635D01*
X4641Y761D01*
Y772D01*
X4635Y778D01*
X4624D01*
X4618Y772D01*
Y761D01*
X4624Y755D01*
X4652Y744D02*
Y778D01*
X4669D01*
X4675Y772D01*
Y761D01*
X4669Y755D01*
X4652D01*
X4508Y1976D02*
X4474D01*
Y1993D01*
X4480Y1999D01*
X4491D01*
X4497Y1993D01*
Y1976D01*
Y1987D02*
X4508Y1999D01*
X4476Y1552D02*
X4510D01*
Y1575D01*
X4508Y2619D02*
X4474D01*
Y2636D01*
X4480Y2642D01*
X4491D01*
X4497Y2636D01*
Y2619D01*
Y2630D02*
X4508Y2642D01*
X4467Y2201D02*
X4501D01*
Y2224D01*
X4493Y2794D02*
Y2760D01*
X4516D01*
X4533Y2783D02*
X4544D01*
X4550Y2777D01*
Y2760D01*
X4533D01*
X4527Y2766D01*
X4533Y2771D01*
X4550D01*
X4561Y2760D02*
X4578D01*
X4584Y2766D01*
X4578Y2771D01*
X4567D01*
X4561Y2777D01*
X4567Y2783D01*
X4584D01*
X4612Y2760D02*
X4601D01*
X4595Y2766D01*
Y2777D01*
X4601Y2783D01*
X4612D01*
X4618Y2777D01*
Y2771D01*
X4595D01*
X4629Y2783D02*
Y2760D01*
Y2771D01*
X4635Y2777D01*
X4640Y2783D01*
X4646D01*
X4697Y2794D02*
Y2760D01*
X4714D01*
X4720Y2766D01*
Y2771D01*
X4714Y2777D01*
X4697D01*
X4714D01*
X4720Y2783D01*
Y2788D01*
X4714Y2794D01*
X4697D01*
X4737Y2760D02*
X4748D01*
X4754Y2766D01*
Y2777D01*
X4748Y2783D01*
X4737D01*
X4731Y2777D01*
Y2766D01*
X4737Y2760D01*
X4771Y2788D02*
Y2783D01*
X4765D01*
X4776D01*
X4771D01*
Y2766D01*
X4776Y2760D01*
X4799Y2788D02*
Y2783D01*
X4793D01*
X4805D01*
X4799D01*
Y2766D01*
X4805Y2760D01*
X4827D02*
X4839D01*
X4844Y2766D01*
Y2777D01*
X4839Y2783D01*
X4827D01*
X4822Y2777D01*
Y2766D01*
X4827Y2760D01*
X4856D02*
Y2783D01*
X4861D01*
X4867Y2777D01*
Y2760D01*
Y2777D01*
X4873Y2783D01*
X4878Y2777D01*
Y2760D01*
X4491Y2847D02*
Y2813D01*
X4514D01*
X4531Y2836D02*
X4542D01*
X4548Y2830D01*
Y2813D01*
X4531D01*
X4525Y2819D01*
X4531Y2824D01*
X4548D01*
X4559Y2813D02*
X4576D01*
X4582Y2819D01*
X4576Y2824D01*
X4565D01*
X4559Y2830D01*
X4565Y2836D01*
X4582D01*
X4610Y2813D02*
X4599D01*
X4593Y2819D01*
Y2830D01*
X4599Y2836D01*
X4610D01*
X4616Y2830D01*
Y2824D01*
X4593D01*
X4627Y2836D02*
Y2813D01*
Y2824D01*
X4633Y2830D01*
X4638Y2836D01*
X4644D01*
X4695Y2847D02*
X4718D01*
X4706D01*
Y2813D01*
X4735D02*
X4746D01*
X4752Y2819D01*
Y2830D01*
X4746Y2836D01*
X4735D01*
X4729Y2830D01*
Y2819D01*
X4735Y2813D01*
X4763Y2802D02*
Y2836D01*
X4780D01*
X4786Y2830D01*
Y2819D01*
X4780Y2813D01*
X4763D01*
X3102Y1750D02*
X3125D01*
X3136Y1761D01*
X3125Y1773D01*
X3102D01*
X3136Y1784D02*
X3102D01*
X3113Y1795D01*
X3102Y1807D01*
X3136D01*
X3102Y1835D02*
Y1824D01*
X3108Y1818D01*
X3130D01*
X3136Y1824D01*
Y1835D01*
X3130Y1841D01*
X3108D01*
X3102Y1835D01*
Y1852D02*
Y1875D01*
Y1863D01*
X3136D01*
X2214Y1750D02*
X2237D01*
X2248Y1761D01*
X2237Y1773D01*
X2214D01*
X2248Y1784D02*
X2214D01*
X2225Y1795D01*
X2214Y1807D01*
X2248D01*
X2214Y1835D02*
Y1824D01*
X2220Y1818D01*
X2242D01*
X2248Y1824D01*
Y1835D01*
X2242Y1841D01*
X2220D01*
X2214Y1835D01*
Y1852D02*
Y1875D01*
Y1863D01*
X2248D01*
X3291Y1804D02*
X3285Y1798D01*
Y1787D01*
X3291Y1781D01*
X3313D01*
X3319Y1787D01*
Y1798D01*
X3313Y1804D01*
X3302D01*
Y1792D01*
X3319Y1815D02*
X3285D01*
X3319Y1838D01*
X3285D01*
Y1849D02*
X3319D01*
Y1866D01*
X3313Y1872D01*
X3291D01*
X3285Y1866D01*
Y1849D01*
X2403Y1804D02*
X2397Y1798D01*
Y1787D01*
X2403Y1781D01*
X2425D01*
X2431Y1787D01*
Y1798D01*
X2425Y1804D01*
X2414D01*
Y1792D01*
X2431Y1815D02*
X2397D01*
X2431Y1838D01*
X2397D01*
Y1849D02*
X2431D01*
Y1866D01*
X2425Y1872D01*
X2403D01*
X2397Y1866D01*
Y1849D01*
X1515Y1804D02*
X1509Y1798D01*
Y1787D01*
X1515Y1781D01*
X1537D01*
X1543Y1787D01*
Y1798D01*
X1537Y1804D01*
X1526D01*
Y1792D01*
X1543Y1815D02*
X1509D01*
X1543Y1838D01*
X1509D01*
Y1849D02*
X1543D01*
Y1866D01*
X1537Y1872D01*
X1515D01*
X1509Y1866D01*
Y1849D01*
X3990Y1750D02*
X4013D01*
X4024Y1761D01*
X4013Y1773D01*
X3990D01*
X4024Y1784D02*
X3990D01*
X4001Y1795D01*
X3990Y1807D01*
X4024D01*
X3990Y1835D02*
Y1824D01*
X3996Y1818D01*
X4018D01*
X4024Y1824D01*
Y1835D01*
X4018Y1841D01*
X3996D01*
X3990Y1835D01*
Y1852D02*
Y1875D01*
Y1863D01*
X4024D01*
X536Y2513D02*
X513D01*
Y2519D01*
X536Y2541D01*
Y2547D01*
X513D01*
X41Y1278D02*
Y1244D01*
X64D01*
X98Y1272D02*
X92Y1278D01*
X81D01*
X75Y1272D01*
Y1250D01*
X81Y1244D01*
X92D01*
X98Y1250D01*
X109Y1278D02*
Y1244D01*
X126D01*
X132Y1250D01*
Y1272D01*
X126Y1278D01*
X109D01*
X177D02*
X188D01*
X183D01*
Y1244D01*
X177D01*
X188D01*
X205D02*
Y1267D01*
X222D01*
X228Y1261D01*
Y1244D01*
X245Y1272D02*
Y1267D01*
X239D01*
X251D01*
X245D01*
Y1250D01*
X251Y1244D01*
X285D02*
X273D01*
X268Y1250D01*
Y1261D01*
X273Y1267D01*
X285D01*
X290Y1261D01*
Y1255D01*
X268D01*
X302Y1267D02*
Y1244D01*
Y1255D01*
X307Y1261D01*
X313Y1267D01*
X319D01*
X341Y1244D02*
Y1272D01*
Y1261D01*
X336D01*
X347D01*
X341D01*
Y1272D01*
X347Y1278D01*
X370Y1267D02*
X381D01*
X387Y1261D01*
Y1244D01*
X370D01*
X364Y1250D01*
X370Y1255D01*
X387D01*
X421Y1267D02*
X404D01*
X398Y1261D01*
Y1250D01*
X404Y1244D01*
X421D01*
X449D02*
X438D01*
X432Y1250D01*
Y1261D01*
X438Y1267D01*
X449D01*
X455Y1261D01*
Y1255D01*
X432D01*
X65Y1200D02*
X59Y1206D01*
X48D01*
X42Y1200D01*
Y1178D01*
X48Y1172D01*
X59D01*
X65Y1178D01*
X82Y1172D02*
X93D01*
X99Y1178D01*
Y1189D01*
X93Y1195D01*
X82D01*
X76Y1189D01*
Y1178D01*
X82Y1172D01*
X116D02*
X127D01*
X133Y1178D01*
Y1189D01*
X127Y1195D01*
X116D01*
X110Y1189D01*
Y1178D01*
X116Y1172D01*
X144D02*
X155D01*
X150D01*
Y1206D01*
X144D01*
X172Y1172D02*
X184D01*
X178D01*
Y1195D01*
X172D01*
X201Y1172D02*
Y1195D01*
X218D01*
X223Y1189D01*
Y1172D01*
X246Y1161D02*
X252D01*
X257Y1166D01*
Y1195D01*
X240D01*
X235Y1189D01*
Y1178D01*
X240Y1172D01*
X257D01*
X325Y1206D02*
X303D01*
Y1189D01*
X314D01*
X303D01*
Y1172D01*
X342Y1195D02*
X354D01*
X359Y1189D01*
Y1172D01*
X342D01*
X337Y1178D01*
X342Y1183D01*
X359D01*
X371Y1172D02*
Y1195D01*
X388D01*
X393Y1189D01*
Y1172D01*
X405D02*
X422D01*
X427Y1178D01*
X422Y1183D01*
X410D01*
X405Y1189D01*
X410Y1195D01*
X427D01*
X386Y2668D02*
Y2645D01*
X420D01*
Y2668D01*
X403Y2645D02*
Y2656D01*
X420Y2679D02*
X397D01*
Y2696D01*
X403Y2702D01*
X420D01*
X386Y2736D02*
X420D01*
Y2719D01*
X414Y2713D01*
X403D01*
X397Y2719D01*
Y2736D01*
X420Y2747D02*
Y2764D01*
X414Y2770D01*
X409Y2764D01*
Y2753D01*
X403Y2747D01*
X397Y2753D01*
Y2770D01*
X392Y2787D02*
X397D01*
Y2781D01*
Y2792D01*
Y2787D01*
X414D01*
X420Y2792D01*
Y2815D02*
Y2826D01*
X414Y2832D01*
X403D01*
X397Y2826D01*
Y2815D01*
X403Y2809D01*
X414D01*
X420Y2815D01*
X431Y2843D02*
X397D01*
Y2860D01*
X403Y2866D01*
X414D01*
X420Y2860D01*
Y2843D01*
Y2877D02*
Y2894D01*
X414Y2900D01*
X409Y2894D01*
Y2883D01*
X403Y2877D01*
X397Y2883D01*
Y2900D01*
X1086Y2620D02*
X1120Y2642D01*
X1086D02*
X1120Y2620D01*
X1091Y2710D02*
X1086Y2705D01*
Y2693D01*
X1091Y2688D01*
X1097D01*
X1103Y2693D01*
Y2705D01*
X1108Y2710D01*
X1114D01*
X1120Y2705D01*
Y2693D01*
X1114Y2688D01*
X1091Y2727D02*
X1097D01*
Y2722D01*
Y2733D01*
Y2727D01*
X1114D01*
X1120Y2733D01*
Y2767D02*
Y2756D01*
X1114Y2750D01*
X1103D01*
X1097Y2756D01*
Y2767D01*
X1103Y2773D01*
X1108D01*
Y2750D01*
X1131Y2784D02*
X1097D01*
Y2801D01*
X1103Y2807D01*
X1114D01*
X1120Y2801D01*
Y2784D01*
X1131Y2818D02*
X1097D01*
Y2835D01*
X1103Y2841D01*
X1114D01*
X1120Y2835D01*
Y2818D01*
Y2869D02*
Y2858D01*
X1114Y2852D01*
X1103D01*
X1097Y2858D01*
Y2869D01*
X1103Y2875D01*
X1108D01*
Y2852D01*
X1097Y2886D02*
X1120D01*
X1108D01*
X1103Y2892D01*
X1097Y2897D01*
Y2903D01*
X1594Y2620D02*
X1599D01*
X1611Y2631D01*
X1599Y2642D01*
X1594D01*
X1611Y2631D02*
X1628D01*
X1599Y2710D02*
X1594Y2705D01*
Y2693D01*
X1599Y2688D01*
X1605D01*
X1611Y2693D01*
Y2705D01*
X1616Y2710D01*
X1622D01*
X1628Y2705D01*
Y2693D01*
X1622Y2688D01*
X1599Y2727D02*
X1605D01*
Y2722D01*
Y2733D01*
Y2727D01*
X1622D01*
X1628Y2733D01*
Y2767D02*
Y2756D01*
X1622Y2750D01*
X1611D01*
X1605Y2756D01*
Y2767D01*
X1611Y2773D01*
X1616D01*
Y2750D01*
X1639Y2784D02*
X1605D01*
Y2801D01*
X1611Y2807D01*
X1622D01*
X1628Y2801D01*
Y2784D01*
X1639Y2818D02*
X1605D01*
Y2835D01*
X1611Y2841D01*
X1622D01*
X1628Y2835D01*
Y2818D01*
Y2869D02*
Y2858D01*
X1622Y2852D01*
X1611D01*
X1605Y2858D01*
Y2869D01*
X1611Y2875D01*
X1616D01*
Y2852D01*
X1605Y2886D02*
X1628D01*
X1616D01*
X1611Y2892D01*
X1605Y2897D01*
Y2903D01*
X2102Y2620D02*
Y2642D01*
X2107D01*
X2130Y2620D01*
X2136D01*
Y2642D01*
X2107Y2710D02*
X2102Y2705D01*
Y2693D01*
X2107Y2688D01*
X2113D01*
X2119Y2693D01*
Y2705D01*
X2124Y2710D01*
X2130D01*
X2136Y2705D01*
Y2693D01*
X2130Y2688D01*
X2107Y2727D02*
X2113D01*
Y2722D01*
Y2733D01*
Y2727D01*
X2130D01*
X2136Y2733D01*
Y2767D02*
Y2756D01*
X2130Y2750D01*
X2119D01*
X2113Y2756D01*
Y2767D01*
X2119Y2773D01*
X2124D01*
Y2750D01*
X2147Y2784D02*
X2113D01*
Y2801D01*
X2119Y2807D01*
X2130D01*
X2136Y2801D01*
Y2784D01*
X2147Y2818D02*
X2113D01*
Y2835D01*
X2119Y2841D01*
X2130D01*
X2136Y2835D01*
Y2818D01*
Y2869D02*
Y2858D01*
X2130Y2852D01*
X2119D01*
X2113Y2858D01*
Y2869D01*
X2119Y2875D01*
X2124D01*
Y2852D01*
X2113Y2886D02*
X2136D01*
X2124D01*
X2119Y2892D01*
X2113Y2897D01*
Y2903D01*
X2610Y2642D02*
Y2620D01*
X2644D01*
Y2642D01*
X2627Y2620D02*
Y2631D01*
X2615Y2710D02*
X2610Y2705D01*
Y2693D01*
X2615Y2688D01*
X2621D01*
X2627Y2693D01*
Y2705D01*
X2632Y2710D01*
X2638D01*
X2644Y2705D01*
Y2693D01*
X2638Y2688D01*
X2615Y2727D02*
X2621D01*
Y2722D01*
Y2733D01*
Y2727D01*
X2638D01*
X2644Y2733D01*
Y2767D02*
Y2756D01*
X2638Y2750D01*
X2627D01*
X2621Y2756D01*
Y2767D01*
X2627Y2773D01*
X2632D01*
Y2750D01*
X2655Y2784D02*
X2621D01*
Y2801D01*
X2627Y2807D01*
X2638D01*
X2644Y2801D01*
Y2784D01*
X2655Y2818D02*
X2621D01*
Y2835D01*
X2627Y2841D01*
X2638D01*
X2644Y2835D01*
Y2818D01*
Y2869D02*
Y2858D01*
X2638Y2852D01*
X2627D01*
X2621Y2858D01*
Y2869D01*
X2627Y2875D01*
X2632D01*
Y2852D01*
X2621Y2886D02*
X2644D01*
X2632D01*
X2627Y2892D01*
X2621Y2897D01*
Y2903D01*
X4133Y2723D02*
X4167D01*
X4150D01*
Y2746D01*
X4133D01*
X4167D01*
Y2774D02*
Y2763D01*
X4161Y2757D01*
X4150D01*
X4144Y2763D01*
Y2774D01*
X4150Y2780D01*
X4156D01*
Y2757D01*
X4144Y2797D02*
Y2808D01*
X4150Y2814D01*
X4167D01*
Y2797D01*
X4161Y2791D01*
X4156Y2797D01*
Y2814D01*
X4139Y2831D02*
X4144D01*
Y2825D01*
Y2836D01*
Y2831D01*
X4161D01*
X4167Y2836D01*
Y2870D02*
Y2859D01*
X4161Y2853D01*
X4150D01*
X4144Y2859D01*
Y2870D01*
X4150Y2876D01*
X4156D01*
Y2853D01*
X4144Y2887D02*
X4167D01*
X4156D01*
X4150Y2893D01*
X4144Y2899D01*
Y2904D01*
X3463Y2591D02*
Y2614D01*
Y2603D01*
X3497D01*
X3463Y2625D02*
X3497D01*
X3480D01*
X3474Y2631D01*
Y2642D01*
X3480Y2648D01*
X3497D01*
Y2676D02*
Y2665D01*
X3491Y2659D01*
X3480D01*
X3474Y2665D01*
Y2676D01*
X3480Y2682D01*
X3486D01*
Y2659D01*
X3474Y2693D02*
X3497D01*
X3486D01*
X3480Y2699D01*
X3474Y2705D01*
Y2710D01*
X3497Y2727D02*
X3474D01*
Y2733D01*
X3480Y2739D01*
X3497D01*
X3480D01*
X3474Y2744D01*
X3480Y2750D01*
X3497D01*
Y2761D02*
Y2773D01*
Y2767D01*
X3474D01*
Y2761D01*
X3497Y2790D02*
Y2807D01*
X3491Y2812D01*
X3486Y2807D01*
Y2795D01*
X3480Y2790D01*
X3474Y2795D01*
Y2812D01*
X3469Y2829D02*
X3474D01*
Y2824D01*
Y2835D01*
Y2829D01*
X3491D01*
X3497Y2835D01*
Y2858D02*
Y2869D01*
X3491Y2875D01*
X3480D01*
X3474Y2869D01*
Y2858D01*
X3480Y2852D01*
X3491D01*
X3497Y2858D01*
X3474Y2886D02*
X3497D01*
X3486D01*
X3480Y2892D01*
X3474Y2897D01*
Y2903D01*
X3097Y2663D02*
Y2640D01*
X3131D01*
Y2663D01*
X3114Y2640D02*
Y2651D01*
X3108Y2674D02*
X3131Y2697D01*
X3120Y2685D01*
X3108Y2697D01*
X3131Y2674D01*
X3103Y2714D02*
X3108D01*
Y2708D01*
Y2719D01*
Y2714D01*
X3125D01*
X3131Y2719D01*
X3108Y2736D02*
X3131D01*
X3120D01*
X3114Y2742D01*
X3108Y2748D01*
Y2753D01*
X3097Y2827D02*
Y2804D01*
X3114D01*
Y2816D01*
Y2804D01*
X3131D01*
X3108Y2844D02*
Y2855D01*
X3114Y2861D01*
X3131D01*
Y2844D01*
X3125Y2838D01*
X3120Y2844D01*
Y2861D01*
X3131Y2872D02*
X3108D01*
Y2889D01*
X3114Y2895D01*
X3131D01*
X488Y977D02*
X516D01*
X502Y991D02*
Y963D01*
X488Y873D02*
X516D01*
X488Y777D02*
X516D01*
X502Y791D02*
Y763D01*
X488Y681D02*
X516D01*
X3947Y2346D02*
X3981D01*
X3964D01*
Y2369D01*
X3947D01*
X3981D01*
X3947Y2403D02*
Y2380D01*
X3981D01*
Y2403D01*
X3964Y2380D02*
Y2391D01*
X3981Y2414D02*
X3958D01*
X3947Y2425D01*
X3958Y2437D01*
X3981D01*
X3964D01*
Y2414D01*
X3947Y2448D02*
Y2471D01*
Y2459D01*
X3981D01*
X3883Y2386D02*
Y2397D01*
Y2392D01*
X3849D01*
X3855Y2386D01*
X3883Y2437D02*
Y2414D01*
X3860Y2437D01*
X3855D01*
X3849Y2431D01*
Y2420D01*
X3855Y2414D01*
X3849Y2448D02*
X3872D01*
X3883Y2460D01*
X3872Y2471D01*
X3849D01*
X3755Y2406D02*
X3749Y2400D01*
Y2389D01*
X3755Y2383D01*
X3777D01*
X3783Y2389D01*
Y2400D01*
X3777Y2406D01*
X3766D01*
Y2394D01*
X3783Y2417D02*
X3749D01*
X3783Y2440D01*
X3749D01*
Y2451D02*
X3783D01*
Y2468D01*
X3777Y2474D01*
X3755D01*
X3749Y2468D01*
Y2451D01*
X3650Y2311D02*
Y2334D01*
Y2322D01*
X3684D01*
X3650Y2345D02*
X3684D01*
X3667D01*
Y2368D01*
X3650D01*
X3684D01*
X3650Y2402D02*
Y2379D01*
X3684D01*
Y2402D01*
X3667Y2379D02*
Y2390D01*
X3684Y2413D02*
X3650D01*
Y2430D01*
X3656Y2436D01*
X3667D01*
X3673Y2430D01*
Y2413D01*
Y2424D02*
X3684Y2436D01*
Y2447D02*
X3650D01*
X3661Y2458D01*
X3650Y2470D01*
X3684D01*
X3367Y2423D02*
Y2434D01*
Y2429D01*
X3333D01*
X3339Y2423D01*
X3367Y2474D02*
Y2451D01*
X3345Y2474D01*
X3339D01*
X3333Y2468D01*
Y2457D01*
X3339Y2451D01*
X3333Y2485D02*
X3356D01*
X3367Y2497D01*
X3356Y2508D01*
X3333D01*
X3233Y2440D02*
Y2417D01*
X3250D01*
Y2429D01*
Y2417D01*
X3267D01*
Y2451D02*
X3245D01*
X3233Y2463D01*
X3245Y2474D01*
X3267D01*
X3250D01*
Y2451D01*
X3267Y2485D02*
X3233D01*
X3267Y2508D01*
X3233D01*
X1326Y1750D02*
X1349D01*
X1360Y1761D01*
X1349Y1773D01*
X1326D01*
X1360Y1784D02*
X1326D01*
X1337Y1795D01*
X1326Y1807D01*
X1360D01*
X1326Y1835D02*
Y1824D01*
X1332Y1818D01*
X1354D01*
X1360Y1824D01*
Y1835D01*
X1354Y1841D01*
X1332D01*
X1326Y1835D01*
Y1852D02*
Y1875D01*
Y1863D01*
X1360D01*
X627Y1804D02*
X621Y1798D01*
Y1787D01*
X627Y1781D01*
X649D01*
X655Y1787D01*
Y1798D01*
X649Y1804D01*
X638D01*
Y1792D01*
X655Y1815D02*
X621D01*
X655Y1838D01*
X621D01*
Y1849D02*
X655D01*
Y1866D01*
X649Y1872D01*
X627D01*
X621Y1866D01*
Y1849D01*
D64*
X4146Y1928D02*
D03*
X1216Y1054D02*
D03*
X1144D02*
D03*
X1072D02*
D03*
D65*
X4194Y1928D02*
D03*
X1264Y1054D02*
D03*
X1192D02*
D03*
X1120D02*
D03*
D66*
X4170Y1928D02*
D03*
X1240Y1054D02*
D03*
X1168D02*
D03*
X1096D02*
D03*
D67*
X2924Y1170D02*
D03*
D68*
X2259Y391D02*
D03*
Y191D02*
D03*
Y291D02*
D03*
M02*
