%FSLAX23Y23*%
%MOIN*%
G70*
G01*
G75*
G04 Layer_Color=16711935*
%ADD10C,0.008*%
%ADD11C,0.020*%
%ADD12C,0.010*%
%ADD13C,0.030*%
%ADD14R,0.048X0.048*%
%ADD15R,0.048X0.048*%
%ADD16R,0.071X0.048*%
%ADD17R,0.048X0.071*%
%ADD18R,0.087X0.024*%
%ADD19R,0.038X0.012*%
%ADD20R,0.012X0.038*%
%ADD21R,0.173X0.173*%
%ADD22R,0.060X0.020*%
%ADD23R,0.020X0.060*%
%ADD24R,0.022X0.048*%
%ADD25R,0.016X0.060*%
%ADD26R,0.150X0.082*%
%ADD27R,0.350X0.450*%
%ADD28R,0.083X0.052*%
%ADD29R,0.040X0.044*%
%ADD30R,0.044X0.040*%
%ADD31R,0.024X0.087*%
%ADD32R,0.046X0.021*%
%ADD33R,0.178X0.052*%
%ADD34R,0.154X0.071*%
%ADD35R,0.052X0.178*%
%ADD36R,0.071X0.154*%
%ADD37R,0.056X0.119*%
%ADD38R,0.043X0.042*%
%ADD39R,0.042X0.043*%
%ADD40R,0.060X0.079*%
%ADD41R,0.119X0.056*%
%ADD42R,0.079X0.048*%
%ADD43C,0.040*%
%ADD44C,0.012*%
%ADD45C,0.015*%
%ADD46C,0.006*%
%ADD47O,0.060X0.120*%
%ADD48C,0.054*%
%ADD49C,0.137*%
%ADD50C,0.060*%
%ADD51O,0.102X0.295*%
%ADD52O,0.181X0.059*%
%ADD53O,0.063X0.189*%
%ADD54C,0.066*%
%ADD55C,0.135*%
%ADD56P,0.065X8X22.5*%
%ADD57C,0.230*%
%ADD58C,0.056*%
%ADD59C,0.030*%
%ADD60C,0.040*%
%ADD61C,0.000*%
%ADD62C,0.004*%
%ADD63C,0.005*%
%ADD64R,0.006X0.012*%
%ADD65R,0.006X0.012*%
%ADD66R,0.012X0.012*%
%ADD67R,0.008X0.008*%
%ADD68R,0.098X0.056*%
%ADD69R,0.056X0.056*%
%ADD70R,0.056X0.056*%
%ADD71R,0.079X0.056*%
%ADD72R,0.056X0.079*%
%ADD73R,0.095X0.032*%
%ADD74R,0.046X0.020*%
%ADD75R,0.020X0.046*%
%ADD76R,0.181X0.181*%
%ADD77R,0.068X0.028*%
%ADD78R,0.028X0.068*%
%ADD79R,0.030X0.056*%
%ADD80R,0.024X0.068*%
%ADD81R,0.158X0.090*%
%ADD82R,0.358X0.458*%
%ADD83R,0.091X0.060*%
%ADD84R,0.048X0.052*%
%ADD85R,0.052X0.048*%
%ADD86R,0.032X0.095*%
%ADD87R,0.054X0.029*%
%ADD88R,0.186X0.060*%
%ADD89R,0.162X0.079*%
%ADD90R,0.060X0.186*%
%ADD91R,0.079X0.162*%
%ADD92R,0.064X0.127*%
%ADD93R,0.051X0.050*%
%ADD94R,0.050X0.051*%
%ADD95R,0.068X0.087*%
%ADD96R,0.127X0.064*%
%ADD97R,0.087X0.056*%
%ADD98O,0.068X0.128*%
%ADD99C,0.062*%
%ADD100C,0.144*%
%ADD101C,0.068*%
%ADD102O,0.110X0.303*%
%ADD103O,0.189X0.067*%
%ADD104O,0.071X0.197*%
%ADD105C,0.074*%
%ADD106C,0.143*%
%ADD107P,0.074X8X22.5*%
%ADD108C,0.238*%
%ADD109C,0.064*%
%ADD110C,0.038*%
D46*
X79Y2953D02*
G03*
X0Y2875I-1J-79D01*
G01*
X4922D02*
G03*
X4843Y2953I-79J-1D01*
G01*
Y0D02*
G03*
X4922Y79I0J79D01*
G01*
X0D02*
G03*
X79Y0I79J0D01*
G01*
Y2953D02*
X4843D01*
X4922Y79D02*
Y2875D01*
X79Y0D02*
X4843D01*
X0Y79D02*
Y2875D01*
D98*
X2516Y2411D02*
D03*
X2416D02*
D03*
X2316D02*
D03*
X2216D02*
D03*
X2008D02*
D03*
X1908D02*
D03*
X1808D02*
D03*
X1708D02*
D03*
X1500D02*
D03*
X1400D02*
D03*
X1300D02*
D03*
X1200D02*
D03*
X3024D02*
D03*
X2924D02*
D03*
X2824D02*
D03*
X2724D02*
D03*
D99*
X4693Y981D02*
D03*
Y1079D02*
D03*
Y1158D02*
D03*
Y1257D02*
D03*
Y290D02*
D03*
Y388D02*
D03*
Y468D02*
D03*
Y566D02*
D03*
D100*
X4800Y1378D02*
D03*
Y860D02*
D03*
Y687D02*
D03*
Y169D02*
D03*
D101*
X3118Y1942D02*
D03*
X3018D02*
D03*
X2918D02*
D03*
X2818D02*
D03*
X2718D02*
D03*
X2618D02*
D03*
X2518D02*
D03*
X2418D02*
D03*
Y1442D02*
D03*
X2518D02*
D03*
X2618D02*
D03*
X2718D02*
D03*
X2818D02*
D03*
X2918D02*
D03*
X3018D02*
D03*
X3118D02*
D03*
X2230Y1942D02*
D03*
X2130D02*
D03*
X2030D02*
D03*
X1930D02*
D03*
X1830D02*
D03*
X1730D02*
D03*
X1630D02*
D03*
X1530D02*
D03*
Y1442D02*
D03*
X1630D02*
D03*
X1730D02*
D03*
X1830D02*
D03*
X1930D02*
D03*
X2030D02*
D03*
X2130D02*
D03*
X2230D02*
D03*
X1341Y1944D02*
D03*
X1241D02*
D03*
X1141D02*
D03*
X1041D02*
D03*
X941D02*
D03*
X841D02*
D03*
X741D02*
D03*
X641D02*
D03*
Y1444D02*
D03*
X741D02*
D03*
X841D02*
D03*
X941D02*
D03*
X1041D02*
D03*
X1141D02*
D03*
X1241D02*
D03*
X1341D02*
D03*
X4006Y1942D02*
D03*
X3906D02*
D03*
X3806D02*
D03*
X3706D02*
D03*
X3606D02*
D03*
X3506D02*
D03*
X3406D02*
D03*
X3306D02*
D03*
Y1442D02*
D03*
X3406D02*
D03*
X3506D02*
D03*
X3606D02*
D03*
X3706D02*
D03*
X3806D02*
D03*
X3906D02*
D03*
X4006D02*
D03*
X1010Y187D02*
D03*
Y387D02*
D03*
X3252Y2574D02*
D03*
X3350D02*
D03*
D102*
X1857Y300D02*
D03*
X1580D02*
D03*
X1303D02*
D03*
D103*
X689Y194D02*
D03*
X579Y83D02*
D03*
D104*
X441Y300D02*
D03*
D105*
X3212Y233D02*
D03*
Y359D02*
D03*
X3114D02*
D03*
Y233D02*
D03*
D106*
X2924Y253D02*
D03*
X3398D02*
D03*
D107*
X2640Y1090D02*
D03*
Y990D02*
D03*
X2540Y1090D02*
D03*
Y990D02*
D03*
X2440Y1090D02*
D03*
Y990D02*
D03*
D108*
X4331Y2756D02*
D03*
X197D02*
D03*
X4238Y263D02*
D03*
X197Y197D02*
D03*
D109*
X403Y2097D02*
D03*
X503D02*
D03*
X403Y1997D02*
D03*
X503D02*
D03*
X403Y1897D02*
D03*
X503D02*
D03*
X403Y1797D02*
D03*
X503D02*
D03*
X403Y1697D02*
D03*
X503D02*
D03*
X403Y1597D02*
D03*
X503D02*
D03*
X403Y1497D02*
D03*
X503D02*
D03*
D110*
X3965Y839D02*
D03*
X2887Y941D02*
D03*
X441Y1048D02*
D03*
X2178Y764D02*
D03*
X3366Y1514D02*
D03*
X4014Y1532D02*
D03*
X3816Y1529D02*
D03*
X2322Y2319D02*
D03*
X1815Y2302D02*
D03*
X1057Y2077D02*
D03*
X1265Y2314D02*
D03*
X1730Y1688D02*
D03*
X1818Y1678D02*
D03*
X335Y1872D02*
D03*
X2519Y1250D02*
D03*
X2346Y1088D02*
D03*
X2727Y768D02*
D03*
X873Y430D02*
D03*
X335Y2377D02*
D03*
X1002Y2484D02*
D03*
X753Y2862D02*
D03*
X1385Y2562D02*
D03*
X1907Y2567D02*
D03*
X2396Y2569D02*
D03*
X2894Y2567D02*
D03*
X3292Y2857D02*
D03*
X3190Y2389D02*
D03*
X1445Y2036D02*
D03*
X2322Y1998D02*
D03*
X4225Y483D02*
D03*
X2556Y759D02*
D03*
X111Y2179D02*
D03*
X144Y401D02*
D03*
X1707Y344D02*
D03*
X1436Y263D02*
D03*
X2837Y94D02*
D03*
X2796Y301D02*
D03*
X4515Y2146D02*
D03*
X4507Y2668D02*
D03*
X4672Y2883D02*
D03*
X4372Y2551D02*
D03*
X3847Y1731D02*
D03*
X3705Y1712D02*
D03*
X3604Y1655D02*
D03*
X3109D02*
D03*
X2894Y1617D02*
D03*
X2708Y1731D02*
D03*
X2027Y1736D02*
D03*
X1402Y1650D02*
D03*
X2194Y1664D02*
D03*
X306Y2541D02*
D03*
X2334Y1429D02*
D03*
X4799Y41D02*
D03*
X4865Y423D02*
D03*
X4864Y1155D02*
D03*
X957Y1720D02*
D03*
X4448Y243D02*
D03*
X4516Y2024D02*
D03*
X4680Y1550D02*
D03*
X4692Y2188D02*
D03*
X2931Y1712D02*
D03*
X1925Y1618D02*
D03*
X787Y2153D02*
D03*
X697Y1641D02*
D03*
X1115Y1690D02*
D03*
X1110Y589D02*
D03*
X918Y89D02*
D03*
X1112Y239D02*
D03*
X3872Y839D02*
D03*
X3917D02*
D03*
X4010D02*
D03*
X3872Y791D02*
D03*
X3917D02*
D03*
X4010D02*
D03*
X3965D02*
D03*
X3872Y746D02*
D03*
X3917D02*
D03*
X4010D02*
D03*
X3965D02*
D03*
Y884D02*
D03*
X4010D02*
D03*
X3917D02*
D03*
X3872D02*
D03*
X4165Y2530D02*
D03*
Y2460D02*
D03*
X4235D02*
D03*
X4025D02*
D03*
X4095D02*
D03*
X4025Y2530D02*
D03*
X4095D02*
D03*
Y2600D02*
D03*
X4025D02*
D03*
X3720Y1834D02*
D03*
X3616Y1836D02*
D03*
X2290Y544D02*
D03*
M02*
