%FSLAX23Y23*%
%MOIN*%
G70*
G01*
G75*
G04 Layer_Color=32896*
%ADD10C,0.008*%
%ADD11C,0.020*%
%ADD12C,0.010*%
%ADD13C,0.030*%
%ADD14R,0.048X0.048*%
%ADD15R,0.048X0.048*%
%ADD16R,0.071X0.048*%
%ADD17R,0.048X0.071*%
%ADD18R,0.087X0.024*%
%ADD19R,0.038X0.012*%
%ADD20R,0.012X0.038*%
%ADD21R,0.173X0.173*%
%ADD22R,0.060X0.020*%
%ADD23R,0.020X0.060*%
%ADD24R,0.022X0.048*%
%ADD25R,0.016X0.060*%
%ADD26R,0.150X0.082*%
%ADD27R,0.350X0.450*%
%ADD28R,0.083X0.052*%
%ADD29R,0.040X0.044*%
%ADD30R,0.044X0.040*%
%ADD31R,0.024X0.087*%
%ADD32R,0.046X0.021*%
%ADD33R,0.178X0.052*%
%ADD34R,0.154X0.071*%
%ADD35R,0.052X0.178*%
%ADD36R,0.071X0.154*%
%ADD37R,0.056X0.119*%
%ADD38R,0.043X0.042*%
%ADD39R,0.042X0.043*%
%ADD40R,0.060X0.079*%
%ADD41R,0.119X0.056*%
%ADD42R,0.079X0.048*%
%ADD43C,0.040*%
%ADD44C,0.012*%
%ADD45C,0.015*%
%ADD46C,0.006*%
%ADD47O,0.060X0.120*%
%ADD48C,0.054*%
%ADD49C,0.137*%
%ADD50C,0.060*%
%ADD51O,0.102X0.295*%
%ADD52O,0.181X0.059*%
%ADD53O,0.063X0.189*%
%ADD54C,0.066*%
%ADD55C,0.135*%
%ADD56P,0.065X8X22.5*%
%ADD57C,0.230*%
%ADD58C,0.056*%
%ADD59C,0.030*%
%ADD60C,0.040*%
%ADD61C,0.000*%
%ADD62C,0.004*%
%ADD63C,0.005*%
%ADD64R,0.006X0.012*%
%ADD65R,0.006X0.012*%
%ADD66R,0.012X0.012*%
%ADD67R,0.008X0.008*%
%ADD68R,0.098X0.056*%
%ADD69R,0.056X0.056*%
%ADD70R,0.056X0.056*%
%ADD71R,0.079X0.056*%
%ADD72R,0.056X0.079*%
%ADD73R,0.095X0.032*%
%ADD74R,0.046X0.020*%
%ADD75R,0.020X0.046*%
%ADD76R,0.181X0.181*%
%ADD77R,0.068X0.028*%
%ADD78R,0.028X0.068*%
%ADD79R,0.030X0.056*%
%ADD80R,0.024X0.068*%
%ADD81R,0.158X0.090*%
%ADD82R,0.358X0.458*%
%ADD83R,0.091X0.060*%
%ADD84R,0.048X0.052*%
%ADD85R,0.052X0.048*%
%ADD86R,0.032X0.095*%
%ADD87R,0.054X0.029*%
%ADD88R,0.186X0.060*%
%ADD89R,0.162X0.079*%
%ADD90R,0.060X0.186*%
%ADD91R,0.079X0.162*%
%ADD92R,0.064X0.127*%
%ADD93R,0.051X0.050*%
%ADD94R,0.050X0.051*%
%ADD95R,0.068X0.087*%
%ADD96R,0.127X0.064*%
%ADD97R,0.087X0.056*%
%ADD98O,0.068X0.128*%
%ADD99C,0.062*%
%ADD100C,0.144*%
%ADD101C,0.068*%
%ADD102O,0.110X0.303*%
%ADD103O,0.189X0.067*%
%ADD104O,0.071X0.197*%
%ADD105C,0.074*%
%ADD106C,0.143*%
%ADD107P,0.074X8X22.5*%
%ADD108C,0.238*%
%ADD109C,0.064*%
%ADD110C,0.038*%
%ADD111C,0.001*%
%ADD112C,0.006*%
%ADD113C,0.009*%
%ADD114C,0.017*%
G36*
X4157Y1027D02*
X4138D01*
Y1116D01*
X4157D01*
Y1027D01*
D02*
G37*
G36*
X3770D02*
X3752D01*
Y1087D01*
X3770D01*
Y1027D01*
D02*
G37*
G36*
X3378Y1051D02*
Y1048D01*
X3378Y1046D01*
X3377Y1042D01*
X3376Y1039D01*
X3375Y1036D01*
X3373Y1034D01*
X3371Y1032D01*
X3369Y1030D01*
X3368Y1029D01*
X3366Y1028D01*
X3364Y1027D01*
X3362Y1026D01*
X3360Y1026D01*
X3359Y1026D01*
X3358Y1026D01*
X3357D01*
X3355Y1026D01*
X3353Y1026D01*
X3351Y1027D01*
X3349Y1027D01*
X3346Y1029D01*
X3343Y1031D01*
X3341Y1033D01*
X3341Y1034D01*
X3340Y1034D01*
X3339Y1035D01*
X3339Y1036D01*
X3339Y1036D01*
X3339Y1036D01*
X3338D01*
Y1027D01*
X3320D01*
Y1087D01*
X3338D01*
Y1053D01*
X3339Y1050D01*
X3339Y1049D01*
X3339Y1047D01*
X3340Y1046D01*
X3340Y1045D01*
X3341Y1044D01*
X3341Y1043D01*
X3341Y1043D01*
X3343Y1042D01*
X3344Y1041D01*
X3345Y1041D01*
X3347Y1040D01*
X3348Y1040D01*
X3349Y1040D01*
X3350D01*
X3351Y1040D01*
X3353Y1040D01*
X3354Y1041D01*
X3355Y1042D01*
X3356Y1043D01*
X3357Y1044D01*
X3358Y1046D01*
X3359Y1049D01*
X3359Y1050D01*
X3359Y1050D01*
X3359Y1051D01*
Y1052D01*
Y1052D01*
Y1052D01*
Y1087D01*
X3378D01*
Y1051D01*
D02*
G37*
G36*
X4232Y1027D02*
X4200D01*
X4197Y1027D01*
X4195Y1027D01*
X4192Y1028D01*
X4190Y1028D01*
X4188Y1029D01*
X4186Y1029D01*
X4185Y1030D01*
X4183Y1030D01*
X4182Y1031D01*
X4181Y1032D01*
X4180Y1032D01*
X4179Y1033D01*
X4178Y1033D01*
X4178Y1033D01*
X4177Y1034D01*
X4177D01*
X4176Y1035D01*
X4174Y1037D01*
X4173Y1038D01*
X4172Y1039D01*
X4172Y1041D01*
X4171Y1043D01*
X4170Y1045D01*
X4169Y1048D01*
X4169Y1049D01*
X4169Y1050D01*
X4169Y1051D01*
Y1052D01*
Y1052D01*
Y1052D01*
X4169Y1055D01*
X4170Y1057D01*
X4171Y1060D01*
X4172Y1062D01*
X4173Y1063D01*
X4173Y1064D01*
X4174Y1065D01*
X4174Y1065D01*
X4177Y1067D01*
X4179Y1069D01*
X4181Y1070D01*
X4184Y1071D01*
X4186Y1071D01*
X4187Y1072D01*
X4188Y1072D01*
X4188Y1072D01*
X4189D01*
Y1072D01*
X4186Y1073D01*
X4184Y1074D01*
X4182Y1075D01*
X4180Y1077D01*
X4179Y1078D01*
X4178Y1079D01*
X4177Y1079D01*
X4177Y1079D01*
X4175Y1081D01*
X4174Y1084D01*
X4173Y1085D01*
X4173Y1087D01*
X4173Y1089D01*
X4172Y1090D01*
Y1091D01*
Y1091D01*
Y1091D01*
X4172Y1093D01*
X4173Y1095D01*
X4173Y1098D01*
X4175Y1100D01*
X4176Y1102D01*
X4178Y1104D01*
X4179Y1105D01*
X4180Y1106D01*
X4180Y1106D01*
X4180D01*
X4181Y1107D01*
X4183Y1108D01*
X4186Y1109D01*
X4190Y1110D01*
X4193Y1111D01*
X4195Y1111D01*
X4197Y1111D01*
X4198Y1111D01*
X4199D01*
X4200Y1111D01*
X4232D01*
Y1027D01*
D02*
G37*
G36*
X3915Y1088D02*
X3916Y1088D01*
X3918Y1088D01*
X3919Y1088D01*
X3920Y1088D01*
X3921Y1087D01*
X3921D01*
X3923Y1087D01*
X3924Y1086D01*
X3925Y1086D01*
X3927Y1085D01*
X3928Y1085D01*
X3929Y1085D01*
X3929Y1084D01*
X3929Y1084D01*
X3930Y1083D01*
X3932Y1082D01*
X3933Y1081D01*
X3933Y1080D01*
X3934Y1079D01*
X3935Y1079D01*
X3935Y1078D01*
X3935Y1078D01*
X3936Y1077D01*
X3936Y1075D01*
X3937Y1074D01*
X3937Y1072D01*
X3937Y1071D01*
X3937Y1070D01*
Y1070D01*
Y1069D01*
X3937Y1067D01*
X3937Y1066D01*
X3937Y1065D01*
X3937Y1064D01*
X3936Y1063D01*
X3936Y1063D01*
Y1063D01*
X3935Y1061D01*
X3935Y1060D01*
X3934Y1059D01*
X3934Y1059D01*
X3933Y1058D01*
Y1058D01*
X3932Y1057D01*
X3931Y1056D01*
X3930Y1055D01*
X3929Y1055D01*
X3929Y1055D01*
X3929Y1055D01*
X3927Y1053D01*
X3925Y1053D01*
X3924Y1052D01*
X3923Y1052D01*
X3923Y1052D01*
X3923D01*
X3921Y1051D01*
X3919Y1051D01*
X3919Y1050D01*
X3918Y1050D01*
X3918Y1050D01*
X3918D01*
X3916Y1050D01*
X3915Y1049D01*
X3914Y1049D01*
X3914Y1049D01*
X3914Y1049D01*
X3913D01*
X3912Y1048D01*
X3911Y1047D01*
X3910Y1047D01*
X3910Y1046D01*
X3909Y1046D01*
X3909Y1045D01*
X3909Y1044D01*
Y1044D01*
Y1044D01*
X3909Y1043D01*
X3909Y1042D01*
X3910Y1040D01*
X3911Y1040D01*
X3912Y1039D01*
X3912D01*
X3913Y1039D01*
X3914Y1039D01*
X3917Y1038D01*
X3918D01*
X3919Y1038D01*
X3919D01*
X3923Y1038D01*
X3924Y1039D01*
X3925Y1039D01*
X3926Y1039D01*
X3927Y1039D01*
X3928Y1039D01*
X3928D01*
X3930Y1040D01*
X3931Y1041D01*
X3933Y1041D01*
X3934Y1042D01*
X3936Y1043D01*
X3936Y1043D01*
X3937Y1044D01*
X3937Y1044D01*
Y1029D01*
X3934Y1028D01*
X3931Y1027D01*
X3928Y1026D01*
X3925Y1026D01*
X3922Y1026D01*
X3921D01*
X3920Y1026D01*
X3917D01*
X3915Y1026D01*
X3913Y1026D01*
X3912Y1026D01*
X3910Y1026D01*
X3909Y1026D01*
X3909Y1027D01*
X3908D01*
X3907Y1027D01*
X3905Y1028D01*
X3903Y1028D01*
X3902Y1029D01*
X3901Y1029D01*
X3900Y1029D01*
X3900Y1030D01*
X3900Y1030D01*
X3898Y1031D01*
X3897Y1032D01*
X3896Y1033D01*
X3895Y1034D01*
X3894Y1035D01*
X3894Y1036D01*
X3894Y1036D01*
X3893Y1036D01*
X3893Y1038D01*
X3892Y1039D01*
X3892Y1041D01*
X3891Y1042D01*
X3891Y1043D01*
X3891Y1044D01*
Y1045D01*
Y1045D01*
X3891Y1048D01*
X3891Y1049D01*
X3892Y1050D01*
X3892Y1051D01*
X3892Y1051D01*
X3892Y1052D01*
Y1052D01*
X3893Y1054D01*
X3894Y1055D01*
X3895Y1056D01*
X3895Y1056D01*
X3895Y1057D01*
X3896Y1057D01*
X3897Y1058D01*
X3899Y1059D01*
X3900Y1060D01*
X3900Y1060D01*
X3901Y1060D01*
X3901D01*
X3903Y1061D01*
X3905Y1062D01*
X3906Y1063D01*
X3907Y1063D01*
X3907Y1063D01*
X3907D01*
X3909Y1064D01*
X3910Y1064D01*
X3911Y1064D01*
X3911D01*
X3911Y1064D01*
X3912D01*
X3913Y1065D01*
X3914Y1066D01*
X3915Y1066D01*
X3915Y1066D01*
X3915D01*
X3916Y1067D01*
X3917Y1067D01*
X3918Y1068D01*
X3918Y1068D01*
X3919Y1069D01*
X3919Y1070D01*
X3919Y1071D01*
Y1071D01*
X3919Y1072D01*
X3919Y1073D01*
X3919Y1073D01*
X3918Y1073D01*
X3918Y1074D01*
X3917Y1074D01*
X3917Y1075D01*
X3917Y1075D01*
X3915Y1075D01*
X3915Y1075D01*
X3914Y1076D01*
X3914D01*
X3912Y1076D01*
X3911Y1076D01*
X3910D01*
X3907Y1076D01*
X3906Y1076D01*
X3905Y1076D01*
X3904Y1075D01*
X3903Y1075D01*
X3902Y1075D01*
X3902D01*
X3899Y1074D01*
X3898Y1074D01*
X3897Y1073D01*
X3896Y1073D01*
X3895Y1072D01*
X3895Y1072D01*
X3895Y1072D01*
Y1086D01*
X3898Y1087D01*
X3899Y1087D01*
X3900Y1087D01*
X3901Y1088D01*
X3902Y1088D01*
X3903Y1088D01*
X3903D01*
X3906Y1088D01*
X3907Y1088D01*
X3908D01*
X3909Y1089D01*
X3911D01*
X3915Y1088D01*
D02*
G37*
G36*
X3424D02*
X3427Y1088D01*
X3429Y1088D01*
X3431Y1087D01*
X3433Y1087D01*
X3435Y1086D01*
X3437Y1085D01*
X3439Y1084D01*
X3440Y1084D01*
X3442Y1083D01*
X3443Y1082D01*
X3444Y1081D01*
X3444Y1081D01*
X3445Y1081D01*
X3445Y1080D01*
X3445Y1080D01*
X3447Y1079D01*
X3448Y1077D01*
X3449Y1075D01*
X3450Y1073D01*
X3451Y1071D01*
X3452Y1069D01*
X3453Y1065D01*
X3453Y1063D01*
X3454Y1062D01*
X3454Y1060D01*
X3454Y1059D01*
X3454Y1058D01*
Y1057D01*
Y1057D01*
Y1057D01*
X3454Y1054D01*
X3454Y1052D01*
X3453Y1049D01*
X3453Y1047D01*
X3452Y1045D01*
X3451Y1043D01*
X3451Y1041D01*
X3450Y1040D01*
X3449Y1039D01*
X3448Y1037D01*
X3447Y1036D01*
X3447Y1035D01*
X3446Y1035D01*
X3446Y1034D01*
X3446Y1034D01*
X3446Y1034D01*
X3444Y1032D01*
X3442Y1031D01*
X3440Y1030D01*
X3438Y1029D01*
X3436Y1028D01*
X3434Y1028D01*
X3430Y1027D01*
X3429Y1026D01*
X3427Y1026D01*
X3426Y1026D01*
X3424Y1026D01*
X3423Y1026D01*
X3422D01*
X3419Y1026D01*
X3416Y1026D01*
X3414Y1026D01*
X3412Y1027D01*
X3410Y1028D01*
X3407Y1028D01*
X3406Y1029D01*
X3404Y1030D01*
X3403Y1031D01*
X3401Y1031D01*
X3400Y1032D01*
X3399Y1033D01*
X3399Y1033D01*
X3398Y1034D01*
X3398Y1034D01*
X3398Y1034D01*
X3396Y1036D01*
X3395Y1038D01*
X3394Y1040D01*
X3393Y1041D01*
X3392Y1044D01*
X3391Y1045D01*
X3390Y1049D01*
X3390Y1051D01*
X3389Y1053D01*
X3389Y1054D01*
X3389Y1055D01*
X3389Y1056D01*
Y1057D01*
Y1058D01*
Y1058D01*
X3389Y1060D01*
X3389Y1063D01*
X3390Y1065D01*
X3390Y1067D01*
X3391Y1069D01*
X3392Y1071D01*
X3393Y1073D01*
X3393Y1074D01*
X3394Y1076D01*
X3395Y1077D01*
X3396Y1078D01*
X3396Y1079D01*
X3397Y1079D01*
X3397Y1080D01*
X3398Y1080D01*
X3398Y1080D01*
X3399Y1082D01*
X3401Y1083D01*
X3403Y1084D01*
X3405Y1085D01*
X3407Y1086D01*
X3409Y1087D01*
X3413Y1088D01*
X3414Y1088D01*
X3416Y1088D01*
X3417Y1088D01*
X3419Y1088D01*
X3420Y1089D01*
X3421D01*
X3424Y1088D01*
D02*
G37*
G36*
X3466Y1088D02*
X3468Y1088D01*
X3470Y1087D01*
X3471Y1086D01*
X3473Y1085D01*
X3474Y1084D01*
X3476Y1082D01*
X3478Y1080D01*
X3479Y1078D01*
X3479Y1077D01*
X3480Y1076D01*
X3480Y1076D01*
Y1076D01*
X3480D01*
Y1087D01*
X3498D01*
Y1027D01*
X3480D01*
Y1056D01*
X3480Y1058D01*
X3479Y1061D01*
X3479Y1063D01*
X3478Y1065D01*
X3477Y1066D01*
X3477Y1067D01*
X3477Y1068D01*
X3476Y1068D01*
X3475Y1069D01*
X3474Y1070D01*
X3472Y1071D01*
X3470Y1072D01*
X3469Y1072D01*
X3468Y1072D01*
X3467D01*
X3465Y1072D01*
X3464Y1072D01*
X3463Y1072D01*
X3461Y1071D01*
X3460Y1071D01*
X3460Y1071D01*
X3459Y1070D01*
X3459Y1070D01*
Y1087D01*
X3461Y1088D01*
X3462Y1088D01*
X3463Y1088D01*
X3464D01*
X3466Y1088D01*
D02*
G37*
G36*
X2961Y1106D02*
X2962Y1104D01*
X2963Y1102D01*
X2964Y1100D01*
X2965Y1099D01*
X2966Y1098D01*
X2966Y1098D01*
Y1098D01*
X2967Y1095D01*
X2969Y1093D01*
X2970Y1090D01*
X2972Y1088D01*
X2973Y1086D01*
X2974Y1085D01*
X2974Y1084D01*
X2975Y1084D01*
Y1084D01*
X2976Y1081D01*
X2978Y1079D01*
X2980Y1077D01*
X2982Y1075D01*
X2983Y1073D01*
X2984Y1072D01*
X2985Y1071D01*
X2985Y1071D01*
Y1071D01*
X2987Y1068D01*
X2988Y1066D01*
X2990Y1064D01*
X2992Y1062D01*
X2993Y1061D01*
X2994Y1060D01*
X2994Y1059D01*
X2995Y1059D01*
Y1044D01*
X2958D01*
Y1027D01*
X2941D01*
Y1044D01*
X2931D01*
Y1058D01*
X2941D01*
Y1111D01*
X2959D01*
X2961Y1106D01*
D02*
G37*
G36*
X3844Y1088D02*
X3847Y1088D01*
X3848Y1088D01*
X3850Y1087D01*
X3852Y1087D01*
X3853Y1086D01*
X3853Y1086D01*
X3854Y1086D01*
X3855Y1084D01*
X3857Y1083D01*
X3858Y1082D01*
X3860Y1080D01*
X3860Y1079D01*
X3861Y1079D01*
X3861Y1078D01*
X3862Y1078D01*
X3862D01*
Y1087D01*
X3880D01*
Y1027D01*
X3862D01*
Y1060D01*
X3862Y1063D01*
X3861Y1065D01*
X3861Y1067D01*
X3860Y1068D01*
X3860Y1069D01*
X3859Y1070D01*
X3859Y1070D01*
X3859Y1071D01*
X3858Y1072D01*
X3857Y1073D01*
X3855Y1074D01*
X3854Y1074D01*
X3853Y1074D01*
X3852Y1074D01*
X3851D01*
X3850Y1074D01*
X3848Y1074D01*
X3847Y1073D01*
X3846Y1072D01*
X3845Y1072D01*
X3844Y1070D01*
X3843Y1068D01*
X3842Y1066D01*
X3842Y1064D01*
X3842Y1064D01*
X3842Y1063D01*
Y1062D01*
Y1062D01*
Y1062D01*
Y1027D01*
X3823D01*
Y1061D01*
X3823Y1063D01*
X3823Y1065D01*
X3822Y1066D01*
X3822Y1068D01*
X3821Y1069D01*
X3821Y1070D01*
X3821Y1070D01*
X3820Y1070D01*
X3819Y1072D01*
X3818Y1073D01*
X3817Y1073D01*
X3816Y1074D01*
X3815Y1074D01*
X3814Y1074D01*
X3813D01*
X3811Y1074D01*
X3810Y1074D01*
X3808Y1073D01*
X3807Y1072D01*
X3806Y1071D01*
X3806Y1070D01*
X3805Y1068D01*
X3804Y1066D01*
X3804Y1064D01*
X3803Y1063D01*
X3803Y1062D01*
Y1062D01*
Y1061D01*
Y1061D01*
Y1027D01*
X3785D01*
Y1064D01*
X3785Y1069D01*
X3786Y1072D01*
X3787Y1076D01*
X3788Y1078D01*
X3789Y1081D01*
X3791Y1083D01*
X3793Y1084D01*
X3795Y1086D01*
X3796Y1087D01*
X3798Y1087D01*
X3800Y1088D01*
X3801Y1088D01*
X3803Y1088D01*
X3804Y1089D01*
X3805D01*
X3807Y1088D01*
X3809Y1088D01*
X3811Y1088D01*
X3813Y1087D01*
X3815Y1086D01*
X3817Y1085D01*
X3818Y1084D01*
X3820Y1083D01*
X3821Y1082D01*
X3822Y1081D01*
X3823Y1080D01*
X3823Y1079D01*
X3824Y1078D01*
X3824Y1078D01*
X3825Y1078D01*
X3825Y1077D01*
X3826Y1079D01*
X3827Y1081D01*
X3828Y1083D01*
X3829Y1084D01*
X3831Y1085D01*
X3832Y1086D01*
X3834Y1087D01*
X3835Y1087D01*
X3838Y1088D01*
X3839Y1088D01*
X3840Y1088D01*
X3841Y1089D01*
X3842D01*
X3844Y1088D01*
D02*
G37*
G36*
X4103Y1088D02*
X4105Y1088D01*
X4107Y1088D01*
X4108Y1088D01*
X4110Y1087D01*
X4110Y1087D01*
X4111Y1087D01*
X4111D01*
X4113Y1086D01*
X4115Y1086D01*
X4117Y1085D01*
X4119Y1085D01*
X4120Y1084D01*
X4121Y1084D01*
X4121Y1084D01*
X4121Y1084D01*
Y1070D01*
X4120Y1071D01*
X4118Y1072D01*
X4114Y1073D01*
X4111Y1075D01*
X4108Y1075D01*
X4106Y1075D01*
X4105Y1076D01*
X4104Y1076D01*
X4103D01*
X4102Y1076D01*
X4101D01*
X4099Y1076D01*
X4097Y1076D01*
X4096Y1075D01*
X4095Y1074D01*
X4094Y1074D01*
X4093Y1073D01*
X4092Y1072D01*
X4091Y1071D01*
X4091Y1069D01*
X4090Y1068D01*
X4090Y1067D01*
Y1067D01*
Y1066D01*
Y1066D01*
X4107Y1064D01*
X4110Y1063D01*
X4113Y1062D01*
X4116Y1061D01*
X4118Y1060D01*
X4120Y1058D01*
X4122Y1056D01*
X4124Y1055D01*
X4125Y1053D01*
X4125Y1051D01*
X4126Y1049D01*
X4127Y1048D01*
X4127Y1046D01*
X4127Y1045D01*
X4127Y1044D01*
Y1044D01*
Y1044D01*
X4127Y1041D01*
X4126Y1038D01*
X4126Y1036D01*
X4125Y1034D01*
X4124Y1032D01*
X4123Y1031D01*
X4122Y1031D01*
X4122Y1030D01*
X4120Y1029D01*
X4118Y1028D01*
X4116Y1027D01*
X4113Y1026D01*
X4112Y1026D01*
X4110Y1026D01*
X4109Y1026D01*
X4108D01*
X4106Y1026D01*
X4104Y1026D01*
X4102Y1026D01*
X4101Y1027D01*
X4098Y1029D01*
X4095Y1031D01*
X4093Y1032D01*
X4092Y1034D01*
X4091Y1035D01*
X4091Y1035D01*
X4091Y1035D01*
Y1035D01*
X4090D01*
Y1027D01*
X4073D01*
Y1063D01*
Y1065D01*
X4073Y1067D01*
X4074Y1071D01*
X4075Y1075D01*
X4077Y1078D01*
X4079Y1080D01*
X4081Y1082D01*
X4083Y1084D01*
X4086Y1085D01*
X4088Y1086D01*
X4090Y1087D01*
X4092Y1088D01*
X4094Y1088D01*
X4096Y1088D01*
X4097Y1089D01*
X4101D01*
X4103Y1088D01*
D02*
G37*
G36*
X3033Y1110D02*
X3035Y1109D01*
X3036Y1108D01*
X3038Y1107D01*
X3039Y1106D01*
X3040Y1106D01*
X3040Y1106D01*
X3040D01*
X3045Y1104D01*
X3047Y1103D01*
X3050Y1102D01*
X3051Y1101D01*
X3053Y1101D01*
X3053Y1101D01*
X3054D01*
X3054Y1100D01*
X3054D01*
Y1085D01*
X3052Y1085D01*
X3051Y1085D01*
X3050Y1086D01*
X3049D01*
X3049Y1086D01*
X3049D01*
X3047Y1086D01*
X3045Y1087D01*
X3045Y1087D01*
X3044Y1087D01*
X3044Y1087D01*
X3044D01*
X3042Y1088D01*
X3041Y1089D01*
X3040Y1089D01*
X3040Y1089D01*
X3040Y1090D01*
X3040D01*
X3038Y1090D01*
X3037Y1091D01*
X3036Y1092D01*
X3036Y1092D01*
Y1027D01*
X3017D01*
Y1113D01*
X3029D01*
X3033Y1110D01*
D02*
G37*
G36*
X3689Y1027D02*
X3671D01*
Y1061D01*
X3671Y1063D01*
X3670Y1065D01*
X3670Y1067D01*
X3669Y1068D01*
X3669Y1069D01*
X3668Y1070D01*
X3668Y1070D01*
X3668Y1071D01*
X3667Y1072D01*
X3665Y1073D01*
X3664Y1074D01*
X3663Y1074D01*
X3661Y1074D01*
X3661Y1074D01*
X3660D01*
X3658Y1074D01*
X3657Y1074D01*
X3655Y1073D01*
X3654Y1072D01*
X3653Y1071D01*
X3652Y1070D01*
X3651Y1068D01*
X3650Y1065D01*
X3650Y1064D01*
X3650Y1063D01*
X3650Y1062D01*
Y1062D01*
Y1061D01*
Y1061D01*
Y1027D01*
X3632D01*
Y1064D01*
X3632Y1068D01*
X3632Y1072D01*
X3634Y1075D01*
X3635Y1078D01*
X3636Y1081D01*
X3638Y1083D01*
X3640Y1084D01*
X3642Y1086D01*
X3644Y1087D01*
X3646Y1087D01*
X3647Y1088D01*
X3649Y1088D01*
X3650Y1088D01*
X3651Y1089D01*
X3652D01*
X3654Y1088D01*
X3656Y1088D01*
X3658Y1088D01*
X3660Y1087D01*
X3663Y1085D01*
X3666Y1084D01*
X3668Y1081D01*
X3669Y1081D01*
X3669Y1080D01*
X3670Y1079D01*
X3670Y1079D01*
X3670Y1078D01*
X3671Y1078D01*
X3671D01*
Y1116D01*
X3689D01*
Y1027D01*
D02*
G37*
G36*
X4031Y1088D02*
X4033Y1088D01*
X4036Y1088D01*
X4038Y1087D01*
X4040Y1087D01*
X4042Y1086D01*
X4044Y1085D01*
X4046Y1084D01*
X4048Y1083D01*
X4049Y1082D01*
X4050Y1082D01*
X4051Y1081D01*
X4051Y1081D01*
X4052Y1080D01*
X4052Y1080D01*
X4053Y1080D01*
X4054Y1078D01*
X4055Y1076D01*
X4057Y1074D01*
X4058Y1072D01*
X4059Y1070D01*
X4059Y1068D01*
X4060Y1064D01*
X4061Y1063D01*
X4061Y1061D01*
X4061Y1059D01*
X4061Y1058D01*
X4062Y1057D01*
Y1056D01*
Y1056D01*
Y1056D01*
X4061Y1053D01*
X4061Y1051D01*
X4061Y1049D01*
X4060Y1047D01*
X4059Y1043D01*
X4058Y1041D01*
X4057Y1040D01*
X4057Y1038D01*
X4056Y1037D01*
X4055Y1036D01*
X4054Y1035D01*
X4054Y1035D01*
X4053Y1034D01*
X4053Y1034D01*
X4053Y1034D01*
X4051Y1032D01*
X4050Y1031D01*
X4048Y1030D01*
X4046Y1029D01*
X4044Y1028D01*
X4042Y1028D01*
X4039Y1027D01*
X4037Y1026D01*
X4036Y1026D01*
X4034Y1026D01*
X4033Y1026D01*
X4032Y1026D01*
X4031D01*
X4026Y1026D01*
X4023Y1026D01*
X4020Y1027D01*
X4017Y1027D01*
X4015Y1028D01*
X4014Y1028D01*
X4013Y1029D01*
X4013Y1029D01*
Y1044D01*
X4015Y1043D01*
X4018Y1041D01*
X4020Y1041D01*
X4022Y1040D01*
X4024Y1040D01*
X4025Y1040D01*
X4026D01*
X4029Y1040D01*
X4031Y1040D01*
X4033Y1041D01*
X4035Y1042D01*
X4037Y1043D01*
X4037Y1044D01*
X4038Y1044D01*
X4038Y1044D01*
X4040Y1046D01*
X4041Y1048D01*
X4042Y1050D01*
X4042Y1052D01*
X4042Y1054D01*
X4043Y1055D01*
X4043Y1056D01*
Y1056D01*
Y1057D01*
Y1057D01*
X4043Y1060D01*
X4042Y1062D01*
X4041Y1064D01*
X4040Y1066D01*
X4040Y1068D01*
X4039Y1069D01*
X4038Y1070D01*
X4038Y1070D01*
X4036Y1071D01*
X4034Y1073D01*
X4032Y1073D01*
X4030Y1074D01*
X4028Y1074D01*
X4027Y1074D01*
X4026D01*
X4023Y1074D01*
X4020Y1074D01*
X4018Y1073D01*
X4016Y1072D01*
X4015Y1072D01*
X4014Y1071D01*
X4013Y1070D01*
X4013Y1070D01*
Y1086D01*
X4015Y1087D01*
X4017Y1087D01*
X4020Y1088D01*
X4022Y1088D01*
X4024Y1088D01*
X4025D01*
X4026Y1089D01*
X4028D01*
X4031Y1088D01*
D02*
G37*
G36*
X3732Y1100D02*
Y1087D01*
X3742D01*
Y1074D01*
X3732D01*
Y1046D01*
X3731Y1042D01*
X3731Y1039D01*
X3730Y1037D01*
X3729Y1034D01*
X3727Y1032D01*
X3726Y1031D01*
X3724Y1029D01*
X3722Y1028D01*
X3720Y1027D01*
X3718Y1027D01*
X3717Y1026D01*
X3715Y1026D01*
X3714Y1026D01*
X3713Y1026D01*
X3712D01*
X3709Y1026D01*
X3707Y1026D01*
X3705Y1026D01*
X3703Y1027D01*
X3702Y1027D01*
X3701Y1027D01*
X3700Y1027D01*
X3700Y1028D01*
Y1041D01*
X3701Y1041D01*
X3702Y1040D01*
X3703Y1040D01*
X3704Y1040D01*
X3705D01*
X3705Y1040D01*
X3706D01*
X3707Y1040D01*
X3708Y1040D01*
X3709Y1041D01*
X3710Y1041D01*
X3712Y1043D01*
X3712Y1044D01*
X3713Y1046D01*
X3713Y1048D01*
X3713Y1048D01*
Y1049D01*
Y1049D01*
Y1049D01*
Y1074D01*
X3700D01*
Y1087D01*
X3713D01*
Y1105D01*
X3732Y1100D01*
D02*
G37*
G36*
X4000Y1027D02*
X3982D01*
Y1057D01*
X3982D01*
X3962Y1027D01*
X3940D01*
X3963Y1059D01*
X3942Y1087D01*
X3964D01*
X3982Y1059D01*
X3982D01*
Y1116D01*
X4000D01*
Y1027D01*
D02*
G37*
G36*
X3544Y1112D02*
X3548Y1112D01*
X3552Y1111D01*
X3555Y1111D01*
X3558Y1110D01*
X3561Y1109D01*
X3563Y1107D01*
X3565Y1106D01*
X3567Y1105D01*
X3569Y1104D01*
X3571Y1103D01*
X3572Y1102D01*
X3573Y1101D01*
X3574Y1100D01*
X3574Y1100D01*
X3575Y1100D01*
X3577Y1098D01*
X3579Y1095D01*
X3580Y1092D01*
X3582Y1090D01*
X3583Y1087D01*
X3584Y1084D01*
X3585Y1082D01*
X3586Y1079D01*
X3586Y1077D01*
X3587Y1075D01*
X3587Y1073D01*
X3587Y1071D01*
Y1069D01*
X3587Y1068D01*
Y1068D01*
Y1068D01*
X3587Y1064D01*
X3587Y1061D01*
X3586Y1057D01*
X3585Y1055D01*
X3585Y1052D01*
X3584Y1049D01*
X3583Y1047D01*
X3581Y1045D01*
X3580Y1043D01*
X3579Y1041D01*
X3578Y1040D01*
X3577Y1039D01*
X3577Y1038D01*
X3576Y1037D01*
X3576Y1037D01*
X3576Y1037D01*
X3573Y1035D01*
X3571Y1033D01*
X3568Y1032D01*
X3566Y1030D01*
X3563Y1029D01*
X3560Y1028D01*
X3558Y1028D01*
X3555Y1027D01*
X3553Y1026D01*
X3551Y1026D01*
X3549Y1026D01*
X3547Y1026D01*
X3546D01*
X3545Y1026D01*
X3544D01*
X3540Y1026D01*
X3537Y1026D01*
X3534Y1026D01*
X3531Y1027D01*
X3529Y1027D01*
X3526Y1028D01*
X3524Y1028D01*
X3522Y1029D01*
X3520Y1030D01*
X3518Y1030D01*
X3516Y1031D01*
X3515Y1032D01*
X3514Y1032D01*
X3514Y1032D01*
X3513Y1032D01*
X3513Y1033D01*
Y1075D01*
X3549D01*
Y1060D01*
X3532D01*
Y1043D01*
X3534Y1043D01*
X3535Y1042D01*
X3537Y1042D01*
X3539Y1042D01*
X3540Y1042D01*
X3542Y1041D01*
X3543D01*
X3545Y1042D01*
X3547Y1042D01*
X3550Y1043D01*
X3553Y1044D01*
X3556Y1045D01*
X3558Y1046D01*
X3560Y1047D01*
X3560Y1048D01*
X3560Y1048D01*
X3561Y1048D01*
X3561Y1049D01*
X3562Y1050D01*
X3563Y1051D01*
X3565Y1055D01*
X3566Y1058D01*
X3566Y1061D01*
X3567Y1064D01*
X3567Y1065D01*
Y1066D01*
X3567Y1067D01*
Y1068D01*
Y1068D01*
Y1069D01*
X3567Y1071D01*
X3567Y1073D01*
X3566Y1077D01*
X3565Y1081D01*
X3564Y1082D01*
X3564Y1084D01*
X3563Y1085D01*
X3562Y1086D01*
X3562Y1087D01*
X3561Y1088D01*
X3561Y1088D01*
X3560Y1089D01*
X3560Y1089D01*
X3560Y1089D01*
X3559Y1090D01*
X3557Y1092D01*
X3555Y1093D01*
X3554Y1093D01*
X3551Y1095D01*
X3548Y1096D01*
X3545Y1096D01*
X3544Y1096D01*
X3543Y1097D01*
X3542Y1097D01*
X3541D01*
X3536Y1096D01*
X3531Y1096D01*
X3529Y1095D01*
X3527Y1095D01*
X3525Y1094D01*
X3524Y1094D01*
X3522Y1093D01*
X3521Y1093D01*
X3520Y1092D01*
X3519Y1092D01*
X3518Y1092D01*
X3517Y1091D01*
X3517Y1091D01*
X3517D01*
Y1109D01*
X3521Y1110D01*
X3525Y1111D01*
X3529Y1112D01*
X3533Y1112D01*
X3534Y1112D01*
X3536Y1112D01*
X3537D01*
X3538Y1112D01*
X3541D01*
X3544Y1112D01*
D02*
G37*
G36*
X3102D02*
X3105Y1112D01*
X3108Y1111D01*
X3110Y1111D01*
X3112Y1110D01*
X3114Y1109D01*
X3116Y1108D01*
X3117Y1107D01*
X3118Y1106D01*
X3120Y1105D01*
X3121Y1104D01*
X3122Y1103D01*
X3122Y1102D01*
X3123Y1101D01*
X3123Y1101D01*
X3123Y1101D01*
X3125Y1099D01*
X3126Y1096D01*
X3127Y1094D01*
X3128Y1091D01*
X3129Y1085D01*
X3130Y1080D01*
X3130Y1078D01*
X3131Y1075D01*
X3131Y1073D01*
X3131Y1071D01*
X3131Y1070D01*
Y1069D01*
Y1068D01*
Y1068D01*
X3131Y1064D01*
X3131Y1060D01*
X3130Y1057D01*
X3130Y1054D01*
X3129Y1051D01*
X3128Y1048D01*
X3128Y1046D01*
X3127Y1043D01*
X3125Y1041D01*
X3124Y1039D01*
X3123Y1037D01*
X3122Y1036D01*
X3120Y1034D01*
X3119Y1033D01*
X3116Y1031D01*
X3113Y1029D01*
X3111Y1028D01*
X3108Y1027D01*
X3106Y1026D01*
X3104Y1026D01*
X3103Y1026D01*
X3102Y1026D01*
X3101D01*
X3098Y1026D01*
X3096Y1026D01*
X3094Y1027D01*
X3091Y1027D01*
X3089Y1028D01*
X3087Y1029D01*
X3086Y1030D01*
X3084Y1031D01*
X3083Y1032D01*
X3082Y1033D01*
X3081Y1034D01*
X3080Y1035D01*
X3079Y1036D01*
X3079Y1036D01*
X3078Y1037D01*
X3078Y1037D01*
X3077Y1039D01*
X3076Y1041D01*
X3074Y1044D01*
X3074Y1047D01*
X3072Y1052D01*
X3071Y1057D01*
X3071Y1060D01*
X3071Y1062D01*
X3070Y1064D01*
X3070Y1066D01*
X3070Y1068D01*
Y1069D01*
Y1069D01*
Y1070D01*
X3070Y1074D01*
X3070Y1077D01*
X3071Y1081D01*
X3071Y1084D01*
X3072Y1087D01*
X3073Y1090D01*
X3074Y1092D01*
X3075Y1094D01*
X3076Y1097D01*
X3077Y1099D01*
X3078Y1100D01*
X3080Y1102D01*
X3081Y1104D01*
X3082Y1105D01*
X3085Y1107D01*
X3088Y1109D01*
X3090Y1110D01*
X3093Y1111D01*
X3095Y1112D01*
X3097Y1112D01*
X3098Y1112D01*
X3099Y1112D01*
X3100D01*
X3102Y1112D01*
D02*
G37*
G36*
X3436Y1293D02*
X3439Y1292D01*
X3441Y1291D01*
X3444Y1290D01*
X3446Y1288D01*
X3448Y1287D01*
X3452Y1283D01*
X3454Y1280D01*
X3456Y1276D01*
X3457Y1275D01*
X3457Y1274D01*
X3458Y1273D01*
Y1273D01*
X3458D01*
Y1291D01*
X3488D01*
Y1195D01*
X3458D01*
Y1241D01*
X3458Y1245D01*
X3457Y1249D01*
X3456Y1252D01*
X3455Y1255D01*
X3454Y1257D01*
X3453Y1259D01*
X3453Y1260D01*
X3452Y1260D01*
X3450Y1262D01*
X3448Y1264D01*
X3445Y1266D01*
X3443Y1266D01*
X3441Y1267D01*
X3439Y1267D01*
X3437D01*
X3435Y1267D01*
X3432Y1267D01*
X3430Y1266D01*
X3428Y1266D01*
X3427Y1265D01*
X3426Y1265D01*
X3425Y1265D01*
X3425Y1264D01*
Y1292D01*
X3427Y1292D01*
X3429Y1293D01*
X3431Y1293D01*
X3432D01*
X3436Y1293D01*
D02*
G37*
G36*
X3236Y1195D02*
X3206D01*
Y1247D01*
X3198D01*
X3196Y1246D01*
X3194Y1246D01*
X3193Y1245D01*
X3193Y1245D01*
X3191Y1244D01*
X3189Y1243D01*
X3188Y1242D01*
X3188Y1242D01*
X3186Y1240D01*
X3185Y1238D01*
X3184Y1237D01*
X3183Y1237D01*
Y1236D01*
X3182Y1234D01*
X3180Y1232D01*
X3180Y1231D01*
X3179Y1230D01*
X3179Y1230D01*
Y1229D01*
X3158Y1195D01*
X3123D01*
X3149Y1235D01*
X3150Y1237D01*
X3152Y1239D01*
X3152Y1240D01*
X3153Y1241D01*
Y1241D01*
X3155Y1243D01*
X3156Y1245D01*
X3158Y1247D01*
X3158Y1247D01*
X3158Y1247D01*
X3160Y1249D01*
X3162Y1251D01*
X3163Y1251D01*
X3163Y1252D01*
X3164D01*
X3166Y1253D01*
X3167Y1254D01*
X3169Y1255D01*
X3169Y1255D01*
X3169D01*
Y1255D01*
X3167Y1256D01*
X3164Y1257D01*
X3162Y1258D01*
X3160Y1259D01*
X3159Y1260D01*
X3158Y1260D01*
X3157Y1261D01*
X3157Y1261D01*
X3153Y1264D01*
X3151Y1265D01*
X3150Y1266D01*
X3149Y1267D01*
X3148Y1268D01*
X3148Y1269D01*
X3147Y1269D01*
X3145Y1273D01*
X3143Y1276D01*
X3142Y1278D01*
X3142Y1279D01*
X3141Y1280D01*
Y1280D01*
X3140Y1285D01*
X3139Y1287D01*
X3139Y1289D01*
X3139Y1290D01*
Y1292D01*
Y1293D01*
Y1293D01*
X3139Y1296D01*
X3139Y1299D01*
X3140Y1302D01*
X3141Y1305D01*
X3143Y1310D01*
X3147Y1314D01*
X3150Y1318D01*
X3154Y1321D01*
X3159Y1323D01*
X3163Y1325D01*
X3168Y1327D01*
X3172Y1328D01*
X3176Y1329D01*
X3180Y1329D01*
X3183Y1329D01*
X3186Y1330D01*
X3236D01*
Y1195D01*
D02*
G37*
G36*
X4077D02*
X4048D01*
Y1291D01*
X4077D01*
Y1195D01*
D02*
G37*
G36*
X3829D02*
X3777D01*
X3773Y1195D01*
X3769Y1195D01*
X3765Y1196D01*
X3762Y1197D01*
X3759Y1198D01*
X3756Y1199D01*
X3753Y1199D01*
X3751Y1200D01*
X3749Y1201D01*
X3747Y1202D01*
X3745Y1203D01*
X3744Y1204D01*
X3743Y1205D01*
X3742Y1205D01*
X3742Y1206D01*
X3741D01*
X3739Y1208D01*
X3737Y1210D01*
X3735Y1213D01*
X3734Y1215D01*
X3732Y1217D01*
X3731Y1220D01*
X3730Y1225D01*
X3729Y1229D01*
X3728Y1230D01*
X3728Y1232D01*
X3728Y1233D01*
Y1234D01*
Y1235D01*
Y1235D01*
X3728Y1240D01*
X3729Y1244D01*
X3731Y1247D01*
X3732Y1251D01*
X3734Y1253D01*
X3735Y1255D01*
X3736Y1256D01*
X3737Y1256D01*
X3740Y1259D01*
X3744Y1262D01*
X3748Y1264D01*
X3751Y1265D01*
X3755Y1266D01*
X3757Y1267D01*
X3758Y1267D01*
X3759Y1267D01*
X3760D01*
Y1268D01*
X3755Y1269D01*
X3752Y1271D01*
X3749Y1273D01*
X3746Y1274D01*
X3744Y1276D01*
X3742Y1277D01*
X3741Y1279D01*
X3741Y1279D01*
X3738Y1282D01*
X3736Y1285D01*
X3735Y1288D01*
X3734Y1292D01*
X3734Y1294D01*
X3733Y1296D01*
Y1298D01*
Y1298D01*
Y1298D01*
X3734Y1301D01*
X3734Y1303D01*
X3735Y1308D01*
X3737Y1312D01*
X3739Y1315D01*
X3742Y1318D01*
X3744Y1320D01*
X3745Y1321D01*
X3745Y1321D01*
X3746D01*
X3748Y1323D01*
X3750Y1324D01*
X3756Y1326D01*
X3762Y1328D01*
X3767Y1329D01*
X3770Y1329D01*
X3772Y1329D01*
X3775Y1329D01*
X3776D01*
X3778Y1330D01*
X3829D01*
Y1195D01*
D02*
G37*
G36*
X3666Y1293D02*
X3670Y1293D01*
X3674Y1292D01*
X3678Y1292D01*
X3681Y1291D01*
X3685Y1289D01*
X3687Y1288D01*
X3690Y1287D01*
X3692Y1286D01*
X3694Y1284D01*
X3696Y1283D01*
X3698Y1282D01*
X3699Y1281D01*
X3700Y1281D01*
X3700Y1280D01*
X3700Y1280D01*
X3703Y1277D01*
X3705Y1275D01*
X3707Y1272D01*
X3708Y1269D01*
X3710Y1265D01*
X3711Y1262D01*
X3712Y1256D01*
X3713Y1253D01*
X3714Y1251D01*
X3714Y1248D01*
X3714Y1247D01*
X3714Y1245D01*
Y1244D01*
Y1243D01*
Y1243D01*
X3714Y1238D01*
X3714Y1234D01*
X3713Y1231D01*
X3712Y1227D01*
X3711Y1224D01*
X3710Y1221D01*
X3709Y1218D01*
X3708Y1216D01*
X3706Y1214D01*
X3705Y1212D01*
X3704Y1210D01*
X3703Y1209D01*
X3702Y1207D01*
X3701Y1207D01*
X3701Y1206D01*
X3701Y1206D01*
X3698Y1204D01*
X3695Y1202D01*
X3692Y1200D01*
X3689Y1198D01*
X3686Y1197D01*
X3683Y1196D01*
X3677Y1194D01*
X3674Y1194D01*
X3671Y1193D01*
X3669Y1193D01*
X3667Y1193D01*
X3665Y1193D01*
X3663D01*
X3658Y1193D01*
X3654Y1193D01*
X3650Y1194D01*
X3646Y1195D01*
X3643Y1196D01*
X3640Y1197D01*
X3637Y1198D01*
X3634Y1200D01*
X3632Y1201D01*
X3630Y1202D01*
X3628Y1203D01*
X3627Y1204D01*
X3626Y1205D01*
X3625Y1206D01*
X3625Y1206D01*
X3624Y1206D01*
X3622Y1209D01*
X3620Y1212D01*
X3618Y1215D01*
X3616Y1218D01*
X3615Y1221D01*
X3614Y1225D01*
X3612Y1231D01*
X3611Y1233D01*
X3611Y1236D01*
X3611Y1238D01*
X3611Y1240D01*
X3610Y1242D01*
Y1243D01*
Y1244D01*
Y1244D01*
X3611Y1248D01*
X3611Y1252D01*
X3611Y1256D01*
X3612Y1259D01*
X3614Y1262D01*
X3615Y1265D01*
X3616Y1268D01*
X3617Y1270D01*
X3619Y1273D01*
X3620Y1275D01*
X3621Y1276D01*
X3622Y1278D01*
X3623Y1279D01*
X3623Y1279D01*
X3624Y1280D01*
X3624Y1280D01*
X3627Y1282D01*
X3630Y1285D01*
X3633Y1286D01*
X3636Y1288D01*
X3639Y1289D01*
X3642Y1290D01*
X3648Y1292D01*
X3651Y1292D01*
X3653Y1293D01*
X3656Y1293D01*
X3658Y1293D01*
X3659Y1294D01*
X3662D01*
X3666Y1293D01*
D02*
G37*
G36*
X3347Y1280D02*
X3347D01*
X3348Y1283D01*
X3350Y1285D01*
X3352Y1286D01*
X3354Y1288D01*
X3356Y1289D01*
X3358Y1290D01*
X3363Y1292D01*
X3367Y1293D01*
X3369Y1293D01*
X3370Y1293D01*
X3371Y1294D01*
X3373D01*
X3376Y1293D01*
X3380Y1293D01*
X3383Y1292D01*
X3386Y1291D01*
X3391Y1289D01*
X3396Y1286D01*
X3398Y1285D01*
X3400Y1284D01*
X3401Y1282D01*
X3402Y1281D01*
X3403Y1281D01*
X3404Y1280D01*
X3404Y1279D01*
X3405Y1279D01*
X3407Y1276D01*
X3409Y1273D01*
X3410Y1270D01*
X3411Y1267D01*
X3414Y1261D01*
X3415Y1255D01*
X3416Y1252D01*
X3416Y1249D01*
X3416Y1247D01*
X3416Y1245D01*
X3417Y1243D01*
Y1242D01*
Y1241D01*
Y1241D01*
X3416Y1237D01*
X3416Y1233D01*
X3416Y1229D01*
X3415Y1226D01*
X3414Y1222D01*
X3413Y1220D01*
X3412Y1217D01*
X3411Y1214D01*
X3410Y1212D01*
X3409Y1210D01*
X3408Y1209D01*
X3407Y1208D01*
X3407Y1207D01*
X3406Y1206D01*
X3406Y1206D01*
Y1205D01*
X3404Y1203D01*
X3401Y1201D01*
X3399Y1199D01*
X3397Y1198D01*
X3392Y1196D01*
X3387Y1194D01*
X3383Y1193D01*
X3381Y1193D01*
X3380Y1193D01*
X3378Y1193D01*
X3377D01*
X3373Y1193D01*
X3370Y1193D01*
X3367Y1194D01*
X3364Y1195D01*
X3359Y1198D01*
X3354Y1200D01*
X3351Y1203D01*
X3349Y1206D01*
X3348Y1207D01*
X3347Y1207D01*
X3347Y1208D01*
Y1208D01*
X3346D01*
Y1195D01*
X3317D01*
Y1337D01*
X3347D01*
Y1280D01*
D02*
G37*
G36*
X2849Y1195D02*
X2798D01*
X2793Y1195D01*
X2789Y1195D01*
X2786Y1196D01*
X2782Y1197D01*
X2779Y1198D01*
X2776Y1199D01*
X2773Y1199D01*
X2771Y1200D01*
X2769Y1201D01*
X2767Y1202D01*
X2765Y1203D01*
X2764Y1204D01*
X2763Y1205D01*
X2762Y1205D01*
X2762Y1206D01*
X2761D01*
X2759Y1208D01*
X2757Y1210D01*
X2755Y1213D01*
X2754Y1215D01*
X2752Y1217D01*
X2751Y1220D01*
X2750Y1225D01*
X2749Y1229D01*
X2749Y1230D01*
X2748Y1232D01*
X2748Y1233D01*
Y1234D01*
Y1235D01*
Y1235D01*
X2749Y1240D01*
X2750Y1244D01*
X2751Y1247D01*
X2752Y1251D01*
X2754Y1253D01*
X2755Y1255D01*
X2756Y1256D01*
X2757Y1256D01*
X2760Y1259D01*
X2764Y1262D01*
X2768Y1264D01*
X2772Y1265D01*
X2775Y1266D01*
X2777Y1267D01*
X2778Y1267D01*
X2779Y1267D01*
X2780D01*
Y1268D01*
X2776Y1269D01*
X2772Y1271D01*
X2769Y1273D01*
X2766Y1274D01*
X2764Y1276D01*
X2762Y1277D01*
X2761Y1279D01*
X2761Y1279D01*
X2758Y1282D01*
X2757Y1285D01*
X2755Y1288D01*
X2754Y1292D01*
X2754Y1294D01*
X2753Y1296D01*
Y1298D01*
Y1298D01*
Y1298D01*
X2754Y1301D01*
X2754Y1303D01*
X2755Y1308D01*
X2757Y1312D01*
X2760Y1315D01*
X2762Y1318D01*
X2764Y1320D01*
X2765Y1321D01*
X2765Y1321D01*
X2766D01*
X2768Y1323D01*
X2771Y1324D01*
X2776Y1326D01*
X2782Y1328D01*
X2787Y1329D01*
X2790Y1329D01*
X2793Y1329D01*
X2795Y1329D01*
X2797D01*
X2798Y1330D01*
X2849D01*
Y1195D01*
D02*
G37*
G36*
X4320Y1331D02*
X4324Y1331D01*
X4327Y1331D01*
X4329Y1330D01*
X4331Y1330D01*
X4332Y1329D01*
X4333D01*
X4336Y1329D01*
X4339Y1327D01*
X4342Y1326D01*
X4344Y1325D01*
X4346Y1324D01*
X4348Y1323D01*
X4349Y1322D01*
X4349Y1322D01*
X4352Y1320D01*
X4354Y1318D01*
X4356Y1316D01*
X4358Y1314D01*
X4359Y1312D01*
X4360Y1311D01*
X4361Y1310D01*
X4361Y1310D01*
X4362Y1307D01*
X4363Y1304D01*
X4364Y1301D01*
X4365Y1298D01*
X4365Y1296D01*
X4365Y1294D01*
Y1292D01*
Y1292D01*
Y1292D01*
X4365Y1287D01*
X4364Y1283D01*
X4363Y1279D01*
X4361Y1275D01*
X4360Y1273D01*
X4358Y1270D01*
X4358Y1269D01*
X4357Y1269D01*
X4354Y1266D01*
X4350Y1262D01*
X4346Y1260D01*
X4343Y1257D01*
X4339Y1255D01*
X4336Y1254D01*
X4335Y1254D01*
X4335Y1253D01*
X4334Y1253D01*
X4334D01*
X4329Y1251D01*
X4328Y1250D01*
X4326Y1249D01*
X4324Y1249D01*
X4323Y1248D01*
X4323Y1248D01*
X4322Y1248D01*
X4319Y1246D01*
X4317Y1245D01*
X4316Y1244D01*
X4315Y1244D01*
X4314Y1243D01*
X4313Y1243D01*
X4313Y1243D01*
X4311Y1241D01*
X4309Y1239D01*
X4307Y1237D01*
X4307Y1237D01*
Y1237D01*
X4305Y1235D01*
X4305Y1232D01*
X4305Y1231D01*
Y1231D01*
Y1230D01*
Y1230D01*
X4305Y1228D01*
X4305Y1226D01*
X4306Y1225D01*
X4306Y1225D01*
Y1225D01*
X4307Y1223D01*
X4309Y1221D01*
X4310Y1221D01*
X4310Y1220D01*
X4310D01*
X4313Y1219D01*
X4315Y1218D01*
X4316Y1218D01*
X4317Y1218D01*
X4317Y1217D01*
X4318D01*
X4321Y1217D01*
X4324Y1217D01*
X4325Y1217D01*
X4328D01*
X4331Y1217D01*
X4335Y1217D01*
X4338Y1217D01*
X4341Y1218D01*
X4343Y1219D01*
X4345Y1219D01*
X4346Y1220D01*
X4347Y1220D01*
X4350Y1221D01*
X4354Y1223D01*
X4357Y1225D01*
X4359Y1226D01*
X4361Y1228D01*
X4363Y1229D01*
X4364Y1230D01*
X4365Y1230D01*
Y1200D01*
X4362Y1199D01*
X4359Y1198D01*
X4356Y1197D01*
X4353Y1196D01*
X4351Y1195D01*
X4349Y1195D01*
X4348Y1195D01*
X4347D01*
X4340Y1193D01*
X4336Y1193D01*
X4333Y1193D01*
X4330Y1193D01*
X4322D01*
X4318Y1193D01*
X4315Y1193D01*
X4312Y1194D01*
X4309Y1194D01*
X4307Y1195D01*
X4306Y1195D01*
X4306D01*
X4302Y1196D01*
X4299Y1197D01*
X4296Y1198D01*
X4294Y1199D01*
X4291Y1200D01*
X4290Y1201D01*
X4289Y1201D01*
X4289Y1201D01*
X4286Y1203D01*
X4284Y1205D01*
X4282Y1207D01*
X4280Y1209D01*
X4279Y1211D01*
X4278Y1213D01*
X4277Y1214D01*
X4277Y1214D01*
X4276Y1217D01*
X4275Y1220D01*
X4274Y1223D01*
X4273Y1226D01*
X4273Y1229D01*
X4273Y1231D01*
Y1232D01*
Y1232D01*
Y1233D01*
Y1236D01*
X4273Y1238D01*
X4273Y1241D01*
X4274Y1243D01*
X4274Y1245D01*
X4275Y1246D01*
X4275Y1247D01*
X4275Y1247D01*
X4277Y1251D01*
X4279Y1253D01*
X4280Y1255D01*
X4281Y1256D01*
X4282Y1257D01*
X4282Y1258D01*
X4282Y1258D01*
X4286Y1261D01*
X4290Y1264D01*
X4291Y1265D01*
X4292Y1266D01*
X4293Y1266D01*
X4293Y1266D01*
X4298Y1269D01*
X4301Y1270D01*
X4303Y1272D01*
X4305Y1273D01*
X4306Y1273D01*
X4307Y1273D01*
X4308Y1274D01*
X4312Y1275D01*
X4314Y1276D01*
X4315Y1277D01*
X4317Y1277D01*
X4317Y1278D01*
X4318Y1278D01*
X4318D01*
X4322Y1280D01*
X4324Y1282D01*
X4325Y1282D01*
X4326Y1283D01*
X4326Y1283D01*
X4326D01*
X4328Y1285D01*
X4330Y1286D01*
X4331Y1288D01*
X4331Y1288D01*
X4332Y1290D01*
X4333Y1292D01*
X4333Y1294D01*
Y1294D01*
Y1294D01*
X4333Y1296D01*
X4332Y1298D01*
X4332Y1299D01*
X4332Y1300D01*
X4330Y1301D01*
X4329Y1303D01*
X4328Y1304D01*
X4327Y1304D01*
X4325Y1305D01*
X4323Y1306D01*
X4321Y1306D01*
X4321Y1307D01*
X4320Y1307D01*
X4320D01*
X4317Y1307D01*
X4314Y1308D01*
X4313Y1308D01*
X4308D01*
X4305Y1308D01*
X4304Y1307D01*
X4303D01*
X4303Y1307D01*
X4303D01*
X4300Y1307D01*
X4297Y1306D01*
X4296Y1306D01*
X4295Y1306D01*
X4294Y1306D01*
X4294D01*
X4291Y1305D01*
X4289Y1304D01*
X4287Y1303D01*
X4287Y1303D01*
X4286Y1303D01*
X4286D01*
X4283Y1301D01*
X4281Y1300D01*
X4280Y1299D01*
X4279Y1299D01*
X4279Y1299D01*
X4279D01*
Y1327D01*
X4284Y1328D01*
X4287Y1329D01*
X4289Y1329D01*
X4291Y1330D01*
X4292Y1330D01*
X4293Y1330D01*
X4294D01*
X4297Y1331D01*
X4300Y1331D01*
X4303Y1332D01*
X4306D01*
X4309Y1332D01*
X4316D01*
X4320Y1331D01*
D02*
G37*
G36*
X3948Y1195D02*
X3918D01*
Y1250D01*
X3918Y1253D01*
X3917Y1256D01*
X3917Y1258D01*
X3916Y1261D01*
X3915Y1262D01*
X3914Y1264D01*
X3914Y1265D01*
X3913Y1265D01*
X3911Y1267D01*
X3909Y1268D01*
X3907Y1270D01*
X3905Y1270D01*
X3903Y1271D01*
X3902Y1271D01*
X3900D01*
X3898Y1271D01*
X3895Y1270D01*
X3893Y1269D01*
X3891Y1268D01*
X3890Y1266D01*
X3889Y1264D01*
X3887Y1260D01*
X3886Y1256D01*
X3885Y1255D01*
X3885Y1253D01*
X3885Y1251D01*
Y1251D01*
Y1250D01*
Y1250D01*
Y1195D01*
X3855D01*
Y1254D01*
X3856Y1261D01*
X3857Y1267D01*
X3858Y1272D01*
X3861Y1277D01*
X3863Y1281D01*
X3866Y1284D01*
X3869Y1287D01*
X3872Y1289D01*
X3875Y1290D01*
X3878Y1292D01*
X3880Y1292D01*
X3883Y1293D01*
X3885Y1293D01*
X3887Y1294D01*
X3888D01*
X3891Y1293D01*
X3895Y1293D01*
X3898Y1292D01*
X3901Y1291D01*
X3906Y1288D01*
X3910Y1285D01*
X3913Y1282D01*
X3915Y1281D01*
X3916Y1280D01*
X3917Y1279D01*
X3917Y1278D01*
X3917Y1277D01*
X3918Y1277D01*
X3918D01*
Y1337D01*
X3948D01*
Y1195D01*
D02*
G37*
G36*
X4196Y1293D02*
X4199Y1293D01*
X4202Y1292D01*
X4205Y1291D01*
X4207Y1290D01*
X4209Y1289D01*
X4210Y1289D01*
X4211Y1289D01*
X4213Y1287D01*
X4216Y1285D01*
X4218Y1283D01*
X4220Y1281D01*
X4222Y1279D01*
X4223Y1277D01*
X4223Y1276D01*
X4223Y1276D01*
X4224D01*
Y1291D01*
X4253D01*
Y1195D01*
X4224D01*
Y1248D01*
X4223Y1252D01*
X4223Y1255D01*
X4222Y1258D01*
X4221Y1261D01*
X4221Y1262D01*
X4220Y1264D01*
X4220Y1265D01*
X4219Y1265D01*
X4217Y1267D01*
X4216Y1268D01*
X4213Y1270D01*
X4212Y1270D01*
X4210Y1271D01*
X4208Y1271D01*
X4207D01*
X4205Y1271D01*
X4202Y1270D01*
X4200Y1269D01*
X4198Y1268D01*
X4197Y1266D01*
X4196Y1264D01*
X4194Y1261D01*
X4193Y1257D01*
X4192Y1255D01*
X4192Y1254D01*
X4192Y1252D01*
Y1251D01*
Y1251D01*
Y1250D01*
Y1195D01*
X4162D01*
Y1249D01*
X4162Y1252D01*
X4161Y1255D01*
X4161Y1258D01*
X4160Y1260D01*
X4159Y1262D01*
X4158Y1263D01*
X4158Y1264D01*
X4158Y1265D01*
X4156Y1267D01*
X4154Y1268D01*
X4152Y1269D01*
X4150Y1270D01*
X4148Y1271D01*
X4147Y1271D01*
X4146D01*
X4143Y1271D01*
X4141Y1270D01*
X4138Y1269D01*
X4137Y1268D01*
X4135Y1266D01*
X4134Y1264D01*
X4132Y1260D01*
X4131Y1257D01*
X4131Y1255D01*
X4130Y1253D01*
X4130Y1252D01*
Y1251D01*
Y1250D01*
Y1250D01*
Y1195D01*
X4101D01*
Y1255D01*
X4101Y1262D01*
X4102Y1268D01*
X4104Y1273D01*
X4106Y1277D01*
X4108Y1281D01*
X4111Y1284D01*
X4113Y1287D01*
X4116Y1289D01*
X4119Y1290D01*
X4122Y1292D01*
X4125Y1292D01*
X4127Y1293D01*
X4129Y1293D01*
X4131Y1294D01*
X4132D01*
X4136Y1293D01*
X4140Y1293D01*
X4143Y1292D01*
X4146Y1291D01*
X4149Y1289D01*
X4152Y1288D01*
X4154Y1286D01*
X4156Y1285D01*
X4158Y1283D01*
X4160Y1281D01*
X4161Y1280D01*
X4162Y1278D01*
X4163Y1277D01*
X4164Y1276D01*
X4164Y1276D01*
X4164Y1276D01*
X4166Y1279D01*
X4168Y1281D01*
X4170Y1284D01*
X4172Y1286D01*
X4174Y1288D01*
X4177Y1289D01*
X4179Y1290D01*
X4181Y1291D01*
X4186Y1293D01*
X4187Y1293D01*
X4189Y1293D01*
X4190Y1294D01*
X4192D01*
X4196Y1293D01*
D02*
G37*
G36*
X3268Y1088D02*
X3271Y1088D01*
X3273Y1088D01*
X3274Y1087D01*
X3278Y1085D01*
X3281Y1083D01*
X3282Y1082D01*
X3283Y1081D01*
X3283Y1081D01*
X3284Y1080D01*
X3285Y1079D01*
X3285Y1079D01*
X3285Y1078D01*
X3286Y1078D01*
X3286D01*
Y1087D01*
X3304D01*
Y999D01*
X3286D01*
Y1034D01*
X3286D01*
X3284Y1032D01*
X3283Y1031D01*
X3282Y1030D01*
X3281Y1029D01*
X3279Y1028D01*
X3278Y1028D01*
X3275Y1027D01*
X3273Y1026D01*
X3272Y1026D01*
X3271Y1026D01*
X3270Y1026D01*
X3269D01*
X3267Y1026D01*
X3265Y1026D01*
X3263Y1026D01*
X3261Y1027D01*
X3257Y1028D01*
X3254Y1030D01*
X3253Y1031D01*
X3252Y1032D01*
X3251Y1033D01*
X3251Y1033D01*
X3250Y1034D01*
X3250Y1034D01*
X3249Y1034D01*
X3249Y1035D01*
X3248Y1036D01*
X3247Y1038D01*
X3246Y1040D01*
X3245Y1042D01*
X3244Y1046D01*
X3243Y1050D01*
X3242Y1052D01*
X3242Y1053D01*
X3242Y1055D01*
X3242Y1056D01*
X3242Y1057D01*
Y1058D01*
Y1059D01*
Y1059D01*
Y1061D01*
X3242Y1064D01*
X3242Y1066D01*
X3243Y1068D01*
X3243Y1070D01*
X3244Y1072D01*
X3244Y1073D01*
X3245Y1075D01*
X3246Y1076D01*
X3246Y1077D01*
X3247Y1078D01*
X3247Y1079D01*
X3248Y1080D01*
X3248Y1080D01*
X3248Y1080D01*
X3248Y1081D01*
X3249Y1082D01*
X3251Y1083D01*
X3252Y1084D01*
X3254Y1085D01*
X3257Y1087D01*
X3260Y1088D01*
X3262Y1088D01*
X3263Y1088D01*
X3264Y1088D01*
X3265Y1089D01*
X3266D01*
X3268Y1088D01*
D02*
G37*
G36*
X4065Y1337D02*
X4067Y1336D01*
X4070Y1336D01*
X4071Y1335D01*
X4073Y1334D01*
X4074Y1333D01*
X4074Y1333D01*
X4075Y1333D01*
X4076Y1331D01*
X4078Y1329D01*
X4078Y1327D01*
X4079Y1326D01*
X4079Y1324D01*
X4079Y1323D01*
Y1322D01*
Y1322D01*
X4079Y1319D01*
X4079Y1317D01*
X4078Y1316D01*
X4077Y1314D01*
X4076Y1313D01*
X4075Y1312D01*
X4075Y1311D01*
X4075Y1311D01*
X4073Y1310D01*
X4071Y1308D01*
X4069Y1308D01*
X4067Y1307D01*
X4065Y1307D01*
X4063Y1307D01*
X4062D01*
X4060Y1307D01*
X4057Y1307D01*
X4055Y1308D01*
X4053Y1309D01*
X4052Y1309D01*
X4051Y1310D01*
X4050Y1311D01*
X4050Y1311D01*
X4048Y1312D01*
X4047Y1314D01*
X4046Y1316D01*
X4046Y1318D01*
X4045Y1319D01*
X4045Y1321D01*
Y1322D01*
Y1322D01*
X4045Y1324D01*
X4046Y1326D01*
X4047Y1328D01*
X4048Y1330D01*
X4048Y1331D01*
X4049Y1332D01*
X4050Y1333D01*
X4050Y1333D01*
X4052Y1334D01*
X4054Y1335D01*
X4056Y1336D01*
X4058Y1337D01*
X4060Y1337D01*
X4061Y1337D01*
X4062D01*
X4065Y1337D01*
D02*
G37*
G36*
X2987Y1195D02*
X2954D01*
X2918Y1291D01*
X2949D01*
X2966Y1231D01*
X2967Y1228D01*
X2967Y1225D01*
X2968Y1222D01*
X2969Y1219D01*
X2969Y1217D01*
X2969Y1216D01*
X2969Y1215D01*
Y1215D01*
X2970D01*
X2970Y1217D01*
X2970Y1220D01*
X2971Y1223D01*
X2972Y1226D01*
X2972Y1228D01*
X2973Y1230D01*
X2973Y1231D01*
X2973Y1232D01*
X2990Y1291D01*
X3021D01*
X2987Y1195D01*
D02*
G37*
G36*
X3075Y1293D02*
X3078Y1293D01*
X3082Y1292D01*
X3085Y1292D01*
X3091Y1289D01*
X3093Y1288D01*
X3096Y1287D01*
X3098Y1285D01*
X3100Y1284D01*
X3101Y1283D01*
X3103Y1282D01*
X3104Y1281D01*
X3104Y1280D01*
X3105Y1280D01*
X3105Y1280D01*
X3108Y1277D01*
X3110Y1274D01*
X3111Y1271D01*
X3113Y1268D01*
X3115Y1265D01*
X3116Y1261D01*
X3117Y1255D01*
X3118Y1253D01*
X3118Y1250D01*
X3119Y1248D01*
X3119Y1246D01*
X3119Y1244D01*
Y1243D01*
Y1242D01*
Y1242D01*
X3119Y1237D01*
X3119Y1233D01*
X3118Y1230D01*
X3117Y1226D01*
X3116Y1223D01*
X3115Y1220D01*
X3114Y1217D01*
X3113Y1215D01*
X3111Y1213D01*
X3110Y1211D01*
X3109Y1209D01*
X3108Y1208D01*
X3108Y1207D01*
X3107Y1206D01*
X3107Y1206D01*
X3106Y1206D01*
X3104Y1203D01*
X3101Y1201D01*
X3098Y1200D01*
X3095Y1198D01*
X3089Y1196D01*
X3083Y1194D01*
X3081Y1194D01*
X3078Y1193D01*
X3076Y1193D01*
X3074Y1193D01*
X3072Y1193D01*
X3070D01*
X3062Y1193D01*
X3055Y1194D01*
X3050Y1195D01*
X3047Y1195D01*
X3045Y1196D01*
X3043Y1197D01*
X3041Y1198D01*
X3039Y1198D01*
X3038Y1199D01*
X3037Y1199D01*
X3036Y1199D01*
X3036Y1200D01*
X3035D01*
Y1221D01*
X3040Y1219D01*
X3045Y1217D01*
X3050Y1216D01*
X3054Y1215D01*
X3058Y1214D01*
X3059Y1214D01*
X3061D01*
X3062Y1214D01*
X3063D01*
X3068Y1214D01*
X3072Y1215D01*
X3075Y1216D01*
X3078Y1217D01*
X3081Y1219D01*
X3083Y1221D01*
X3085Y1222D01*
X3086Y1224D01*
X3087Y1226D01*
X3088Y1228D01*
X3089Y1230D01*
X3089Y1232D01*
X3089Y1233D01*
X3090Y1234D01*
Y1235D01*
Y1235D01*
X3027D01*
Y1247D01*
X3027Y1251D01*
X3027Y1255D01*
X3029Y1262D01*
X3030Y1265D01*
X3031Y1267D01*
X3032Y1270D01*
X3033Y1272D01*
X3034Y1274D01*
X3035Y1276D01*
X3036Y1277D01*
X3037Y1279D01*
X3037Y1280D01*
X3038Y1281D01*
X3038Y1281D01*
X3039Y1281D01*
X3041Y1283D01*
X3043Y1285D01*
X3046Y1287D01*
X3048Y1288D01*
X3054Y1291D01*
X3059Y1292D01*
X3064Y1293D01*
X3066Y1293D01*
X3067Y1293D01*
X3069Y1294D01*
X3071D01*
X3075Y1293D01*
D02*
G37*
G36*
X3559Y1293D02*
X3562Y1293D01*
X3565Y1292D01*
X3568Y1292D01*
X3570Y1292D01*
X3571Y1291D01*
X3572Y1291D01*
X3572D01*
X3576Y1290D01*
X3579Y1289D01*
X3582Y1288D01*
X3584Y1288D01*
X3586Y1287D01*
X3588Y1286D01*
X3589Y1286D01*
X3589Y1286D01*
Y1263D01*
X3586Y1265D01*
X3583Y1267D01*
X3577Y1269D01*
X3572Y1271D01*
X3567Y1272D01*
X3564Y1273D01*
X3563Y1273D01*
X3561Y1273D01*
X3559D01*
X3558Y1273D01*
X3556D01*
X3553Y1273D01*
X3551Y1273D01*
X3548Y1272D01*
X3546Y1271D01*
X3544Y1270D01*
X3543Y1269D01*
X3542Y1267D01*
X3541Y1266D01*
X3540Y1263D01*
X3539Y1260D01*
X3539Y1259D01*
Y1258D01*
Y1258D01*
Y1258D01*
X3565Y1254D01*
X3571Y1253D01*
X3576Y1251D01*
X3580Y1249D01*
X3584Y1247D01*
X3587Y1245D01*
X3590Y1242D01*
X3592Y1239D01*
X3594Y1236D01*
X3595Y1233D01*
X3596Y1231D01*
X3597Y1228D01*
X3598Y1226D01*
X3598Y1224D01*
X3598Y1223D01*
Y1222D01*
Y1222D01*
X3598Y1217D01*
X3597Y1213D01*
X3596Y1209D01*
X3594Y1206D01*
X3593Y1204D01*
X3591Y1202D01*
X3590Y1201D01*
X3590Y1200D01*
X3587Y1198D01*
X3583Y1196D01*
X3580Y1195D01*
X3576Y1194D01*
X3573Y1193D01*
X3570Y1193D01*
X3570Y1193D01*
X3568D01*
X3565Y1193D01*
X3561Y1193D01*
X3559Y1194D01*
X3556Y1195D01*
X3551Y1198D01*
X3547Y1201D01*
X3544Y1204D01*
X3541Y1206D01*
X3540Y1207D01*
X3540Y1208D01*
X3540Y1208D01*
Y1209D01*
X3539D01*
Y1195D01*
X3511D01*
Y1252D01*
Y1256D01*
X3511Y1260D01*
X3513Y1266D01*
X3515Y1272D01*
X3517Y1276D01*
X3521Y1280D01*
X3524Y1284D01*
X3528Y1286D01*
X3532Y1288D01*
X3535Y1290D01*
X3539Y1292D01*
X3543Y1292D01*
X3546Y1293D01*
X3548Y1293D01*
X3550Y1294D01*
X3555D01*
X3559Y1293D01*
D02*
G37*
G36*
X4016Y1312D02*
Y1291D01*
X4031D01*
Y1270D01*
X4016D01*
Y1225D01*
X4015Y1220D01*
X4014Y1214D01*
X4013Y1210D01*
X4011Y1206D01*
X4008Y1203D01*
X4006Y1201D01*
X4003Y1199D01*
X4000Y1197D01*
X3997Y1195D01*
X3994Y1194D01*
X3992Y1194D01*
X3989Y1193D01*
X3987Y1193D01*
X3986Y1193D01*
X3984D01*
X3980Y1193D01*
X3976Y1193D01*
X3972Y1194D01*
X3970Y1194D01*
X3967Y1195D01*
X3966Y1195D01*
X3965Y1196D01*
X3965Y1196D01*
Y1218D01*
X3966Y1217D01*
X3968Y1217D01*
X3970Y1216D01*
X3971Y1216D01*
X3973D01*
X3973Y1215D01*
X3974D01*
X3977Y1216D01*
X3978Y1216D01*
X3980Y1217D01*
X3981Y1218D01*
X3983Y1220D01*
X3985Y1223D01*
X3985Y1226D01*
X3986Y1228D01*
X3986Y1229D01*
Y1230D01*
Y1230D01*
Y1230D01*
Y1270D01*
X3965D01*
Y1291D01*
X3986D01*
Y1321D01*
X4016Y1312D01*
D02*
G37*
G36*
X1897Y673D02*
X1888D01*
X1876Y713D01*
X1875Y715D01*
X1875Y717D01*
X1875Y718D01*
X1874Y718D01*
Y718D01*
Y719D01*
X1874D01*
X1874Y716D01*
X1874Y715D01*
X1874Y714D01*
Y714D01*
X1873Y713D01*
Y713D01*
X1862Y673D01*
X1852D01*
X1835Y729D01*
X1844D01*
X1856Y687D01*
X1856Y685D01*
X1857Y683D01*
Y683D01*
X1857Y682D01*
Y682D01*
Y682D01*
X1857D01*
X1858Y684D01*
X1858Y685D01*
X1858Y686D01*
Y686D01*
X1858Y687D01*
Y687D01*
X1870Y729D01*
X1878D01*
X1891Y687D01*
X1892Y685D01*
X1892Y683D01*
Y683D01*
X1892Y682D01*
Y682D01*
Y682D01*
X1892D01*
X1893Y684D01*
X1893Y685D01*
X1893Y686D01*
X1893Y686D01*
Y687D01*
X1893Y687D01*
Y687D01*
X1905Y729D01*
X1914D01*
X1897Y673D01*
D02*
G37*
G36*
X1366Y743D02*
Y729D01*
X1376D01*
Y722D01*
X1366D01*
Y688D01*
X1366Y685D01*
X1366Y683D01*
X1365Y681D01*
X1364Y679D01*
X1363Y677D01*
X1362Y676D01*
X1360Y675D01*
X1359Y674D01*
X1358Y673D01*
X1356Y673D01*
X1355Y672D01*
X1354Y672D01*
X1353Y672D01*
X1352Y672D01*
X1352D01*
X1350Y672D01*
X1348Y672D01*
X1347Y672D01*
X1345Y673D01*
X1344Y673D01*
X1344Y673D01*
X1343Y674D01*
X1343D01*
Y681D01*
X1344Y681D01*
X1345Y680D01*
X1347Y680D01*
X1348Y680D01*
X1349Y679D01*
X1349D01*
X1351Y680D01*
X1352Y680D01*
X1353Y680D01*
X1354Y681D01*
X1355Y681D01*
X1355Y681D01*
X1355Y682D01*
X1355Y682D01*
X1356Y683D01*
X1356Y684D01*
X1357Y687D01*
X1357Y688D01*
X1357Y689D01*
Y690D01*
Y690D01*
Y722D01*
X1343D01*
Y729D01*
X1357D01*
Y746D01*
X1366Y743D01*
D02*
G37*
G36*
X2060Y673D02*
X2051D01*
X2038Y713D01*
X2038Y715D01*
X2037Y717D01*
X2037Y718D01*
X2037Y718D01*
Y718D01*
Y719D01*
X2037D01*
X2037Y716D01*
X2036Y715D01*
X2036Y714D01*
Y714D01*
X2036Y713D01*
Y713D01*
X2025Y673D01*
X2015D01*
X1998Y729D01*
X2007D01*
X2019Y687D01*
X2019Y685D01*
X2019Y683D01*
Y683D01*
X2020Y682D01*
Y682D01*
Y682D01*
X2020D01*
X2020Y684D01*
X2021Y685D01*
X2021Y686D01*
Y686D01*
X2021Y687D01*
Y687D01*
X2032Y729D01*
X2041D01*
X2054Y687D01*
X2054Y685D01*
X2055Y683D01*
Y683D01*
X2055Y682D01*
Y682D01*
Y682D01*
X2055D01*
X2055Y684D01*
X2055Y685D01*
X2056Y686D01*
X2056Y686D01*
Y687D01*
X2056Y687D01*
Y687D01*
X2068Y729D01*
X2077D01*
X2060Y673D01*
D02*
G37*
G36*
X1979D02*
X1970D01*
X1957Y713D01*
X1956Y715D01*
X1956Y717D01*
X1956Y718D01*
X1956Y718D01*
Y718D01*
Y719D01*
X1956D01*
X1955Y716D01*
X1955Y715D01*
X1955Y714D01*
Y714D01*
X1955Y713D01*
Y713D01*
X1943Y673D01*
X1934D01*
X1917Y729D01*
X1926D01*
X1937Y687D01*
X1938Y685D01*
X1938Y683D01*
Y683D01*
X1938Y682D01*
Y682D01*
Y682D01*
X1939D01*
X1939Y684D01*
X1939Y685D01*
X1939Y686D01*
Y686D01*
X1940Y687D01*
Y687D01*
X1951Y729D01*
X1959D01*
X1972Y687D01*
X1973Y685D01*
X1973Y683D01*
Y683D01*
X1973Y682D01*
Y682D01*
Y682D01*
X1974D01*
X1974Y684D01*
X1974Y685D01*
X1974Y686D01*
X1974Y686D01*
Y687D01*
X1975Y687D01*
Y687D01*
X1986Y729D01*
X1996D01*
X1979Y673D01*
D02*
G37*
G36*
X873Y731D02*
X875Y730D01*
X877Y730D01*
X879Y729D01*
X881Y729D01*
X883Y728D01*
X885Y727D01*
X886Y726D01*
X887Y726D01*
X889Y725D01*
X890Y724D01*
X890Y724D01*
X891Y723D01*
X891Y723D01*
X892Y722D01*
X892Y722D01*
X893Y721D01*
X895Y719D01*
X896Y717D01*
X896Y715D01*
X898Y711D01*
X899Y708D01*
X899Y706D01*
X899Y705D01*
X900Y703D01*
X900Y702D01*
X900Y701D01*
Y700D01*
Y700D01*
Y700D01*
X900Y697D01*
X900Y695D01*
X899Y691D01*
X897Y688D01*
X896Y685D01*
X895Y684D01*
X895Y683D01*
X894Y682D01*
X894Y681D01*
X893Y680D01*
X893Y680D01*
X893Y680D01*
X892Y679D01*
X891Y678D01*
X890Y677D01*
X888Y676D01*
X886Y675D01*
X883Y674D01*
X880Y673D01*
X877Y672D01*
X876Y672D01*
X875Y672D01*
X874Y672D01*
X873D01*
X870Y672D01*
X867Y672D01*
X864Y673D01*
X862Y674D01*
X860Y674D01*
X859Y675D01*
X858Y675D01*
X857Y675D01*
Y684D01*
X860Y683D01*
X862Y681D01*
X865Y680D01*
X867Y680D01*
X869Y680D01*
X870Y679D01*
X871Y679D01*
X871D01*
X874Y680D01*
X877Y680D01*
X880Y681D01*
X882Y682D01*
X883Y683D01*
X884Y684D01*
X885Y685D01*
X885Y685D01*
X887Y687D01*
X888Y690D01*
X889Y692D01*
X890Y695D01*
X890Y697D01*
X890Y698D01*
Y699D01*
X891Y700D01*
Y700D01*
Y700D01*
Y701D01*
X890Y704D01*
X890Y707D01*
X889Y710D01*
X888Y712D01*
X887Y714D01*
X886Y716D01*
X885Y716D01*
X885Y717D01*
X884Y718D01*
X883Y719D01*
X881Y720D01*
X878Y722D01*
X876Y722D01*
X874Y723D01*
X872Y723D01*
X872Y723D01*
X871D01*
X868Y723D01*
X866Y722D01*
X863Y722D01*
X861Y721D01*
X860Y720D01*
X858Y719D01*
X858Y719D01*
X857Y719D01*
Y728D01*
X860Y729D01*
X862Y730D01*
X864Y730D01*
X866Y730D01*
X868Y731D01*
X869Y731D01*
X871D01*
X873Y731D01*
D02*
G37*
G36*
X1734Y673D02*
X1725D01*
Y756D01*
X1734D01*
Y673D01*
D02*
G37*
G36*
X1627Y731D02*
X1629Y730D01*
X1631Y730D01*
X1633Y729D01*
X1635Y729D01*
X1637Y728D01*
X1638Y727D01*
X1640Y726D01*
X1641Y726D01*
X1642Y725D01*
X1643Y724D01*
X1644Y724D01*
X1645Y723D01*
X1645Y723D01*
X1645Y722D01*
X1646Y722D01*
X1647Y721D01*
X1648Y719D01*
X1649Y717D01*
X1650Y715D01*
X1652Y711D01*
X1652Y708D01*
X1653Y706D01*
X1653Y705D01*
X1653Y703D01*
X1653Y702D01*
X1653Y701D01*
Y700D01*
Y700D01*
Y700D01*
X1653Y697D01*
X1653Y695D01*
X1652Y691D01*
X1651Y688D01*
X1650Y685D01*
X1649Y684D01*
X1648Y683D01*
X1648Y682D01*
X1647Y681D01*
X1647Y680D01*
X1646Y680D01*
X1646Y680D01*
X1646Y679D01*
X1645Y678D01*
X1643Y677D01*
X1642Y676D01*
X1640Y675D01*
X1637Y674D01*
X1634Y673D01*
X1631Y672D01*
X1630Y672D01*
X1629Y672D01*
X1628Y672D01*
X1627D01*
X1623Y672D01*
X1621Y672D01*
X1618Y673D01*
X1616Y674D01*
X1614Y674D01*
X1612Y675D01*
X1611Y675D01*
X1611Y675D01*
Y684D01*
X1614Y683D01*
X1616Y681D01*
X1618Y680D01*
X1621Y680D01*
X1622Y680D01*
X1624Y679D01*
X1624Y679D01*
X1625D01*
X1628Y680D01*
X1631Y680D01*
X1633Y681D01*
X1635Y682D01*
X1637Y683D01*
X1638Y684D01*
X1639Y685D01*
X1639Y685D01*
X1641Y687D01*
X1642Y690D01*
X1643Y692D01*
X1644Y695D01*
X1644Y697D01*
X1644Y698D01*
Y699D01*
X1644Y700D01*
Y700D01*
Y700D01*
Y701D01*
X1644Y704D01*
X1643Y707D01*
X1642Y710D01*
X1641Y712D01*
X1641Y714D01*
X1640Y716D01*
X1639Y716D01*
X1639Y717D01*
X1638Y718D01*
X1637Y719D01*
X1634Y720D01*
X1632Y722D01*
X1630Y722D01*
X1628Y723D01*
X1626Y723D01*
X1625Y723D01*
X1624D01*
X1622Y723D01*
X1619Y722D01*
X1617Y722D01*
X1615Y721D01*
X1613Y720D01*
X1612Y719D01*
X1611Y719D01*
X1611Y719D01*
Y728D01*
X1613Y729D01*
X1615Y730D01*
X1618Y730D01*
X1620Y730D01*
X1622Y731D01*
X1623Y731D01*
X1624D01*
X1627Y731D01*
D02*
G37*
G36*
X1052Y696D02*
X1051Y691D01*
X1051Y688D01*
X1050Y684D01*
X1049Y682D01*
X1047Y679D01*
X1045Y678D01*
X1044Y676D01*
X1042Y675D01*
X1040Y674D01*
X1038Y673D01*
X1036Y672D01*
X1035Y672D01*
X1034Y672D01*
X1033Y672D01*
X1032D01*
X1030Y672D01*
X1028Y672D01*
X1026Y673D01*
X1024Y673D01*
X1021Y675D01*
X1019Y677D01*
X1017Y679D01*
X1015Y680D01*
X1015Y681D01*
X1015Y681D01*
X1014Y682D01*
Y682D01*
X1014D01*
Y673D01*
X1005D01*
Y729D01*
X1014D01*
Y697D01*
X1014Y694D01*
X1015Y692D01*
X1015Y689D01*
X1016Y687D01*
X1017Y686D01*
X1018Y685D01*
X1018Y684D01*
X1018Y684D01*
X1020Y683D01*
X1022Y681D01*
X1024Y680D01*
X1025Y680D01*
X1027Y680D01*
X1028Y679D01*
X1029Y679D01*
X1029D01*
X1032Y679D01*
X1034Y680D01*
X1036Y681D01*
X1037Y682D01*
X1038Y683D01*
X1039Y685D01*
X1040Y686D01*
X1041Y688D01*
X1042Y690D01*
X1042Y691D01*
X1042Y693D01*
X1043Y694D01*
Y695D01*
X1043Y696D01*
Y697D01*
Y697D01*
Y729D01*
X1052D01*
Y696D01*
D02*
G37*
G36*
X1268Y701D02*
X1238D01*
Y708D01*
X1268D01*
Y701D01*
D02*
G37*
G36*
X1331Y673D02*
X1322D01*
Y705D01*
X1322Y708D01*
X1321Y710D01*
X1321Y713D01*
X1320Y714D01*
X1319Y716D01*
X1318Y717D01*
X1318Y718D01*
X1318Y718D01*
X1316Y720D01*
X1314Y721D01*
X1312Y722D01*
X1310Y722D01*
X1309Y723D01*
X1308Y723D01*
X1307Y723D01*
X1306D01*
X1304Y723D01*
X1302Y722D01*
X1300Y721D01*
X1299Y720D01*
X1298Y719D01*
X1297Y718D01*
X1296Y716D01*
X1295Y714D01*
X1294Y713D01*
X1294Y711D01*
X1294Y709D01*
X1293Y708D01*
Y707D01*
X1293Y706D01*
Y706D01*
Y705D01*
Y673D01*
X1284D01*
Y708D01*
X1284Y712D01*
X1285Y715D01*
X1286Y718D01*
X1287Y721D01*
X1289Y723D01*
X1290Y725D01*
X1292Y727D01*
X1294Y728D01*
X1296Y729D01*
X1297Y730D01*
X1299Y730D01*
X1300Y730D01*
X1302Y731D01*
X1303Y731D01*
X1303D01*
X1306Y731D01*
X1308Y730D01*
X1310Y730D01*
X1311Y729D01*
X1315Y727D01*
X1317Y725D01*
X1319Y723D01*
X1321Y722D01*
X1321Y721D01*
X1322Y720D01*
X1322Y720D01*
X1322Y720D01*
X1322D01*
Y756D01*
X1331D01*
Y673D01*
D02*
G37*
G36*
X1801D02*
X1792D01*
Y681D01*
X1791D01*
X1790Y679D01*
X1789Y678D01*
X1788Y677D01*
X1786Y676D01*
X1785Y675D01*
X1783Y674D01*
X1781Y673D01*
X1778Y672D01*
X1777Y672D01*
X1776Y672D01*
X1775Y672D01*
X1774D01*
X1772Y672D01*
X1770Y672D01*
X1768Y672D01*
X1766Y673D01*
X1763Y674D01*
X1761Y676D01*
X1758Y678D01*
X1758Y678D01*
X1757Y679D01*
X1756Y679D01*
X1756Y680D01*
X1756Y680D01*
X1756Y680D01*
X1754Y682D01*
X1753Y684D01*
X1752Y687D01*
X1750Y691D01*
X1750Y695D01*
X1749Y696D01*
X1749Y698D01*
X1749Y699D01*
Y700D01*
X1749Y701D01*
Y702D01*
Y703D01*
Y703D01*
X1749Y707D01*
X1750Y711D01*
X1751Y715D01*
X1751Y716D01*
X1752Y718D01*
X1752Y719D01*
X1753Y720D01*
X1753Y721D01*
X1754Y722D01*
X1754Y722D01*
X1754Y723D01*
X1755Y723D01*
X1755Y723D01*
X1756Y724D01*
X1757Y726D01*
X1759Y727D01*
X1760Y727D01*
X1763Y729D01*
X1766Y730D01*
X1768Y730D01*
X1769Y730D01*
X1770Y731D01*
X1771Y731D01*
X1772D01*
X1774Y731D01*
X1776Y730D01*
X1778Y730D01*
X1780Y729D01*
X1782Y728D01*
X1784Y727D01*
X1785Y726D01*
X1786Y725D01*
X1788Y724D01*
X1789Y723D01*
X1789Y722D01*
X1790Y721D01*
X1791Y720D01*
X1791Y720D01*
X1791Y720D01*
X1791Y719D01*
X1792D01*
Y756D01*
X1801D01*
Y673D01*
D02*
G37*
G36*
X1394Y755D02*
X1395Y755D01*
X1396Y754D01*
X1396Y754D01*
X1396Y754D01*
X1397Y753D01*
X1397Y752D01*
X1398Y751D01*
Y750D01*
X1398Y750D01*
Y750D01*
Y749D01*
X1398Y749D01*
X1397Y748D01*
X1397Y746D01*
X1396Y746D01*
X1396Y745D01*
Y745D01*
X1395Y745D01*
X1395Y744D01*
X1393Y744D01*
X1393D01*
X1392Y744D01*
X1392D01*
X1391Y744D01*
X1390Y744D01*
X1389Y745D01*
X1388Y745D01*
X1388Y745D01*
X1388D01*
X1387Y746D01*
X1387Y747D01*
X1386Y748D01*
Y749D01*
X1386Y749D01*
Y749D01*
Y749D01*
Y750D01*
X1386Y751D01*
X1387Y752D01*
X1387Y753D01*
X1388Y754D01*
X1388D01*
X1388Y754D01*
X1389Y755D01*
X1391Y755D01*
X1391D01*
X1392Y755D01*
X1393D01*
X1394Y755D01*
D02*
G37*
G36*
X1202Y731D02*
X1204Y730D01*
X1206Y730D01*
X1208Y729D01*
X1211Y728D01*
X1214Y726D01*
X1216Y725D01*
X1217Y724D01*
X1218Y724D01*
X1218Y723D01*
X1219Y723D01*
X1219Y722D01*
X1219Y722D01*
X1220Y721D01*
X1221Y719D01*
X1223Y715D01*
X1224Y711D01*
X1225Y708D01*
X1225Y706D01*
X1226Y704D01*
X1226Y703D01*
Y702D01*
X1226Y701D01*
Y700D01*
Y699D01*
Y699D01*
X1226Y697D01*
X1226Y695D01*
X1225Y691D01*
X1224Y687D01*
X1223Y686D01*
X1223Y684D01*
X1222Y683D01*
X1222Y682D01*
X1221Y681D01*
X1221Y680D01*
X1220Y680D01*
X1220Y679D01*
X1220Y679D01*
Y679D01*
X1218Y678D01*
X1217Y677D01*
X1216Y676D01*
X1214Y675D01*
X1211Y673D01*
X1209Y673D01*
X1206Y672D01*
X1205Y672D01*
X1204Y672D01*
X1204Y672D01*
X1203D01*
X1200Y672D01*
X1198Y672D01*
X1196Y673D01*
X1194Y673D01*
X1192Y674D01*
X1191Y675D01*
X1190Y676D01*
X1188Y677D01*
X1187Y678D01*
X1186Y679D01*
X1185Y680D01*
X1185Y681D01*
X1184Y681D01*
X1184Y682D01*
X1183Y682D01*
Y682D01*
X1183D01*
Y676D01*
X1183Y672D01*
X1184Y669D01*
X1185Y666D01*
X1186Y663D01*
X1188Y661D01*
X1190Y660D01*
X1192Y658D01*
X1193Y657D01*
X1196Y656D01*
X1197Y655D01*
X1199Y655D01*
X1201Y655D01*
X1202Y654D01*
X1203Y654D01*
X1204D01*
X1207Y655D01*
X1210Y655D01*
X1213Y656D01*
X1216Y657D01*
X1219Y658D01*
X1220Y658D01*
X1220Y659D01*
X1221Y659D01*
X1222Y659D01*
X1222Y660D01*
X1222D01*
Y650D01*
X1219Y649D01*
X1216Y648D01*
X1213Y648D01*
X1210Y647D01*
X1208Y647D01*
X1207D01*
X1206Y647D01*
X1204D01*
X1201Y647D01*
X1199Y647D01*
X1196Y647D01*
X1194Y648D01*
X1192Y649D01*
X1190Y649D01*
X1187Y651D01*
X1184Y654D01*
X1181Y656D01*
X1179Y659D01*
X1178Y662D01*
X1176Y665D01*
X1176Y668D01*
X1175Y670D01*
X1174Y673D01*
X1174Y675D01*
X1174Y676D01*
Y677D01*
Y677D01*
Y677D01*
Y677D01*
Y729D01*
X1183D01*
Y721D01*
X1183D01*
X1185Y723D01*
X1186Y725D01*
X1187Y726D01*
X1188Y727D01*
X1190Y728D01*
X1191Y728D01*
X1194Y730D01*
X1196Y730D01*
X1197Y730D01*
X1198Y731D01*
X1199Y731D01*
X1200D01*
X1202Y731D01*
D02*
G37*
G36*
X1690Y730D02*
X1694Y730D01*
X1697Y729D01*
X1700Y728D01*
X1702Y727D01*
X1703Y727D01*
X1704Y726D01*
X1705Y726D01*
X1705Y726D01*
X1705Y725D01*
X1706D01*
Y716D01*
X1704Y717D01*
X1703Y719D01*
X1699Y720D01*
X1696Y721D01*
X1693Y722D01*
X1691Y723D01*
X1690Y723D01*
X1689D01*
X1688Y723D01*
X1687D01*
X1685Y723D01*
X1683Y722D01*
X1682Y722D01*
X1681Y721D01*
X1679Y720D01*
X1678Y719D01*
X1678Y717D01*
X1677Y716D01*
X1676Y713D01*
X1676Y712D01*
X1676Y711D01*
X1676Y710D01*
Y709D01*
Y709D01*
Y709D01*
X1693Y706D01*
X1696Y706D01*
X1699Y705D01*
X1701Y704D01*
X1703Y702D01*
X1705Y701D01*
X1707Y699D01*
X1708Y698D01*
X1709Y696D01*
X1710Y695D01*
X1710Y693D01*
X1711Y692D01*
X1711Y690D01*
X1711Y689D01*
X1711Y689D01*
Y688D01*
Y688D01*
X1711Y685D01*
X1710Y683D01*
X1710Y681D01*
X1709Y679D01*
X1708Y678D01*
X1707Y677D01*
X1707Y676D01*
X1706Y676D01*
X1705Y675D01*
X1702Y674D01*
X1700Y673D01*
X1698Y672D01*
X1696Y672D01*
X1695Y672D01*
X1694Y672D01*
X1693D01*
X1691Y672D01*
X1689Y672D01*
X1687Y673D01*
X1686Y673D01*
X1683Y675D01*
X1680Y677D01*
X1678Y679D01*
X1677Y680D01*
X1676Y681D01*
X1676Y681D01*
X1676Y682D01*
Y682D01*
X1676D01*
Y673D01*
X1666D01*
Y710D01*
X1667Y713D01*
X1667Y717D01*
X1668Y719D01*
X1670Y722D01*
X1671Y724D01*
X1673Y726D01*
X1675Y727D01*
X1676Y728D01*
X1678Y729D01*
X1680Y730D01*
X1682Y730D01*
X1683Y730D01*
X1685Y731D01*
X1686Y731D01*
X1686D01*
X1690Y730D01*
D02*
G37*
G36*
X1598Y673D02*
X1588D01*
Y700D01*
X1588D01*
X1563Y673D01*
X1551D01*
X1579Y702D01*
X1553Y729D01*
X1564D01*
X1588Y703D01*
X1588D01*
Y756D01*
X1598D01*
Y673D01*
D02*
G37*
G36*
X1469Y731D02*
X1471Y730D01*
X1473Y730D01*
X1474Y729D01*
X1477Y727D01*
X1480Y726D01*
X1482Y724D01*
X1483Y722D01*
X1484Y721D01*
X1484Y721D01*
X1484Y720D01*
X1484Y720D01*
X1485D01*
Y729D01*
X1494D01*
Y673D01*
X1485D01*
Y705D01*
X1484Y708D01*
X1484Y710D01*
X1483Y713D01*
X1483Y714D01*
X1482Y716D01*
X1481Y717D01*
X1481Y718D01*
X1481Y718D01*
X1479Y720D01*
X1478Y721D01*
X1476Y722D01*
X1474Y722D01*
X1473Y723D01*
X1472Y723D01*
X1471Y723D01*
X1471D01*
X1469Y723D01*
X1467Y722D01*
X1465Y722D01*
X1463Y720D01*
X1462Y719D01*
X1461Y718D01*
X1460Y716D01*
X1460Y715D01*
X1459Y713D01*
X1459Y712D01*
X1458Y710D01*
X1458Y709D01*
Y708D01*
X1458Y707D01*
Y707D01*
Y706D01*
Y673D01*
X1449D01*
Y705D01*
X1449Y708D01*
X1448Y710D01*
X1448Y712D01*
X1447Y714D01*
X1446Y716D01*
X1446Y717D01*
X1445Y717D01*
X1445Y718D01*
X1443Y719D01*
X1442Y721D01*
X1440Y722D01*
X1439Y722D01*
X1437Y723D01*
X1436Y723D01*
X1435Y723D01*
X1435D01*
X1433Y723D01*
X1431Y722D01*
X1429Y722D01*
X1428Y721D01*
X1427Y720D01*
X1426Y720D01*
X1426Y719D01*
X1426Y719D01*
X1424Y717D01*
X1424Y715D01*
X1423Y713D01*
X1423Y710D01*
X1423Y708D01*
X1423Y707D01*
Y706D01*
Y706D01*
Y705D01*
Y705D01*
Y673D01*
X1414D01*
Y708D01*
X1414Y712D01*
X1414Y715D01*
X1415Y718D01*
X1416Y721D01*
X1418Y723D01*
X1419Y725D01*
X1421Y727D01*
X1423Y728D01*
X1424Y729D01*
X1426Y730D01*
X1428Y730D01*
X1429Y730D01*
X1430Y731D01*
X1431Y731D01*
X1432D01*
X1434Y731D01*
X1436Y730D01*
X1438Y730D01*
X1440Y729D01*
X1444Y727D01*
X1446Y725D01*
X1448Y723D01*
X1449Y722D01*
X1450Y721D01*
X1450Y720D01*
X1451Y719D01*
X1451Y719D01*
X1451Y719D01*
X1452Y721D01*
X1452Y722D01*
X1453Y724D01*
X1455Y725D01*
X1455Y726D01*
X1456Y727D01*
X1457Y727D01*
X1457Y727D01*
X1458Y728D01*
X1460Y729D01*
X1462Y730D01*
X1463Y730D01*
X1465Y731D01*
X1466Y731D01*
X1467D01*
X1469Y731D01*
D02*
G37*
G36*
X753D02*
X755Y730D01*
X757Y730D01*
X759Y729D01*
X762Y727D01*
X764Y726D01*
X766Y724D01*
X767Y722D01*
X768Y721D01*
X768Y721D01*
X768Y720D01*
X769Y720D01*
X769D01*
Y729D01*
X778D01*
Y673D01*
X769D01*
Y705D01*
X769Y708D01*
X768Y710D01*
X768Y713D01*
X767Y714D01*
X766Y716D01*
X766Y717D01*
X765Y718D01*
X765Y718D01*
X763Y720D01*
X762Y721D01*
X760Y722D01*
X759Y722D01*
X757Y723D01*
X756Y723D01*
X755Y723D01*
X755D01*
X753Y723D01*
X751Y722D01*
X749Y722D01*
X748Y720D01*
X747Y719D01*
X745Y718D01*
X745Y716D01*
X744Y715D01*
X743Y713D01*
X743Y712D01*
X743Y710D01*
X742Y709D01*
Y708D01*
X742Y707D01*
Y707D01*
Y706D01*
Y673D01*
X733D01*
Y705D01*
X733Y708D01*
X733Y710D01*
X732Y712D01*
X731Y714D01*
X731Y716D01*
X730Y717D01*
X729Y717D01*
X729Y718D01*
X728Y719D01*
X726Y721D01*
X724Y722D01*
X723Y722D01*
X721Y723D01*
X720Y723D01*
X720Y723D01*
X719D01*
X717Y723D01*
X715Y722D01*
X713Y722D01*
X712Y721D01*
X711Y720D01*
X710Y720D01*
X710Y719D01*
X710Y719D01*
X709Y717D01*
X708Y715D01*
X708Y713D01*
X707Y710D01*
X707Y708D01*
X707Y707D01*
Y706D01*
Y706D01*
Y705D01*
Y705D01*
Y673D01*
X698D01*
Y708D01*
X698Y712D01*
X698Y715D01*
X700Y718D01*
X701Y721D01*
X702Y723D01*
X704Y725D01*
X705Y727D01*
X707Y728D01*
X709Y729D01*
X711Y730D01*
X712Y730D01*
X713Y730D01*
X715Y731D01*
X716Y731D01*
X716D01*
X719Y731D01*
X721Y730D01*
X723Y730D01*
X725Y729D01*
X728Y727D01*
X730Y725D01*
X732Y723D01*
X733Y722D01*
X734Y721D01*
X734Y720D01*
X735Y719D01*
X735Y719D01*
X735Y719D01*
X736Y721D01*
X737Y722D01*
X738Y724D01*
X739Y725D01*
X740Y726D01*
X740Y727D01*
X741Y727D01*
X741Y727D01*
X743Y728D01*
X744Y729D01*
X746Y730D01*
X748Y730D01*
X749Y731D01*
X750Y731D01*
X751D01*
X753Y731D01*
D02*
G37*
G36*
X1526D02*
X1528Y730D01*
X1529Y730D01*
X1530Y730D01*
X1530Y730D01*
X1531Y730D01*
X1531D01*
X1534Y729D01*
X1535Y728D01*
X1536Y728D01*
X1537Y727D01*
X1538Y727D01*
X1538Y727D01*
X1538Y726D01*
X1540Y725D01*
X1542Y723D01*
X1542Y722D01*
X1543Y722D01*
X1543Y721D01*
X1543Y721D01*
X1544Y720D01*
X1544Y719D01*
X1544Y717D01*
X1545Y716D01*
X1545Y715D01*
Y714D01*
Y714D01*
X1545Y712D01*
X1544Y711D01*
X1544Y710D01*
X1544Y710D01*
X1544Y709D01*
X1544Y709D01*
Y709D01*
X1543Y707D01*
X1542Y706D01*
X1541Y705D01*
X1541Y704D01*
X1541Y704D01*
X1539Y703D01*
X1538Y702D01*
X1537Y701D01*
X1537Y701D01*
X1536Y701D01*
X1536Y701D01*
X1534Y700D01*
X1532Y699D01*
X1531Y698D01*
X1530Y698D01*
X1530Y698D01*
X1530D01*
X1528Y697D01*
X1526Y696D01*
X1526Y696D01*
X1525Y696D01*
X1525Y696D01*
X1525D01*
X1523Y695D01*
X1522Y694D01*
X1521Y694D01*
X1521Y694D01*
X1521D01*
X1519Y693D01*
X1518Y692D01*
X1518Y691D01*
X1518Y691D01*
Y691D01*
X1517Y690D01*
X1517Y689D01*
X1517Y688D01*
Y687D01*
Y687D01*
X1517Y686D01*
X1517Y685D01*
X1518Y684D01*
X1519Y683D01*
X1521Y681D01*
X1523Y680D01*
X1525Y680D01*
X1527Y679D01*
X1528Y679D01*
X1529D01*
X1532Y680D01*
X1535Y680D01*
X1538Y681D01*
X1540Y682D01*
X1542Y683D01*
X1544Y684D01*
X1544Y684D01*
X1545Y684D01*
X1545Y685D01*
X1545D01*
Y675D01*
X1542Y674D01*
X1540Y673D01*
X1537Y673D01*
X1535Y672D01*
X1533Y672D01*
X1531Y672D01*
X1530D01*
X1527Y672D01*
X1525Y672D01*
X1524Y672D01*
X1523Y672D01*
X1522Y673D01*
X1522Y673D01*
X1522D01*
X1519Y674D01*
X1517Y674D01*
X1516Y674D01*
X1516Y675D01*
X1515Y675D01*
X1515Y675D01*
X1514Y676D01*
X1512Y677D01*
X1511Y679D01*
X1510Y680D01*
X1510Y680D01*
X1510Y681D01*
X1509Y681D01*
X1509Y682D01*
X1508Y683D01*
X1508Y686D01*
X1508Y687D01*
X1508Y687D01*
Y688D01*
Y688D01*
X1508Y690D01*
X1508Y691D01*
X1508Y692D01*
X1508Y693D01*
X1509Y693D01*
X1509Y694D01*
Y694D01*
X1510Y696D01*
X1511Y697D01*
X1511Y698D01*
X1512Y698D01*
X1512Y698D01*
X1512Y698D01*
X1514Y700D01*
X1515Y701D01*
X1516Y701D01*
X1516Y701D01*
X1517Y702D01*
X1517D01*
X1519Y703D01*
X1521Y704D01*
X1522Y704D01*
X1523Y704D01*
X1523Y705D01*
X1524D01*
X1526Y706D01*
X1527Y706D01*
X1528Y706D01*
X1528Y707D01*
X1529Y707D01*
X1529D01*
X1530Y707D01*
X1532Y708D01*
X1532Y709D01*
X1532Y709D01*
X1533D01*
X1534Y710D01*
X1534Y710D01*
X1535Y711D01*
X1535Y711D01*
X1535Y713D01*
X1535Y714D01*
X1535Y715D01*
Y715D01*
Y715D01*
X1535Y716D01*
X1535Y717D01*
X1535Y718D01*
X1535Y718D01*
X1534Y719D01*
X1533Y720D01*
X1533Y721D01*
X1533Y721D01*
X1531Y721D01*
X1530Y722D01*
X1529Y722D01*
X1529Y722D01*
X1529D01*
X1527Y723D01*
X1526Y723D01*
X1524D01*
X1521Y723D01*
X1519Y722D01*
X1516Y722D01*
X1514Y721D01*
X1512Y720D01*
X1511Y720D01*
X1510Y719D01*
X1510Y719D01*
Y728D01*
X1512Y729D01*
X1515Y730D01*
X1517Y730D01*
X1519Y730D01*
X1521Y731D01*
X1522Y731D01*
X1523D01*
X1526Y731D01*
D02*
G37*
G36*
X1094D02*
X1096Y730D01*
X1101Y729D01*
X1102Y729D01*
X1104Y728D01*
X1106Y727D01*
X1107Y727D01*
X1108Y726D01*
X1109Y725D01*
X1110Y725D01*
X1111Y724D01*
X1112Y723D01*
X1112Y723D01*
X1113Y723D01*
X1113Y723D01*
X1114Y721D01*
X1115Y719D01*
X1116Y718D01*
X1117Y716D01*
X1119Y712D01*
X1119Y708D01*
X1120Y707D01*
X1120Y705D01*
X1120Y704D01*
X1120Y703D01*
X1120Y702D01*
Y701D01*
Y701D01*
Y700D01*
X1120Y698D01*
X1120Y696D01*
X1119Y692D01*
X1118Y688D01*
X1117Y686D01*
X1117Y685D01*
X1116Y684D01*
X1115Y683D01*
X1115Y682D01*
X1114Y681D01*
X1114Y680D01*
X1113Y680D01*
X1113Y680D01*
X1113Y679D01*
X1112Y678D01*
X1110Y677D01*
X1108Y676D01*
X1107Y675D01*
X1103Y674D01*
X1100Y673D01*
X1097Y672D01*
X1096Y672D01*
X1095Y672D01*
X1094Y672D01*
X1093D01*
X1091Y672D01*
X1089Y672D01*
X1085Y673D01*
X1081Y674D01*
X1079Y675D01*
X1078Y676D01*
X1077Y677D01*
X1076Y677D01*
X1075Y678D01*
X1074Y678D01*
X1073Y679D01*
X1073Y679D01*
X1073Y680D01*
X1073Y680D01*
X1071Y681D01*
X1070Y683D01*
X1069Y685D01*
X1068Y686D01*
X1067Y690D01*
X1066Y694D01*
X1066Y695D01*
X1065Y697D01*
X1065Y698D01*
X1065Y699D01*
X1065Y700D01*
Y701D01*
Y701D01*
Y701D01*
X1065Y704D01*
X1065Y706D01*
X1066Y708D01*
X1066Y710D01*
X1067Y712D01*
X1067Y714D01*
X1068Y716D01*
X1068Y717D01*
X1069Y719D01*
X1070Y720D01*
X1071Y721D01*
X1071Y721D01*
X1071Y722D01*
X1072Y722D01*
X1072Y723D01*
X1072Y723D01*
X1073Y724D01*
X1075Y725D01*
X1077Y726D01*
X1078Y727D01*
X1081Y729D01*
X1085Y730D01*
X1087Y730D01*
X1089Y730D01*
X1090Y731D01*
X1091Y731D01*
X1092D01*
X1094Y731D01*
D02*
G37*
G36*
X1134Y730D02*
X1135Y730D01*
X1137Y729D01*
X1138Y729D01*
X1139Y728D01*
X1140Y728D01*
X1141Y727D01*
X1141Y727D01*
X1142Y726D01*
X1143Y724D01*
X1144Y723D01*
X1145Y721D01*
X1146Y720D01*
X1146Y719D01*
X1146Y718D01*
X1147Y718D01*
X1147D01*
Y729D01*
X1156D01*
Y673D01*
X1147D01*
Y702D01*
X1147Y705D01*
X1146Y708D01*
X1146Y710D01*
X1145Y713D01*
X1144Y714D01*
X1144Y715D01*
X1143Y716D01*
X1143Y716D01*
X1142Y718D01*
X1140Y720D01*
X1138Y721D01*
X1137Y721D01*
X1135Y722D01*
X1134Y722D01*
X1134Y722D01*
X1133D01*
X1132Y722D01*
X1130Y722D01*
X1129Y721D01*
X1128Y721D01*
X1127Y721D01*
X1127Y720D01*
X1127Y720D01*
X1126Y720D01*
Y730D01*
X1127Y730D01*
X1128Y730D01*
X1130Y730D01*
X1131Y730D01*
X1132D01*
X1134Y730D01*
D02*
G37*
G36*
X1823Y684D02*
X1824Y684D01*
X1825Y683D01*
X1826Y683D01*
X1826Y683D01*
X1826Y682D01*
X1827Y682D01*
X1827Y681D01*
X1828Y679D01*
X1828Y679D01*
X1828Y678D01*
Y678D01*
Y678D01*
X1828Y677D01*
X1828Y676D01*
X1827Y675D01*
X1827Y674D01*
X1826Y674D01*
Y674D01*
X1825Y673D01*
X1825Y673D01*
X1823Y672D01*
X1823Y672D01*
X1822Y672D01*
X1822D01*
X1821Y672D01*
X1820Y672D01*
X1819Y673D01*
X1818Y673D01*
X1818Y674D01*
X1818D01*
X1817Y674D01*
X1816Y675D01*
X1816Y677D01*
X1816Y677D01*
X1816Y678D01*
Y678D01*
Y678D01*
X1816Y679D01*
X1816Y680D01*
X1817Y681D01*
X1817Y682D01*
X1817Y682D01*
X1817Y682D01*
X1818Y682D01*
X1818Y683D01*
X1819Y684D01*
X1820Y684D01*
X1821Y684D01*
X1822Y684D01*
X1822D01*
X1823Y684D01*
D02*
G37*
G36*
X918D02*
X919Y684D01*
X920Y683D01*
X921Y683D01*
X921Y683D01*
X922Y682D01*
X922Y682D01*
X923Y681D01*
X923Y679D01*
X923Y679D01*
X923Y678D01*
Y678D01*
Y678D01*
X923Y677D01*
X923Y676D01*
X922Y675D01*
X922Y674D01*
X922Y674D01*
Y674D01*
X921Y673D01*
X920Y673D01*
X919Y672D01*
X918Y672D01*
X918Y672D01*
X917D01*
X916Y672D01*
X916Y672D01*
X914Y673D01*
X913Y673D01*
X913Y674D01*
X913D01*
X912Y674D01*
X912Y675D01*
X911Y677D01*
X911Y677D01*
X911Y678D01*
Y678D01*
Y678D01*
X911Y679D01*
X911Y680D01*
X912Y681D01*
X912Y682D01*
X913Y682D01*
X913Y682D01*
X913Y682D01*
X914Y683D01*
X914Y684D01*
X916Y684D01*
X916Y684D01*
X917Y684D01*
X917D01*
X918Y684D01*
D02*
G37*
G36*
X821Y731D02*
X824Y730D01*
X828Y729D01*
X830Y729D01*
X831Y728D01*
X833Y727D01*
X834Y727D01*
X836Y726D01*
X837Y725D01*
X838Y725D01*
X838Y724D01*
X839Y723D01*
X840Y723D01*
X840Y723D01*
X840Y723D01*
X841Y721D01*
X842Y719D01*
X844Y718D01*
X844Y716D01*
X846Y712D01*
X847Y708D01*
X847Y707D01*
X847Y705D01*
X847Y704D01*
X848Y703D01*
X848Y702D01*
Y701D01*
Y701D01*
Y700D01*
X848Y698D01*
X847Y696D01*
X847Y692D01*
X845Y688D01*
X845Y686D01*
X844Y685D01*
X843Y684D01*
X843Y683D01*
X842Y682D01*
X842Y681D01*
X841Y680D01*
X841Y680D01*
X841Y680D01*
X840Y679D01*
X839Y678D01*
X837Y677D01*
X836Y676D01*
X834Y675D01*
X831Y674D01*
X827Y673D01*
X825Y672D01*
X823Y672D01*
X822Y672D01*
X821Y672D01*
X820D01*
X818Y672D01*
X816Y672D01*
X812Y673D01*
X808Y674D01*
X807Y675D01*
X805Y676D01*
X804Y677D01*
X803Y677D01*
X802Y678D01*
X801Y678D01*
X801Y679D01*
X800Y679D01*
X800Y680D01*
X800Y680D01*
X799Y681D01*
X797Y683D01*
X796Y685D01*
X795Y686D01*
X794Y690D01*
X793Y694D01*
X793Y695D01*
X793Y697D01*
X792Y698D01*
X792Y699D01*
X792Y700D01*
Y701D01*
Y701D01*
Y701D01*
X792Y704D01*
X792Y706D01*
X793Y708D01*
X793Y710D01*
X794Y712D01*
X794Y714D01*
X795Y716D01*
X796Y717D01*
X796Y719D01*
X797Y720D01*
X798Y721D01*
X798Y721D01*
X799Y722D01*
X799Y722D01*
X799Y723D01*
X799Y723D01*
X801Y724D01*
X802Y725D01*
X804Y726D01*
X805Y727D01*
X809Y729D01*
X812Y730D01*
X815Y730D01*
X816Y730D01*
X817Y731D01*
X818Y731D01*
X819D01*
X821Y731D01*
D02*
G37*
G36*
X960D02*
X963Y730D01*
X965Y730D01*
X966Y729D01*
X968Y728D01*
X970Y727D01*
X971Y726D01*
X973Y725D01*
X974Y724D01*
X975Y723D01*
X976Y722D01*
X976Y721D01*
X977Y720D01*
X977Y720D01*
X977Y720D01*
X978Y719D01*
X978D01*
Y729D01*
X987D01*
Y647D01*
X978D01*
Y681D01*
X978D01*
X976Y679D01*
X975Y678D01*
X974Y677D01*
X972Y676D01*
X971Y675D01*
X969Y674D01*
X967Y673D01*
X964Y672D01*
X963Y672D01*
X962Y672D01*
X962Y672D01*
X961D01*
X958Y672D01*
X956Y672D01*
X954Y672D01*
X953Y673D01*
X949Y674D01*
X947Y676D01*
X945Y678D01*
X944Y678D01*
X943Y679D01*
X943Y679D01*
X942Y680D01*
X942Y680D01*
X942Y680D01*
X941Y682D01*
X939Y684D01*
X938Y687D01*
X937Y691D01*
X936Y695D01*
X935Y696D01*
X935Y698D01*
X935Y699D01*
Y700D01*
X935Y701D01*
Y702D01*
Y703D01*
Y703D01*
X935Y707D01*
X936Y711D01*
X937Y715D01*
X937Y716D01*
X938Y718D01*
X938Y719D01*
X939Y720D01*
X939Y721D01*
X940Y722D01*
X940Y722D01*
X941Y723D01*
X941Y723D01*
X941Y723D01*
X942Y724D01*
X943Y726D01*
X945Y727D01*
X946Y727D01*
X949Y729D01*
X952Y730D01*
X954Y730D01*
X955Y730D01*
X956Y731D01*
X957Y731D01*
X958D01*
X960Y731D01*
D02*
G37*
G36*
X3763Y1116D02*
X3764Y1115D01*
X3765Y1115D01*
X3767Y1114D01*
X3767Y1114D01*
X3768Y1114D01*
X3768Y1113D01*
X3769Y1113D01*
X3770Y1112D01*
X3770Y1111D01*
X3771Y1110D01*
X3771Y1109D01*
X3771Y1108D01*
X3772Y1107D01*
Y1106D01*
Y1106D01*
X3771Y1105D01*
X3771Y1103D01*
X3771Y1102D01*
X3770Y1101D01*
X3770Y1100D01*
X3769Y1100D01*
X3769Y1100D01*
X3769Y1099D01*
X3767Y1099D01*
X3766Y1098D01*
X3765Y1097D01*
X3764Y1097D01*
X3762Y1097D01*
X3762Y1097D01*
X3761D01*
X3759Y1097D01*
X3758Y1097D01*
X3756Y1098D01*
X3755Y1098D01*
X3754Y1098D01*
X3754Y1099D01*
X3753Y1099D01*
X3753Y1099D01*
X3752Y1100D01*
X3752Y1102D01*
X3751Y1103D01*
X3751Y1104D01*
X3750Y1105D01*
X3750Y1105D01*
Y1106D01*
Y1106D01*
X3750Y1108D01*
X3751Y1109D01*
X3751Y1110D01*
X3752Y1111D01*
X3752Y1112D01*
X3753Y1113D01*
X3753Y1113D01*
X3753Y1113D01*
X3754Y1114D01*
X3756Y1115D01*
X3757Y1115D01*
X3758Y1115D01*
X3759Y1116D01*
X3760Y1116D01*
X3761D01*
X3763Y1116D01*
D02*
G37*
G36*
X3173Y1112D02*
X3176Y1112D01*
X3181Y1111D01*
X3185Y1110D01*
X3187Y1110D01*
X3188Y1109D01*
X3190Y1108D01*
X3191Y1108D01*
X3193Y1107D01*
X3194Y1106D01*
X3194Y1106D01*
X3195Y1106D01*
X3195Y1105D01*
X3195Y1105D01*
Y1089D01*
X3194Y1091D01*
X3192Y1092D01*
X3190Y1093D01*
X3188Y1094D01*
X3186Y1095D01*
X3185Y1096D01*
X3181Y1097D01*
X3180Y1097D01*
X3179Y1097D01*
X3178Y1097D01*
X3177Y1098D01*
X3176Y1098D01*
X3175D01*
X3173Y1098D01*
X3171Y1097D01*
X3169Y1097D01*
X3168Y1096D01*
X3167Y1096D01*
X3166Y1095D01*
X3166Y1095D01*
X3165Y1095D01*
X3164Y1094D01*
X3164Y1092D01*
X3163Y1091D01*
X3163Y1090D01*
X3163Y1089D01*
X3162Y1088D01*
Y1087D01*
Y1087D01*
X3163Y1085D01*
X3163Y1083D01*
X3163Y1082D01*
X3163Y1082D01*
X3163Y1082D01*
Y1081D01*
X3164Y1080D01*
X3165Y1078D01*
X3166Y1078D01*
X3166Y1077D01*
X3166Y1077D01*
X3166Y1077D01*
X3168Y1075D01*
X3169Y1074D01*
X3170Y1073D01*
X3170Y1072D01*
X3171Y1072D01*
X3171Y1072D01*
X3173Y1070D01*
X3175Y1069D01*
X3176Y1068D01*
X3177Y1067D01*
X3177Y1067D01*
X3177Y1067D01*
X3180Y1065D01*
X3181Y1064D01*
X3182Y1063D01*
X3183Y1062D01*
X3184Y1062D01*
X3185Y1061D01*
X3185Y1061D01*
X3188Y1059D01*
X3189Y1058D01*
X3190Y1057D01*
X3191Y1056D01*
X3192Y1055D01*
X3192Y1054D01*
X3192Y1054D01*
X3194Y1051D01*
X3195Y1049D01*
X3196Y1048D01*
X3197Y1047D01*
X3197Y1046D01*
X3197Y1045D01*
X3198Y1045D01*
X3198Y1043D01*
X3199Y1041D01*
X3199Y1039D01*
X3199Y1037D01*
X3199Y1036D01*
X3200Y1034D01*
Y1034D01*
Y1033D01*
Y1033D01*
Y1027D01*
X3144D01*
Y1042D01*
X3179D01*
X3179Y1044D01*
X3179Y1045D01*
X3178Y1045D01*
X3178Y1046D01*
Y1046D01*
X3177Y1047D01*
X3176Y1048D01*
X3175Y1049D01*
X3175Y1049D01*
X3175Y1050D01*
X3173Y1051D01*
X3172Y1052D01*
X3171Y1053D01*
X3171Y1053D01*
X3171Y1053D01*
X3170Y1053D01*
X3168Y1055D01*
X3167Y1056D01*
X3166Y1057D01*
X3165Y1057D01*
X3165Y1057D01*
X3165Y1057D01*
X3162Y1060D01*
X3161Y1061D01*
X3159Y1061D01*
X3158Y1062D01*
X3158Y1063D01*
X3157Y1063D01*
X3157Y1063D01*
X3154Y1066D01*
X3153Y1067D01*
X3152Y1068D01*
X3151Y1069D01*
X3151Y1069D01*
X3150Y1070D01*
X3150Y1070D01*
X3148Y1073D01*
X3147Y1074D01*
X3147Y1075D01*
X3146Y1077D01*
X3146Y1078D01*
X3146Y1078D01*
X3145Y1078D01*
X3145Y1080D01*
X3144Y1082D01*
X3144Y1084D01*
X3144Y1085D01*
X3144Y1086D01*
X3144Y1087D01*
Y1088D01*
Y1088D01*
X3144Y1091D01*
X3144Y1092D01*
X3144Y1094D01*
X3144Y1096D01*
X3145Y1097D01*
X3145Y1098D01*
X3145Y1098D01*
X3145Y1098D01*
X3146Y1100D01*
X3147Y1102D01*
X3148Y1103D01*
X3149Y1104D01*
X3150Y1105D01*
X3150Y1105D01*
X3151Y1106D01*
X3151Y1106D01*
X3152Y1107D01*
X3154Y1108D01*
X3155Y1109D01*
X3156Y1110D01*
X3158Y1110D01*
X3159Y1110D01*
X3159Y1111D01*
X3159D01*
X3161Y1111D01*
X3163Y1112D01*
X3165Y1112D01*
X3167Y1112D01*
X3169D01*
X3170Y1112D01*
X3171D01*
X3173Y1112D01*
D02*
G37*
G36*
X1397Y673D02*
X1387D01*
Y729D01*
X1397D01*
Y673D01*
D02*
G37*
%LPC*%
G36*
X3367Y1271D02*
X3366D01*
X3363Y1271D01*
X3360Y1270D01*
X3358Y1269D01*
X3355Y1268D01*
X3354Y1267D01*
X3353Y1266D01*
X3352Y1265D01*
X3352Y1265D01*
X3350Y1262D01*
X3348Y1259D01*
X3347Y1257D01*
X3347Y1254D01*
X3346Y1252D01*
X3346Y1251D01*
Y1249D01*
Y1249D01*
Y1242D01*
X3346Y1237D01*
X3347Y1234D01*
X3348Y1230D01*
X3349Y1228D01*
X3350Y1225D01*
X3351Y1224D01*
X3352Y1223D01*
X3352Y1222D01*
X3354Y1220D01*
X3357Y1218D01*
X3359Y1217D01*
X3361Y1216D01*
X3363Y1216D01*
X3365Y1216D01*
X3366Y1215D01*
X3366D01*
X3370Y1216D01*
X3373Y1217D01*
X3375Y1217D01*
X3377Y1219D01*
X3379Y1220D01*
X3380Y1221D01*
X3381Y1222D01*
X3381Y1222D01*
X3383Y1225D01*
X3384Y1228D01*
X3385Y1231D01*
X3386Y1234D01*
X3386Y1237D01*
X3386Y1240D01*
Y1240D01*
Y1241D01*
Y1241D01*
Y1242D01*
X3386Y1247D01*
X3385Y1251D01*
X3385Y1254D01*
X3384Y1257D01*
X3383Y1260D01*
X3382Y1262D01*
X3381Y1263D01*
X3381Y1263D01*
X3379Y1266D01*
X3376Y1268D01*
X3374Y1269D01*
X3371Y1270D01*
X3369Y1270D01*
X3367Y1271D01*
D02*
G37*
G36*
X2819Y1253D02*
X2802D01*
X2799Y1253D01*
X2795Y1252D01*
X2793Y1251D01*
X2790Y1251D01*
X2788Y1250D01*
X2787Y1249D01*
X2786Y1248D01*
X2786Y1248D01*
X2784Y1246D01*
X2783Y1244D01*
X2781Y1242D01*
X2781Y1240D01*
X2780Y1238D01*
X2780Y1237D01*
Y1236D01*
Y1236D01*
X2780Y1232D01*
X2781Y1230D01*
X2782Y1227D01*
X2783Y1225D01*
X2784Y1224D01*
X2785Y1223D01*
X2786Y1222D01*
X2786Y1222D01*
X2788Y1220D01*
X2791Y1219D01*
X2794Y1218D01*
X2796Y1218D01*
X2799Y1217D01*
X2801Y1217D01*
X2819D01*
Y1253D01*
D02*
G37*
G36*
X3664Y1271D02*
X3662D01*
X3658Y1271D01*
X3655Y1270D01*
X3652Y1268D01*
X3650Y1267D01*
X3648Y1265D01*
X3646Y1262D01*
X3644Y1260D01*
X3643Y1257D01*
X3642Y1255D01*
X3642Y1252D01*
X3641Y1250D01*
X3641Y1248D01*
Y1246D01*
X3641Y1245D01*
Y1244D01*
Y1244D01*
X3641Y1239D01*
X3641Y1234D01*
X3642Y1231D01*
X3644Y1227D01*
X3645Y1225D01*
X3647Y1222D01*
X3649Y1221D01*
X3651Y1219D01*
X3653Y1218D01*
X3655Y1217D01*
X3657Y1216D01*
X3659Y1216D01*
X3660Y1216D01*
X3661Y1215D01*
X3662D01*
X3666Y1216D01*
X3669Y1217D01*
X3672Y1218D01*
X3675Y1220D01*
X3677Y1222D01*
X3679Y1224D01*
X3680Y1227D01*
X3681Y1229D01*
X3682Y1232D01*
X3683Y1234D01*
X3683Y1237D01*
X3684Y1239D01*
X3684Y1240D01*
X3684Y1242D01*
Y1243D01*
Y1243D01*
X3684Y1248D01*
X3683Y1252D01*
X3682Y1255D01*
X3681Y1258D01*
X3680Y1261D01*
X3679Y1262D01*
X3679Y1263D01*
X3679Y1264D01*
X3676Y1266D01*
X3673Y1268D01*
X3671Y1269D01*
X3668Y1270D01*
X3666Y1270D01*
X3664Y1271D01*
D02*
G37*
G36*
X2958Y1087D02*
Y1058D01*
X2978D01*
X2976Y1061D01*
X2975Y1063D01*
X2974Y1063D01*
X2974Y1064D01*
X2973Y1065D01*
X2973Y1065D01*
X2971Y1067D01*
X2970Y1069D01*
X2969Y1070D01*
X2969Y1071D01*
X2968Y1072D01*
X2968Y1072D01*
X2968Y1072D01*
X2966Y1075D01*
X2965Y1076D01*
X2964Y1077D01*
X2964Y1078D01*
X2963Y1079D01*
X2963Y1080D01*
X2963Y1080D01*
X2961Y1083D01*
X2960Y1084D01*
X2959Y1085D01*
X2959Y1086D01*
X2958Y1087D01*
X2958Y1087D01*
X2958Y1087D01*
D02*
G37*
G36*
X4213Y1097D02*
X4206D01*
X4204Y1097D01*
X4202Y1097D01*
X4200Y1096D01*
X4198Y1096D01*
X4197Y1095D01*
X4196Y1094D01*
X4195Y1093D01*
X4194Y1093D01*
X4193Y1092D01*
X4193Y1091D01*
X4192Y1089D01*
Y1089D01*
X4192Y1088D01*
Y1088D01*
Y1088D01*
X4192Y1086D01*
X4193Y1085D01*
X4193Y1083D01*
X4194Y1082D01*
X4195Y1081D01*
X4195Y1081D01*
X4196Y1080D01*
X4196Y1080D01*
X4197Y1079D01*
X4199Y1078D01*
X4200Y1078D01*
X4202Y1078D01*
X4203Y1077D01*
X4204Y1077D01*
X4213D01*
Y1097D01*
D02*
G37*
G36*
X3539Y1240D02*
Y1234D01*
X3539Y1231D01*
X3540Y1228D01*
X3540Y1225D01*
X3541Y1223D01*
X3543Y1222D01*
X3543Y1221D01*
X3544Y1220D01*
X3544Y1219D01*
X3546Y1217D01*
X3548Y1216D01*
X3551Y1215D01*
X3553Y1214D01*
X3555Y1214D01*
X3556Y1214D01*
X3558D01*
X3560Y1214D01*
X3562Y1214D01*
X3563Y1215D01*
X3565Y1215D01*
X3566Y1216D01*
X3567Y1216D01*
X3567Y1217D01*
X3567Y1217D01*
X3568Y1218D01*
X3569Y1220D01*
X3570Y1221D01*
X3570Y1222D01*
X3570Y1223D01*
X3571Y1224D01*
Y1225D01*
Y1225D01*
X3570Y1227D01*
X3570Y1229D01*
X3569Y1231D01*
X3568Y1232D01*
X3566Y1234D01*
X3563Y1236D01*
X3561Y1237D01*
X3559Y1238D01*
X3558Y1238D01*
X3557Y1238D01*
X3556D01*
X3539Y1240D01*
D02*
G37*
G36*
X4213Y1063D02*
X4203D01*
X4201Y1063D01*
X4198Y1063D01*
X4197Y1062D01*
X4195Y1062D01*
X4194Y1061D01*
X4193Y1061D01*
X4193Y1060D01*
X4193Y1060D01*
X4191Y1059D01*
X4190Y1058D01*
X4190Y1056D01*
X4189Y1055D01*
X4189Y1054D01*
X4189Y1053D01*
Y1053D01*
Y1052D01*
X4189Y1050D01*
X4189Y1049D01*
X4190Y1047D01*
X4191Y1046D01*
X4191Y1045D01*
X4192Y1044D01*
X4192Y1044D01*
X4193Y1044D01*
X4194Y1043D01*
X4196Y1042D01*
X4197Y1042D01*
X4199Y1041D01*
X4201Y1041D01*
X4202Y1041D01*
X4213D01*
Y1063D01*
D02*
G37*
G36*
X1093Y723D02*
X1092D01*
X1089Y723D01*
X1087Y722D01*
X1084Y721D01*
X1082Y720D01*
X1081Y719D01*
X1080Y718D01*
X1079Y718D01*
X1079Y717D01*
X1077Y715D01*
X1076Y712D01*
X1075Y710D01*
X1075Y707D01*
X1074Y705D01*
X1074Y704D01*
X1074Y703D01*
Y702D01*
Y701D01*
Y701D01*
Y701D01*
X1074Y697D01*
X1075Y694D01*
X1076Y691D01*
X1077Y689D01*
X1078Y687D01*
X1078Y686D01*
X1079Y685D01*
X1079Y685D01*
X1081Y683D01*
X1083Y682D01*
X1085Y681D01*
X1087Y680D01*
X1089Y680D01*
X1091Y679D01*
X1092Y679D01*
X1092D01*
X1096Y680D01*
X1098Y680D01*
X1101Y681D01*
X1102Y682D01*
X1104Y683D01*
X1105Y684D01*
X1106Y685D01*
X1106Y685D01*
X1108Y687D01*
X1109Y690D01*
X1110Y692D01*
X1111Y695D01*
X1111Y697D01*
X1111Y698D01*
Y699D01*
X1111Y700D01*
Y700D01*
Y701D01*
Y701D01*
X1111Y704D01*
X1110Y708D01*
X1110Y710D01*
X1109Y713D01*
X1108Y715D01*
X1107Y716D01*
X1106Y717D01*
X1106Y717D01*
X1104Y719D01*
X1102Y721D01*
X1100Y722D01*
X1097Y722D01*
X1095Y723D01*
X1094Y723D01*
X1093Y723D01*
D02*
G37*
G36*
X1200D02*
X1199D01*
X1197Y723D01*
X1195Y722D01*
X1192Y722D01*
X1191Y721D01*
X1190Y720D01*
X1189Y719D01*
X1188Y718D01*
X1188Y718D01*
X1186Y716D01*
X1185Y714D01*
X1184Y713D01*
X1184Y711D01*
X1183Y709D01*
X1183Y708D01*
Y707D01*
Y707D01*
Y707D01*
Y698D01*
X1183Y695D01*
X1184Y693D01*
X1185Y690D01*
X1185Y688D01*
X1186Y687D01*
X1187Y686D01*
X1188Y685D01*
X1188Y685D01*
X1190Y683D01*
X1192Y681D01*
X1194Y681D01*
X1196Y680D01*
X1198Y680D01*
X1199Y679D01*
X1200Y679D01*
X1200D01*
X1203Y680D01*
X1205Y680D01*
X1207Y681D01*
X1209Y682D01*
X1210Y683D01*
X1211Y684D01*
X1212Y685D01*
X1212Y685D01*
X1214Y687D01*
X1215Y690D01*
X1216Y692D01*
X1216Y695D01*
X1216Y697D01*
X1217Y698D01*
X1217Y699D01*
Y699D01*
Y700D01*
Y700D01*
X1217Y704D01*
X1216Y707D01*
X1215Y710D01*
X1214Y713D01*
X1214Y714D01*
X1213Y716D01*
X1212Y717D01*
X1212Y717D01*
X1210Y719D01*
X1208Y720D01*
X1206Y722D01*
X1204Y722D01*
X1202Y723D01*
X1200Y723D01*
X1200Y723D01*
D02*
G37*
G36*
X3274Y1074D02*
X3273D01*
X3271Y1074D01*
X3269Y1074D01*
X3267Y1073D01*
X3266Y1072D01*
X3265Y1071D01*
X3264Y1069D01*
X3263Y1068D01*
X3262Y1067D01*
X3261Y1064D01*
X3261Y1062D01*
X3261Y1061D01*
Y1060D01*
X3261Y1059D01*
Y1059D01*
Y1058D01*
X3261Y1055D01*
X3261Y1052D01*
X3262Y1050D01*
X3263Y1048D01*
X3263Y1047D01*
X3264Y1045D01*
X3264Y1045D01*
X3264Y1045D01*
X3266Y1043D01*
X3267Y1042D01*
X3269Y1041D01*
X3270Y1040D01*
X3272Y1040D01*
X3273Y1040D01*
X3274Y1040D01*
X3274D01*
X3276Y1040D01*
X3278Y1040D01*
X3279Y1041D01*
X3280Y1042D01*
X3281Y1042D01*
X3282Y1043D01*
X3283Y1043D01*
X3283Y1044D01*
X3284Y1045D01*
X3285Y1047D01*
X3285Y1049D01*
X3286Y1050D01*
X3286Y1052D01*
X3286Y1053D01*
Y1053D01*
Y1054D01*
Y1059D01*
X3286Y1061D01*
X3285Y1063D01*
X3285Y1065D01*
X3284Y1067D01*
X3284Y1068D01*
X3283Y1069D01*
X3283Y1070D01*
X3282Y1070D01*
X3281Y1072D01*
X3279Y1073D01*
X3278Y1073D01*
X3276Y1074D01*
X3275Y1074D01*
X3274Y1074D01*
D02*
G37*
G36*
X3101Y1098D02*
X3100D01*
X3099Y1098D01*
X3098Y1098D01*
X3097Y1098D01*
X3097Y1097D01*
X3095Y1096D01*
X3094Y1094D01*
X3093Y1092D01*
X3092Y1089D01*
X3091Y1086D01*
X3091Y1084D01*
X3090Y1081D01*
X3090Y1078D01*
X3089Y1076D01*
X3089Y1074D01*
X3089Y1072D01*
Y1070D01*
Y1070D01*
Y1069D01*
Y1069D01*
Y1069D01*
Y1066D01*
X3089Y1064D01*
X3089Y1062D01*
X3089Y1059D01*
X3090Y1057D01*
X3090Y1055D01*
X3091Y1052D01*
X3092Y1049D01*
X3093Y1047D01*
X3094Y1045D01*
X3095Y1043D01*
X3096Y1042D01*
X3097Y1041D01*
X3098Y1041D01*
X3099Y1040D01*
X3100Y1040D01*
X3100Y1040D01*
X3101D01*
X3102Y1040D01*
X3103Y1040D01*
X3104Y1041D01*
X3106Y1042D01*
X3107Y1044D01*
X3109Y1046D01*
X3109Y1049D01*
X3110Y1051D01*
X3111Y1054D01*
X3111Y1057D01*
X3112Y1059D01*
X3112Y1062D01*
X3112Y1064D01*
Y1066D01*
X3112Y1067D01*
Y1068D01*
Y1068D01*
Y1068D01*
Y1071D01*
X3112Y1073D01*
X3112Y1076D01*
X3112Y1078D01*
X3112Y1080D01*
X3111Y1082D01*
X3110Y1086D01*
X3110Y1088D01*
X3109Y1091D01*
X3108Y1093D01*
X3106Y1094D01*
X3105Y1096D01*
X3104Y1097D01*
X3103Y1097D01*
X3102Y1098D01*
X3101Y1098D01*
X3101Y1098D01*
D02*
G37*
G36*
X821Y723D02*
X820D01*
X817Y723D01*
X814Y722D01*
X812Y721D01*
X810Y720D01*
X808Y719D01*
X807Y718D01*
X806Y718D01*
X806Y717D01*
X805Y715D01*
X803Y712D01*
X803Y710D01*
X802Y707D01*
X802Y705D01*
X802Y704D01*
X801Y703D01*
Y702D01*
Y701D01*
Y701D01*
Y701D01*
X802Y697D01*
X802Y694D01*
X803Y691D01*
X804Y689D01*
X805Y687D01*
X806Y686D01*
X806Y685D01*
X806Y685D01*
X808Y683D01*
X810Y682D01*
X813Y681D01*
X815Y680D01*
X817Y680D01*
X818Y679D01*
X819Y679D01*
X820D01*
X823Y680D01*
X825Y680D01*
X828Y681D01*
X830Y682D01*
X831Y683D01*
X832Y684D01*
X833Y685D01*
X833Y685D01*
X835Y687D01*
X836Y690D01*
X837Y692D01*
X838Y695D01*
X838Y697D01*
X838Y698D01*
Y699D01*
X838Y700D01*
Y700D01*
Y701D01*
Y701D01*
X838Y704D01*
X838Y708D01*
X837Y710D01*
X836Y713D01*
X835Y715D01*
X834Y716D01*
X834Y717D01*
X833Y717D01*
X831Y719D01*
X829Y721D01*
X827Y722D01*
X825Y722D01*
X823Y723D01*
X821Y723D01*
X821Y723D01*
D02*
G37*
G36*
X4090Y1055D02*
Y1051D01*
X4090Y1049D01*
X4091Y1048D01*
X4091Y1046D01*
X4092Y1045D01*
X4092Y1044D01*
X4093Y1043D01*
X4093Y1042D01*
X4094Y1042D01*
X4095Y1041D01*
X4096Y1040D01*
X4098Y1040D01*
X4099Y1039D01*
X4100Y1039D01*
X4101Y1039D01*
X4102D01*
X4103Y1039D01*
X4104Y1039D01*
X4106Y1039D01*
X4106Y1040D01*
X4107Y1040D01*
X4107Y1040D01*
X4108Y1040D01*
X4108Y1041D01*
X4109Y1041D01*
X4109Y1042D01*
X4109Y1043D01*
X4110Y1044D01*
X4110Y1045D01*
X4110Y1045D01*
Y1046D01*
Y1046D01*
X4110Y1047D01*
X4110Y1048D01*
X4109Y1049D01*
X4109Y1050D01*
X4107Y1051D01*
X4106Y1052D01*
X4104Y1053D01*
X4102Y1054D01*
X4102Y1054D01*
X4102Y1054D01*
X4101D01*
X4090Y1055D01*
D02*
G37*
G36*
X961Y723D02*
X960D01*
X958Y723D01*
X955Y722D01*
X953Y721D01*
X951Y720D01*
X950Y719D01*
X949Y719D01*
X949Y718D01*
X948Y718D01*
X947Y715D01*
X946Y713D01*
X945Y711D01*
X945Y708D01*
X944Y706D01*
X944Y704D01*
Y704D01*
Y703D01*
Y703D01*
Y703D01*
X944Y699D01*
X945Y695D01*
X945Y692D01*
X946Y690D01*
X947Y688D01*
X948Y687D01*
X949Y686D01*
X949Y686D01*
Y685D01*
X951Y683D01*
X953Y682D01*
X955Y681D01*
X957Y680D01*
X959Y680D01*
X960Y679D01*
X961Y679D01*
X962D01*
X964Y679D01*
X966Y680D01*
X968Y681D01*
X970Y682D01*
X971Y683D01*
X972Y683D01*
X973Y684D01*
X973Y684D01*
X975Y686D01*
X976Y688D01*
X977Y690D01*
X977Y692D01*
X977Y693D01*
X978Y695D01*
X978Y696D01*
Y696D01*
Y696D01*
Y704D01*
X978Y707D01*
X977Y709D01*
X976Y712D01*
X975Y714D01*
X974Y715D01*
X974Y716D01*
X973Y717D01*
X973Y718D01*
X971Y719D01*
X969Y721D01*
X967Y722D01*
X965Y722D01*
X963Y723D01*
X962Y723D01*
X961Y723D01*
D02*
G37*
G36*
X1676Y702D02*
Y696D01*
X1676Y693D01*
X1676Y691D01*
X1677Y689D01*
X1678Y687D01*
X1678Y686D01*
X1679Y685D01*
X1680Y684D01*
X1680Y684D01*
X1682Y682D01*
X1684Y681D01*
X1686Y680D01*
X1687Y680D01*
X1689Y680D01*
X1690Y679D01*
X1691Y679D01*
X1691D01*
X1693Y679D01*
X1694Y680D01*
X1696Y680D01*
X1697Y681D01*
X1698Y681D01*
X1698Y681D01*
X1699Y682D01*
X1699Y682D01*
X1700Y683D01*
X1701Y684D01*
X1701Y685D01*
X1701Y686D01*
X1702Y687D01*
X1702Y688D01*
Y688D01*
Y689D01*
X1702Y691D01*
X1701Y692D01*
X1701Y693D01*
X1700Y695D01*
X1700Y695D01*
X1699Y696D01*
X1699Y696D01*
X1699Y696D01*
X1698Y697D01*
X1696Y698D01*
X1694Y698D01*
X1693Y699D01*
X1692Y699D01*
X1690Y699D01*
X1690Y700D01*
X1689D01*
X1676Y702D01*
D02*
G37*
G36*
X3422Y1074D02*
X3421D01*
X3419Y1074D01*
X3417Y1074D01*
X3415Y1073D01*
X3414Y1072D01*
X3412Y1070D01*
X3411Y1069D01*
X3410Y1068D01*
X3410Y1066D01*
X3409Y1064D01*
X3409Y1063D01*
X3408Y1061D01*
X3408Y1060D01*
Y1059D01*
X3408Y1058D01*
Y1058D01*
Y1057D01*
X3408Y1054D01*
X3408Y1052D01*
X3409Y1049D01*
X3410Y1047D01*
X3411Y1045D01*
X3412Y1044D01*
X3413Y1043D01*
X3415Y1042D01*
X3416Y1041D01*
X3417Y1041D01*
X3418Y1040D01*
X3419Y1040D01*
X3420Y1040D01*
X3421Y1040D01*
X3421D01*
X3424Y1040D01*
X3426Y1040D01*
X3428Y1041D01*
X3429Y1042D01*
X3431Y1044D01*
X3432Y1045D01*
X3433Y1047D01*
X3433Y1048D01*
X3434Y1050D01*
X3434Y1052D01*
X3435Y1053D01*
X3435Y1054D01*
X3435Y1055D01*
X3435Y1056D01*
Y1057D01*
Y1057D01*
X3435Y1060D01*
X3435Y1063D01*
X3434Y1065D01*
X3433Y1067D01*
X3433Y1068D01*
X3432Y1069D01*
X3432Y1070D01*
X3432Y1070D01*
X3430Y1071D01*
X3428Y1073D01*
X3427Y1073D01*
X3425Y1074D01*
X3424Y1074D01*
X3422Y1074D01*
D02*
G37*
G36*
X3072Y1274D02*
X3071D01*
X3068Y1273D01*
X3066Y1273D01*
X3063Y1272D01*
X3061Y1270D01*
X3060Y1269D01*
X3059Y1267D01*
X3057Y1265D01*
X3056Y1263D01*
X3055Y1260D01*
X3055Y1258D01*
X3055Y1256D01*
X3054Y1255D01*
Y1254D01*
Y1253D01*
Y1253D01*
X3090D01*
X3089Y1256D01*
X3089Y1259D01*
X3088Y1262D01*
X3086Y1264D01*
X3085Y1265D01*
X3085Y1267D01*
X3084Y1267D01*
X3084Y1268D01*
X3082Y1270D01*
X3080Y1271D01*
X3078Y1272D01*
X3075Y1273D01*
X3074Y1273D01*
X3072Y1274D01*
D02*
G37*
G36*
X3799Y1253D02*
X3782D01*
X3779Y1253D01*
X3775Y1252D01*
X3772Y1251D01*
X3770Y1251D01*
X3768Y1250D01*
X3767Y1249D01*
X3766Y1248D01*
X3766Y1248D01*
X3764Y1246D01*
X3762Y1244D01*
X3761Y1242D01*
X3761Y1240D01*
X3760Y1238D01*
X3760Y1237D01*
Y1236D01*
Y1236D01*
X3760Y1232D01*
X3761Y1230D01*
X3762Y1227D01*
X3763Y1225D01*
X3764Y1224D01*
X3765Y1223D01*
X3766Y1222D01*
X3766Y1222D01*
X3768Y1220D01*
X3771Y1219D01*
X3774Y1218D01*
X3776Y1218D01*
X3779Y1217D01*
X3781Y1217D01*
X3799D01*
Y1253D01*
D02*
G37*
G36*
X3206Y1307D02*
X3192D01*
X3188Y1307D01*
X3185Y1306D01*
X3182Y1305D01*
X3180Y1304D01*
X3178Y1303D01*
X3176Y1301D01*
X3175Y1300D01*
X3173Y1298D01*
X3173Y1296D01*
X3172Y1295D01*
X3171Y1292D01*
Y1291D01*
X3171Y1290D01*
Y1289D01*
Y1289D01*
X3171Y1286D01*
X3172Y1283D01*
X3173Y1281D01*
X3174Y1279D01*
X3175Y1277D01*
X3176Y1276D01*
X3177Y1275D01*
X3177Y1275D01*
X3179Y1273D01*
X3182Y1272D01*
X3184Y1271D01*
X3187Y1270D01*
X3189Y1270D01*
X3191Y1270D01*
X3206D01*
Y1307D01*
D02*
G37*
G36*
X1775Y723D02*
X1774D01*
X1771Y723D01*
X1769Y722D01*
X1767Y721D01*
X1765Y720D01*
X1764Y719D01*
X1763Y719D01*
X1762Y718D01*
X1762Y718D01*
X1761Y715D01*
X1760Y713D01*
X1759Y711D01*
X1758Y708D01*
X1758Y706D01*
X1758Y704D01*
Y704D01*
Y703D01*
Y703D01*
Y703D01*
X1758Y699D01*
X1759Y695D01*
X1759Y692D01*
X1760Y690D01*
X1761Y688D01*
X1762Y687D01*
X1762Y686D01*
X1763Y686D01*
Y685D01*
X1764Y683D01*
X1766Y682D01*
X1769Y681D01*
X1771Y680D01*
X1773Y680D01*
X1774Y679D01*
X1775Y679D01*
X1775D01*
X1778Y679D01*
X1780Y680D01*
X1782Y681D01*
X1784Y682D01*
X1785Y683D01*
X1786Y683D01*
X1787Y684D01*
X1787Y684D01*
X1788Y686D01*
X1790Y688D01*
X1790Y690D01*
X1791Y692D01*
X1791Y693D01*
X1791Y695D01*
X1792Y696D01*
Y696D01*
Y696D01*
Y704D01*
X1791Y707D01*
X1791Y709D01*
X1790Y712D01*
X1789Y714D01*
X1788Y715D01*
X1788Y716D01*
X1787Y717D01*
X1787Y718D01*
X1785Y719D01*
X1783Y721D01*
X1781Y722D01*
X1779Y722D01*
X1777Y723D01*
X1775Y723D01*
X1775Y723D01*
D02*
G37*
G36*
X3799Y1307D02*
X3787D01*
X3783Y1307D01*
X3780Y1307D01*
X3777Y1306D01*
X3775Y1305D01*
X3772Y1304D01*
X3771Y1303D01*
X3769Y1301D01*
X3768Y1300D01*
X3767Y1299D01*
X3766Y1297D01*
X3765Y1295D01*
Y1294D01*
X3765Y1293D01*
Y1293D01*
Y1292D01*
X3765Y1290D01*
X3766Y1287D01*
X3767Y1285D01*
X3768Y1283D01*
X3769Y1282D01*
X3770Y1281D01*
X3771Y1280D01*
X3771Y1280D01*
X3773Y1278D01*
X3776Y1277D01*
X3778Y1277D01*
X3780Y1276D01*
X3782Y1276D01*
X3784Y1275D01*
X3799D01*
Y1307D01*
D02*
G37*
G36*
X2819D02*
X2808D01*
X2804Y1307D01*
X2800Y1307D01*
X2797Y1306D01*
X2795Y1305D01*
X2793Y1304D01*
X2791Y1303D01*
X2789Y1301D01*
X2788Y1300D01*
X2787Y1299D01*
X2787Y1297D01*
X2786Y1295D01*
Y1294D01*
X2785Y1293D01*
Y1293D01*
Y1292D01*
X2786Y1290D01*
X2786Y1287D01*
X2787Y1285D01*
X2788Y1283D01*
X2789Y1282D01*
X2790Y1281D01*
X2791Y1280D01*
X2791Y1280D01*
X2793Y1278D01*
X2796Y1277D01*
X2798Y1277D01*
X2800Y1276D01*
X2802Y1276D01*
X2804Y1275D01*
X2819D01*
Y1307D01*
D02*
G37*
%LPD*%
D44*
X4132Y2100D02*
Y2953D01*
X2620Y2100D02*
X4132D01*
X2620D02*
Y2953D01*
D46*
X79D02*
G03*
X0Y2875I-1J-79D01*
G01*
X4922D02*
G03*
X4843Y2953I-79J-1D01*
G01*
Y0D02*
G03*
X4922Y79I0J79D01*
G01*
X0D02*
G03*
X79Y0I79J0D01*
G01*
Y2953D02*
X4843D01*
X4922Y79D02*
Y2875D01*
X79Y0D02*
X4843D01*
X0Y79D02*
Y2875D01*
D63*
X680Y1476D02*
Y1510D01*
X669Y1499D01*
X658Y1510D01*
Y1476D01*
X646Y1510D02*
X635D01*
X641D01*
Y1476D01*
X646D01*
X635D01*
X595Y1505D02*
X601Y1510D01*
X612D01*
X618Y1505D01*
Y1499D01*
X612Y1493D01*
X601D01*
X595Y1488D01*
Y1482D01*
X601Y1476D01*
X612D01*
X618Y1482D01*
X567Y1510D02*
X578D01*
X584Y1505D01*
Y1482D01*
X578Y1476D01*
X567D01*
X561Y1482D01*
Y1505D01*
X567Y1510D01*
X629Y1605D02*
X635Y1610D01*
X646D01*
X652Y1605D01*
Y1599D01*
X646Y1593D01*
X635D01*
X629Y1588D01*
Y1582D01*
X635Y1576D01*
X646D01*
X652Y1582D01*
X595Y1605D02*
X601Y1610D01*
X612D01*
X618Y1605D01*
Y1582D01*
X612Y1576D01*
X601D01*
X595Y1582D01*
X584Y1610D02*
Y1576D01*
Y1588D01*
X561Y1610D01*
X578Y1593D01*
X561Y1576D01*
X618Y1676D02*
Y1710D01*
X595Y1676D01*
Y1710D01*
X561Y1705D02*
X567Y1710D01*
X578D01*
X584Y1705D01*
Y1682D01*
X578Y1676D01*
X567D01*
X561Y1682D01*
X629Y1805D02*
X635Y1810D01*
X646D01*
X652Y1805D01*
Y1799D01*
X646Y1793D01*
X635D01*
X629Y1788D01*
Y1782D01*
X635Y1776D01*
X646D01*
X652Y1782D01*
X595Y1805D02*
X601Y1810D01*
X612D01*
X618Y1805D01*
Y1782D01*
X612Y1776D01*
X601D01*
X595Y1782D01*
X584Y1810D02*
Y1776D01*
X561D01*
X629Y1885D02*
X635Y1890D01*
X646D01*
X652Y1885D01*
Y1879D01*
X646Y1873D01*
X635D01*
X629Y1868D01*
Y1862D01*
X635Y1856D01*
X646D01*
X652Y1862D01*
X618Y1890D02*
Y1856D01*
X601D01*
X595Y1862D01*
Y1885D01*
X601Y1890D01*
X618D01*
X584Y1856D02*
Y1879D01*
X573Y1890D01*
X561Y1879D01*
Y1856D01*
Y1873D01*
X584D01*
X663Y2030D02*
X686D01*
Y1996D01*
X663D01*
X686Y2013D02*
X675D01*
X652Y1996D02*
Y2030D01*
X629Y1996D01*
Y2030D01*
X584Y1996D02*
Y2019D01*
X573Y2030D01*
X561Y2019D01*
Y1996D01*
Y2013D01*
X584D01*
X822Y2076D02*
Y2110D01*
X805D01*
X799Y2105D01*
Y2093D01*
X805Y2088D01*
X822D01*
X811D02*
X799Y2076D01*
X765Y2105D02*
X771Y2110D01*
X782D01*
X788Y2105D01*
Y2082D01*
X782Y2076D01*
X771D01*
X765Y2082D01*
Y2093D01*
X777D01*
X754Y2110D02*
Y2076D01*
X737D01*
X731Y2082D01*
Y2088D01*
X737Y2093D01*
X754D01*
X737D01*
X731Y2099D01*
Y2105D01*
X737Y2110D01*
X754D01*
X686D02*
Y2076D01*
X669D01*
X663Y2082D01*
Y2105D01*
X669Y2110D01*
X686D01*
X652Y2076D02*
Y2099D01*
X641Y2110D01*
X629Y2099D01*
Y2076D01*
Y2093D01*
X652D01*
X618Y2110D02*
X595D01*
X607D01*
Y2076D01*
X584D02*
Y2099D01*
X573Y2110D01*
X561Y2099D01*
Y2076D01*
Y2093D01*
X584D01*
X335Y2110D02*
X329Y2116D01*
X318D01*
X312Y2110D01*
Y2104D01*
X318Y2099D01*
X323D01*
X318D01*
X312Y2093D01*
Y2087D01*
X318Y2082D01*
X329D01*
X335Y2087D01*
X301Y2116D02*
Y2093D01*
X289Y2082D01*
X278Y2093D01*
Y2116D01*
X267Y2110D02*
X261Y2116D01*
X250D01*
X244Y2110D01*
Y2104D01*
X250Y2099D01*
X255D01*
X250D01*
X244Y2093D01*
Y2087D01*
X250Y2082D01*
X261D01*
X267Y2087D01*
X312Y2016D02*
X335D01*
Y1982D01*
X312D01*
X335Y1999D02*
X323D01*
X301Y1982D02*
Y2016D01*
X278Y1982D01*
Y2016D01*
X233D02*
Y1982D01*
X216D01*
X210Y1987D01*
Y1993D01*
X216Y1999D01*
X233D01*
X216D01*
X210Y2004D01*
Y2010D01*
X216Y2016D01*
X233D01*
X335Y1882D02*
Y1916D01*
X312Y1882D01*
Y1916D01*
X278Y1910D02*
X284Y1916D01*
X295D01*
X301Y1910D01*
Y1887D01*
X295Y1882D01*
X284D01*
X278Y1887D01*
X312Y1810D02*
X318Y1816D01*
X329D01*
X335Y1810D01*
Y1787D01*
X329Y1782D01*
X318D01*
X312Y1787D01*
X278Y1810D02*
X284Y1816D01*
X295D01*
X301Y1810D01*
Y1804D01*
X295Y1799D01*
X284D01*
X278Y1793D01*
Y1787D01*
X284Y1782D01*
X295D01*
X301Y1787D01*
X267Y1810D02*
X261Y1816D01*
X250D01*
X244Y1810D01*
Y1787D01*
X250Y1782D01*
X261D01*
X267Y1787D01*
Y1810D01*
X312Y1710D02*
X318Y1716D01*
X329D01*
X335Y1710D01*
Y1687D01*
X329Y1682D01*
X318D01*
X312Y1687D01*
Y1699D01*
X323D01*
X301Y1682D02*
Y1716D01*
X278Y1682D01*
Y1716D01*
X267D02*
Y1682D01*
X250D01*
X244Y1687D01*
Y1710D01*
X250Y1716D01*
X267D01*
X335Y1582D02*
Y1616D01*
X323Y1604D01*
X312Y1616D01*
Y1582D01*
X284Y1616D02*
X295D01*
X301Y1610D01*
Y1587D01*
X295Y1582D01*
X284D01*
X278Y1587D01*
Y1610D01*
X284Y1616D01*
X244Y1610D02*
X250Y1616D01*
X261D01*
X267Y1610D01*
Y1604D01*
X261Y1599D01*
X250D01*
X244Y1593D01*
Y1587D01*
X250Y1582D01*
X261D01*
X267Y1587D01*
X233Y1616D02*
X221D01*
X227D01*
Y1582D01*
X233D01*
X221D01*
X312Y1516D02*
X335D01*
Y1499D01*
X323Y1504D01*
X318D01*
X312Y1499D01*
Y1487D01*
X318Y1482D01*
X329D01*
X335Y1487D01*
X301Y1516D02*
Y1493D01*
X289Y1482D01*
X278Y1493D01*
Y1516D01*
X2712Y2212D02*
X2734D01*
X2746Y2224D01*
X2734Y2235D01*
X2712D01*
X2729D01*
Y2212D01*
Y2246D02*
Y2269D01*
X2740Y2258D02*
X2717D01*
X2812Y2212D02*
X2834D01*
X2846Y2224D01*
X2834Y2235D01*
X2812D01*
X2829D01*
Y2212D01*
Y2246D02*
Y2269D01*
X2946Y2212D02*
X2912D01*
Y2229D01*
X2917Y2235D01*
X2923D01*
X2929Y2229D01*
Y2212D01*
Y2229D01*
X2934Y2235D01*
X2940D01*
X2946Y2229D01*
Y2212D01*
X2929Y2246D02*
Y2269D01*
X2940Y2258D02*
X2917D01*
X3046Y2212D02*
X3012D01*
Y2229D01*
X3017Y2235D01*
X3023D01*
X3029Y2229D01*
Y2212D01*
Y2229D01*
X3034Y2235D01*
X3040D01*
X3046Y2229D01*
Y2212D01*
X3029Y2246D02*
Y2269D01*
X2201Y2214D02*
X2223D01*
X2235Y2226D01*
X2223Y2237D01*
X2201D01*
X2218D01*
Y2214D01*
Y2248D02*
Y2271D01*
X2229Y2260D02*
X2206D01*
X2301Y2214D02*
X2323D01*
X2335Y2226D01*
X2323Y2237D01*
X2301D01*
X2318D01*
Y2214D01*
Y2248D02*
Y2271D01*
X2435Y2214D02*
X2401D01*
Y2231D01*
X2406Y2237D01*
X2412D01*
X2418Y2231D01*
Y2214D01*
Y2231D01*
X2423Y2237D01*
X2429D01*
X2435Y2231D01*
Y2214D01*
X2418Y2248D02*
Y2271D01*
X2429Y2260D02*
X2406D01*
X2535Y2214D02*
X2501D01*
Y2231D01*
X2506Y2237D01*
X2512D01*
X2518Y2231D01*
Y2214D01*
Y2231D01*
X2523Y2237D01*
X2529D01*
X2535Y2231D01*
Y2214D01*
X2518Y2248D02*
Y2271D01*
X1689Y2215D02*
X1711D01*
X1723Y2227D01*
X1711Y2238D01*
X1689D01*
X1706D01*
Y2215D01*
Y2249D02*
Y2272D01*
X1717Y2261D02*
X1694D01*
X1789Y2215D02*
X1811D01*
X1823Y2227D01*
X1811Y2238D01*
X1789D01*
X1806D01*
Y2215D01*
Y2249D02*
Y2272D01*
X1923Y2215D02*
X1889D01*
Y2232D01*
X1894Y2238D01*
X1900D01*
X1906Y2232D01*
Y2215D01*
Y2232D01*
X1911Y2238D01*
X1917D01*
X1923Y2232D01*
Y2215D01*
X1906Y2249D02*
Y2272D01*
X1917Y2261D02*
X1894D01*
X2023Y2215D02*
X1989D01*
Y2232D01*
X1994Y2238D01*
X2000D01*
X2006Y2232D01*
Y2215D01*
Y2232D01*
X2011Y2238D01*
X2017D01*
X2023Y2232D01*
Y2215D01*
X2006Y2249D02*
Y2272D01*
X1183Y2215D02*
X1205D01*
X1217Y2227D01*
X1205Y2238D01*
X1183D01*
X1200D01*
Y2215D01*
Y2249D02*
Y2272D01*
X1211Y2261D02*
X1188D01*
X1283Y2215D02*
X1305D01*
X1317Y2227D01*
X1305Y2238D01*
X1283D01*
X1300D01*
Y2215D01*
Y2249D02*
Y2272D01*
X1417Y2215D02*
X1383D01*
Y2232D01*
X1388Y2238D01*
X1394D01*
X1400Y2232D01*
Y2215D01*
Y2232D01*
X1405Y2238D01*
X1411D01*
X1417Y2232D01*
Y2215D01*
X1400Y2249D02*
Y2272D01*
X1411Y2261D02*
X1388D01*
X1517Y2215D02*
X1483D01*
Y2232D01*
X1488Y2238D01*
X1494D01*
X1500Y2232D01*
Y2215D01*
Y2232D01*
X1505Y2238D01*
X1511D01*
X1517Y2232D01*
Y2215D01*
X1500Y2249D02*
Y2272D01*
D111*
X671Y1375D02*
X2117D01*
X666Y1375D02*
X2122D01*
X663Y1374D02*
X2126D01*
X660Y1373D02*
X2129D01*
X657Y1372D02*
X2132D01*
X654Y1371D02*
X2134D01*
X651Y1370D02*
X2137D01*
X649Y1370D02*
X2139D01*
X647Y1369D02*
X2142D01*
X645Y1368D02*
X2144D01*
X643Y1367D02*
X2145D01*
X641Y1366D02*
X2148D01*
X639Y1365D02*
X2150D01*
X637Y1364D02*
X2151D01*
X636Y1364D02*
X2153D01*
X634Y1363D02*
X2155D01*
X632Y1362D02*
X2156D01*
X631Y1361D02*
X2157D01*
X630Y1360D02*
X2159D01*
X628Y1359D02*
X2161D01*
X626Y1358D02*
X2161D01*
X626Y1358D02*
X2163D01*
X624Y1357D02*
X2164D01*
X623Y1356D02*
X2166D01*
X621Y1355D02*
X2167D01*
X620Y1354D02*
X2168D01*
X620Y1353D02*
X2169D01*
X618Y1352D02*
X2170D01*
X617Y1352D02*
X2172D01*
X616Y1351D02*
X2173D01*
X614Y1350D02*
X2173D01*
X614Y1349D02*
X2174D01*
X613Y1348D02*
X2176D01*
X612Y1347D02*
X2177D01*
X611Y1347D02*
X2178D01*
X610Y1346D02*
X2178D01*
X609Y1345D02*
X2179D01*
X608Y1344D02*
X2180D01*
X607Y1343D02*
X2181D01*
X606Y1342D02*
X2182D01*
X605Y1341D02*
X2183D01*
X604Y1341D02*
X2184D01*
X603Y1340D02*
X2184D01*
X603Y1339D02*
X2185D01*
X603Y1338D02*
X2186D01*
X602Y1337D02*
X2187D01*
X601Y1336D02*
X2188D01*
X600Y1336D02*
X2189D01*
X599Y1335D02*
X2190D01*
X598Y1334D02*
X2190D01*
X598Y1333D02*
X2190D01*
X597Y1332D02*
X2191D01*
X597Y1331D02*
X2192D01*
X596Y1330D02*
X2193D01*
X595Y1330D02*
X2194D01*
X594Y1329D02*
X2194D01*
X594Y1328D02*
X2195D01*
X593Y1327D02*
X2195D01*
X592Y1326D02*
X2196D01*
X592Y1325D02*
X2196D01*
X592Y1324D02*
X2197D01*
X591Y1324D02*
X2198D01*
X590Y1323D02*
X2198D01*
X590Y1322D02*
X2199D01*
X589Y1321D02*
X2200D01*
X588Y1320D02*
X2200D01*
X588Y1319D02*
X2201D01*
X587Y1319D02*
X2201D01*
X587Y1318D02*
X2201D01*
X586Y1317D02*
X2202D01*
X586Y1316D02*
X2202D01*
X586Y1315D02*
X2203D01*
X585Y1314D02*
X2204D01*
X585Y1313D02*
X2204D01*
X584Y1313D02*
X2205D01*
X584Y1312D02*
X2205D01*
X583Y1311D02*
X2206D01*
X583Y1310D02*
X2206D01*
X582Y1309D02*
X2207D01*
X582Y1308D02*
X2207D01*
X581Y1307D02*
X2207D01*
X581Y1307D02*
X2207D01*
X581Y1306D02*
X2208D01*
X581Y1305D02*
X2208D01*
X580Y1304D02*
X2208D01*
X580Y1303D02*
X2209D01*
X579Y1302D02*
X2209D01*
X579Y1301D02*
X2210D01*
X579Y1301D02*
X2210D01*
X578Y1300D02*
X2211D01*
X578Y1299D02*
X2211D01*
X577Y1298D02*
X2211D01*
X577Y1297D02*
X2212D01*
X577Y1296D02*
X2212D01*
X576Y1296D02*
X2212D01*
X576Y1295D02*
X2213D01*
X576Y1294D02*
X2213D01*
X575Y1293D02*
X2213D01*
X2100Y1292D02*
X2213D01*
X685D02*
X2095D01*
X575D02*
X680D01*
X2105Y1291D02*
X2213D01*
X690D02*
X2090D01*
X575D02*
X675D01*
X2108Y1290D02*
X2213D01*
X693D02*
X2088D01*
X575D02*
X672D01*
X2111Y1290D02*
X2214D01*
X695D02*
X2085D01*
X575D02*
X671D01*
X2112Y1289D02*
X2214D01*
X697D02*
X2083D01*
X575D02*
X668D01*
X2113Y1288D02*
X2214D01*
X699D02*
X2082D01*
X574D02*
X667D01*
X2115Y1287D02*
X2215D01*
X700D02*
X2081D01*
X574D02*
X665D01*
X2116Y1286D02*
X2215D01*
X701D02*
X2081D01*
X574D02*
X666D01*
X2117Y1285D02*
X2215D01*
X702D02*
X2082D01*
X574D02*
X667D01*
X2118Y1285D02*
X2215D01*
X703D02*
X2082D01*
X573D02*
X668D01*
X2119Y1284D02*
X2216D01*
X705D02*
X2083D01*
X573D02*
X669D01*
X2120Y1283D02*
X2216D01*
X705D02*
X2084D01*
X573D02*
X670D01*
X2121Y1282D02*
X2216D01*
X706D02*
X2085D01*
X573D02*
X671D01*
X2122Y1281D02*
X2216D01*
X706D02*
X2086D01*
X573D02*
X671D01*
X2122Y1280D02*
X2216D01*
X707D02*
X2087D01*
X572D02*
X672D01*
X2123Y1279D02*
X2217D01*
X708D02*
X2088D01*
X572D02*
X673D01*
X2123Y1279D02*
X2217D01*
X709D02*
X2088D01*
X572D02*
X674D01*
X2124Y1278D02*
X2217D01*
X709D02*
X2089D01*
X572D02*
X675D01*
X2125Y1277D02*
X2217D01*
X2072D02*
X2090D01*
X710D02*
X2071D01*
X657D02*
X676D01*
X572D02*
X655D01*
X2125Y1276D02*
X2217D01*
X2073D02*
X2091D01*
X711D02*
X2070D01*
X658D02*
X677D01*
X572D02*
X655D01*
X2126Y1275D02*
X2218D01*
X2074D02*
X2092D01*
X711D02*
X2070D01*
X659D02*
X677D01*
X572D02*
X654D01*
X2126Y1274D02*
X2218D01*
X2075D02*
X2093D01*
X711D02*
X2069D01*
X660D02*
X678D01*
X572D02*
X654D01*
X2127Y1273D02*
X2218D01*
X2076D02*
X2093D01*
X711D02*
X2069D01*
X660D02*
X679D01*
X572D02*
X654D01*
X2127Y1273D02*
X2218D01*
X2076D02*
X2094D01*
X712D02*
X2068D01*
X661D02*
X680D01*
X572D02*
X654D01*
X2128Y1272D02*
X2218D01*
X2077D02*
X2095D01*
X712D02*
X2068D01*
X662D02*
X681D01*
X572D02*
X653D01*
X2128Y1271D02*
X2218D01*
X2078D02*
X2096D01*
X712D02*
X2068D01*
X663D02*
X682D01*
X572D02*
X653D01*
X2128Y1270D02*
X2218D01*
X2079D02*
X2097D01*
X713D02*
X2067D01*
X664D02*
X683D01*
X572D02*
X653D01*
X2128Y1269D02*
X2218D01*
X2080D02*
X2098D01*
X713D02*
X2067D01*
X665D02*
X683D01*
X572D02*
X652D01*
X2128Y1268D02*
X2218D01*
X2081D02*
X2099D01*
X713D02*
X2067D01*
X665D02*
X684D01*
X572D02*
X652D01*
X2128Y1268D02*
X2218D01*
X2082D02*
X2099D01*
X714D02*
X2066D01*
X666D02*
X685D01*
X572D02*
X652D01*
X2128Y1267D02*
X2218D01*
X2082D02*
X2100D01*
X714D02*
X2066D01*
X667D02*
X686D01*
X572D02*
X652D01*
X2129Y1266D02*
X2218D01*
X2083D02*
X2101D01*
X714D02*
X2066D01*
X668D02*
X687D01*
X572D02*
X651D01*
X2129Y1265D02*
X2218D01*
X2084D02*
X2102D01*
X714D02*
X2066D01*
X669D02*
X688D01*
X572D02*
X651D01*
X2129Y1264D02*
X2218D01*
X2085D02*
X2103D01*
X714D02*
X2066D01*
X670D02*
X688D01*
X572D02*
X651D01*
X2129Y1263D02*
X2218D01*
X2086D02*
X2104D01*
X714D02*
X2066D01*
X671D02*
X689D01*
X572D02*
X651D01*
X2129Y1262D02*
X2218D01*
X2087D02*
X2105D01*
X714D02*
X2066D01*
X671D02*
X690D01*
X572D02*
X651D01*
X2129Y1262D02*
X2218D01*
X2088D02*
X2105D01*
X714D02*
X2066D01*
X672D02*
X691D01*
X572D02*
X651D01*
X2129Y1261D02*
X2218D01*
X2088D02*
X2106D01*
X714D02*
X2065D01*
X673D02*
X692D01*
X572D02*
X651D01*
X2129Y1260D02*
X2218D01*
X2089D02*
X2107D01*
X714D02*
X2065D01*
X674D02*
X693D01*
X572D02*
X651D01*
X2129Y1259D02*
X2218D01*
X2090D02*
X2108D01*
X714D02*
X2066D01*
X675D02*
X694D01*
X572D02*
X651D01*
X2129Y1258D02*
X2218D01*
X2091D02*
X2109D01*
X714D02*
X2066D01*
X676D02*
X694D01*
X572D02*
X651D01*
X2129Y1257D02*
X2218D01*
X2092D02*
X2110D01*
X714D02*
X2066D01*
X677D02*
X695D01*
X572D02*
X651D01*
X2129Y1256D02*
X2218D01*
X2093D02*
X2111D01*
X714D02*
X2066D01*
X677D02*
X696D01*
X572D02*
X651D01*
X2129Y1256D02*
X2218D01*
X2093D02*
X2111D01*
X714D02*
X2066D01*
X678D02*
X697D01*
X572D02*
X651D01*
X2128Y1255D02*
X2218D01*
X2094D02*
X2112D01*
X714D02*
X2066D01*
X679D02*
X698D01*
X572D02*
X652D01*
X2128Y1254D02*
X2218D01*
X2095D02*
X2113D01*
X714D02*
X2066D01*
X680D02*
X699D01*
X572D02*
X652D01*
X2128Y1253D02*
X2218D01*
X2096D02*
X2114D01*
X713D02*
X2067D01*
X681D02*
X700D01*
X572D02*
X652D01*
X2128Y1252D02*
X2218D01*
X2097D02*
X2115D01*
X713D02*
X2067D01*
X682D02*
X700D01*
X572D02*
X652D01*
X2128Y1251D02*
X2218D01*
X2098D02*
X2116D01*
X713D02*
X2067D01*
X683D02*
X701D01*
X572D02*
X653D01*
X2128Y1250D02*
X2218D01*
X2099D02*
X2116D01*
X712D02*
X2068D01*
X683D02*
X702D01*
X572D02*
X653D01*
X2128Y1250D02*
X2218D01*
X2099D02*
X2117D01*
X712D02*
X2068D01*
X684D02*
X703D01*
X572D02*
X653D01*
X2127Y1249D02*
X2218D01*
X2100D02*
X2118D01*
X712D02*
X2068D01*
X685D02*
X704D01*
X572D02*
X654D01*
X2127Y1248D02*
X2218D01*
X2101D02*
X2119D01*
X711D02*
X2069D01*
X686D02*
X705D01*
X572D02*
X654D01*
X2126Y1247D02*
X2218D01*
X2102D02*
X2120D01*
X711D02*
X2069D01*
X687D02*
X705D01*
X572D02*
X654D01*
X2126Y1246D02*
X2218D01*
X2103D02*
X2121D01*
X711D02*
X2070D01*
X688D02*
X706D01*
X572D02*
X654D01*
X2125Y1245D02*
X2218D01*
X2104D02*
X2122D01*
X711D02*
X2070D01*
X688D02*
X707D01*
X572D02*
X655D01*
X2125Y1245D02*
X2218D01*
X2105D02*
X2122D01*
X710D02*
X2071D01*
X689D02*
X708D01*
X572D02*
X655D01*
X2124Y1244D02*
X2218D01*
X2105D02*
X2123D01*
X710D02*
X2071D01*
X690D02*
X709D01*
X572D02*
X656D01*
X2106Y1243D02*
X2218D01*
X691D02*
X2071D01*
X572D02*
X656D01*
X2107Y1242D02*
X2218D01*
X692D02*
X2072D01*
X572D02*
X657D01*
X2108Y1241D02*
X2218D01*
X693D02*
X2073D01*
X572D02*
X658D01*
X2109Y1240D02*
X2218D01*
X694D02*
X2073D01*
X572D02*
X659D01*
X2110Y1239D02*
X2218D01*
X694D02*
X2074D01*
X572D02*
X660D01*
X2111Y1239D02*
X2218D01*
X695D02*
X2075D01*
X572D02*
X660D01*
X2111Y1238D02*
X2218D01*
X696D02*
X2076D01*
X572D02*
X661D01*
X2112Y1237D02*
X2218D01*
X697D02*
X2076D01*
X572D02*
X662D01*
X2113Y1236D02*
X2218D01*
X698D02*
X2077D01*
X572D02*
X663D01*
X2114Y1235D02*
X2218D01*
X699D02*
X2079D01*
X572D02*
X664D01*
X2115Y1234D02*
X2218D01*
X700D02*
X2080D01*
X572D02*
X665D01*
X2114Y1234D02*
X2218D01*
X699D02*
X2082D01*
X572D02*
X666D01*
X2112Y1233D02*
X2218D01*
X697D02*
X2082D01*
X572D02*
X668D01*
X2111Y1232D02*
X2218D01*
X695D02*
X2084D01*
X572D02*
X670D01*
X2109Y1231D02*
X2218D01*
X694D02*
X2087D01*
X572D02*
X671D01*
X2106Y1230D02*
X2218D01*
X691D02*
X2089D01*
X572D02*
X674D01*
X2102Y1229D02*
X2218D01*
X687D02*
X2093D01*
X572D02*
X678D01*
X572Y1228D02*
X2218D01*
X572Y1228D02*
X2218D01*
X572Y1227D02*
X2218D01*
X572Y1226D02*
X2218D01*
X572Y1225D02*
X2218D01*
X572Y1224D02*
X2218D01*
X572Y1223D02*
X2218D01*
X572Y1222D02*
X2218D01*
X572Y1222D02*
X2218D01*
X572Y1221D02*
X2218D01*
X572Y1220D02*
X2218D01*
X572Y1219D02*
X2218D01*
X572Y1218D02*
X2218D01*
X572Y1217D02*
X2218D01*
X572Y1217D02*
X2218D01*
X572Y1216D02*
X2218D01*
X572Y1215D02*
X2218D01*
X572Y1214D02*
X2218D01*
X572Y1213D02*
X2218D01*
X572Y1212D02*
X2218D01*
X572Y1211D02*
X2218D01*
X572Y1211D02*
X2218D01*
X572Y1210D02*
X2218D01*
X572Y1209D02*
X2218D01*
X572Y1208D02*
X2218D01*
X572Y1207D02*
X2218D01*
X572Y1206D02*
X2218D01*
X572Y1205D02*
X2218D01*
X572Y1205D02*
X2218D01*
X572Y1204D02*
X2218D01*
X572Y1203D02*
X2218D01*
X572Y1202D02*
X2218D01*
X572Y1201D02*
X2218D01*
X572Y1200D02*
X2218D01*
X572Y1199D02*
X2218D01*
X572Y1199D02*
X2218D01*
X572Y1198D02*
X2218D01*
X572Y1197D02*
X2218D01*
X572Y1196D02*
X2218D01*
X572Y1195D02*
X2218D01*
X572Y1194D02*
X2218D01*
X572Y1194D02*
X2218D01*
X572Y1193D02*
X2218D01*
X572Y1192D02*
X2218D01*
X572Y1191D02*
X2218D01*
X572Y1190D02*
X2218D01*
X572Y1189D02*
X2218D01*
X572Y1188D02*
X2218D01*
X572Y1188D02*
X2218D01*
X572Y1187D02*
X2218D01*
X572Y1186D02*
X2218D01*
X572Y1185D02*
X2218D01*
X572Y1184D02*
X2218D01*
X572Y1183D02*
X2218D01*
X572Y1183D02*
X2218D01*
X572Y1182D02*
X2218D01*
X572Y1181D02*
X2218D01*
X572Y1180D02*
X2218D01*
X572Y1179D02*
X2218D01*
X572Y1178D02*
X2218D01*
X572Y1177D02*
X2218D01*
X572Y1177D02*
X2218D01*
X572Y1176D02*
X2218D01*
X572Y1175D02*
X2218D01*
X572Y1174D02*
X2218D01*
X572Y1173D02*
X2218D01*
X572Y1172D02*
X2218D01*
X572Y1171D02*
X2218D01*
X572Y1171D02*
X2218D01*
X572Y1170D02*
X2218D01*
X572Y1169D02*
X2218D01*
X572Y1168D02*
X2218D01*
X572Y1167D02*
X2218D01*
X572Y1166D02*
X2218D01*
X572Y1166D02*
X2218D01*
X572Y1165D02*
X2218D01*
X572Y1164D02*
X2218D01*
X572Y1163D02*
X2218D01*
X572Y1162D02*
X2218D01*
X572Y1161D02*
X2218D01*
X572Y1160D02*
X2218D01*
X572Y1160D02*
X2218D01*
X572Y1159D02*
X2218D01*
X572Y1158D02*
X2218D01*
X572Y1157D02*
X2218D01*
X572Y1156D02*
X2218D01*
X572Y1155D02*
X2218D01*
X572Y1154D02*
X2218D01*
X572Y1154D02*
X2218D01*
X572Y1153D02*
X2218D01*
X572Y1152D02*
X2218D01*
X572Y1151D02*
X2218D01*
X572Y1150D02*
X2218D01*
X572Y1149D02*
X2218D01*
X572Y1148D02*
X2218D01*
X572Y1148D02*
X2218D01*
X572Y1147D02*
X2218D01*
X572Y1146D02*
X2218D01*
X572Y1145D02*
X2218D01*
X572Y1144D02*
X2218D01*
X572Y1143D02*
X2218D01*
X572Y1143D02*
X2218D01*
X572Y1142D02*
X2218D01*
X572Y1141D02*
X2218D01*
X572Y1140D02*
X2218D01*
X572Y1139D02*
X2218D01*
X572Y1138D02*
X2218D01*
X572Y1137D02*
X2218D01*
X572Y1137D02*
X2218D01*
X572Y1136D02*
X2218D01*
X572Y1135D02*
X2218D01*
X572Y1134D02*
X2218D01*
X572Y1133D02*
X2218D01*
X572Y1132D02*
X2218D01*
X572Y1132D02*
X2218D01*
X572Y1131D02*
X2218D01*
X572Y1130D02*
X2218D01*
X572Y1129D02*
X2218D01*
X572Y1128D02*
X2218D01*
X572Y1127D02*
X2218D01*
X572Y1126D02*
X2218D01*
X572Y1126D02*
X2218D01*
X572Y1125D02*
X2218D01*
X572Y1124D02*
X2218D01*
X572Y1123D02*
X2218D01*
X572Y1122D02*
X2218D01*
X572Y1121D02*
X2218D01*
X572Y1120D02*
X2218D01*
X572Y1120D02*
X2218D01*
X572Y1119D02*
X2218D01*
X572Y1118D02*
X2218D01*
X572Y1117D02*
X2218D01*
X572Y1116D02*
X2218D01*
X572Y1115D02*
X2218D01*
X572Y1115D02*
X2218D01*
X572Y1114D02*
X2218D01*
X572Y1113D02*
X2218D01*
X572Y1112D02*
X2218D01*
X572Y1111D02*
X2218D01*
X1322Y1110D02*
X2218D01*
X572D02*
X1309D01*
X2019Y1109D02*
X2218D01*
X1880D02*
X1940D01*
X1721D02*
X1844D01*
X1584D02*
X1692D01*
X1499D02*
X1563D01*
X1419D02*
X1464D01*
X1328D02*
X1383D01*
X1238D02*
X1303D01*
X1140D02*
X1198D01*
X1068D02*
X1101D01*
X1013D02*
X1033D01*
X881D02*
X901D01*
X801D02*
X846D01*
X572D02*
X765D01*
X2019Y1109D02*
X2218D01*
X1880D02*
X1935D01*
X1721D02*
X1844D01*
X1589D02*
X1692D01*
X1499D02*
X1559D01*
X1419D02*
X1464D01*
X1331D02*
X1384D01*
X1238D02*
X1299D01*
X1140D02*
X1198D01*
X1068D02*
X1101D01*
X1013D02*
X1033D01*
X881D02*
X901D01*
X801D02*
X846D01*
X572D02*
X765D01*
X2019Y1108D02*
X2218D01*
X1880D02*
X1932D01*
X1722D02*
X1844D01*
X1592D02*
X1691D01*
X1499D02*
X1555D01*
X1420D02*
X1464D01*
X1334D02*
X1385D01*
X1238D02*
X1295D01*
X1141D02*
X1198D01*
X1068D02*
X1101D01*
X1013D02*
X1033D01*
X881D02*
X901D01*
X801D02*
X846D01*
X572D02*
X765D01*
X2019Y1107D02*
X2218D01*
X1880D02*
X1930D01*
X1722D02*
X1844D01*
X1595D02*
X1691D01*
X1499D02*
X1553D01*
X1421D02*
X1464D01*
X1336D02*
X1385D01*
X1238D02*
X1292D01*
X1141D02*
X1197D01*
X1068D02*
X1101D01*
X1013D02*
X1033D01*
X881D02*
X901D01*
X801D02*
X846D01*
X572D02*
X765D01*
X2019Y1106D02*
X2218D01*
X1880D02*
X1929D01*
X1722D02*
X1844D01*
X1596D02*
X1691D01*
X1499D02*
X1550D01*
X1422D02*
X1464D01*
X1339D02*
X1385D01*
X1238D02*
X1289D01*
X1141D02*
X1197D01*
X1068D02*
X1101D01*
X1013D02*
X1033D01*
X881D02*
X901D01*
X801D02*
X846D01*
X572D02*
X765D01*
X2019Y1105D02*
X2218D01*
X1880D02*
X1927D01*
X1723D02*
X1844D01*
X1599D02*
X1691D01*
X1499D02*
X1549D01*
X1422D02*
X1464D01*
X1340D02*
X1386D01*
X1238D02*
X1287D01*
X1141D02*
X1196D01*
X1068D02*
X1101D01*
X1013D02*
X1033D01*
X881D02*
X901D01*
X801D02*
X846D01*
X572D02*
X765D01*
X2019Y1104D02*
X2218D01*
X1880D02*
X1926D01*
X1723D02*
X1844D01*
X1600D02*
X1691D01*
X1499D02*
X1546D01*
X1423D02*
X1464D01*
X1342D02*
X1387D01*
X1238D02*
X1284D01*
X1142D02*
X1196D01*
X1068D02*
X1101D01*
X1013D02*
X1033D01*
X881D02*
X901D01*
X801D02*
X846D01*
X572D02*
X765D01*
X2019Y1103D02*
X2218D01*
X1880D02*
X1925D01*
X1724D02*
X1844D01*
X1602D02*
X1690D01*
X1499D02*
X1545D01*
X1424D02*
X1464D01*
X1344D02*
X1388D01*
X1238D02*
X1283D01*
X1142D02*
X1195D01*
X1068D02*
X1101D01*
X1013D02*
X1033D01*
X881D02*
X901D01*
X801D02*
X846D01*
X572D02*
X765D01*
X2019Y1103D02*
X2218D01*
X1880D02*
X1923D01*
X1724D02*
X1844D01*
X1604D02*
X1690D01*
X1499D02*
X1544D01*
X1425D02*
X1464D01*
X1345D02*
X1388D01*
X1238D02*
X1280D01*
X1142D02*
X1195D01*
X1068D02*
X1101D01*
X1013D02*
X1033D01*
X881D02*
X901D01*
X801D02*
X846D01*
X572D02*
X765D01*
X2019Y1102D02*
X2218D01*
X1880D02*
X1923D01*
X1724D02*
X1844D01*
X1605D02*
X1690D01*
X1499D02*
X1542D01*
X1425D02*
X1464D01*
X1346D02*
X1389D01*
X1238D02*
X1278D01*
X1143D02*
X1194D01*
X1068D02*
X1101D01*
X1013D02*
X1033D01*
X881D02*
X901D01*
X801D02*
X846D01*
X572D02*
X765D01*
X2019Y1101D02*
X2218D01*
X1880D02*
X1922D01*
X1725D02*
X1844D01*
X1606D02*
X1689D01*
X1499D02*
X1540D01*
X1425D02*
X1464D01*
X1347D02*
X1390D01*
X1238D02*
X1276D01*
X1143D02*
X1194D01*
X1068D02*
X1101D01*
X1013D02*
X1033D01*
X881D02*
X901D01*
X801D02*
X846D01*
X572D02*
X765D01*
X2019Y1100D02*
X2218D01*
X1880D02*
X1921D01*
X1725D02*
X1844D01*
X1608D02*
X1689D01*
X1499D02*
X1539D01*
X1426D02*
X1464D01*
X1349D02*
X1391D01*
X1238D02*
X1274D01*
X1144D02*
X1193D01*
X1068D02*
X1101D01*
X1013D02*
X1033D01*
X881D02*
X901D01*
X801D02*
X846D01*
X572D02*
X765D01*
X2019Y1099D02*
X2218D01*
X1880D02*
X1920D01*
X1725D02*
X1844D01*
X1609D02*
X1689D01*
X1499D02*
X1538D01*
X1427D02*
X1464D01*
X1350D02*
X1391D01*
X1238D02*
X1272D01*
X1144D02*
X1193D01*
X1068D02*
X1101D01*
X1013D02*
X1033D01*
X881D02*
X901D01*
X801D02*
X846D01*
X572D02*
X765D01*
X2019Y1098D02*
X2218D01*
X1880D02*
X1920D01*
X1725D02*
X1844D01*
X1611D02*
X1688D01*
X1499D02*
X1537D01*
X1428D02*
X1464D01*
X1351D02*
X1392D01*
X1238D02*
X1271D01*
X1145D02*
X1193D01*
X1068D02*
X1101D01*
X1013D02*
X1033D01*
X881D02*
X901D01*
X801D02*
X846D01*
X572D02*
X765D01*
X2019Y1097D02*
X2218D01*
X1880D02*
X1919D01*
X1725D02*
X1844D01*
X1612D02*
X1688D01*
X1499D02*
X1536D01*
X1429D02*
X1464D01*
X1351D02*
X1392D01*
X1238D02*
X1269D01*
X1145D02*
X1192D01*
X1068D02*
X1101D01*
X1013D02*
X1033D01*
X881D02*
X901D01*
X801D02*
X846D01*
X572D02*
X765D01*
X2019Y1097D02*
X2218D01*
X1880D02*
X1918D01*
X1726D02*
X1844D01*
X1612D02*
X1687D01*
X1499D02*
X1535D01*
X1430D02*
X1464D01*
X1352D02*
X1393D01*
X1238D02*
X1267D01*
X1146D02*
X1192D01*
X1068D02*
X1101D01*
X1013D02*
X1033D01*
X881D02*
X901D01*
X801D02*
X846D01*
X572D02*
X765D01*
X2019Y1096D02*
X2218D01*
X1880D02*
X1918D01*
X1726D02*
X1844D01*
X1613D02*
X1687D01*
X1499D02*
X1534D01*
X1430D02*
X1464D01*
X1353D02*
X1394D01*
X1238D02*
X1266D01*
X1146D02*
X1192D01*
X1068D02*
X1101D01*
X1013D02*
X1033D01*
X881D02*
X901D01*
X801D02*
X846D01*
X572D02*
X765D01*
X2019Y1095D02*
X2218D01*
X1880D02*
X1918D01*
X1726D02*
X1844D01*
X1615D02*
X1687D01*
X1499D02*
X1533D01*
X1431D02*
X1464D01*
X1354D02*
X1395D01*
X1238D02*
X1267D01*
X1147D02*
X1192D01*
X1068D02*
X1101D01*
X1013D02*
X1033D01*
X881D02*
X901D01*
X801D02*
X846D01*
X572D02*
X765D01*
X2019Y1094D02*
X2218D01*
X1880D02*
X1917D01*
X1727D02*
X1844D01*
X1616D02*
X1686D01*
X1499D02*
X1533D01*
X1431D02*
X1464D01*
X1355D02*
X1396D01*
X1238D02*
X1267D01*
X1147D02*
X1191D01*
X1068D02*
X1101D01*
X1013D02*
X1033D01*
X881D02*
X901D01*
X801D02*
X846D01*
X572D02*
X765D01*
X2019Y1093D02*
X2218D01*
X1880D02*
X1917D01*
X1727D02*
X1844D01*
X1617D02*
X1686D01*
X1499D02*
X1532D01*
X1432D02*
X1464D01*
X1356D02*
X1396D01*
X1238D02*
X1268D01*
X1147D02*
X1191D01*
X1068D02*
X1101D01*
X1013D02*
X1033D01*
X881D02*
X901D01*
X801D02*
X846D01*
X572D02*
X765D01*
X2019Y1092D02*
X2218D01*
X1880D02*
X1916D01*
X1727D02*
X1844D01*
X1617D02*
X1686D01*
X1499D02*
X1531D01*
X1433D02*
X1464D01*
X1357D02*
X1396D01*
X1238D02*
X1268D01*
X1147D02*
X1190D01*
X1068D02*
X1101D01*
X1013D02*
X1033D01*
X881D02*
X901D01*
X801D02*
X846D01*
X572D02*
X765D01*
X2019Y1092D02*
X2218D01*
X1880D02*
X1916D01*
X1728D02*
X1844D01*
X1618D02*
X1686D01*
X1499D02*
X1530D01*
X1433D02*
X1464D01*
X1357D02*
X1397D01*
X1238D02*
X1269D01*
X1147D02*
X1190D01*
X1068D02*
X1101D01*
X1013D02*
X1033D01*
X881D02*
X901D01*
X801D02*
X846D01*
X572D02*
X765D01*
X2019Y1091D02*
X2218D01*
X1880D02*
X1915D01*
X1728D02*
X1844D01*
X1619D02*
X1686D01*
X1499D02*
X1529D01*
X1434D02*
X1464D01*
X1357D02*
X1398D01*
X1238D02*
X1269D01*
X1148D02*
X1189D01*
X1068D02*
X1101D01*
X1013D02*
X1033D01*
X881D02*
X901D01*
X801D02*
X846D01*
X572D02*
X765D01*
X2019Y1090D02*
X2218D01*
X1880D02*
X1915D01*
X1729D02*
X1844D01*
X1620D02*
X1685D01*
X1499D02*
X1528D01*
X1435D02*
X1464D01*
X1358D02*
X1399D01*
X1238D02*
X1270D01*
X1148D02*
X1189D01*
X1068D02*
X1101D01*
X1013D02*
X1033D01*
X881D02*
X901D01*
X801D02*
X846D01*
X572D02*
X765D01*
X2019Y1089D02*
X2218D01*
X1880D02*
X1914D01*
X1729D02*
X1844D01*
X1621D02*
X1685D01*
X1499D02*
X1527D01*
X1436D02*
X1464D01*
X1359D02*
X1399D01*
X1238D02*
X1270D01*
X1149D02*
X1188D01*
X1068D02*
X1101D01*
X1013D02*
X1033D01*
X881D02*
X901D01*
X801D02*
X846D01*
X572D02*
X765D01*
X2019Y1088D02*
X2218D01*
X1880D02*
X1914D01*
X1729D02*
X1844D01*
X1622D02*
X1685D01*
X1499D02*
X1527D01*
X1436D02*
X1464D01*
X1359D02*
X1400D01*
X1238D02*
X1271D01*
X1149D02*
X1188D01*
X1068D02*
X1101D01*
X1013D02*
X1033D01*
X881D02*
X901D01*
X801D02*
X846D01*
X572D02*
X765D01*
X2019Y1087D02*
X2218D01*
X1880D02*
X1914D01*
X1730D02*
X1844D01*
X1622D02*
X1684D01*
X1499D02*
X1527D01*
X1436D02*
X1464D01*
X1360D02*
X1401D01*
X1238D02*
X1272D01*
X1150D02*
X1188D01*
X1068D02*
X1101D01*
X1013D02*
X1033D01*
X881D02*
X901D01*
X801D02*
X846D01*
X572D02*
X765D01*
X2019Y1086D02*
X2218D01*
X1880D02*
X1913D01*
X1730D02*
X1844D01*
X1623D02*
X1684D01*
X1499D02*
X1526D01*
X1437D02*
X1464D01*
X1360D02*
X1402D01*
X1238D02*
X1272D01*
X1150D02*
X1187D01*
X1068D02*
X1101D01*
X1013D02*
X1033D01*
X881D02*
X901D01*
X801D02*
X846D01*
X572D02*
X765D01*
X2019Y1086D02*
X2218D01*
X1880D02*
X1913D01*
X1730D02*
X1844D01*
X1623D02*
X1684D01*
X1499D02*
X1526D01*
X1438D02*
X1464D01*
X1361D02*
X1402D01*
X1238D02*
X1272D01*
X1151D02*
X1187D01*
X1068D02*
X1101D01*
X1013D02*
X1033D01*
X881D02*
X901D01*
X801D02*
X846D01*
X572D02*
X765D01*
X2019Y1085D02*
X2218D01*
X1880D02*
X1913D01*
X1731D02*
X1844D01*
X1624D02*
X1683D01*
X1499D02*
X1525D01*
X1439D02*
X1464D01*
X1361D02*
X1402D01*
X1238D02*
X1272D01*
X1151D02*
X1187D01*
X1068D02*
X1101D01*
X1013D02*
X1033D01*
X881D02*
X901D01*
X801D02*
X846D01*
X572D02*
X765D01*
X2019Y1084D02*
X2218D01*
X1880D02*
X1912D01*
X1731D02*
X1844D01*
X1624D02*
X1683D01*
X1499D02*
X1525D01*
X1440D02*
X1464D01*
X1362D02*
X1403D01*
X1238D02*
X1273D01*
X1152D02*
X1187D01*
X1068D02*
X1101D01*
X1013D02*
X1033D01*
X881D02*
X901D01*
X801D02*
X846D01*
X572D02*
X765D01*
X2019Y1083D02*
X2218D01*
X1880D02*
X1912D01*
X1731D02*
X1844D01*
X1625D02*
X1682D01*
X1499D02*
X1524D01*
X1441D02*
X1464D01*
X1362D02*
X1404D01*
X1238D02*
X1273D01*
X1152D02*
X1186D01*
X1068D02*
X1101D01*
X1013D02*
X1033D01*
X881D02*
X901D01*
X801D02*
X846D01*
X572D02*
X765D01*
X2019Y1082D02*
X2218D01*
X1880D02*
X1912D01*
X1731D02*
X1844D01*
X1626D02*
X1682D01*
X1499D02*
X1523D01*
X1441D02*
X1464D01*
X1362D02*
X1405D01*
X1238D02*
X1274D01*
X1152D02*
X1186D01*
X1068D02*
X1101D01*
X1013D02*
X1033D01*
X881D02*
X901D01*
X801D02*
X846D01*
X572D02*
X765D01*
X2019Y1081D02*
X2218D01*
X1880D02*
X1912D01*
X1731D02*
X1844D01*
X1626D02*
X1682D01*
X1499D02*
X1524D01*
X1442D02*
X1464D01*
X1362D02*
X1406D01*
X1238D02*
X1274D01*
X1153D02*
X1185D01*
X1068D02*
X1101D01*
X1013D02*
X1033D01*
X881D02*
X901D01*
X801D02*
X846D01*
X572D02*
X765D01*
X2019Y1081D02*
X2218D01*
X1880D02*
X1912D01*
X1732D02*
X1844D01*
X1627D02*
X1681D01*
X1499D02*
X1525D01*
X1442D02*
X1464D01*
X1362D02*
X1407D01*
X1238D02*
X1275D01*
X1153D02*
X1185D01*
X1068D02*
X1101D01*
X1013D02*
X1033D01*
X881D02*
X901D01*
X801D02*
X846D01*
X572D02*
X765D01*
X2019Y1080D02*
X2218D01*
X1880D02*
X1912D01*
X1732D02*
X1844D01*
X1628D02*
X1681D01*
X1499D02*
X1527D01*
X1443D02*
X1464D01*
X1363D02*
X1407D01*
X1238D02*
X1275D01*
X1153D02*
X1184D01*
X1068D02*
X1101D01*
X1013D02*
X1033D01*
X881D02*
X901D01*
X801D02*
X846D01*
X572D02*
X765D01*
X2019Y1079D02*
X2218D01*
X1953D02*
X1983D01*
X1880D02*
X1912D01*
X1732D02*
X1844D01*
X1628D02*
X1681D01*
X1499D02*
X1527D01*
X1444D02*
X1464D01*
X1363D02*
X1408D01*
X1312D02*
X1320D01*
X1238D02*
X1276D01*
X1153D02*
X1184D01*
X1068D02*
X1101D01*
X1013D02*
X1033D01*
X881D02*
X901D01*
X801D02*
X846D01*
X572D02*
X765D01*
X2019Y1078D02*
X2218D01*
X1952D02*
X1983D01*
X1880D02*
X1912D01*
X1733D02*
X1844D01*
X1629D02*
X1680D01*
X1567D02*
X1581D01*
X1499D02*
X1528D01*
X1444D02*
X1464D01*
X1363D02*
X1408D01*
X1307D02*
X1324D01*
X1238D02*
X1276D01*
X1154D02*
X1184D01*
X1068D02*
X1101D01*
X975D02*
X1033D01*
X881D02*
X939D01*
X801D02*
X846D01*
X572D02*
X765D01*
X2019Y1077D02*
X2218D01*
X1950D02*
X1983D01*
X1880D02*
X1912D01*
X1733D02*
X1844D01*
X1629D02*
X1680D01*
X1565D02*
X1584D01*
X1499D02*
X1530D01*
X1445D02*
X1464D01*
X1363D02*
X1409D01*
X1305D02*
X1326D01*
X1238D02*
X1277D01*
X1154D02*
X1183D01*
X1068D02*
X1101D01*
X975D02*
X1033D01*
X881D02*
X939D01*
X801D02*
X846D01*
X572D02*
X765D01*
X2019Y1076D02*
X2218D01*
X1949D02*
X1983D01*
X1880D02*
X1912D01*
X1734D02*
X1844D01*
X1629D02*
X1680D01*
X1562D02*
X1585D01*
X1499D02*
X1531D01*
X1446D02*
X1464D01*
X1364D02*
X1410D01*
X1301D02*
X1327D01*
X1238D02*
X1277D01*
X1155D02*
X1183D01*
X1068D02*
X1101D01*
X975D02*
X1033D01*
X881D02*
X939D01*
X801D02*
X846D01*
X572D02*
X765D01*
X2019Y1075D02*
X2218D01*
X1948D02*
X1983D01*
X1880D02*
X1912D01*
X1734D02*
X1844D01*
X1630D02*
X1680D01*
X1561D02*
X1587D01*
X1499D02*
X1533D01*
X1447D02*
X1464D01*
X1364D02*
X1410D01*
X1300D02*
X1327D01*
X1238D02*
X1278D01*
X1155D02*
X1182D01*
X1068D02*
X1101D01*
X975D02*
X1033D01*
X881D02*
X939D01*
X801D02*
X846D01*
X572D02*
X765D01*
X2019Y1075D02*
X2218D01*
X1948D02*
X1983D01*
X1880D02*
X1912D01*
X1734D02*
X1844D01*
X1630D02*
X1680D01*
X1560D02*
X1588D01*
X1499D02*
X1533D01*
X1447D02*
X1464D01*
X1364D02*
X1411D01*
X1297D02*
X1328D01*
X1238D02*
X1278D01*
X1156D02*
X1182D01*
X1068D02*
X1101D01*
X975D02*
X1033D01*
X881D02*
X939D01*
X801D02*
X846D01*
X572D02*
X765D01*
X2019Y1074D02*
X2218D01*
X1948D02*
X1983D01*
X1880D02*
X1912D01*
X1735D02*
X1844D01*
X1631D02*
X1679D01*
X1558D02*
X1589D01*
X1499D02*
X1535D01*
X1448D02*
X1464D01*
X1364D02*
X1412D01*
X1294D02*
X1328D01*
X1238D02*
X1278D01*
X1156D02*
X1181D01*
X1068D02*
X1101D01*
X975D02*
X1033D01*
X881D02*
X939D01*
X801D02*
X846D01*
X572D02*
X765D01*
X2019Y1073D02*
X2218D01*
X1947D02*
X1983D01*
X1880D02*
X1912D01*
X1735D02*
X1844D01*
X1631D02*
X1679D01*
X1557D02*
X1590D01*
X1499D02*
X1536D01*
X1448D02*
X1464D01*
X1364D02*
X1413D01*
X1293D02*
X1328D01*
X1238D02*
X1278D01*
X1157D02*
X1181D01*
X1068D02*
X1101D01*
X975D02*
X1033D01*
X881D02*
X939D01*
X801D02*
X846D01*
X572D02*
X765D01*
X2019Y1072D02*
X2218D01*
X1947D02*
X1983D01*
X1880D02*
X1912D01*
X1735D02*
X1844D01*
X1706D02*
X1708D01*
X1631D02*
X1679D01*
X1556D02*
X1591D01*
X1499D02*
X1537D01*
X1449D02*
X1464D01*
X1364D02*
X1413D01*
X1291D02*
X1328D01*
X1238D02*
X1279D01*
X1157D02*
X1181D01*
X1068D02*
X1101D01*
X975D02*
X1033D01*
X881D02*
X939D01*
X801D02*
X846D01*
X572D02*
X765D01*
X2019Y1071D02*
X2218D01*
X1947D02*
X1983D01*
X1880D02*
X1912D01*
X1736D02*
X1844D01*
X1706D02*
X1708D01*
X1632D02*
X1678D01*
X1555D02*
X1592D01*
X1499D02*
X1538D01*
X1450D02*
X1464D01*
X1365D02*
X1413D01*
X1289D02*
X1328D01*
X1238D02*
X1279D01*
X1157D02*
X1181D01*
X1068D02*
X1101D01*
X975D02*
X1033D01*
X881D02*
X939D01*
X801D02*
X846D01*
X572D02*
X765D01*
X2019Y1070D02*
X2218D01*
X1947D02*
X1983D01*
X1880D02*
X1912D01*
X1736D02*
X1844D01*
X1706D02*
X1708D01*
X1632D02*
X1678D01*
X1555D02*
X1593D01*
X1499D02*
X1539D01*
X1451D02*
X1464D01*
X1365D02*
X1414D01*
X1288D02*
X1328D01*
X1238D02*
X1280D01*
X1158D02*
X1180D01*
X1068D02*
X1101D01*
X975D02*
X1033D01*
X881D02*
X939D01*
X801D02*
X846D01*
X572D02*
X765D01*
X2019Y1069D02*
X2218D01*
X1947D02*
X1983D01*
X1880D02*
X1912D01*
X1737D02*
X1844D01*
X1706D02*
X1708D01*
X1633D02*
X1678D01*
X1554D02*
X1594D01*
X1499D02*
X1541D01*
X1452D02*
X1464D01*
X1365D02*
X1415D01*
X1286D02*
X1328D01*
X1238D02*
X1280D01*
X1158D02*
X1180D01*
X1068D02*
X1101D01*
X975D02*
X1033D01*
X881D02*
X939D01*
X801D02*
X846D01*
X572D02*
X765D01*
X2019Y1069D02*
X2218D01*
X1947D02*
X1983D01*
X1880D02*
X1912D01*
X1737D02*
X1844D01*
X1705D02*
X1708D01*
X1633D02*
X1677D01*
X1554D02*
X1594D01*
X1499D02*
X1542D01*
X1452D02*
X1464D01*
X1365D02*
X1416D01*
X1284D02*
X1327D01*
X1238D02*
X1281D01*
X1158D02*
X1179D01*
X1068D02*
X1101D01*
X975D02*
X1033D01*
X881D02*
X939D01*
X801D02*
X846D01*
X572D02*
X765D01*
X2019Y1068D02*
X2218D01*
X1947D02*
X1983D01*
X1880D02*
X1912D01*
X1737D02*
X1844D01*
X1705D02*
X1708D01*
X1633D02*
X1677D01*
X1553D02*
X1595D01*
X1499D02*
X1543D01*
X1453D02*
X1464D01*
X1365D02*
X1417D01*
X1283D02*
X1327D01*
X1238D02*
X1282D01*
X1158D02*
X1179D01*
X1068D02*
X1101D01*
X975D02*
X1033D01*
X881D02*
X939D01*
X801D02*
X846D01*
X572D02*
X765D01*
X2019Y1067D02*
X2218D01*
X1947D02*
X1983D01*
X1880D02*
X1913D01*
X1737D02*
X1844D01*
X1705D02*
X1708D01*
X1634D02*
X1676D01*
X1552D02*
X1595D01*
X1499D02*
X1544D01*
X1453D02*
X1464D01*
X1365D02*
X1418D01*
X1238D02*
X1326D01*
X1159D02*
X1179D01*
X1068D02*
X1101D01*
X975D02*
X1033D01*
X881D02*
X939D01*
X801D02*
X846D01*
X572D02*
X765D01*
X2019Y1066D02*
X2218D01*
X1947D02*
X1983D01*
X1880D02*
X1913D01*
X1737D02*
X1844D01*
X1705D02*
X1708D01*
X1634D02*
X1676D01*
X1552D02*
X1595D01*
X1499D02*
X1545D01*
X1454D02*
X1464D01*
X1365D02*
X1418D01*
X1238D02*
X1325D01*
X1159D02*
X1178D01*
X1068D02*
X1101D01*
X975D02*
X1033D01*
X881D02*
X939D01*
X801D02*
X846D01*
X572D02*
X765D01*
X2019Y1065D02*
X2218D01*
X1947D02*
X1983D01*
X1880D02*
X1913D01*
X1737D02*
X1844D01*
X1704D02*
X1709D01*
X1634D02*
X1676D01*
X1551D02*
X1596D01*
X1499D02*
X1547D01*
X1455D02*
X1464D01*
X1365D02*
X1419D01*
X1238D02*
X1323D01*
X1160D02*
X1178D01*
X1068D02*
X1101D01*
X975D02*
X1033D01*
X881D02*
X939D01*
X801D02*
X846D01*
X572D02*
X765D01*
X2019Y1064D02*
X2218D01*
X1947D02*
X1983D01*
X1880D02*
X1914D01*
X1738D02*
X1844D01*
X1704D02*
X1709D01*
X1635D02*
X1675D01*
X1551D02*
X1596D01*
X1499D02*
X1548D01*
X1455D02*
X1464D01*
X1365D02*
X1419D01*
X1238D02*
X1322D01*
X1160D02*
X1177D01*
X1068D02*
X1101D01*
X975D02*
X1033D01*
X881D02*
X939D01*
X801D02*
X846D01*
X572D02*
X765D01*
X2019Y1064D02*
X2218D01*
X1948D02*
X1983D01*
X1880D02*
X1914D01*
X1738D02*
X1844D01*
X1704D02*
X1709D01*
X1635D02*
X1675D01*
X1550D02*
X1597D01*
X1499D02*
X1549D01*
X1456D02*
X1464D01*
X1365D02*
X1420D01*
X1238D02*
X1320D01*
X1161D02*
X1177D01*
X1068D02*
X1101D01*
X975D02*
X1033D01*
X881D02*
X939D01*
X801D02*
X846D01*
X572D02*
X765D01*
X2019Y1063D02*
X2218D01*
X1948D02*
X1983D01*
X1880D02*
X1914D01*
X1738D02*
X1844D01*
X1704D02*
X1710D01*
X1635D02*
X1675D01*
X1499D02*
X1597D01*
X1457D02*
X1464D01*
X1365D02*
X1421D01*
X1238D02*
X1317D01*
X1161D02*
X1176D01*
X1068D02*
X1101D01*
X975D02*
X1033D01*
X881D02*
X939D01*
X801D02*
X846D01*
X572D02*
X765D01*
X2019Y1062D02*
X2218D01*
X1948D02*
X1983D01*
X1880D02*
X1915D01*
X1739D02*
X1844D01*
X1703D02*
X1710D01*
X1635D02*
X1674D01*
X1499D02*
X1598D01*
X1458D02*
X1464D01*
X1365D02*
X1421D01*
X1238D02*
X1315D01*
X1162D02*
X1176D01*
X1068D02*
X1101D01*
X975D02*
X1033D01*
X881D02*
X939D01*
X801D02*
X846D01*
X572D02*
X765D01*
X2019Y1061D02*
X2218D01*
X1949D02*
X1983D01*
X1880D02*
X1915D01*
X1739D02*
X1844D01*
X1703D02*
X1710D01*
X1635D02*
X1674D01*
X1499D02*
X1598D01*
X1459D02*
X1464D01*
X1364D02*
X1422D01*
X1238D02*
X1311D01*
X1162D02*
X1176D01*
X1068D02*
X1101D01*
X975D02*
X1033D01*
X881D02*
X939D01*
X801D02*
X846D01*
X572D02*
X765D01*
X2019Y1060D02*
X2218D01*
X1950D02*
X1983D01*
X1880D02*
X1916D01*
X1740D02*
X1844D01*
X1703D02*
X1710D01*
X1635D02*
X1674D01*
X1499D02*
X1599D01*
X1459D02*
X1464D01*
X1364D02*
X1423D01*
X1238D02*
X1309D01*
X1162D02*
X1176D01*
X1068D02*
X1101D01*
X975D02*
X1033D01*
X881D02*
X939D01*
X572D02*
X765D01*
X2019Y1059D02*
X2218D01*
X1952D02*
X1983D01*
X1880D02*
X1916D01*
X1740D02*
X1844D01*
X1702D02*
X1711D01*
X1635D02*
X1674D01*
X1499D02*
X1599D01*
X1459D02*
X1464D01*
X1364D02*
X1424D01*
X1238D02*
X1306D01*
X1163D02*
X1175D01*
X1068D02*
X1101D01*
X975D02*
X1033D01*
X881D02*
X939D01*
X572D02*
X765D01*
X2019Y1058D02*
X2218D01*
X1953D02*
X1983D01*
X1880D02*
X1917D01*
X1740D02*
X1844D01*
X1702D02*
X1711D01*
X1636D02*
X1674D01*
X1499D02*
X1599D01*
X1460D02*
X1464D01*
X1364D02*
X1425D01*
X1238D02*
X1304D01*
X1163D02*
X1175D01*
X1068D02*
X1101D01*
X975D02*
X1033D01*
X881D02*
X939D01*
X572D02*
X765D01*
X2019Y1058D02*
X2218D01*
X1880D02*
X1917D01*
X1741D02*
X1844D01*
X1702D02*
X1711D01*
X1636D02*
X1673D01*
X1499D02*
X1600D01*
X1461D02*
X1464D01*
X1364D02*
X1425D01*
X1238D02*
X1301D01*
X1164D02*
X1175D01*
X1068D02*
X1101D01*
X975D02*
X1033D01*
X881D02*
X939D01*
X572D02*
X765D01*
X2019Y1057D02*
X2218D01*
X1880D02*
X1918D01*
X1741D02*
X1844D01*
X1702D02*
X1712D01*
X1636D02*
X1673D01*
X1499D02*
X1600D01*
X1462D02*
X1464D01*
X1364D02*
X1425D01*
X1238D02*
X1299D01*
X1164D02*
X1174D01*
X1068D02*
X1101D01*
X975D02*
X1033D01*
X881D02*
X939D01*
X572D02*
X765D01*
X2019Y1056D02*
X2218D01*
X1880D02*
X1918D01*
X1741D02*
X1844D01*
X1702D02*
X1712D01*
X1636D02*
X1673D01*
X1499D02*
X1600D01*
X1463D02*
X1464D01*
X1363D02*
X1426D01*
X1238D02*
X1296D01*
X1164D02*
X1174D01*
X1068D02*
X1101D01*
X975D02*
X1033D01*
X881D02*
X939D01*
X572D02*
X765D01*
X2019Y1055D02*
X2218D01*
X1880D02*
X1918D01*
X1742D02*
X1844D01*
X1702D02*
X1712D01*
X1636D02*
X1672D01*
X1499D02*
X1600D01*
X1363D02*
X1427D01*
X1238D02*
X1294D01*
X1164D02*
X1173D01*
X1068D02*
X1101D01*
X975D02*
X1033D01*
X881D02*
X939D01*
X572D02*
X765D01*
X2019Y1054D02*
X2218D01*
X1880D02*
X1919D01*
X1742D02*
X1844D01*
X1702D02*
X1712D01*
X1637D02*
X1672D01*
X1499D02*
X1600D01*
X1363D02*
X1428D01*
X1238D02*
X1291D01*
X1165D02*
X1173D01*
X1068D02*
X1101D01*
X975D02*
X1033D01*
X881D02*
X939D01*
X572D02*
X765D01*
X2019Y1053D02*
X2218D01*
X1880D02*
X1920D01*
X1742D02*
X1844D01*
X1702D02*
X1713D01*
X1637D02*
X1671D01*
X1499D02*
X1600D01*
X1362D02*
X1429D01*
X1238D02*
X1289D01*
X1165D02*
X1172D01*
X1068D02*
X1101D01*
X975D02*
X1033D01*
X881D02*
X939D01*
X572D02*
X765D01*
X2019Y1052D02*
X2218D01*
X1880D02*
X1921D01*
X1742D02*
X1844D01*
X1701D02*
X1713D01*
X1637D02*
X1671D01*
X1499D02*
X1600D01*
X1362D02*
X1429D01*
X1238D02*
X1288D01*
X1166D02*
X1172D01*
X1068D02*
X1101D01*
X975D02*
X1033D01*
X881D02*
X939D01*
X572D02*
X765D01*
X2019Y1052D02*
X2218D01*
X1880D02*
X1922D01*
X1742D02*
X1844D01*
X1701D02*
X1713D01*
X1637D02*
X1671D01*
X1499D02*
X1600D01*
X1362D02*
X1430D01*
X1238D02*
X1285D01*
X1166D02*
X1171D01*
X1068D02*
X1101D01*
X975D02*
X1033D01*
X881D02*
X939D01*
X572D02*
X765D01*
X2019Y1051D02*
X2218D01*
X1880D02*
X1923D01*
X1743D02*
X1844D01*
X1701D02*
X1713D01*
X1637D02*
X1670D01*
X1499D02*
X1600D01*
X1362D02*
X1431D01*
X1238D02*
X1283D01*
X1167D02*
X1171D01*
X1068D02*
X1101D01*
X975D02*
X1033D01*
X881D02*
X939D01*
X572D02*
X765D01*
X2019Y1050D02*
X2218D01*
X1880D02*
X1923D01*
X1743D02*
X1844D01*
X1701D02*
X1714D01*
X1637D02*
X1670D01*
X1499D02*
X1600D01*
X1362D02*
X1431D01*
X1238D02*
X1283D01*
X1167D02*
X1170D01*
X1068D02*
X1101D01*
X975D02*
X1033D01*
X881D02*
X939D01*
X572D02*
X765D01*
X2019Y1049D02*
X2218D01*
X1880D02*
X1924D01*
X1743D02*
X1844D01*
X1700D02*
X1714D01*
X1637D02*
X1670D01*
X1499D02*
X1600D01*
X1361D02*
X1430D01*
X1238D02*
X1281D01*
X1167D02*
X1170D01*
X1068D02*
X1101D01*
X975D02*
X1033D01*
X881D02*
X939D01*
X572D02*
X765D01*
X2019Y1048D02*
X2218D01*
X1880D02*
X1926D01*
X1744D02*
X1844D01*
X1700D02*
X1714D01*
X1637D02*
X1669D01*
X1499D02*
X1600D01*
X1361D02*
X1430D01*
X1238D02*
X1279D01*
X1168D02*
X1170D01*
X1068D02*
X1101D01*
X975D02*
X1033D01*
X881D02*
X939D01*
X572D02*
X765D01*
X2019Y1047D02*
X2218D01*
X1880D02*
X1927D01*
X1744D02*
X1844D01*
X1700D02*
X1714D01*
X1637D02*
X1669D01*
X1499D02*
X1601D01*
X1360D02*
X1429D01*
X1238D02*
X1278D01*
X1168D02*
X1170D01*
X1068D02*
X1101D01*
X975D02*
X1033D01*
X881D02*
X939D01*
X572D02*
X765D01*
X2019Y1046D02*
X2218D01*
X1880D02*
X1929D01*
X1745D02*
X1844D01*
X1699D02*
X1714D01*
X1637D02*
X1668D01*
X1499D02*
X1601D01*
X1359D02*
X1428D01*
X1238D02*
X1277D01*
X1200D02*
X1201D01*
X1136D02*
X1137D01*
X1068D02*
X1101D01*
X975D02*
X1033D01*
X881D02*
X939D01*
X572D02*
X765D01*
X2019Y1046D02*
X2218D01*
X1880D02*
X1930D01*
X1745D02*
X1844D01*
X1699D02*
X1714D01*
X1637D02*
X1668D01*
X1499D02*
X1601D01*
X1359D02*
X1428D01*
X1238D02*
X1276D01*
X1200D02*
X1201D01*
X1136D02*
X1138D01*
X1068D02*
X1101D01*
X975D02*
X1033D01*
X881D02*
X939D01*
X572D02*
X765D01*
X2019Y1045D02*
X2218D01*
X1880D02*
X1931D01*
X1745D02*
X1844D01*
X1699D02*
X1714D01*
X1637D02*
X1668D01*
X1499D02*
X1601D01*
X1358D02*
X1427D01*
X1238D02*
X1275D01*
X1199D02*
X1201D01*
X1136D02*
X1138D01*
X1068D02*
X1101D01*
X975D02*
X1033D01*
X881D02*
X939D01*
X572D02*
X765D01*
X2019Y1044D02*
X2218D01*
X1880D02*
X1929D01*
X1746D02*
X1844D01*
X1699D02*
X1715D01*
X1637D02*
X1668D01*
X1499D02*
X1601D01*
X1357D02*
X1426D01*
X1238D02*
X1273D01*
X1199D02*
X1201D01*
X1136D02*
X1139D01*
X1068D02*
X1101D01*
X975D02*
X1033D01*
X881D02*
X939D01*
X572D02*
X765D01*
X2019Y1043D02*
X2218D01*
X1880D02*
X1927D01*
X1746D02*
X1844D01*
X1698D02*
X1715D01*
X1637D02*
X1668D01*
X1499D02*
X1601D01*
X1357D02*
X1426D01*
X1238D02*
X1272D01*
X1198D02*
X1201D01*
X1136D02*
X1139D01*
X1068D02*
X1101D01*
X975D02*
X1033D01*
X881D02*
X939D01*
X572D02*
X765D01*
X2019Y1042D02*
X2218D01*
X1880D02*
X1925D01*
X1746D02*
X1844D01*
X1698D02*
X1715D01*
X1637D02*
X1668D01*
X1499D02*
X1601D01*
X1356D02*
X1425D01*
X1238D02*
X1272D01*
X1198D02*
X1201D01*
X1136D02*
X1140D01*
X1068D02*
X1101D01*
X975D02*
X1033D01*
X881D02*
X939D01*
X572D02*
X765D01*
X2019Y1041D02*
X2218D01*
X1880D02*
X1923D01*
X1747D02*
X1844D01*
X1698D02*
X1716D01*
X1637D02*
X1667D01*
X1499D02*
X1601D01*
X1355D02*
X1425D01*
X1238D02*
X1271D01*
X1198D02*
X1201D01*
X1136D02*
X1140D01*
X1068D02*
X1101D01*
X975D02*
X1033D01*
X881D02*
X939D01*
X572D02*
X765D01*
X2019Y1041D02*
X2218D01*
X1880D02*
X1922D01*
X1747D02*
X1844D01*
X1698D02*
X1716D01*
X1637D02*
X1667D01*
X1499D02*
X1601D01*
X1354D02*
X1424D01*
X1238D02*
X1271D01*
X1198D02*
X1201D01*
X1136D02*
X1141D01*
X1068D02*
X1101D01*
X975D02*
X1033D01*
X881D02*
X939D01*
X572D02*
X765D01*
X2019Y1040D02*
X2218D01*
X1880D02*
X1920D01*
X1748D02*
X1844D01*
X1697D02*
X1716D01*
X1637D02*
X1667D01*
X1499D02*
X1601D01*
X1353D02*
X1424D01*
X1238D02*
X1270D01*
X1197D02*
X1201D01*
X1136D02*
X1141D01*
X1068D02*
X1101D01*
X975D02*
X1033D01*
X881D02*
X939D01*
X572D02*
X765D01*
X2019Y1039D02*
X2218D01*
X1880D02*
X1919D01*
X1748D02*
X1844D01*
X1697D02*
X1716D01*
X1637D02*
X1666D01*
X1499D02*
X1601D01*
X1351D02*
X1423D01*
X1238D02*
X1269D01*
X1197D02*
X1201D01*
X1136D02*
X1141D01*
X1068D02*
X1101D01*
X975D02*
X1033D01*
X881D02*
X939D01*
X572D02*
X765D01*
X2019Y1038D02*
X2218D01*
X1880D02*
X1918D01*
X1748D02*
X1844D01*
X1697D02*
X1717D01*
X1637D02*
X1666D01*
X1499D02*
X1600D01*
X1351D02*
X1422D01*
X1238D02*
X1268D01*
X1197D02*
X1201D01*
X1136D02*
X1141D01*
X1068D02*
X1101D01*
X975D02*
X1033D01*
X881D02*
X939D01*
X572D02*
X765D01*
X2019Y1037D02*
X2218D01*
X1880D02*
X1917D01*
X1748D02*
X1844D01*
X1697D02*
X1717D01*
X1637D02*
X1665D01*
X1499D02*
X1600D01*
X1349D02*
X1422D01*
X1238D02*
X1268D01*
X1196D02*
X1201D01*
X1136D02*
X1141D01*
X1068D02*
X1101D01*
X975D02*
X1033D01*
X881D02*
X939D01*
X572D02*
X765D01*
X2019Y1036D02*
X2218D01*
X1880D02*
X1916D01*
X1748D02*
X1844D01*
X1697D02*
X1717D01*
X1637D02*
X1665D01*
X1499D02*
X1600D01*
X1348D02*
X1421D01*
X1238D02*
X1267D01*
X1196D02*
X1201D01*
X1136D02*
X1142D01*
X1068D02*
X1101D01*
X975D02*
X1033D01*
X881D02*
X939D01*
X572D02*
X765D01*
X2019Y1035D02*
X2218D01*
X1880D02*
X1915D01*
X1748D02*
X1844D01*
X1697D02*
X1717D01*
X1637D02*
X1665D01*
X1499D02*
X1600D01*
X1346D02*
X1420D01*
X1238D02*
X1267D01*
X1195D02*
X1201D01*
X1136D02*
X1142D01*
X1068D02*
X1101D01*
X975D02*
X1033D01*
X881D02*
X939D01*
X572D02*
X765D01*
X2019Y1035D02*
X2218D01*
X1880D02*
X1914D01*
X1749D02*
X1844D01*
X1697D02*
X1718D01*
X1637D02*
X1664D01*
X1499D02*
X1600D01*
X1345D02*
X1419D01*
X1238D02*
X1266D01*
X1195D02*
X1201D01*
X1136D02*
X1143D01*
X1068D02*
X1101D01*
X975D02*
X1033D01*
X881D02*
X939D01*
X572D02*
X765D01*
X2019Y1034D02*
X2218D01*
X1880D02*
X1913D01*
X1749D02*
X1844D01*
X1697D02*
X1718D01*
X1636D02*
X1664D01*
X1499D02*
X1600D01*
X1343D02*
X1419D01*
X1238D02*
X1266D01*
X1194D02*
X1201D01*
X1136D02*
X1143D01*
X1068D02*
X1101D01*
X975D02*
X1033D01*
X881D02*
X939D01*
X572D02*
X765D01*
X2019Y1033D02*
X2218D01*
X1880D02*
X1912D01*
X1750D02*
X1844D01*
X1696D02*
X1718D01*
X1636D02*
X1664D01*
X1499D02*
X1600D01*
X1341D02*
X1419D01*
X1238D02*
X1266D01*
X1194D02*
X1201D01*
X1136D02*
X1144D01*
X1068D02*
X1101D01*
X975D02*
X1033D01*
X881D02*
X939D01*
X572D02*
X765D01*
X2019Y1032D02*
X2218D01*
X1880D02*
X1912D01*
X1750D02*
X1844D01*
X1696D02*
X1719D01*
X1636D02*
X1663D01*
X1499D02*
X1600D01*
X1339D02*
X1418D01*
X1238D02*
X1266D01*
X1193D02*
X1201D01*
X1136D02*
X1144D01*
X1068D02*
X1101D01*
X975D02*
X1033D01*
X881D02*
X939D01*
X572D02*
X765D01*
X2019Y1031D02*
X2218D01*
X1880D02*
X1912D01*
X1750D02*
X1844D01*
X1696D02*
X1719D01*
X1636D02*
X1663D01*
X1499D02*
X1600D01*
X1337D02*
X1418D01*
X1238D02*
X1265D01*
X1193D02*
X1201D01*
X1136D02*
X1144D01*
X1068D02*
X1101D01*
X975D02*
X1033D01*
X881D02*
X939D01*
X572D02*
X765D01*
X2019Y1030D02*
X2218D01*
X1880D02*
X1911D01*
X1751D02*
X1844D01*
X1695D02*
X1719D01*
X1636D02*
X1663D01*
X1499D02*
X1600D01*
X1334D02*
X1417D01*
X1238D02*
X1265D01*
X1192D02*
X1201D01*
X1136D02*
X1145D01*
X1068D02*
X1101D01*
X975D02*
X1033D01*
X881D02*
X939D01*
X572D02*
X765D01*
X2019Y1030D02*
X2218D01*
X1948D02*
X1983D01*
X1880D02*
X1911D01*
X1751D02*
X1844D01*
X1695D02*
X1719D01*
X1635D02*
X1663D01*
X1499D02*
X1600D01*
X1451D02*
X1453D01*
X1333D02*
X1416D01*
X1238D02*
X1265D01*
X1192D02*
X1201D01*
X1136D02*
X1145D01*
X1068D02*
X1101D01*
X975D02*
X1033D01*
X881D02*
X939D01*
X572D02*
X765D01*
X2019Y1029D02*
X2218D01*
X1947D02*
X1983D01*
X1880D02*
X1910D01*
X1751D02*
X1844D01*
X1695D02*
X1719D01*
X1635D02*
X1663D01*
X1499D02*
X1599D01*
X1450D02*
X1453D01*
X1330D02*
X1416D01*
X1238D02*
X1264D01*
X1192D02*
X1201D01*
X1136D02*
X1146D01*
X1068D02*
X1101D01*
X975D02*
X1033D01*
X881D02*
X939D01*
X801D02*
X846D01*
X572D02*
X765D01*
X2019Y1028D02*
X2218D01*
X1946D02*
X1983D01*
X1880D02*
X1910D01*
X1752D02*
X1844D01*
X1695D02*
X1719D01*
X1635D02*
X1662D01*
X1499D02*
X1599D01*
X1450D02*
X1454D01*
X1328D02*
X1415D01*
X1238D02*
X1264D01*
X1192D02*
X1201D01*
X1136D02*
X1146D01*
X1068D02*
X1101D01*
X975D02*
X1033D01*
X881D02*
X939D01*
X801D02*
X846D01*
X572D02*
X765D01*
X2019Y1027D02*
X2218D01*
X1945D02*
X1983D01*
X1880D02*
X1909D01*
X1752D02*
X1844D01*
X1695D02*
X1719D01*
X1635D02*
X1662D01*
X1499D02*
X1599D01*
X1449D02*
X1455D01*
X1325D02*
X1414D01*
X1238D02*
X1264D01*
X1192D02*
X1201D01*
X1136D02*
X1147D01*
X1068D02*
X1101D01*
X975D02*
X1033D01*
X881D02*
X939D01*
X801D02*
X846D01*
X572D02*
X765D01*
X2019Y1026D02*
X2218D01*
X1945D02*
X1983D01*
X1880D02*
X1909D01*
X1753D02*
X1844D01*
X1635D02*
X1662D01*
X1499D02*
X1598D01*
X1448D02*
X1456D01*
X1322D02*
X1413D01*
X1238D02*
X1264D01*
X1191D02*
X1201D01*
X1136D02*
X1147D01*
X1068D02*
X1101D01*
X975D02*
X1033D01*
X881D02*
X939D01*
X801D02*
X846D01*
X572D02*
X765D01*
X2019Y1025D02*
X2218D01*
X1944D02*
X1983D01*
X1880D02*
X1908D01*
X1753D02*
X1844D01*
X1635D02*
X1661D01*
X1499D02*
X1598D01*
X1448D02*
X1457D01*
X1319D02*
X1413D01*
X1238D02*
X1264D01*
X1191D02*
X1201D01*
X1136D02*
X1147D01*
X1068D02*
X1101D01*
X975D02*
X1033D01*
X881D02*
X939D01*
X801D02*
X846D01*
X572D02*
X765D01*
X2019Y1024D02*
X2218D01*
X1944D02*
X1983D01*
X1880D02*
X1908D01*
X1753D02*
X1844D01*
X1635D02*
X1661D01*
X1499D02*
X1597D01*
X1447D02*
X1457D01*
X1316D02*
X1413D01*
X1238D02*
X1263D01*
X1190D02*
X1201D01*
X1136D02*
X1147D01*
X1068D02*
X1101D01*
X975D02*
X1033D01*
X881D02*
X939D01*
X801D02*
X846D01*
X572D02*
X765D01*
X2019Y1024D02*
X2218D01*
X1943D02*
X1983D01*
X1880D02*
X1908D01*
X1753D02*
X1844D01*
X1634D02*
X1660D01*
X1499D02*
X1597D01*
X1447D02*
X1458D01*
X1313D02*
X1412D01*
X1238D02*
X1263D01*
X1190D02*
X1201D01*
X1136D02*
X1148D01*
X1068D02*
X1101D01*
X975D02*
X1033D01*
X881D02*
X939D01*
X801D02*
X846D01*
X572D02*
X765D01*
X2019Y1023D02*
X2218D01*
X1943D02*
X1983D01*
X1880D02*
X1907D01*
X1753D02*
X1844D01*
X1634D02*
X1660D01*
X1551D02*
X1597D01*
X1499D02*
X1549D01*
X1447D02*
X1459D01*
X1311D02*
X1412D01*
X1238D02*
X1263D01*
X1189D02*
X1201D01*
X1136D02*
X1148D01*
X1068D02*
X1101D01*
X975D02*
X1033D01*
X881D02*
X939D01*
X801D02*
X846D01*
X572D02*
X765D01*
X2019Y1022D02*
X2218D01*
X1943D02*
X1983D01*
X1880D02*
X1907D01*
X1753D02*
X1844D01*
X1634D02*
X1660D01*
X1551D02*
X1596D01*
X1499D02*
X1548D01*
X1446D02*
X1459D01*
X1309D02*
X1411D01*
X1238D02*
X1263D01*
X1189D02*
X1201D01*
X1136D02*
X1148D01*
X1068D02*
X1101D01*
X975D02*
X1033D01*
X881D02*
X939D01*
X801D02*
X846D01*
X572D02*
X765D01*
X2019Y1021D02*
X2218D01*
X1942D02*
X1983D01*
X1880D02*
X1907D01*
X1754D02*
X1844D01*
X1633D02*
X1659D01*
X1552D02*
X1595D01*
X1499D02*
X1547D01*
X1445D02*
X1460D01*
X1356D02*
X1410D01*
X1307D02*
X1354D01*
X1238D02*
X1263D01*
X1189D02*
X1201D01*
X1136D02*
X1149D01*
X1068D02*
X1101D01*
X975D02*
X1033D01*
X881D02*
X939D01*
X801D02*
X846D01*
X572D02*
X765D01*
X2019Y1020D02*
X2218D01*
X1942D02*
X1983D01*
X1880D02*
X1907D01*
X1754D02*
X1844D01*
X1633D02*
X1659D01*
X1552D02*
X1595D01*
X1499D02*
X1545D01*
X1445D02*
X1461D01*
X1356D02*
X1410D01*
X1306D02*
X1352D01*
X1238D02*
X1263D01*
X1188D02*
X1201D01*
X1136D02*
X1149D01*
X1068D02*
X1101D01*
X975D02*
X1033D01*
X881D02*
X939D01*
X801D02*
X846D01*
X572D02*
X765D01*
X2019Y1019D02*
X2218D01*
X1942D02*
X1983D01*
X1880D02*
X1906D01*
X1755D02*
X1844D01*
X1633D02*
X1659D01*
X1553D02*
X1595D01*
X1499D02*
X1544D01*
X1444D02*
X1462D01*
X1357D02*
X1409D01*
X1304D02*
X1351D01*
X1238D02*
X1263D01*
X1188D02*
X1201D01*
X1136D02*
X1150D01*
X1068D02*
X1101D01*
X975D02*
X1033D01*
X881D02*
X939D01*
X801D02*
X846D01*
X572D02*
X765D01*
X2019Y1018D02*
X2218D01*
X1942D02*
X1983D01*
X1880D02*
X1906D01*
X1755D02*
X1844D01*
X1632D02*
X1658D01*
X1553D02*
X1595D01*
X1499D02*
X1543D01*
X1443D02*
X1463D01*
X1357D02*
X1408D01*
X1303D02*
X1350D01*
X1238D02*
X1263D01*
X1187D02*
X1201D01*
X1136D02*
X1150D01*
X1068D02*
X1101D01*
X975D02*
X1033D01*
X881D02*
X939D01*
X801D02*
X846D01*
X572D02*
X765D01*
X2019Y1018D02*
X2218D01*
X1942D02*
X1983D01*
X1880D02*
X1906D01*
X1755D02*
X1844D01*
X1632D02*
X1658D01*
X1554D02*
X1594D01*
X1499D02*
X1541D01*
X1443D02*
X1463D01*
X1357D02*
X1408D01*
X1302D02*
X1348D01*
X1238D02*
X1263D01*
X1187D02*
X1201D01*
X1136D02*
X1151D01*
X1068D02*
X1101D01*
X975D02*
X1033D01*
X881D02*
X939D01*
X801D02*
X846D01*
X572D02*
X765D01*
X2019Y1017D02*
X2218D01*
X1942D02*
X1983D01*
X1880D02*
X1906D01*
X1756D02*
X1844D01*
X1632D02*
X1657D01*
X1555D02*
X1593D01*
X1499D02*
X1539D01*
X1442D02*
X1464D01*
X1357D02*
X1408D01*
X1302D02*
X1346D01*
X1238D02*
X1263D01*
X1187D02*
X1201D01*
X1136D02*
X1151D01*
X1068D02*
X1101D01*
X975D02*
X1033D01*
X881D02*
X939D01*
X801D02*
X846D01*
X572D02*
X765D01*
X2019Y1016D02*
X2218D01*
X1942D02*
X1983D01*
X1880D02*
X1906D01*
X1756D02*
X1844D01*
X1631D02*
X1657D01*
X1555D02*
X1592D01*
X1499D02*
X1538D01*
X1442D02*
X1464D01*
X1358D02*
X1407D01*
X1301D02*
X1345D01*
X1238D02*
X1263D01*
X1187D02*
X1201D01*
X1136D02*
X1152D01*
X1068D02*
X1101D01*
X975D02*
X1033D01*
X881D02*
X939D01*
X801D02*
X846D01*
X572D02*
X765D01*
X2019Y1015D02*
X2218D01*
X1943D02*
X1983D01*
X1880D02*
X1906D01*
X1756D02*
X1844D01*
X1631D02*
X1657D01*
X1555D02*
X1591D01*
X1499D02*
X1537D01*
X1442D02*
X1464D01*
X1358D02*
X1406D01*
X1301D02*
X1342D01*
X1238D02*
X1263D01*
X1186D02*
X1201D01*
X1136D02*
X1152D01*
X1068D02*
X1101D01*
X975D02*
X1033D01*
X881D02*
X939D01*
X801D02*
X846D01*
X572D02*
X765D01*
X2019Y1014D02*
X2218D01*
X1943D02*
X1983D01*
X1880D02*
X1906D01*
X1757D02*
X1844D01*
X1630D02*
X1657D01*
X1556D02*
X1590D01*
X1499D02*
X1535D01*
X1441D02*
X1464D01*
X1359D02*
X1406D01*
X1301D02*
X1340D01*
X1238D02*
X1263D01*
X1186D02*
X1201D01*
X1136D02*
X1153D01*
X1068D02*
X1101D01*
X975D02*
X1033D01*
X881D02*
X939D01*
X801D02*
X846D01*
X572D02*
X765D01*
X2019Y1013D02*
X2218D01*
X1943D02*
X1983D01*
X1880D02*
X1906D01*
X1757D02*
X1844D01*
X1630D02*
X1657D01*
X1557D02*
X1589D01*
X1499D02*
X1534D01*
X1440D02*
X1464D01*
X1359D02*
X1405D01*
X1301D02*
X1339D01*
X1238D02*
X1263D01*
X1185D02*
X1201D01*
X1136D02*
X1153D01*
X1068D02*
X1101D01*
X975D02*
X1033D01*
X881D02*
X939D01*
X801D02*
X846D01*
X572D02*
X765D01*
X2019Y1013D02*
X2218D01*
X1944D02*
X1983D01*
X1880D02*
X1906D01*
X1758D02*
X1844D01*
X1629D02*
X1657D01*
X1559D02*
X1589D01*
X1499D02*
X1533D01*
X1440D02*
X1464D01*
X1360D02*
X1404D01*
X1301D02*
X1336D01*
X1238D02*
X1263D01*
X1185D02*
X1201D01*
X1136D02*
X1153D01*
X1068D02*
X1101D01*
X975D02*
X1033D01*
X881D02*
X939D01*
X801D02*
X846D01*
X572D02*
X765D01*
X2019Y1012D02*
X2218D01*
X1944D02*
X1983D01*
X1880D02*
X1906D01*
X1758D02*
X1844D01*
X1629D02*
X1656D01*
X1560D02*
X1588D01*
X1499D02*
X1531D01*
X1439D02*
X1464D01*
X1360D02*
X1403D01*
X1302D02*
X1334D01*
X1238D02*
X1263D01*
X1185D02*
X1201D01*
X1136D02*
X1153D01*
X1068D02*
X1101D01*
X975D02*
X1033D01*
X881D02*
X939D01*
X801D02*
X846D01*
X572D02*
X765D01*
X2019Y1011D02*
X2218D01*
X1945D02*
X1983D01*
X1880D02*
X1906D01*
X1758D02*
X1844D01*
X1629D02*
X1656D01*
X1561D02*
X1586D01*
X1499D02*
X1530D01*
X1438D02*
X1464D01*
X1361D02*
X1403D01*
X1302D02*
X1332D01*
X1238D02*
X1263D01*
X1184D02*
X1201D01*
X1136D02*
X1153D01*
X1068D02*
X1101D01*
X975D02*
X1033D01*
X881D02*
X939D01*
X801D02*
X846D01*
X572D02*
X765D01*
X2019Y1010D02*
X2218D01*
X1946D02*
X1983D01*
X1880D02*
X1906D01*
X1759D02*
X1844D01*
X1629D02*
X1656D01*
X1562D02*
X1584D01*
X1499D02*
X1528D01*
X1438D02*
X1464D01*
X1361D02*
X1402D01*
X1303D02*
X1329D01*
X1238D02*
X1263D01*
X1184D02*
X1201D01*
X1136D02*
X1154D01*
X1068D02*
X1101D01*
X975D02*
X1033D01*
X881D02*
X939D01*
X801D02*
X846D01*
X572D02*
X765D01*
X2019Y1009D02*
X2218D01*
X1946D02*
X1983D01*
X1880D02*
X1906D01*
X1759D02*
X1844D01*
X1628D02*
X1655D01*
X1565D02*
X1583D01*
X1499D02*
X1527D01*
X1437D02*
X1464D01*
X1362D02*
X1402D01*
X1304D02*
X1326D01*
X1238D02*
X1264D01*
X1183D02*
X1201D01*
X1136D02*
X1154D01*
X1068D02*
X1101D01*
X975D02*
X1033D01*
X881D02*
X939D01*
X801D02*
X846D01*
X572D02*
X765D01*
X2019Y1008D02*
X2218D01*
X1947D02*
X1983D01*
X1880D02*
X1906D01*
X1759D02*
X1844D01*
X1628D02*
X1655D01*
X1567D02*
X1580D01*
X1499D02*
X1526D01*
X1436D02*
X1464D01*
X1362D02*
X1402D01*
X1306D02*
X1322D01*
X1238D02*
X1264D01*
X1183D02*
X1201D01*
X1136D02*
X1155D01*
X1068D02*
X1101D01*
X975D02*
X1033D01*
X881D02*
X939D01*
X801D02*
X846D01*
X572D02*
X765D01*
X2019Y1007D02*
X2218D01*
X1950D02*
X1983D01*
X1880D02*
X1906D01*
X1759D02*
X1784D01*
X1627D02*
X1654D01*
X1499D02*
X1524D01*
X1436D02*
X1464D01*
X1362D02*
X1401D01*
X1238D02*
X1264D01*
X1182D02*
X1201D01*
X1136D02*
X1155D01*
X1068D02*
X1101D01*
X975D02*
X1033D01*
X881D02*
X939D01*
X801D02*
X846D01*
X572D02*
X765D01*
X2019Y1007D02*
X2218D01*
X1880D02*
X1906D01*
X1759D02*
X1784D01*
X1626D02*
X1654D01*
X1499D02*
X1522D01*
X1436D02*
X1464D01*
X1362D02*
X1400D01*
X1238D02*
X1264D01*
X1182D02*
X1201D01*
X1136D02*
X1156D01*
X1068D02*
X1101D01*
X975D02*
X1033D01*
X881D02*
X939D01*
X801D02*
X846D01*
X572D02*
X765D01*
X2019Y1006D02*
X2218D01*
X1880D02*
X1906D01*
X1759D02*
X1784D01*
X1626D02*
X1654D01*
X1499D02*
X1522D01*
X1435D02*
X1464D01*
X1363D02*
X1400D01*
X1238D02*
X1264D01*
X1181D02*
X1201D01*
X1136D02*
X1156D01*
X1068D02*
X1101D01*
X975D02*
X1033D01*
X881D02*
X939D01*
X801D02*
X846D01*
X572D02*
X765D01*
X2019Y1005D02*
X2218D01*
X1880D02*
X1906D01*
X1760D02*
X1784D01*
X1625D02*
X1653D01*
X1499D02*
X1522D01*
X1435D02*
X1464D01*
X1363D02*
X1399D01*
X1238D02*
X1265D01*
X1181D02*
X1201D01*
X1136D02*
X1157D01*
X1068D02*
X1101D01*
X975D02*
X1033D01*
X881D02*
X939D01*
X801D02*
X846D01*
X572D02*
X765D01*
X2019Y1004D02*
X2218D01*
X1880D02*
X1906D01*
X1760D02*
X1784D01*
X1624D02*
X1653D01*
X1499D02*
X1523D01*
X1434D02*
X1464D01*
X1364D02*
X1398D01*
X1238D02*
X1265D01*
X1181D02*
X1201D01*
X1136D02*
X1157D01*
X1068D02*
X1101D01*
X975D02*
X1033D01*
X881D02*
X939D01*
X801D02*
X846D01*
X572D02*
X765D01*
X2019Y1003D02*
X2218D01*
X1880D02*
X1907D01*
X1761D02*
X1784D01*
X1624D02*
X1653D01*
X1499D02*
X1523D01*
X1433D02*
X1464D01*
X1364D02*
X1397D01*
X1238D02*
X1265D01*
X1181D02*
X1201D01*
X1136D02*
X1157D01*
X1068D02*
X1101D01*
X975D02*
X1033D01*
X881D02*
X939D01*
X801D02*
X846D01*
X572D02*
X765D01*
X2019Y1002D02*
X2218D01*
X1880D02*
X1907D01*
X1761D02*
X1784D01*
X1688D02*
X1725D01*
X1623D02*
X1652D01*
X1499D02*
X1524D01*
X1433D02*
X1464D01*
X1365D02*
X1397D01*
X1238D02*
X1266D01*
X1181D02*
X1201D01*
X1136D02*
X1158D01*
X1068D02*
X1101D01*
X975D02*
X1033D01*
X881D02*
X939D01*
X801D02*
X846D01*
X572D02*
X765D01*
X2019Y1001D02*
X2218D01*
X1880D02*
X1907D01*
X1761D02*
X1784D01*
X1688D02*
X1725D01*
X1623D02*
X1652D01*
X1499D02*
X1524D01*
X1432D02*
X1464D01*
X1365D02*
X1396D01*
X1238D02*
X1266D01*
X1180D02*
X1201D01*
X1136D02*
X1158D01*
X1068D02*
X1101D01*
X975D02*
X1033D01*
X881D02*
X939D01*
X801D02*
X846D01*
X572D02*
X765D01*
X2019Y1001D02*
X2218D01*
X1880D02*
X1907D01*
X1762D02*
X1784D01*
X1688D02*
X1725D01*
X1622D02*
X1651D01*
X1499D02*
X1525D01*
X1431D02*
X1464D01*
X1366D02*
X1396D01*
X1238D02*
X1266D01*
X1180D02*
X1201D01*
X1136D02*
X1158D01*
X1068D02*
X1101D01*
X975D02*
X1033D01*
X881D02*
X939D01*
X801D02*
X846D01*
X572D02*
X765D01*
X2019Y1000D02*
X2218D01*
X1880D02*
X1908D01*
X1762D02*
X1784D01*
X1687D02*
X1726D01*
X1622D02*
X1651D01*
X1499D02*
X1526D01*
X1431D02*
X1464D01*
X1366D02*
X1396D01*
X1238D02*
X1266D01*
X1179D02*
X1201D01*
X1136D02*
X1158D01*
X1068D02*
X1101D01*
X975D02*
X1033D01*
X881D02*
X939D01*
X801D02*
X846D01*
X572D02*
X765D01*
X2019Y999D02*
X2218D01*
X1880D02*
X1908D01*
X1762D02*
X1784D01*
X1687D02*
X1726D01*
X1621D02*
X1651D01*
X1499D02*
X1526D01*
X1431D02*
X1464D01*
X1367D02*
X1395D01*
X1238D02*
X1266D01*
X1179D02*
X1201D01*
X1136D02*
X1159D01*
X1068D02*
X1101D01*
X975D02*
X1033D01*
X881D02*
X939D01*
X801D02*
X846D01*
X572D02*
X765D01*
X2019Y998D02*
X2218D01*
X1880D02*
X1909D01*
X1763D02*
X1784D01*
X1687D02*
X1726D01*
X1620D02*
X1651D01*
X1499D02*
X1527D01*
X1430D02*
X1464D01*
X1367D02*
X1394D01*
X1238D02*
X1267D01*
X1178D02*
X1201D01*
X1136D02*
X1159D01*
X1068D02*
X1101D01*
X975D02*
X1033D01*
X881D02*
X939D01*
X801D02*
X846D01*
X572D02*
X765D01*
X2019Y997D02*
X2218D01*
X1880D02*
X1909D01*
X1763D02*
X1784D01*
X1687D02*
X1727D01*
X1619D02*
X1651D01*
X1499D02*
X1527D01*
X1430D02*
X1464D01*
X1368D02*
X1394D01*
X1238D02*
X1267D01*
X1136D02*
X1201D01*
X1068D02*
X1101D01*
X975D02*
X1033D01*
X881D02*
X939D01*
X801D02*
X846D01*
X572D02*
X765D01*
X2019Y996D02*
X2218D01*
X1880D02*
X1910D01*
X1764D02*
X1784D01*
X1686D02*
X1727D01*
X1618D02*
X1651D01*
X1499D02*
X1528D01*
X1429D02*
X1464D01*
X1368D02*
X1393D01*
X1238D02*
X1268D01*
X1136D02*
X1201D01*
X1068D02*
X1101D01*
X975D02*
X1033D01*
X881D02*
X939D01*
X801D02*
X846D01*
X572D02*
X765D01*
X2019Y996D02*
X2218D01*
X1880D02*
X1910D01*
X1764D02*
X1784D01*
X1686D02*
X1727D01*
X1617D02*
X1650D01*
X1499D02*
X1528D01*
X1429D02*
X1464D01*
X1368D02*
X1392D01*
X1238D02*
X1268D01*
X1136D02*
X1201D01*
X1068D02*
X1101D01*
X975D02*
X1033D01*
X881D02*
X939D01*
X801D02*
X846D01*
X572D02*
X765D01*
X2019Y995D02*
X2218D01*
X1880D02*
X1911D01*
X1764D02*
X1784D01*
X1686D02*
X1727D01*
X1617D02*
X1650D01*
X1499D02*
X1529D01*
X1428D02*
X1464D01*
X1368D02*
X1391D01*
X1238D02*
X1269D01*
X1136D02*
X1201D01*
X1068D02*
X1101D01*
X975D02*
X1033D01*
X881D02*
X939D01*
X801D02*
X846D01*
X572D02*
X765D01*
X2019Y994D02*
X2218D01*
X1880D02*
X1911D01*
X1765D02*
X1784D01*
X1686D02*
X1728D01*
X1617D02*
X1649D01*
X1499D02*
X1530D01*
X1427D02*
X1464D01*
X1369D02*
X1391D01*
X1238D02*
X1270D01*
X1136D02*
X1201D01*
X1068D02*
X1101D01*
X975D02*
X1033D01*
X881D02*
X939D01*
X801D02*
X846D01*
X572D02*
X765D01*
X2019Y993D02*
X2218D01*
X1880D02*
X1912D01*
X1765D02*
X1784D01*
X1686D02*
X1728D01*
X1615D02*
X1649D01*
X1499D02*
X1531D01*
X1427D02*
X1464D01*
X1369D02*
X1391D01*
X1238D02*
X1270D01*
X1136D02*
X1201D01*
X1068D02*
X1101D01*
X975D02*
X1033D01*
X881D02*
X939D01*
X801D02*
X846D01*
X572D02*
X765D01*
X2019Y992D02*
X2218D01*
X1880D02*
X1912D01*
X1765D02*
X1784D01*
X1686D02*
X1728D01*
X1614D02*
X1649D01*
X1499D02*
X1532D01*
X1426D02*
X1464D01*
X1370D02*
X1390D01*
X1238D02*
X1271D01*
X1136D02*
X1201D01*
X1068D02*
X1101D01*
X975D02*
X1033D01*
X881D02*
X939D01*
X801D02*
X846D01*
X572D02*
X765D01*
X2019Y991D02*
X2218D01*
X1880D02*
X1913D01*
X1765D02*
X1784D01*
X1685D02*
X1729D01*
X1613D02*
X1648D01*
X1499D02*
X1533D01*
X1425D02*
X1464D01*
X1370D02*
X1390D01*
X1238D02*
X1272D01*
X1136D02*
X1201D01*
X1068D02*
X1101D01*
X975D02*
X1033D01*
X881D02*
X939D01*
X801D02*
X846D01*
X572D02*
X765D01*
X2019Y990D02*
X2218D01*
X1880D02*
X1914D01*
X1765D02*
X1784D01*
X1685D02*
X1729D01*
X1612D02*
X1648D01*
X1499D02*
X1534D01*
X1425D02*
X1464D01*
X1370D02*
X1389D01*
X1238D02*
X1272D01*
X1136D02*
X1201D01*
X1068D02*
X1101D01*
X975D02*
X1033D01*
X881D02*
X939D01*
X801D02*
X846D01*
X572D02*
X765D01*
X2019Y990D02*
X2218D01*
X1880D02*
X1915D01*
X1766D02*
X1784D01*
X1685D02*
X1729D01*
X1612D02*
X1648D01*
X1499D02*
X1535D01*
X1425D02*
X1464D01*
X1368D02*
X1388D01*
X1238D02*
X1273D01*
X1136D02*
X1201D01*
X1068D02*
X1101D01*
X975D02*
X1033D01*
X881D02*
X939D01*
X801D02*
X846D01*
X572D02*
X765D01*
X2019Y989D02*
X2218D01*
X1880D02*
X1916D01*
X1766D02*
X1784D01*
X1684D02*
X1730D01*
X1611D02*
X1647D01*
X1499D02*
X1536D01*
X1424D02*
X1464D01*
X1367D02*
X1387D01*
X1238D02*
X1274D01*
X1136D02*
X1201D01*
X1068D02*
X1101D01*
X975D02*
X1033D01*
X881D02*
X939D01*
X801D02*
X846D01*
X572D02*
X765D01*
X2019Y988D02*
X2218D01*
X1880D02*
X1917D01*
X1766D02*
X1784D01*
X1684D02*
X1730D01*
X1609D02*
X1647D01*
X1499D02*
X1537D01*
X1424D02*
X1464D01*
X1365D02*
X1387D01*
X1238D02*
X1275D01*
X1136D02*
X1201D01*
X1068D02*
X1101D01*
X975D02*
X1033D01*
X881D02*
X939D01*
X801D02*
X846D01*
X572D02*
X765D01*
X2019Y987D02*
X2218D01*
X1880D02*
X1918D01*
X1767D02*
X1784D01*
X1684D02*
X1730D01*
X1608D02*
X1646D01*
X1499D02*
X1538D01*
X1423D02*
X1464D01*
X1363D02*
X1386D01*
X1238D02*
X1276D01*
X1136D02*
X1201D01*
X1068D02*
X1101D01*
X975D02*
X1033D01*
X881D02*
X939D01*
X801D02*
X846D01*
X572D02*
X765D01*
X2019Y986D02*
X2218D01*
X1880D02*
X1918D01*
X1767D02*
X1784D01*
X1684D02*
X1731D01*
X1607D02*
X1646D01*
X1499D02*
X1539D01*
X1422D02*
X1464D01*
X1362D02*
X1385D01*
X1238D02*
X1277D01*
X1136D02*
X1201D01*
X1068D02*
X1101D01*
X975D02*
X1033D01*
X881D02*
X939D01*
X801D02*
X846D01*
X572D02*
X765D01*
X2019Y985D02*
X2218D01*
X1880D02*
X1920D01*
X1767D02*
X1784D01*
X1683D02*
X1731D01*
X1606D02*
X1646D01*
X1499D02*
X1541D01*
X1422D02*
X1464D01*
X1359D02*
X1385D01*
X1238D02*
X1278D01*
X1136D02*
X1201D01*
X1068D02*
X1101D01*
X975D02*
X1033D01*
X881D02*
X939D01*
X801D02*
X846D01*
X572D02*
X765D01*
X2019Y984D02*
X2218D01*
X1880D02*
X1921D01*
X1768D02*
X1784D01*
X1683D02*
X1731D01*
X1605D02*
X1646D01*
X1499D02*
X1543D01*
X1421D02*
X1464D01*
X1357D02*
X1385D01*
X1238D02*
X1279D01*
X1136D02*
X1201D01*
X1068D02*
X1101D01*
X975D02*
X1033D01*
X881D02*
X939D01*
X801D02*
X846D01*
X572D02*
X765D01*
X2019Y984D02*
X2218D01*
X1880D02*
X1923D01*
X1768D02*
X1784D01*
X1683D02*
X1731D01*
X1603D02*
X1646D01*
X1499D02*
X1544D01*
X1420D02*
X1464D01*
X1355D02*
X1384D01*
X1238D02*
X1280D01*
X1136D02*
X1201D01*
X1068D02*
X1101D01*
X975D02*
X1033D01*
X881D02*
X939D01*
X801D02*
X846D01*
X572D02*
X765D01*
X2019Y983D02*
X2218D01*
X1880D02*
X1924D01*
X1769D02*
X1784D01*
X1682D02*
X1731D01*
X1601D02*
X1646D01*
X1499D02*
X1546D01*
X1420D02*
X1464D01*
X1353D02*
X1384D01*
X1238D02*
X1282D01*
X1136D02*
X1201D01*
X1068D02*
X1101D01*
X975D02*
X1033D01*
X881D02*
X939D01*
X801D02*
X846D01*
X572D02*
X765D01*
X2019Y982D02*
X2218D01*
X1880D02*
X1926D01*
X1769D02*
X1784D01*
X1682D02*
X1731D01*
X1600D02*
X1645D01*
X1499D02*
X1548D01*
X1419D02*
X1464D01*
X1351D02*
X1383D01*
X1238D02*
X1283D01*
X1136D02*
X1201D01*
X1068D02*
X1101D01*
X975D02*
X1033D01*
X881D02*
X939D01*
X801D02*
X846D01*
X572D02*
X765D01*
X2019Y981D02*
X2218D01*
X1880D02*
X1927D01*
X1769D02*
X1784D01*
X1682D02*
X1731D01*
X1600D02*
X1645D01*
X1499D02*
X1548D01*
X1419D02*
X1464D01*
X1350D02*
X1382D01*
X1238D02*
X1284D01*
X1136D02*
X1201D01*
X1068D02*
X1101D01*
X975D02*
X1033D01*
X881D02*
X939D01*
X801D02*
X846D01*
X572D02*
X765D01*
X2179Y980D02*
X2218D01*
X572D02*
X609D01*
X2179Y979D02*
X2218D01*
X572D02*
X609D01*
X2179Y979D02*
X2218D01*
X572D02*
X609D01*
X2179Y978D02*
X2218D01*
X572D02*
X609D01*
X2179Y977D02*
X2218D01*
X572D02*
X609D01*
X2179Y976D02*
X2218D01*
X572D02*
X609D01*
X2179Y975D02*
X2218D01*
X572D02*
X609D01*
X2179Y974D02*
X2218D01*
X572D02*
X609D01*
X2179Y973D02*
X2218D01*
X572D02*
X609D01*
X2179Y973D02*
X2218D01*
X572D02*
X609D01*
X2179Y972D02*
X2218D01*
X572D02*
X609D01*
X2179Y971D02*
X2218D01*
X572D02*
X609D01*
X2179Y970D02*
X2218D01*
X572D02*
X609D01*
X2179Y969D02*
X2218D01*
X572D02*
X609D01*
X2179Y968D02*
X2218D01*
X572D02*
X609D01*
X2179Y967D02*
X2218D01*
X572D02*
X609D01*
X2179Y967D02*
X2218D01*
X572D02*
X609D01*
X2179Y966D02*
X2218D01*
X572D02*
X609D01*
X2179Y965D02*
X2218D01*
X572D02*
X609D01*
X2179Y964D02*
X2218D01*
X572D02*
X609D01*
X2179Y963D02*
X2218D01*
X572D02*
X609D01*
X2179Y962D02*
X2218D01*
X572D02*
X609D01*
X2179Y961D02*
X2218D01*
X572D02*
X609D01*
X2179Y961D02*
X2218D01*
X572D02*
X609D01*
X2179Y960D02*
X2218D01*
X572D02*
X609D01*
X2179Y959D02*
X2218D01*
X572D02*
X609D01*
X2179Y958D02*
X2218D01*
X572D02*
X609D01*
X2179Y957D02*
X2218D01*
X572D02*
X609D01*
X2179Y956D02*
X2218D01*
X572D02*
X609D01*
X2179Y956D02*
X2218D01*
X572D02*
X609D01*
X2179Y955D02*
X2218D01*
X572D02*
X609D01*
X2179Y954D02*
X2218D01*
X572D02*
X609D01*
X2179Y953D02*
X2218D01*
X572D02*
X609D01*
X2179Y952D02*
X2218D01*
X572D02*
X609D01*
X2179Y951D02*
X2218D01*
X572D02*
X609D01*
X2179Y950D02*
X2218D01*
X572D02*
X609D01*
X2179Y950D02*
X2218D01*
X572D02*
X609D01*
X2179Y949D02*
X2218D01*
X572D02*
X609D01*
X2179Y948D02*
X2218D01*
X572D02*
X609D01*
X2179Y947D02*
X2218D01*
X572D02*
X609D01*
X2179Y946D02*
X2218D01*
X572D02*
X609D01*
X2179Y945D02*
X2218D01*
X572D02*
X609D01*
X2179Y945D02*
X2218D01*
X572D02*
X609D01*
X2179Y944D02*
X2218D01*
X572D02*
X609D01*
X2179Y943D02*
X2218D01*
X572D02*
X609D01*
X2179Y942D02*
X2218D01*
X572D02*
X609D01*
X2179Y941D02*
X2218D01*
X572D02*
X609D01*
X2179Y940D02*
X2218D01*
X572D02*
X609D01*
X2179Y939D02*
X2218D01*
X572D02*
X609D01*
X2179Y939D02*
X2218D01*
X572D02*
X609D01*
X2179Y938D02*
X2218D01*
X2093D02*
X2104D01*
X678D02*
X688D01*
X572D02*
X609D01*
X2179Y937D02*
X2218D01*
X2089D02*
X2107D01*
X674D02*
X693D01*
X572D02*
X609D01*
X2179Y936D02*
X2218D01*
X2087D02*
X2110D01*
X671D02*
X695D01*
X572D02*
X609D01*
X2179Y935D02*
X2218D01*
X2084D02*
X2112D01*
X670D02*
X697D01*
X572D02*
X609D01*
X2179Y934D02*
X2218D01*
X2082D02*
X2114D01*
X668D02*
X699D01*
X572D02*
X609D01*
X2179Y933D02*
X2218D01*
X2081D02*
X2116D01*
X666D02*
X700D01*
X572D02*
X609D01*
X2179Y933D02*
X2218D01*
X2080D02*
X2116D01*
X665D02*
X702D01*
X572D02*
X609D01*
X2179Y932D02*
X2218D01*
X2080D02*
X2117D01*
X665D02*
X703D01*
X572D02*
X609D01*
X2179Y931D02*
X2218D01*
X2080D02*
X2119D01*
X665D02*
X704D01*
X572D02*
X609D01*
X2179Y930D02*
X2218D01*
X2081D02*
X2120D01*
X666D02*
X705D01*
X572D02*
X609D01*
X2179Y929D02*
X2218D01*
X2082D02*
X2121D01*
X667D02*
X706D01*
X572D02*
X609D01*
X2179Y928D02*
X2218D01*
X2082D02*
X2122D01*
X668D02*
X707D01*
X572D02*
X609D01*
X2179Y928D02*
X2218D01*
X2083D02*
X2122D01*
X669D02*
X708D01*
X572D02*
X609D01*
X2179Y927D02*
X2218D01*
X2084D02*
X2123D01*
X670D02*
X708D01*
X572D02*
X609D01*
X2179Y926D02*
X2218D01*
X2085D02*
X2124D01*
X671D02*
X709D01*
X572D02*
X609D01*
X2179Y925D02*
X2218D01*
X2086D02*
X2124D01*
X671D02*
X710D01*
X572D02*
X609D01*
X2179Y924D02*
X2218D01*
X2087D02*
X2125D01*
X2071D02*
X2072D01*
X672D02*
X711D01*
X656D02*
X657D01*
X572D02*
X609D01*
X2179Y923D02*
X2218D01*
X2088D02*
X2126D01*
X2071D02*
X2073D01*
X673D02*
X711D01*
X656D02*
X658D01*
X572D02*
X609D01*
X2179Y922D02*
X2218D01*
X2088D02*
X2126D01*
X2070D02*
X2074D01*
X674D02*
X711D01*
X655D02*
X659D01*
X572D02*
X609D01*
X2179Y922D02*
X2218D01*
X2089D02*
X2127D01*
X2070D02*
X2075D01*
X675D02*
X712D01*
X654D02*
X660D01*
X572D02*
X609D01*
X2179Y921D02*
X2218D01*
X2090D02*
X2128D01*
X2069D02*
X2076D01*
X676D02*
X712D01*
X654D02*
X660D01*
X572D02*
X609D01*
X2179Y920D02*
X2218D01*
X2091D02*
X2128D01*
X2069D02*
X2076D01*
X677D02*
X713D01*
X654D02*
X661D01*
X572D02*
X609D01*
X2179Y919D02*
X2218D01*
X2092D02*
X2128D01*
X2068D02*
X2077D01*
X677D02*
X713D01*
X654D02*
X662D01*
X572D02*
X609D01*
X2179Y918D02*
X2218D01*
X2093D02*
X2128D01*
X2068D02*
X2078D01*
X678D02*
X713D01*
X654D02*
X663D01*
X572D02*
X609D01*
X2179Y917D02*
X2218D01*
X2093D02*
X2128D01*
X2068D02*
X2079D01*
X679D02*
X714D01*
X653D02*
X664D01*
X572D02*
X609D01*
X2179Y916D02*
X2218D01*
X2094D02*
X2129D01*
X2067D02*
X2080D01*
X680D02*
X714D01*
X653D02*
X665D01*
X572D02*
X609D01*
X2179Y916D02*
X2218D01*
X2095D02*
X2129D01*
X2067D02*
X2081D01*
X681D02*
X715D01*
X652D02*
X665D01*
X572D02*
X609D01*
X2179Y915D02*
X2218D01*
X2096D02*
X2129D01*
X2067D02*
X2082D01*
X682D02*
X715D01*
X652D02*
X666D01*
X572D02*
X609D01*
X2179Y914D02*
X2218D01*
X2097D02*
X2130D01*
X2066D02*
X2082D01*
X683D02*
X715D01*
X652D02*
X667D01*
X572D02*
X609D01*
X2179Y913D02*
X2218D01*
X2098D02*
X2130D01*
X2066D02*
X2083D01*
X683D02*
X715D01*
X652D02*
X668D01*
X572D02*
X609D01*
X2179Y912D02*
X2218D01*
X2099D02*
X2130D01*
X2066D02*
X2084D01*
X684D02*
X716D01*
X651D02*
X669D01*
X572D02*
X609D01*
X2179Y911D02*
X2218D01*
X2099D02*
X2130D01*
X2066D02*
X2085D01*
X685D02*
X716D01*
X651D02*
X670D01*
X572D02*
X609D01*
X2179Y910D02*
X2218D01*
X2100D02*
X2130D01*
X2065D02*
X2086D01*
X686D02*
X716D01*
X651D02*
X671D01*
X572D02*
X609D01*
X2179Y910D02*
X2218D01*
X2101D02*
X2130D01*
X2065D02*
X2087D01*
X687D02*
X716D01*
X651D02*
X671D01*
X572D02*
X609D01*
X2179Y909D02*
X2218D01*
X2102D02*
X2131D01*
X2065D02*
X2088D01*
X688D02*
X716D01*
X651D02*
X672D01*
X572D02*
X609D01*
X2179Y908D02*
X2218D01*
X2103D02*
X2131D01*
X2065D02*
X2088D01*
X688D02*
X716D01*
X651D02*
X673D01*
X572D02*
X609D01*
X2178Y907D02*
X2218D01*
X2104D02*
X2131D01*
X2065D02*
X2089D01*
X689D02*
X716D01*
X651D02*
X674D01*
X572D02*
X609D01*
X2178Y906D02*
X2218D01*
X2105D02*
X2131D01*
X2065D02*
X2090D01*
X690D02*
X716D01*
X651D02*
X675D01*
X572D02*
X609D01*
X2178Y905D02*
X2218D01*
X2105D02*
X2131D01*
X2065D02*
X2091D01*
X691D02*
X716D01*
X651D02*
X676D01*
X572D02*
X609D01*
X2178Y905D02*
X2218D01*
X2106D02*
X2131D01*
X2065D02*
X2092D01*
X692D02*
X716D01*
X651D02*
X677D01*
X572D02*
X609D01*
X2178Y904D02*
X2218D01*
X2107D02*
X2131D01*
X2065D02*
X2093D01*
X693D02*
X716D01*
X651D02*
X677D01*
X572D02*
X610D01*
X2178Y903D02*
X2218D01*
X2108D02*
X2131D01*
X2065D02*
X2093D01*
X694D02*
X716D01*
X651D02*
X678D01*
X572D02*
X610D01*
X2178Y902D02*
X2218D01*
X2109D02*
X2131D01*
X2065D02*
X2094D01*
X694D02*
X716D01*
X651D02*
X679D01*
X572D02*
X610D01*
X2178Y901D02*
X2218D01*
X2110D02*
X2130D01*
X2065D02*
X2095D01*
X695D02*
X716D01*
X651D02*
X680D01*
X572D02*
X610D01*
X2178Y900D02*
X2218D01*
X2111D02*
X2130D01*
X2066D02*
X2096D01*
X696D02*
X716D01*
X651D02*
X681D01*
X572D02*
X610D01*
X2178Y899D02*
X2218D01*
X2111D02*
X2130D01*
X2066D02*
X2097D01*
X697D02*
X716D01*
X651D02*
X682D01*
X572D02*
X610D01*
X2178Y899D02*
X2218D01*
X2112D02*
X2130D01*
X2066D02*
X2098D01*
X698D02*
X716D01*
X651D02*
X683D01*
X572D02*
X610D01*
X2178Y898D02*
X2218D01*
X2113D02*
X2130D01*
X2066D02*
X2099D01*
X699D02*
X715D01*
X652D02*
X683D01*
X572D02*
X610D01*
X2178Y897D02*
X2218D01*
X2114D02*
X2129D01*
X2066D02*
X2099D01*
X700D02*
X715D01*
X652D02*
X684D01*
X572D02*
X611D01*
X2178Y896D02*
X2218D01*
X2115D02*
X2129D01*
X2067D02*
X2100D01*
X700D02*
X715D01*
X652D02*
X685D01*
X572D02*
X611D01*
X2178Y895D02*
X2218D01*
X2116D02*
X2129D01*
X2067D02*
X2101D01*
X701D02*
X714D01*
X652D02*
X686D01*
X572D02*
X611D01*
X2177Y894D02*
X2218D01*
X2116D02*
X2129D01*
X2067D02*
X2102D01*
X702D02*
X714D01*
X653D02*
X687D01*
X572D02*
X611D01*
X2177Y893D02*
X2218D01*
X2117D02*
X2128D01*
X2068D02*
X2103D01*
X703D02*
X714D01*
X653D02*
X688D01*
X572D02*
X611D01*
X2177Y893D02*
X2218D01*
X2118D02*
X2128D01*
X2068D02*
X2104D01*
X704D02*
X713D01*
X654D02*
X688D01*
X572D02*
X612D01*
X2177Y892D02*
X2218D01*
X2119D02*
X2128D01*
X2068D02*
X2105D01*
X705D02*
X713D01*
X654D02*
X689D01*
X572D02*
X612D01*
X2177Y891D02*
X2218D01*
X2120D02*
X2128D01*
X2069D02*
X2105D01*
X705D02*
X712D01*
X654D02*
X690D01*
X572D02*
X612D01*
X2176Y890D02*
X2217D01*
X2121D02*
X2127D01*
X2069D02*
X2106D01*
X706D02*
X712D01*
X654D02*
X691D01*
X572D02*
X612D01*
X2176Y889D02*
X2217D01*
X2122D02*
X2127D01*
X2070D02*
X2107D01*
X707D02*
X711D01*
X655D02*
X692D01*
X572D02*
X613D01*
X2176Y888D02*
X2217D01*
X2122D02*
X2126D01*
X2071D02*
X2108D01*
X708D02*
X711D01*
X655D02*
X693D01*
X572D02*
X613D01*
X2175Y888D02*
X2217D01*
X2123D02*
X2126D01*
X2071D02*
X2109D01*
X709D02*
X711D01*
X656D02*
X694D01*
X572D02*
X613D01*
X2175Y887D02*
X2217D01*
X2071D02*
X2110D01*
X656D02*
X694D01*
X572D02*
X614D01*
X2175Y886D02*
X2216D01*
X2072D02*
X2111D01*
X657D02*
X695D01*
X572D02*
X614D01*
X2174Y885D02*
X2216D01*
X2072D02*
X2111D01*
X658D02*
X696D01*
X573D02*
X614D01*
X2174Y884D02*
X2216D01*
X2073D02*
X2112D01*
X659D02*
X697D01*
X573D02*
X614D01*
X2174Y883D02*
X2216D01*
X2074D02*
X2113D01*
X660D02*
X698D01*
X573D02*
X614D01*
X2173Y882D02*
X2216D01*
X2075D02*
X2114D01*
X660D02*
X699D01*
X573D02*
X614D01*
X2173Y882D02*
X2215D01*
X2076D02*
X2115D01*
X661D02*
X700D01*
X573D02*
X615D01*
X2173Y881D02*
X2215D01*
X2076D02*
X2116D01*
X662D02*
X700D01*
X574D02*
X615D01*
X2173Y880D02*
X2215D01*
X2077D02*
X2116D01*
X663D02*
X701D01*
X574D02*
X616D01*
X2173Y879D02*
X2215D01*
X2079D02*
X2116D01*
X664D02*
X702D01*
X574D02*
X616D01*
X2172Y878D02*
X2214D01*
X2080D02*
X2116D01*
X665D02*
X701D01*
X575D02*
X616D01*
X2172Y877D02*
X2214D01*
X2082D02*
X2115D01*
X666D02*
X700D01*
X575D02*
X617D01*
X2171Y877D02*
X2214D01*
X2083D02*
X2113D01*
X668D02*
X699D01*
X575D02*
X617D01*
X2171Y876D02*
X2213D01*
X2085D02*
X2111D01*
X670D02*
X697D01*
X575D02*
X618D01*
X2170Y875D02*
X2213D01*
X2087D02*
X2110D01*
X672D02*
X694D01*
X575D02*
X618D01*
X2170Y874D02*
X2213D01*
X2090D02*
X2106D01*
X675D02*
X692D01*
X575D02*
X619D01*
X2169Y873D02*
X2213D01*
X2094D02*
X2102D01*
X680D02*
X687D01*
X575D02*
X619D01*
X2169Y872D02*
X2213D01*
X576D02*
X620D01*
X2168Y871D02*
X2213D01*
X576D02*
X620D01*
X2168Y871D02*
X2212D01*
X576D02*
X620D01*
X2167Y870D02*
X2212D01*
X577D02*
X621D01*
X2167Y869D02*
X2212D01*
X577D02*
X621D01*
X2167Y868D02*
X2211D01*
X577D02*
X622D01*
X2166Y867D02*
X2211D01*
X578D02*
X622D01*
X2166Y866D02*
X2211D01*
X578D02*
X623D01*
X2165Y865D02*
X2210D01*
X579D02*
X624D01*
X2164Y865D02*
X2210D01*
X579D02*
X624D01*
X2164Y864D02*
X2209D01*
X579D02*
X625D01*
X2163Y863D02*
X2209D01*
X580D02*
X626D01*
X2162Y862D02*
X2208D01*
X580D02*
X626D01*
X2161Y861D02*
X2208D01*
X581D02*
X626D01*
X2161Y860D02*
X2208D01*
X581D02*
X627D01*
X2161Y859D02*
X2207D01*
X581D02*
X628D01*
X2160Y859D02*
X2207D01*
X581D02*
X629D01*
X2159Y858D02*
X2207D01*
X582D02*
X630D01*
X2158Y857D02*
X2207D01*
X582D02*
X630D01*
X2157Y856D02*
X2206D01*
X583D02*
X631D01*
X2156Y855D02*
X2206D01*
X583D02*
X632D01*
X2156Y854D02*
X2205D01*
X584D02*
X632D01*
X2156Y854D02*
X2205D01*
X584D02*
X633D01*
X2155Y853D02*
X2204D01*
X585D02*
X634D01*
X2154Y852D02*
X2203D01*
X585D02*
X635D01*
X2152Y851D02*
X2203D01*
X586D02*
X636D01*
X2151Y850D02*
X2202D01*
X586D02*
X637D01*
X2150Y849D02*
X2202D01*
X586D02*
X637D01*
X2150Y848D02*
X2201D01*
X587D02*
X639D01*
X2149Y848D02*
X2201D01*
X587D02*
X640D01*
X2148Y847D02*
X2201D01*
X588D02*
X641D01*
X2146Y846D02*
X2200D01*
X588D02*
X642D01*
X2145Y845D02*
X2200D01*
X589D02*
X643D01*
X2145Y844D02*
X2199D01*
X590D02*
X644D01*
X2143Y843D02*
X2198D01*
X590D02*
X645D01*
X2142Y842D02*
X2198D01*
X591D02*
X647D01*
X2140Y842D02*
X2197D01*
X592D02*
X648D01*
X2139Y841D02*
X2196D01*
X592D02*
X649D01*
X2138Y840D02*
X2196D01*
X592D02*
X651D01*
X2136Y839D02*
X2195D01*
X593D02*
X653D01*
X2134Y838D02*
X2195D01*
X594D02*
X654D01*
X2133Y837D02*
X2194D01*
X594D02*
X655D01*
X2131Y837D02*
X2194D01*
X595D02*
X657D01*
X2129Y836D02*
X2193D01*
X596D02*
X660D01*
X2128Y835D02*
X2192D01*
X597D02*
X661D01*
X2125Y834D02*
X2191D01*
X597D02*
X664D01*
X2122Y833D02*
X2190D01*
X598D02*
X665D01*
X2120Y832D02*
X2190D01*
X598D02*
X669D01*
X2117Y831D02*
X2190D01*
X599D02*
X671D01*
X2113Y831D02*
X2189D01*
X600D02*
X675D01*
X2109Y830D02*
X2188D01*
X601D02*
X680D01*
X2100Y829D02*
X2187D01*
X602D02*
X688D01*
X603Y828D02*
X2186D01*
X603Y827D02*
X2185D01*
X603Y826D02*
X2184D01*
X604Y826D02*
X2184D01*
X605Y825D02*
X2183D01*
X606Y824D02*
X2182D01*
X607Y823D02*
X2181D01*
X609Y822D02*
X2180D01*
X609Y821D02*
X2179D01*
X610Y820D02*
X2178D01*
X611Y820D02*
X2178D01*
X612Y819D02*
X2177D01*
X613Y818D02*
X2176D01*
X614Y817D02*
X2174D01*
X615Y816D02*
X2173D01*
X616Y815D02*
X2173D01*
X617Y814D02*
X2172D01*
X618Y814D02*
X2170D01*
X620Y813D02*
X2169D01*
X620Y812D02*
X2168D01*
X621Y811D02*
X2167D01*
X623Y810D02*
X2166D01*
X624Y809D02*
X2164D01*
X626Y808D02*
X2163D01*
X627Y808D02*
X2161D01*
X628Y807D02*
X2161D01*
X630Y806D02*
X2159D01*
X631Y805D02*
X2157D01*
X632Y804D02*
X2156D01*
X634Y803D02*
X2155D01*
X636Y803D02*
X2153D01*
X637Y802D02*
X2151D01*
X639Y801D02*
X2150D01*
X641Y800D02*
X2148D01*
X643Y799D02*
X2145D01*
X645Y798D02*
X2144D01*
X647Y797D02*
X2142D01*
X649Y797D02*
X2139D01*
X652Y796D02*
X2137D01*
X654Y795D02*
X2134D01*
X657Y794D02*
X2132D01*
X660Y793D02*
X2128D01*
X663Y792D02*
X2126D01*
X667Y791D02*
X2122D01*
X671Y791D02*
X2117D01*
X677Y790D02*
X2111D01*
D112*
X4825Y2286D02*
X4766D01*
Y2326D01*
Y2345D02*
X4806D01*
X4825Y2365D01*
X4806Y2385D01*
X4766D01*
X4796D01*
Y2345D01*
X4816Y2445D02*
X4825Y2435D01*
Y2415D01*
X4816Y2405D01*
X4806D01*
X4796Y2415D01*
Y2435D01*
X4786Y2445D01*
X4776D01*
X4766Y2435D01*
Y2415D01*
X4776Y2405D01*
X4825Y2504D02*
Y2464D01*
X4766D01*
Y2504D01*
X4796Y2464D02*
Y2484D01*
X4766Y2524D02*
X4825D01*
Y2554D01*
X4816Y2564D01*
X4796D01*
X4786Y2554D01*
Y2524D01*
Y2544D02*
X4766Y2564D01*
X4739Y2342D02*
Y2382D01*
Y2362D01*
X4680D01*
X4739Y2431D02*
Y2411D01*
X4730Y2401D01*
X4690D01*
X4680Y2411D01*
Y2431D01*
X4690Y2441D01*
X4730D01*
X4739Y2431D01*
X4680Y2461D02*
X4739D01*
Y2491D01*
X4730Y2501D01*
X4710D01*
X4700Y2491D01*
Y2461D01*
X4745Y1607D02*
X4686D01*
Y1637D01*
X4696Y1647D01*
X4706D01*
X4716Y1637D01*
Y1607D01*
Y1637D01*
X4726Y1647D01*
X4736D01*
X4745Y1637D01*
Y1607D01*
Y1696D02*
Y1676D01*
X4736Y1666D01*
X4696D01*
X4686Y1676D01*
Y1696D01*
X4696Y1706D01*
X4736D01*
X4745Y1696D01*
Y1726D02*
Y1766D01*
Y1746D01*
X4686D01*
X4745Y1785D02*
Y1825D01*
Y1805D01*
X4686D01*
X4745Y1875D02*
Y1855D01*
X4736Y1845D01*
X4696D01*
X4686Y1855D01*
Y1875D01*
X4696Y1885D01*
X4736D01*
X4745Y1875D01*
X4686Y1904D02*
X4745D01*
X4726Y1924D01*
X4745Y1944D01*
X4686D01*
X4618Y172D02*
X4627Y162D01*
Y142D01*
X4618Y132D01*
X4578D01*
X4568Y142D01*
Y162D01*
X4578Y172D01*
X4568Y191D02*
X4608D01*
X4627Y211D01*
X4608Y231D01*
X4568D01*
X4598D01*
Y191D01*
X4568Y251D02*
X4627D01*
X4608Y271D01*
X4627Y291D01*
X4568D01*
X4627Y370D02*
X4568D01*
Y400D01*
X4578Y410D01*
X4588D01*
X4598Y400D01*
Y370D01*
Y400D01*
X4608Y410D01*
X4618D01*
X4627Y400D01*
Y370D01*
Y459D02*
Y439D01*
X4618Y429D01*
X4578D01*
X4568Y439D01*
Y459D01*
X4578Y469D01*
X4618D01*
X4627Y459D01*
Y489D02*
Y529D01*
Y509D01*
X4568D01*
X4627Y548D02*
Y588D01*
Y568D01*
X4568D01*
X4627Y638D02*
Y618D01*
X4618Y608D01*
X4578D01*
X4568Y618D01*
Y638D01*
X4578Y647D01*
X4618D01*
X4627Y638D01*
X4568Y667D02*
X4627D01*
X4608Y687D01*
X4627Y707D01*
X4568D01*
X4618Y959D02*
X4627Y949D01*
Y929D01*
X4618Y919D01*
X4578D01*
X4568Y929D01*
Y949D01*
X4578Y959D01*
X4568Y978D02*
X4608D01*
X4627Y998D01*
X4608Y1018D01*
X4568D01*
X4598D01*
Y978D01*
X4568Y1038D02*
X4627D01*
X4608Y1058D01*
X4627Y1078D01*
X4568D01*
X4627Y1157D02*
Y1197D01*
Y1177D01*
X4568D01*
X4627Y1246D02*
Y1226D01*
X4618Y1216D01*
X4578D01*
X4568Y1226D01*
Y1246D01*
X4578Y1256D01*
X4618D01*
X4627Y1246D01*
X4568Y1276D02*
X4627D01*
Y1306D01*
X4618Y1316D01*
X4598D01*
X4588Y1306D01*
Y1276D01*
X918Y2797D02*
X958D01*
Y2738D01*
X918D01*
X958Y2768D02*
X938D01*
X899Y2738D02*
Y2797D01*
X859Y2738D01*
Y2797D01*
X839D02*
Y2738D01*
X809D01*
X799Y2748D01*
Y2788D01*
X809Y2797D01*
X839D01*
X740Y2788D02*
X750Y2797D01*
X770D01*
X780Y2788D01*
Y2778D01*
X770Y2768D01*
X750D01*
X740Y2758D01*
Y2748D01*
X750Y2738D01*
X770D01*
X780Y2748D01*
X720Y2797D02*
X680D01*
X700D01*
Y2738D01*
X631Y2797D02*
X651D01*
X661Y2788D01*
Y2748D01*
X651Y2738D01*
X631D01*
X621Y2748D01*
Y2788D01*
X631Y2797D01*
X601Y2738D02*
Y2797D01*
X571D01*
X561Y2788D01*
Y2768D01*
X571Y2758D01*
X601D01*
X502Y2788D02*
X512Y2797D01*
X532D01*
X542Y2788D01*
Y2778D01*
X532Y2768D01*
X512D01*
X502Y2758D01*
Y2748D01*
X512Y2738D01*
X532D01*
X542Y2748D01*
X3985Y2846D02*
Y2787D01*
Y2817D01*
X3945D01*
Y2846D01*
Y2787D01*
X3886Y2846D02*
X3926D01*
Y2787D01*
X3886D01*
X3926Y2817D02*
X3906D01*
X3866Y2787D02*
Y2827D01*
X3846Y2846D01*
X3826Y2827D01*
Y2787D01*
Y2817D01*
X3866D01*
X3807Y2846D02*
X3767D01*
X3787D01*
Y2787D01*
X3707Y2846D02*
X3747D01*
Y2787D01*
X3707D01*
X3747Y2817D02*
X3727D01*
X3688Y2787D02*
Y2846D01*
X3658D01*
X3648Y2837D01*
Y2817D01*
X3658Y2807D01*
X3688D01*
X3668D02*
X3648Y2787D01*
X4099Y2761D02*
X4059D01*
X4079D01*
Y2702D01*
X4040Y2761D02*
Y2702D01*
Y2732D01*
X4000D01*
Y2761D01*
Y2702D01*
X3940Y2761D02*
X3980D01*
Y2702D01*
X3940D01*
X3980Y2732D02*
X3960D01*
X3921Y2702D02*
Y2761D01*
X3891D01*
X3881Y2752D01*
Y2732D01*
X3891Y2722D01*
X3921D01*
X3901D02*
X3881Y2702D01*
X3861D02*
Y2761D01*
X3841Y2742D01*
X3821Y2761D01*
Y2702D01*
X3802Y2761D02*
X3782D01*
X3792D01*
Y2702D01*
X3802D01*
X3782D01*
X3712Y2752D02*
X3722Y2761D01*
X3742D01*
X3752Y2752D01*
Y2742D01*
X3742Y2732D01*
X3722D01*
X3712Y2722D01*
Y2712D01*
X3722Y2702D01*
X3742D01*
X3752Y2712D01*
X3693Y2761D02*
X3653D01*
X3673D01*
Y2702D01*
X3603Y2761D02*
X3623D01*
X3633Y2752D01*
Y2712D01*
X3623Y2702D01*
X3603D01*
X3593Y2712D01*
Y2752D01*
X3603Y2761D01*
X3574Y2702D02*
Y2761D01*
X3544D01*
X3534Y2752D01*
Y2732D01*
X3544Y2722D01*
X3574D01*
X3554D02*
X3534Y2702D01*
X3336Y2782D02*
X3376D01*
Y2753D01*
X3356D01*
X3376D01*
Y2723D01*
X3317D02*
Y2763D01*
X3297Y2782D01*
X3277Y2763D01*
Y2723D01*
Y2753D01*
X3317D01*
X3257Y2723D02*
Y2782D01*
X3217Y2723D01*
Y2782D01*
X4825Y1635D02*
X4766D01*
Y1675D01*
Y1694D02*
X4806D01*
X4825Y1714D01*
X4806Y1734D01*
X4766D01*
X4796D01*
Y1694D01*
X4816Y1794D02*
X4825Y1784D01*
Y1764D01*
X4816Y1754D01*
X4806D01*
X4796Y1764D01*
Y1784D01*
X4786Y1794D01*
X4776D01*
X4766Y1784D01*
Y1764D01*
X4776Y1754D01*
X4825Y1853D02*
Y1813D01*
X4766D01*
Y1853D01*
X4796Y1813D02*
Y1833D01*
X4766Y1873D02*
X4825D01*
Y1903D01*
X4816Y1913D01*
X4796D01*
X4786Y1903D01*
Y1873D01*
Y1893D02*
X4766Y1913D01*
X216Y672D02*
X225Y662D01*
Y642D01*
X216Y632D01*
X176D01*
X166Y642D01*
Y662D01*
X176Y672D01*
X225Y721D02*
Y701D01*
X216Y691D01*
X176D01*
X166Y701D01*
Y721D01*
X176Y731D01*
X216D01*
X225Y721D01*
Y781D02*
Y761D01*
X216Y751D01*
X176D01*
X166Y761D01*
Y781D01*
X176Y791D01*
X216D01*
X225Y781D01*
Y810D02*
X166D01*
Y850D01*
X225Y870D02*
Y890D01*
Y880D01*
X166D01*
Y870D01*
Y890D01*
Y919D02*
X225D01*
X166Y959D01*
X225D01*
X216Y1019D02*
X225Y1009D01*
Y989D01*
X216Y979D01*
X176D01*
X166Y989D01*
Y1009D01*
X176Y1019D01*
X196D01*
Y999D01*
X125Y759D02*
Y719D01*
X96D01*
Y739D01*
Y719D01*
X66D01*
Y778D02*
X106D01*
X125Y798D01*
X106Y818D01*
X66D01*
X96D01*
Y778D01*
X66Y838D02*
X125D01*
X66Y878D01*
X125D01*
X116Y937D02*
X125Y927D01*
Y907D01*
X116Y897D01*
X106D01*
X96Y907D01*
Y927D01*
X86Y937D01*
X76D01*
X66Y927D01*
Y907D01*
X76Y897D01*
X160Y1725D02*
X101D01*
Y1765D01*
X151Y1824D02*
X160Y1814D01*
Y1794D01*
X151Y1784D01*
X111D01*
X101Y1794D01*
Y1814D01*
X111Y1824D01*
X160Y1844D02*
X101D01*
Y1874D01*
X111Y1884D01*
X151D01*
X160Y1874D01*
Y1844D01*
D113*
X4036Y2221D02*
X4093D01*
Y2136D01*
X4036D01*
X4093Y2178D02*
X4065D01*
X4008Y2193D02*
X3951Y2136D01*
X3980Y2164D01*
X3951Y2193D01*
X4008Y2136D01*
X3909Y2207D02*
Y2193D01*
X3923D01*
X3895D01*
X3909D01*
Y2150D01*
X3895Y2136D01*
X3852Y2193D02*
Y2136D01*
Y2164D01*
X3838Y2178D01*
X3824Y2193D01*
X3810D01*
X3767D02*
Y2150D01*
X3753Y2136D01*
X3711D01*
Y2193D01*
X3626Y2221D02*
Y2136D01*
X3668D01*
X3682Y2150D01*
Y2178D01*
X3668Y2193D01*
X3626D01*
X3555Y2136D02*
X3583D01*
X3597Y2150D01*
Y2178D01*
X3583Y2193D01*
X3555D01*
X3541Y2178D01*
Y2164D01*
X3597D01*
X3512Y2193D02*
Y2136D01*
Y2164D01*
X3498Y2178D01*
X3484Y2193D01*
X3470D01*
D114*
X1406Y2848D02*
X1293Y2678D01*
Y2848D02*
X1406Y2678D01*
X2817Y2848D02*
X2930D01*
Y2678D01*
X2817D01*
X2930Y2763D02*
X2873D01*
X1914Y2848D02*
Y2820D01*
X1857Y2763D01*
X1801Y2820D01*
Y2848D01*
X1857Y2763D02*
Y2678D01*
X2422Y2848D02*
X2309D01*
Y2820D01*
X2422Y2706D01*
Y2678D01*
X2309D01*
M02*
