M48
;Layer_Color=9474304
;FILE_FORMAT=2:3
INCH,TZ
;TYPE=PLATED
T1F00S00C0.015
T2F00S00C0.024
T3F00S00C0.036
T5F00S00C0.040
T7F00S00C0.090
T8F00S00C0.091
T9F00S00C0.130
%
T01
X144Y401
X343Y443
X873Y430
X918Y89
X1112Y239
X1436Y263
X1707Y344
X1992Y280
X1990Y512
X2117Y72
X2440Y110
X2485
X2530
X2575
X2620
X2665
X2710
Y155
X2665
X2620
X2575
X2530
X2485
X2440
Y200
X2485
X2530
X2575
X2620
X2665
X2710
Y245
X2665
X2620
X2575
X2530
X2485
X2440
Y290
X2485
X2530
X2575
X2620
X2665
X2710
Y335
X2665
X2620
X2575
X2530
X2485
X2440
Y380
X2485
X2530
X2575
X2620
X2665
X2710
Y425
X2665
X2620
X2575
X2530
X2485
X2440
Y470
X2485
X2530
X2575
X2620
X2665
X2710
X2796Y301
X2837Y94
X2290Y544
X3533Y522
X4225Y483
X4448Y243
X4799Y41
X4865Y423
X4540Y733
X4146Y688
X4104Y689
X4010Y746
Y791
X3965
Y746
X3917
Y791
X3872
Y746
Y839
X3917
Y884
X3872
X3965
Y839
X4010
Y884
X3967Y1074
X3839Y1070
X3840Y1027
X3862Y1133
X3704Y1208
X3816Y1529
X4014Y1532
X4162Y1622
X4258Y1690
X4434Y1626
X4433Y1824
X4317Y1874
X4093Y1806
X4094Y2039
X4516Y2024
X4680Y1550
X4864Y1155
X4263Y1038
X4184Y1354
X4185Y1406
Y1457
X3847Y1731
X3705Y1712
X3720Y1834
X3616Y1836
X3604Y1655
X3531Y1589
X3366Y1514
X3361Y1345
X3245Y1330
X3120Y1112
X3064Y951
X2966Y908
X2887Y941
X2972Y1030
X2922Y1248
X2735Y1251
X2591Y1248
X2519Y1250
X2380Y1279
X2329Y1311
X2302Y1343
X2334Y1429
X2196Y1376
X2176Y1143
X2346Y1088
X2178Y764
X2556Y759
X2727Y768
X3248Y856
X3332Y920
X3361Y984
X3403Y986
X3624Y1035
X3595Y887
Y820
X3504Y743
X3538Y1164
X3109Y1655
X2931Y1712
X2894Y1617
X2708Y1731
X2194Y1664
X2322Y1998
X2027Y1736
X1925Y1618
X1818Y1678
X1730Y1688
X1402Y1650
X1115Y1690
X1134Y1556
X1093Y1357
X839Y1332
X903Y1572
X942Y1642
X957Y1720
X697Y1641
X701Y1036
X803Y948
X991Y920
X1048Y872
X1166Y837
X1110Y589
X1620Y692
X1757Y677
X1790Y643
X1822Y711
X1751Y861
X1703Y863
X1768Y933
X1782Y981
X1787Y1024
X1831Y1030
X1898Y1006
X1940Y1005
X1981Y1012
X1967Y1079
X1946Y1115
X2016Y1120
X2043Y1153
X2114Y1245
X2060Y1345
X1983Y1360
X1947Y1342
X1843Y1313
X1765Y1319
X1724Y1319
X1791Y1281
X1593Y1307
X1577Y1151
X1603Y1116
X1585Y1081
X1600Y1043
X1445Y873
X1305Y1284
X1445Y2036
X1057Y2077
X578Y942
X577Y734
X653Y796
X2089Y792
X2038Y959
X499Y1097
X441Y1048
X514Y584
X212Y681
X335Y1872
Y2377
X306Y2541
X111Y2179
X699Y2172
X787Y2153
X898Y2175
Y2431
X1002Y2484
X698Y2436
X753Y2862
X1385Y2562
X1265Y2314
X1815Y2302
X1907Y2567
X2396Y2569
X2322Y2319
X2862Y2317
X2894Y2567
X3190Y2389
X3617Y2454
X3292Y2857
X4025Y2600
Y2530
Y2460
X4095
X4165
Y2530
X4095
Y2600
X4235Y2460
X4421Y2474
X4372Y2551
X4507Y2668
X4672Y2883
X4692Y2188
X4515Y2146
X4421Y2274
T02
X3459Y360
X3755Y505
X4190Y587
X4235Y747
X4234Y926
X4383Y1221
X4530Y1310
X4552Y1390
X4553Y1505
X4387Y1457
X3941Y1261
X3777Y1126
X3522Y980
X3560Y710
X3516Y607
X3868Y2716
T03
X3114Y233
X3212
Y359
X3114
X4693Y388
Y468
Y290
Y566
Y981
Y1079
Y1158
Y1257
T05
X1010Y187
Y387
X3706Y1442
X3806
X3906
X4006
Y1942
X3906
X3806
X3706
X3606
X3506
X3406
X3306
X3118
X3018
X2918
X2818
X2718
X2618
X2518
X2418
X2230
X2130
Y1442
X2230
X2418
X2518
X2618
X2718
X2818
X2918
X3018
X3118
X3306
X3406
X3506
X3606
X2640Y1090
Y990
X2540
Y1090
X2440
Y990
X2030Y1442
X1930
X1830
X1730
X1630
X1530
X1341Y1444
X1241
X1141
X1041
X941
X841
X741
X641
Y1944
X741
X841
X941
X1041
X1141
X1241
X1341
X1530Y1942
X1630
X1730
X1830
X1930
X2030
X503Y1897
Y1997
Y2097
X403
Y1997
Y1897
Y1797
X503
Y1697
X403
Y1597
X503
Y1497
X403
X1200Y2411
X1300
X1400
X1500
X1708
X1808
X1908
X2008
X2216
X2316
X2416
X2516
X2724
X2824
X2924
X3024
X3252Y2574
X3350
T07
X2924Y253
X3398
T08
X4800Y169
Y687
Y860
Y1378
T09
X197Y197
X4238Y263
X197Y2756
X4331
M30
